<?xml version="1.0" encoding="UTF-8"?><svg id="Layer_1" xmlns="http://www.w3.org/2000/svg" viewBox="0 0 280 290.56"><defs><style>.cls-1{fill:#eddec2;}.cls-2{fill:#956727;}.cls-3{fill:#bc985b;}.cls-4{fill:#e5d6b8;}.cls-5{fill:#d7c498;}</style></defs><g id="Emoji"><g id="Scroll"><path class="cls-4" d="M60.74,61.72c-.07,3.33-.21,6.83-.51,10.15-.24,2.56-.72,5.11-1.02,7.67-.17,0-.34,0-.51,0,.92-5.84,1.37-11.75,1.53-17.66.13-.01.33-.17.51-.15Z"/><path class="cls-4" d="M102.84,5.17c-1.78-.14-3.56-.28-5.28-.46l5.28.46Z"/><path class="cls-4" d="M67.56,1.77c-.61-.04-1.16-.09-1.7-.15.54.07,1.3-.18,1.7.15Z"/><path class="cls-3" d="M40.28,201.91c.21-.02.63-.31,1.02-.15.06.19-.28.22-.51.31-.17,0-.34,0-.51,0v-.15Z"/><path class="cls-4" d="M94.32,4.4c-.63-.04-1.13-.09-1.7-.15.54.07,1.3-.18,1.7.15Z"/><path class="cls-4" d="M81.7,3.16c-.63-.04-1.13-.09-1.7-.15.54.07,1.3-.18,1.7.15Z"/><path class="cls-5" d="M210.91,164.27l.17-.46c-.05.22-.16.43-.17.46Z"/><path class="cls-5" d="M211.25,163.18c-.29-.03-.21-.36,0-.46-.03.14.03.33,0,.46Z"/><path class="cls-1" d="M40.28,202.07c.17,0,.34,0,.51,0-1.2.48-2.76.68-4.05,1.04-3.12.89-6.35,1.93-9.16,3.45l-.43,4.41c.03,1.99-.02,3.98,0,5.97.19,13.54,2.17,25.07,7.54,37.68,3.91,9.18,12.83,25.66,25.95,24.59,8.72-.71,13.89-15.5,15.43-22,.38-1.61.6-3.04.85-4.65.56-3.5.8-6.2.85-9.76.03-2.1.11-4.36,0-6.51s-.4-4.37-.68-6.51c-1.05-7.92-3.67-17.53-9.46-23.7-2.81-2.99-5.54-4.44-9.62-2.23-6.72,3.64-8.82,13.11-10.07,19.58-.31-.09-.17-.75-.15-.99.33-3.32,1.97-8.72,3.56-11.72,2.25-4.25,5.75-8.52,11.5-8.21,5.27.28,11.37,1.53,16.73,2.15,42.8,4.87,87,4.2,129.95,1.73,3.66-.21,7.33-.33,10.99-.62,5.18-.41,11.46-1.76,16.45-.7s9.29,4.09,12.7,7.2c.23.21,1.56,1.51,1.61,1.63.15.32-.24.22-.42.23-.9.06-1.83-.05-2.73,0l-2.3.31c1.37.28,5.94.47,6.83,1.15.45.34,1.67,2.25,2.01,2.82,1.33,2.24,2.59,5.07,3.43,7.49l-.94.16H77.87c-.44.1-.77.42-.78.84-.03,1.17.55,3.07.69,4.35.41,3.84.58,7.68.51,11.54-.1,5.63-.74,11.11-2.22,16.58-1.61,5.93-6.56,17.98-13.47,20.14-.83.26-1.59.23-2.39.46-.5-.03-1.03.04-1.53,0-12.56-.94-20.06-13.71-24.28-23.09-6.35-14.08-8.72-29.17-8.28-44.38l.52-6.31c2.74-1.42,5.74-2.45,8.79-3.2,1.43-.35,3.39-.86,4.84-.94Z"/><path class="cls-4" d="M260,235.06v6.35l-.18-.37-.08-3.96c-1,1.06-2.2,1.77-3.63,2.28l-11.63,2.06c-.04.27.39.15.59.15,1.55.05,3.19.11,4.69.15-1.03.11.81.35,1.19.62-.05,0-.37.26-.58.17l-170.65-.02-1.44.32c.07-3.86-.11-7.7-.51-11.54-.14-1.28-.72-3.18-.69-4.35,0-.42.34-.74.78-.84h179.32s.94-.16.94-.16c.98,2.82,1.73,5.78,1.7,8.76l.18.37Z"/><path class="cls-5" d="M260,241.41v.15l-.17.78c-3.34-.59-6.69-.52-10.06-.62-1.5-.05-3.14-.1-4.69-.15-.21,0-.63.12-.59-.15l11.63-2.06c1.43-.51,2.63-1.22,3.63-2.28l.08,3.96.18.37Z"/><path class="cls-5" d="M254.89,258.92c-.36-.12-.72-.15-1.1-.16-17.45-.67-35.34.48-52.84-.15-15.37-.56-30.82-.95-46.21-.31-7.03.29-14.11,1.06-21.12,1.08-19.18.07-38.36-.03-57.54,0,1.48-5.47,2.12-10.94,2.22-16.58l1.44-.32,170.65.02c.21.09.52-.16.58-.17,1.48-.07,6.2,1.83,7.61,2.61.24.13.81.39.89.6,0,.66-.2,1.33-.34,1.97-.84,3.93-2.3,7.79-4.24,11.4Z"/><path class="cls-3" d="M254.89,258.92c-3.13,5.82-9.8,14.76-17.3,15.64-6.9.81-20.02-2.39-27.47-3.38-18.71-2.48-37.46-1.59-56.22-.65-17.7.89-35.42,2.12-52.99,4.21-12.77,1.52-25.47,3.7-38.29,4.78,6.9-2.16,11.86-14.21,13.47-20.14,19.18-.04,38.36.06,57.54,0,7.01-.02,14.09-.79,21.12-1.08,15.38-.64,30.83-.25,46.21.31,17.5.64,35.39-.52,52.84.15.38.01.74.04,1.1.16Z"/><path class="cls-3" d="M51.36,210.74c-1.59,3-3.22,8.4-3.56,11.72-.02.24-.16.89.15.99.61.18,1.81-.14,2.46-.16,2.56-.07,5.13.01,7.68.16l1.28.31c-1.08.21-2.16.4-3.24.62-.17-.3-.59-.12-.85-.08-1.42.19-3.08.54-4.47.9-.65.17-3.17.79-3.34,1.3l-.55,6.16c.09,7.33.05,15.86,4.54,22.22,2.02,2.86,5.58,5.92,9.62,4.82.17.28.62.15.89.11,2.08-.26,4.45-1.05,6.58-1.46,2.49-.48,5-.87,7.53-1.13-1.53,6.49-6.71,21.28-15.43,22-13.11,1.07-22.04-15.41-25.95-24.59-5.37-12.61-7.35-24.14-7.54-37.68l11.32.12c.23-.06.31-.22.4-.39.72-1.48,1.09-3.39,1.89-4.94.43-.84.53-1.21,1.64-1.3,2.22-.18,5.93-.12,8.2,0,.32.02.64-.03.76.32Z"/><path class="cls-2" d="M77.1,229.8c-1.28-.03-2.56.04-3.84,0-.22,0-.44-.16-.51-.16h-3.41c-1.37,0-2.91-.15-4.35-.15-2.15-.01-3.3-.51-5.05,1.14-3.37,3.17-2.94,10.83.79,13.73-.29-.88-1.08-1.6-1.51-2.42-1.63-3.08-1.69-7,.23-9.98,1.54-2.39,4.18-3.15,6.65-1.23,3.25,2.53,3.46,9.38,3.67,13.01,0,.15.11.14.25.16,1.02.12,2.35-.06,3.43-.01.69.03,1.39.28,2.12.16l-2.47.62c-.08.03-.1.08-.09.15-1.07.14-2.28.33-3.24.77-.07.03-.31-.09-.35.1-.26,3.35-1.14,6.8-3.19,9.62-2.72,3.75-6.94,5.87-11.29,2.6-7.8-5.86-7.73-18.43-7.33-26.8.07-1.44.02-2.9.17-4.34,0-.21.11-.26.29-.36.44-.24,2.19-.66,2.82-.84,1.73-.49,3.47-.84,5.24-1.2,1.08-.22,2.16-.42,3.24-.62l-1.28-.31c-2.55-.15-5.12-.23-7.68-.16-.65.02-1.86.34-2.46.16,1.25-6.48,3.35-15.95,10.07-19.58,4.08-2.21,6.81-.76,9.62,2.23,5.79,6.17,8.41,15.78,9.46,23.7Z"/><path class="cls-3" d="M77.78,242.81c-.05,3.56-.3,6.26-.85,9.76h-8.52c.36-.79.76-2.21.97-3.07.3-1.23.47-2.49.57-3.75.75.05,2.36-.78,3.24-.78-.03-.07-.17-.13-.17-.15,0-.07,0-.12.09-.15l2.47-.62c-.73.12-1.44-.13-2.12-.16-1.08-.05-2.4.13-3.43.01-.14-.02-.26,0-.25-.16.54.13.33-.49.34-.93h7.67Z"/><path class="cls-3" d="M77.1,229.8c.28,2.14.57,4.36.68,6.51h-8.35c-.46-2-1.22-4.11-2.72-5.66l-1.71-1.16c1.43,0,2.98.15,4.35.15h3.41c.06,0,.28.15.51.16,1.28.04,2.57-.04,3.84,0Z"/><path class="cls-2" d="M76.93,252.57c-.26,1.61-.47,3.04-.85,4.65-2.53.26-5.04.65-7.53,1.13-2.13.41-4.5,1.2-6.58,1.46-.27.03-.72.16-.89-.11,3.15-.86,6.12-4.43,7.33-7.13h8.52Z"/><path class="cls-5" d="M77.78,236.3c.11,2.14.03,4.41,0,6.51h-7.67c.06-2.08-.22-4.47-.68-6.51h8.35Z"/><path class="cls-4" d="M235.63,76.9c-.58,13.93-3.22,26.5-7.5,39.81-.31-.15.04-.89-.42-.77-.37.1-1.3.82-1.74,1.05-8.97,4.73-18.91,7.02-29.2,8.09-.04.27.39.15.59.15.77.03,1.63.03,2.4,0,2.04-.06,4.2-.28,6.21-.47-.1.47.26.3.59.31,1.2.04,2.43-.13,3.61.14,3.07.11,7.23-.59,10.19-.28,1.62.17,3.44,1.11,3.85,2.62-3.45,9.19-7.6,18.33-10.74,27.57-1.19.66-2.19,1.6-3.36,2.29-2.98,1.78-6.48,2.69-9.9,3.55-1.8.45-3.66.88-5.49,1.13-.01.29-.08.32.26.31.4,0,1.3-.1,1.71-.15,2.8-.37,6.07-1.07,9.05-1.39.32-.03.62,0,.91-.02,1.72-.14,3.4-.2,5.11,0,.21.18-.44,1.58-.51,1.86-.21.1-.29.43,0,.46-.05.21-.12.41-.17.62l-.17.46c-.04.18.04.44,0,.62l-.17.15c-.04.18.04.43,0,.62l-.93.16H46.84c-3.21.06-4.83.27-7.6,1.91-1.33.79-4.31,3.1-5.09,4.28l1.69-6.56,4.87-1.18-.42-.15c1.19-.19,2.36-.46,3.58-.47l-1.45-.31h-1.28c.77,0,1.69-.21,2.64-.15,4.49.28,8.94.1,13.46.32.23.01,1.07.11,1.12-.16-4.56-.45-9.35-.63-13.84-1.44-3.28-.59-5.24-1.53-6.28-4.6,5.82-17.75,12.78-35.8,16.96-53.91.62-2.68,1.08-7.48,2.04-9.76.31-.73,1.45-2.14,1.99-2.84,4.88-6.25,10.07-8.27,17.78-10.8.58-.19,3.69-.96,3.84-1.08.44-.37-.67-.31-.76-.31-1.67.09-3.67.54-5.37.77-.12-.36-.44-.3-.76-.32-4.8-.29-9.55.45-14.24.47l.77-6.2c3.99,1.17,7.64,3.37,11.92,3.57h163.22Z"/><path class="cls-1" d="M65.85,1.61c.55.06,1.1.11,1.7.15,4.17.29,8.36.75,12.44,1.24.57.07,1.08.11,1.7.15,3.65.25,7.34.66,10.91,1.08.57.07,1.08.11,1.7.15,1.11.08,2.2.2,3.24.31,1.72.18,3.5.33,5.28.46,10.53.81,21.07,1.68,31.63,2.01,12.84.4,25.71.15,38.51-.61,9.56-.57,19.47-1.92,28.97-2.17,16.56-.44,23.7,11.84,27.88,24.48.11.47-.26.26-.54.35-6.65,2.18-12.26,2.76-19.17,3.81-.3.05-.61.02-.91.02-.13.59.58.16.94.15,3.09-.06,7.7-.03,10.43-.77.9-.24,1.82.02,2.43,0l-.85.15,9.03.32c1.75,6.85,2.98,13.82,3.76,20.83.04.38-.04.78,0,1.16l.17.15c.03.25-.02.52,0,.77l-.17.08.17.08c.02.25-.02.52,0,.77l.17.15c.05.61-.05,1.25,0,1.86l.17.15c.02.31-.02.62,0,.93l-.17.08.17.08c.02.36-.02.73,0,1.08l.17.15c.11,1.89.13,3.84.17,5.73l-.17.08.17.08c.05,2.31.05,4.66,0,6.97l-.17.08.17.08c-.02.89-.13,1.78-.17,2.63H72.41c-4.28-.19-7.94-2.4-11.92-3.56l-.77,6.2c-.17,0-.34,0-.51,0,.3-2.56.78-5.1,1.02-7.67.31-3.31.45-6.82.51-10.15.04-1.8.03-3.62,0-5.42-.01-.88-.17-1.95-.17-2.71v-4.03c0-.78-.29-2.05-.34-2.87-.28-4.22-.61-8.35-1.19-12.55-.25-1.77-.55-3.51-.85-5.27s-.56-3.52-.93-5.27c-.55-2.58-1.67-5.59-2.07-8.05-.03-.16-.13-.32,0-.48.29-.35,4.36-.04,5.13-.15,2.22.22,4.46.23,6.69.43.19.02.58.18.55-.11-2.11-.62-4.25-1.18-6.44-1.51-2.33-.34-4.72-.34-7.02-.75-.11-.35-.54-.61-.68-.81-.67-.91-1.11-1.96-1.84-2.94-4-5.39-12.76-11.26-20.03-7.45-5.53,2.9-7.3,8.96-8.98,14.15.23.05.46.16.68.23-.38-.02-1.21.14-1.35-.25-.24-.7,2.06-6.55,2.57-7.55C27.05,3.28,30.3.68,36.53.22c.81-.06,1.8-.13,2.56-.15,8.74-.31,18.14.59,26.76,1.55Z"/><path class="cls-5" d="M209.55,206.4c-42.95,2.48-87.15,3.14-129.95-1.73-5.36-.61-11.46-1.86-16.73-2.15-5.76-.31-9.25,3.95-11.5,8.21-.12-.35-.44-.3-.76-.32-2.27-.12-5.98-.18-8.2,0-1.11.09-1.21.46-1.64,1.3-.8,1.55-1.17,3.46-1.89,4.94-.09.18-.17.34-.4.39l-11.32-.12c-.03-1.99.03-3.98,0-5.97l.43-4.41c2.81-1.52,6.04-2.56,9.16-3.45,1.29-.37,2.85-.56,4.05-1.04.23-.09.57-.12.51-.31-.39-.16-.82.13-1.02.15-4.18.43-8.44.6-12.61,1.08,1.97-9.66,3.06-19.79,5.88-29.28.17-.58.25-1.18.6-1.7.78-1.18,3.77-3.49,5.09-4.28,2.77-1.64,4.39-1.85,7.6-1.92h162.97s.93-.15.93-.15c-2.41,11.79-3.07,23.72-1.87,35.71.17,1.68.49,3.36.68,5.04Z"/><path class="cls-1" d="M74.72,79.38c1.7-.23,3.7-.68,5.37-.77.09,0,1.2-.06.76.31-.15.12-3.26.89-3.84,1.08-7.7,2.53-12.89,4.55-17.78,10.8-.54.7-1.68,2.11-1.99,2.84-.96,2.28-1.43,7.08-2.04,9.76-4.18,18.11-11.15,36.16-16.96,53.91-.64,1.95-1.31,3.89-2.04,5.81.4.16.93.05,1.36.08l-2.22.15c5.22-17.69,12.41-34.95,16.96-52.82,2.36-9.26,4.15-18.64,5.91-28.01,5.36-1.56,10.95-2.37,16.5-3.13Z"/><path class="cls-5" d="M205.97,124.77c-2.02.19-4.17.41-6.21.47-.77.02-1.63.02-2.4,0-.21,0-.63.12-.59-.15,10.29-1.06,20.23-3.35,29.2-8.09.44-.23,1.37-.96,1.74-1.05.46-.12.11.62.42.77-.49,1.53-.76,3.13-1.53,4.58-4.87.61-9.79,1.22-14.5,2.55-2.01.26-4.02.73-6.14.93Z"/><path class="cls-1" d="M40.28,164.11l.42.15-4.87,1.18-1.69,6.56c-.35.52-.43,1.13-.6,1.7-2.81,9.49-3.91,19.62-5.88,29.28-.33.04-.54.02-.77.31-.13.02-.1-.14-.09-.23.85-8.63,3.12-18.54,5.2-27.03.31-1.28,2.58-10.55,3.09-10.86.21-.13.52.03.63,0,1.53-.41,2.81-.79,4.55-1.07Z"/><path class="cls-5" d="M38.24,157.3c1.04,3.07,2.99,4,6.28,4.6,4.49.81,9.28,1,13.84,1.44-.05.27-.89.17-1.12.16-4.52-.22-8.97-.03-13.46-.32-.95-.06-1.87.15-2.64.15-1.25,0-2.35-.08-3.58-.15-.44-.03-.96.08-1.36-.08.73-1.92,1.41-3.86,2.04-5.81ZM39.43,163.03v.16s1.53,0,1.53,0v-.16s-1.53,0-1.53,0Z"/><path class="cls-1" d="M212.1,123.84c4.42-.57,9.2-.74,13.64-.46.25.22-1.33,3.65-1.53,4.18-.42-1.51-2.24-2.44-3.85-2.62-2.96-.32-7.12.39-10.19.28-1.17-.27-2.4-.1-3.61-.14-.33-.01-.68.16-.59-.31,2.12-.2,4.13-.67,6.14-.93Z"/><path class="cls-4" d="M229.83,28.87c.14.41,1.09,2.53.85,2.78-2.54.23-5.11.68-7.66.78-.62.03-1.53-.24-2.43,0-2.73.74-7.34.7-10.43.77-.36,0-1.07.43-.94-.15.3,0,.61.03.91-.02,6.91-1.05,12.51-1.63,19.17-3.81.28-.09.65.12.54-.35Z"/><path class="cls-5" d="M213.47,155.13c-.21.62-.98,3.92-1.23,4.15-1.84.57-3.83.8-5.59,1.58-.29.02-.59-.01-.91.02-2.98.31-6.25,1.02-9.05,1.39-.41.05-1.32.15-1.71.15-.34,0-.27-.02-.26-.31,1.83-.25,3.69-.68,5.49-1.13,3.42-.86,6.92-1.77,9.9-3.55,1.17-.7,2.17-1.64,3.36-2.29Z"/><path class="cls-5" d="M235.63,61.25l-.17-.15s.16.04.17.15Z"/><path class="cls-4" d="M235.8,67.14l-.17-.08.17-.08c0,.05,0,.1,0,.15Z"/><path class="cls-5" d="M235.46,60.01l-.17-.08.17-.08c0,.05,0,.1,0,.15Z"/><path class="cls-5" d="M235.46,58.93l-.17-.15s.16.04.17.15Z"/><path class="cls-4" d="M235.8,74.26l-.17-.08.17-.08c0,.05,0,.1,0,.15Z"/><path class="cls-5" d="M235.29,56.91l-.17-.15s.16.04.17.15Z"/><path class="cls-5" d="M210.74,165.04l.17-.15c-.03.12-.17.14-.17.15Z"/><path class="cls-5" d="M235.12,55.98l-.17-.08.17-.08c0,.05,0,.1,0,.15Z"/><path class="cls-5" d="M235.12,55.06l-.17-.15s.16.04.17.15Z"/><rect class="cls-4" x="40.12" y="162.34" width=".16" height="1.53" transform="translate(-122.92 203.25) rotate(-89.98)"/><path class="cls-1" d="M56.14,224.37c-1.77.36-3.51.7-5.24,1.2-.63.18-2.38.6-2.82.84-.17.1-.28.15-.29.36-.15,1.44-.1,2.89-.17,4.34-.4,8.38-.47,20.94,7.33,26.8,4.35,3.27,8.57,1.15,11.29-2.6,2.05-2.82,2.94-6.27,3.19-9.62.03-.19.28-.06.35-.1.07.03.15.15.17.15-.09,1.25-.27,2.52-.57,3.75-.21.86-.61,2.28-.97,3.07-1.21,2.69-4.18,6.26-7.33,7.13-4.04,1.11-7.6-1.95-9.62-4.82-4.49-6.36-4.45-14.9-4.54-22.22l.55-6.16c.17-.51,2.69-1.13,3.34-1.3,1.39-.36,3.04-.71,4.47-.9.26-.03.68-.22.85.08Z"/><path class="cls-4" d="M65,229.49l1.71,1.16c1.5,1.55,2.27,3.66,2.72,5.66s.74,4.43.68,6.51c-.01.43.2,1.06-.34.93-.21-3.63-.41-10.48-3.67-13.01-2.46-1.92-5.11-1.15-6.65,1.23-1.92,2.98-1.87,6.9-.23,9.98.44.82,1.22,1.54,1.51,2.42-3.73-2.9-4.16-10.56-.79-13.73,1.75-1.65,2.9-1.15,5.05-1.14Z"/><path class="cls-4" d="M73.01,244.82s.15.09.17.15c-.88,0-2.49.83-3.24.78-.02,0-.1-.13-.17-.15.96-.44,2.17-.63,3.24-.77Z"/><path class="cls-2" d="M23.24,16.17c-.22-.07-.45-.18-.68-.23,1.68-5.19,3.45-11.25,8.98-14.15,7.27-3.81,16.03,2.06,20.03,7.45.73.98,1.17,2.02,1.84,2.94.14.2.57.46.68.81,2.3.41,4.69.41,7.02.75,2.19.32,4.33.88,6.44,1.51.03.29-.36.13-.55.11-2.23-.19-4.47-.21-6.69-.43-.77.12-4.85-.2-5.13.15-.13.16-.03.31,0,.48.39,2.46,1.51,5.46,2.07,8.05.37,1.75.63,3.51.93,5.27l-18.07-1.7c-2.93-1.11-4.79.04-6.65,2.01s-3.2,4.71-3.75,7.28c-.72,3.39-.38,6.99.94,10.23.25.02.41-.17.42-.38.01-.44-.79-2.59-.94-3.34-.44-2.26-.6-4.25-.08-6.51s1.93-5.45,3.58-7.13c3.19-3.24,6.93-2.41,9.52.88,3.43,4.36,4.46,10.48,2.92,15.62,0,.15.35.07.51.08,1.3.07,2.98.31,4.18.31h2.56c.15,0,1.07.21,1.28.31-2.84.25-5.71.54-8.53,1-.68,2.13-1.14,4.37-2.04,6.43-3.41,7.78-10.98,15.77-17.76,5.06-4.57-7.21-4.89-17.9-5.43-26.05,0-.22.11-.26.29-.36.74-.41,2.73-.63,3.64-.96l-1.7-.15c-.74,0-1.48.01-2.22,0,.05-3.58.04-7.37.71-10.9.09-.49.31-1.78.49-2.15.16-.32,3.42-.39,4.09-.43,1.07-.06,2.16-.09,3.24-.15.99-.06,2.21-.05,3.16-.15.26-.03.53-.03.59-.31-3.32-.23-6.57-1.03-9.89-1.24Z"/><path class="cls-2" d="M60.74,56.29c.03,1.8.04,3.62,0,5.42-.18-.01-.38.14-.51.15-5.91.63-11.88.73-17.76,1.59-2.86.42-5.35,1.18-8.32,1.19,4.7-1.13,7.47-4.87,9.38-8.68l17.22.31Z"/><path class="cls-1" d="M23.07,31.51l1.7.15c-.9.33-2.9.55-3.64.96-.17.1-.29.14-.29.36.54,8.16.86,18.84,5.43,26.05,6.77,10.71,14.35,2.72,17.76-5.06h.34c-.28.69-.52,1.34-.85,2.01-1.9,3.8-4.67,7.54-9.38,8.68-2.1,0-2.89-.03-4.66-1.11-4.55-2.8-6.77-9.52-7.73-14.19-1.15-5.56-1.67-11.32-1.6-16.98l2.91-.86Z"/><path class="cls-1" d="M26.13,17.88v.15c-.67.04-3.93.1-4.09.43-.18.37-.39,1.66-.49,2.15-.67,3.53-.66,7.32-.71,10.9-.23,0-.45.01-.68,0-.5-4.47.17-9.01,1.17-13.39.17-.23,4.18-.22,4.79-.24Z"/><path class="cls-5" d="M23.24,16.17c3.32.21,6.57,1.02,9.89,1.24-.06.28-.34.29-.59.31-.95.09-2.16.09-3.16.15-.19-.26-.7-.15-1.02-.15l3.24-.31c-2.6-.49-5.9-.49-8.35-1.24Z"/><path class="cls-4" d="M28.35,17.72c.32,0,.84-.11,1.02.15-1.07.06-2.16.09-3.24.15v-.15c.73-.03,1.39-.17,2.22-.15Z"/><path class="cls-4" d="M39.09.06c-.76.03-1.75.1-2.56.15.71-.35,1.75-.07,2.56-.15Z"/><path class="cls-5" d="M59.03,34.14c.58,4.2.92,8.33,1.19,12.55-1.37-.01-2.71-.23-4.09-.15-.4-.39-1.09-.04-1.53,0-.2-.1-1.13-.31-1.28-.31h-2.56c-1.19,0-2.87-.24-4.18-.31.87-3.86.9-8.15-.51-11.93l12.95.15Z"/><path class="cls-3" d="M56.14,46.53c1.38-.07,2.72.14,4.09.15.05.81.34,2.09.34,2.87v4.03c0,.76.16,1.83.17,2.71l-17.22-.31c.34-.67.57-1.33.85-2.01.82-2,1.47-4.04,2.05-6.12.2-.11.42-.15.64-.19,2.28-.47,6.72-1,9.07-1.13Z"/><path class="cls-3" d="M58.18,28.87c.31,1.76.61,3.49.85,5.27l-12.95-.15c-.88-2.34-3.38-5.84-5.97-6.82l18.07,1.7Z"/><path class="cls-1" d="M40.11,27.17c2.59.98,5.09,4.47,5.97,6.82,1.41,3.78,1.39,8.06.51,11.93-.16,0-.52.07-.51-.08,1.54-5.14.5-11.26-2.92-15.62-2.59-3.29-6.33-4.11-9.52-.88l-.17-.15c1.86-1.97,3.71-3.12,6.65-2.01Z"/><path class="cls-4" d="M56.14,46.53c-2.36.12-6.79.65-9.07,1.13-.22.05-.44.09-.64.19-.58,2.08-1.23,4.12-2.05,6.12h-.34c.9-2.06,1.36-4.3,2.04-6.43,2.82-.47,5.69-.75,8.53-1,.45-.04,1.13-.39,1.53,0Z"/><path class="cls-1" d="M30.06,36.47c-.52,2.26-.36,4.25.08,6.51.15.75.95,2.89.94,3.34,0,.21-.17.4-.42.38-1.32-3.23-1.66-6.84-.94-10.23h.34Z"/><path class="cls-4" d="M33.64,29.34c-1.65,1.68-3.07,4.93-3.58,7.13h-.34c.55-2.57,1.89-5.31,3.75-7.28l.17.15Z"/></g></g></svg>