<svg xmlns="http://www.w3.org/2000/svg" id="Layer_1" viewBox="0 0 280 280">
  <defs>
    <style>
      .st2{fill:#2d4f1a}.st14,.st15{fill:#427128}.st28{fill:#fff}.st42{fill:#1c3012}.st52{fill:#8e908d}.st15{stroke:#1c3012;stroke-miterlimit:10;stroke-width:.75px}
    </style>
  </defs>
  <path d="M72.67 46.43c1.73-1.8 3.55-3.52 5.45-5.14 3.81-3.26 7.93-6.16 12.26-8.67 9.77-5.68 20.72-9.54 31.96-10.83 29.3-3.39 36.74 21.04 50.78 43.9 7.84 12.78 16.98 23.49 26.82 34.17 28.87 7.39 39.04 35.72 46.43 64.78 1.21 4.74 2.85 10.47 3.64 15.21.45 2.44 9.24 31.71 10.19 34.02 2.05 4.95 4.78 10.32 7.65 14.74l-.04.06c3.88 6.01 18.65 20.55 8.94 27.66-5.11 3.73-17.93 1.79-24 .84-39.62-6.07-68.3-33.07-104.19-49.2-29.43-13.23-60.86-18.62-92.42-19.82-5.51-.22-13.72 1.2-18.46-1.83-7.87-5.05-9.59-18.42-9.01-27.77.11-1.75 1.25-6.42 1.08-7.54-.15-.87-2.69-5.33-3.27-6.77-6.51-16.52.64-27.64 14.8-32.53.81-.3 2.78-.37 3.14-1.18.81-6.17 1.92-12.31 3.47-18.35.77-2.99 1.64-5.95 2.63-8.88.5-1.45 1.02-2.9 1.58-4.33.26-.67.46-1.16.48-1.89.01-.34-.03-.67-.04-1-3.41-2.26-6.97-3.49-10.96-2.67-.52-.56 2.5-5.11 2.22-5.39-14.59 1.55-29.39-7.3-43.63-1.9-.32-.13-.11-.69 0-.94 1.38-3.06 6.64-7.85 9.24-9.79 10.6-7.82 23.51-9.58 35.87-7.94 1.92.25 4.33 1.22 6.16 1.24 1.3.03 2.91-.58 4.21-.64 1.53-.09 13.42.82 14.31 1.26z" class="st14"/>
  <g id="ROBIN4" data-name="ROBIN">
    <path d="M274.7 244.59c-.13-.32-1.29-2.52-1.72-2-.22.26 2.41 4.07.39 6.64-1.53 1.94-7.97 2.03-10.3 1.92-15.53-.75-30.74-7-45.31-12.52l-18.96-8.7c-.15.84.19.56.54.78 4.72 3.15 11.48 6.55 16.55 9.09 13.77 6.87 31.52 13.57 46.6 14.22 4.98.22 16.33-.41 12.17-9.41h.04ZM31.41 143.38c-.41-.6-1.7-3.32-1.85-3.45-1.14-1.14.02 2.24.13 2.54 1.9 5 5.52 8.92 7.04 13.85.95 3.06 1.12 5.67 1.44 8.81.04.47.06.99.56 1.1.47-4.24.54-8.4-.9-12.43-1.38-3.9-4.29-7.13-6.46-10.41l.04-.02Zm59.22-38.13c.04-.22.28-.15.28-.15-.17-.56-7.6-5.24-8.85-6.25-1.77-1.44-5.49-5.92-7.24-6.36-5.92-1.44-6.87-2.11-11.5-6.42-2.03.6-3.9.26-5.84 1.44-3.47 2.13-4.67 8.25-5 12.37-.54 6.94.95 10.41 7.15 11.74 4.07.88 8.57.99 12.71 1.72 6.2 1.08 12.34 2.89 18.51 3.99 6.61 1.18 7.43-.75 3.75-6.81-1.16-1.92-2.67-3.49-3.96-5.32v.04Z" class="st14"/>
    <path d="M203.74 199.67c.22.17.43.37.65.56l.3.26c.43.39.88.8 1.29 1.21h.06l35.31 33.74c3.86 2.82 7.65 5.36 12.19 7.95.28.15.8.41 1.44.71l-1.55-1.55 2.5.95c0-.52-.75-.52-.82-.62-1.1-1.42 2.13.41 2.22.32.58-.6-1.12-.65-.56-1.25.13-.15.99.45 1.12.32.56-.62-1.12-.67-.56-1.27.11-.13.75.41.82.32.04-.06-.09-.47.04-.69.15-.28.47-.32.52-.5.13-.71-.28-1.77.28-2.31.39.41 2.15 2.43 2.37 2.52.34.15.56-.09.41-.47-.22-.56-2.18-2.35-2.74-3.21-.43-.69-.86-1.44-1.27-2.24-.15-.22-.26-.39-.34-.47-11.63-16.44-15.73-32.72-20.57-54.48-1.25-3.43-2.13-7.71-3.23-11.18-7.35-23.22-18.81-44.68-33.05-63.21-10.04-13.08-20.34-22.86-29.26-37.42-9.93-16.2-19.17-40.63-38.5-43.37-12.54-1.79-36.09 5.52-46.43 13.94l-.56.32c-.41.39-.73.84-1.12 1.27-1.92 2.07-4.22 4.72-5.99 6.98-1.03 1.29-2.35 2.84-2.93 4.44 7.35 2.48 17.36 7.82 23.59 12.8 1.94 1.55 4.31 4.52 6.18 5.8 1.64 1.12 3.96 1.72 5.73 2.67 11.98 6.55 18.2 15.02 26.39 26.09.67.9 1.55 1.62 2.09 2.67l-.71-3.79c1.81.84 3.38 1.83 5.04 2.97 6.42 4.42 12.8 11.44 16.59 18.87 1.85 3.62 3.83 7.52 5.47 11.53.45 1.12 2.2 6.96 2.46 7.2.09.06.5-.09.56 0s-.04.69 0 .95c0 .11-.02.22 0 .32.62-.09 1.25 1.79 1.44 2.31 1.31 3.45 3.53 12.17 5.8 14.33.34.32.8.45 1.12.78l3.34-.65-1.12 2.22c-1.59 8.94 2.97 16.55 7.8 22.97.11.71-.28.43-.69.47-1.44.11-3.12-.54-2.54.88.86.84 1.66 1.94 2.63 3.08l15.1 12.65c.52.41 1.03.84 1.55 1.29l.13.04ZM89.23 43.93c-.15-.93.24-.52.6-.71.47-.26 3.43-1.96 3.58-1.81.65.71-3.71 2.48-4.18 2.54zm80.02 31.85c-.39-.22-1.06-.11-1.12-.15-.04-.04.41-.65.15-1.25-.06-.15-1.7-2.33-1.81-2.41-.93-.58-1.1.84-1.96.82-.22-.71 1.1-1.49 1.1-1.75 0-.13-.67-.69-.84-.95-.17-.28-.22-.73-.26-.8-.13-.15-1.18-1.25-1.25-1.25-.19 0-.69 1.18-1.25.95 1.64-2.59-2.24-4.83-3.21-6.98l-1.25.95c-.37-.52 2.11-3.51-2.24-2.84.04-.69 1.01-.54 1.1-.65.62-.86-3.81-5.88-4.16-7.13l-1.4.19c.86-2.89-.22-2.35-2.22-2.84 0-.58 1.01-.28 1.38-.32-1.12-2.05-2.61-4.61-4.05-6.36-.47-.58-.97-1.38-1.81-1.27-.34.28-.67.71-1.12.65 1.83-3.27-.43-2.46-2.5-3.49.04-.71 1.08 0 1.4 0-1.34-1.72-3.21-2.82-5.02-3.79-.06.47-.04 1.77-.56 1.9.22-1.01-.13-1.75-.28-2.54-.3-1.55-.19-2.39-1.68-.62-.15-.09-.6.04-.82 0-.13.3.3.82-.56.62l.28-.95c-.8.34-2.15-.65-2.65-.65h-5.99l.28 1.92c-.82.09-.8-.58-.84-1.27-1.62-1.64-2.97.28-3.08 2.22-.88-.34-.5-1.49-.26-2.22-1.62.22-3.45 1.1-4.98 1.21-.43.02-.54-.26-.6-.26h-.56c-.67 0-.97-.22-.84.65-.04.02-.02.9 0 .95h-.28c-1.4-1.51-1.57.28-1.96.62-.54.47-.56-.5-.6-.54-.86-.65-2.99.95-4.14.54v1.27c-.67-.75-6.12 1.08-6.33 1.34-.22.24-.26 1.42-.34 1.83l-.28-1.27c-.52.02-3.49.8-3.62.95-.09.09.47 1.75.28 2.22-.56-.15-.26-1.38-.82-1.77-.5-.34-1.18.47-1.66.34.26-.95.69-.65 1.01-.9.15-.11.06-.52.09-.54.09-.06.43.09.56 0 1.01-.56 3.25-1.27 4.01-1.94.75-.67.78-2.22 1.85-2.18l-.41 1.57 3.77-1.59c.13-.37-1.4-.73-.82-1.25.17-.17 1.31.71 2.07.62.65-.09 2.91-1.16 3.73-1.51.5-.19 1.38.15.8-.95 0-.04-1.01-.19-.47-.71.47-.45 3.06 2.84 2.8-1.57.62 0 .47 1.81.56 1.9.3.37 6.44-1.87 7.52-1.57.34-.71-1.42-1.01-.84-1.57.47-.45 1.64.95 2.09.95.75 0 1.87-1.85 2.78-1.9l-.97 1.57c3.75-.43 7.37-.6 11.01.65l-.13-1.9c.84.73 1.23 2.13 1.66 2.39.39.22 2.37-.47 3.06-.17l-1.68.8c2.43 1.64 4.7 3.47 6.83 5.54.43-.04.73-2.33.69-2.84-.56-1.06-.69-1.08-1.59-1.83-2.91-2.48-5.56-3.4-9.01-4.18v.3s-.19-.19-.28-.3c-8.96-1.92-17.49-.04-26.22 2.37-2.99.82-5.9 2-8.92 2.71-.15-.9.22-.52.6-.71 14.43-7.54 35.5-12.37 48.32 1.06 4.96 5.19 13.96 19.3 16.76 26.26.19.47.26.78-.3.65-4.37-6.25-8.14-13.08-12.69-19.15-1.4-1.85-3.38-4.55-5-6.03-.43-.41-.8-.75-1.4-.78.34 1.12-.11 3.34 0 3.49.11.11 2.48.19 2.78 1.12.15.86-1.01-.02-1.31-.11-.34-.09-.86-.19-.62.41.09.26 2.07 2.56 2.5 3.19.45.67 2.59 4.29 2.78 4.44.99.73.58-1.31 1.12-1.44.09.54-.11 3.04 0 3.17.11.11 2.2-.06 2.5 1.12l-1.38-.34-.58.34 4.74 7.93.28-1.12c.97.26.34 2.05.6 2.5.15.26 1.94.28 2.2 1.14h-1.66l3.08 5.21c.95.24.52-1.12 1.1-1.27-.02 1.55-.37 2.09.28 3.49l.28.32c.15.22.22.56.28.62.04.06.39.02.54.19.32.34.62 1.25.99 1.29.39.04 1.23-.75 1.81-.54.22 1.01-1.03.84-1.1.97-.47.62 1.57 3.15 2.07 3.49.62.43 1.34.15 1.83.78-1.51.6.47 1.44.28 2.67-.8-.34-1.25-1.64-1.96-2.05l-.02-.09Zm17.7 16.63c1.96 2.28 4.14 4.39 6.12 6.68 12.28 14.24 23.74 32.66 31.17 50.78 10.13 24.78 13.68 51.68 24.39 76.2.32.78 1.31 2.15 1.49 2.76.11.43-.04.56-.41.47-4.44-6.72-7.97-14.24-10.75-22.02-.71-2.03-.9-3.71-1.94-5.54-.3-.56.22-.88-1.4-.65.15-.93 1.27-1.55 1.4-2.37.13-.78-.65-.45-1.12-.47l-5-17.28c-9.01-32.29-23.35-60.34-42.53-86-.37-.47-2.61-2.43-1.4-2.52z" class="st14"/>
    <path d="M267.14 231.97c-.09-.11-.15-.24-.24-.37-2.69-4.14-6.74-14.63-10.49-25.14-3.1-8.7-5.99-17.43-7.73-22.56-.28-.82-.52-1.55-.73-2.15h-.04s-.04-.19-.06-.28v-.02c-.06-.22-.11-.45-.15-.67 0-.02 0-.06-.02-.09l-.45-1.87c-.24-.99-.45-2-.69-3.02-.37-1.62-.71-3.23-1.08-4.85-.06-.32-.13-.67-.22-.99-.04-.22-.09-.41-.15-.62-.09-.41-.17-.82-.28-1.21-.15-.67-.3-1.34-.47-2-.11-.47-.24-.97-.37-1.44-.15-.62-.32-1.25-.47-1.87-.24-.86-.47-1.72-.73-2.59-2.87-9.5-10.21-26.56-16.85-33.13-2.2-2.18-7.6-6.94-6.94-.02.28 2.95 5.71 11.83 7.26 15.17 6.08 12.95 9.59 25.77 13.9 39.51 1.31 4.2 3.32 8.51 4.33 12.67.26 1.08.41 1.83.37 2.61.26.71.52 1.42.78 2.15.22-.02.39 0 .41 0 .06.06-.02.6-.02 1.01.06.17.13.34.19.52.13.09.3.13.37.28.09.26.24.93.34 1.57v.04c.47 1.29.95 2.54 1.42 3.81h-.37c2.15 7.39 4.35 14.87 7.28 21.91.75 1.81 1.64 4.05 2.65 6.05.41.82.82 1.57 1.27 2.24.56.88 2.52 2.65 2.74 3.21.13.39-.09.62-.41.47-.22-.09-1.98-2.11-2.37-2.52-.58.54-.15 1.59-.28 2.31-.04.17-.37.22-.52.5-.11.19 0 .62-.04.69-.06.11-.71-.45-.82-.32-.56.6 1.12.65.56 1.27-.13.13-.99-.45-1.12-.32-.56.6 1.12.65.56 1.25-.09.11-3.32-1.75-2.22-.32.09.11.84.11.82.62l-2.5-.95 1.55 1.55.67.67c.82.43 4.83 2.03 5.02 2.22.43.52-.06.67-.58.52-13.68-4.39-27.49-14.41-38.58-24.28-5.92-5.26-11.68-10.97-17.15-16.78 1.4-.32 2.35-.19 3.12.22 1.25.65 2.05 1.98 3.43 3.27 2.59 2.43 5.15 4.85 7.73 7.22.39.34.75.69 1.12 1.01 7.37 6.74 14.84 13.1 23.05 18.7l-1.49-1.42-35.31-33.74h-.06c-.41-.41-.86-.82-1.29-1.21l-.3-.26c-.22-.19-.43-.39-.65-.56-.52-.43-1.03-.86-1.55-1.29l-15.1-12.65h-.02c-.28-.22-.56-.47-.84-.71l-.06-.04c-.41-.39-.82-.78-1.14-1.29-.28-.41-.45-.75-.56-1.01-.58-1.42 1.1-.78 2.54-.88.41-.04.8.26.69-.47-4.83-6.42-9.41-14.05-7.8-22.97-1.38 1.79-2.63 6.68-2.5 8.98.06 1.29 3.75 12.3 4.44 13.51.09.15.34.28.56.45.15.13.28.28.28.5l-3.79-.09h-.04c-17.56-16.67-36-34.81-57.37-44.9-22.21-10.49-51.86-16.91-75.79-13.27-3.04.47-6.08 1.25-9.09 1.85-.13-.65.75-1.12 1.14-1.4.88-.65 3.21-1.51 2.22-3.21-.99-1.72-4.11.04-5.41.86-4.44 2.76-6.98 8.7-7.17 14.35-.3 9.65 7.76 15.45 9.65 24.24.39 1.81.5 4.16.69 6.03l-1.27-2.2c-3.27-3.86-2.76 1.44-2.28 4.18 1.9 10.84 9.93 11.14 17.92 11.63 12.62.8 24.67 0 37.29 2.31 29.9 5.45 64.03 19.11 89.86 36.65 6.42 4.35 12.34 9.95 18.76 13.92 20.14 12.41 44.29 22.17 67.39 23.16 3.32.15 11.48-.09 12.11-4.93.86-6.72-6.92-14.13-10.28-19l-.15.04Z" class="st2"/>
    <path d="M98.78 125.43c6.57 1.85 13.08 4.8 19.45 6.57-2-2.43-4.59-4.2-6.7-6.48-3.64-3.96-6.51-8.75-8.66-13.94l-11.98-6.51s-.24-.04-.28.15c1.27 1.83 2.78 3.38 3.96 5.32 3.68 6.05 2.87 7.97-3.75 6.81-6.18-1.1-12.32-2.91-18.51-3.99-4.14-.73-8.62-.84-12.71-1.72-6.2-1.34-7.69-4.8-7.15-11.74.32-4.14 1.53-10.25 5-12.37 1.92-1.18 3.81-.84 5.84-1.44-2.89-2.67-5.34-5.41-8.36-7.93-1.12 3.64-2.65 7.15-3.71 10.84-2.93 10.04-4.63 21.07-5.21 31.63 17.58-2.37 35.65.04 52.76 4.83v-.02Zm78.85 31.31c-.34-.34-.78-.45-1.12-.78-2.26-2.15-4.46-10.88-5.8-14.33-.19-.54-.82-2.39-1.44-2.31l5.58 19.63 2.78-2.22ZM78.78 46.78c1.77-2.24 4.07-4.91 5.99-6.98-.75-.04-1.31.41-1.92.82-1.79 1.16-4.74 3.83-6.42 5.39-1.27 1.18-2.89 2.65-3.64 4.24.88.26 2.24.67 3.06.95.58-1.57 1.9-3.15 2.93-4.44z" class="st2"/>
    <path d="m164.79 68.97-.28.32c-.13-.15-1.18-1.25-1.25-1.25-.19 0-.69 1.18-1.25.95 1.64-2.59-2.24-4.83-3.21-6.98l-1.25.95c-.37-.52 2.11-3.51-2.24-2.84.04-.69 1.01-.54 1.1-.65.62-.86-3.81-5.88-4.16-7.13l-1.4.19c.86-2.89-.22-2.35-2.22-2.84 0-.58 1.01-.28 1.38-.32.41-.04 1.31.28 1.12-.47-.17-.65-5.28-7.91-5.77-8.06-.82-.24-.88.65-1.21.93-.34.28-.67.71-1.12.65 1.83-3.27-.43-2.46-2.5-3.49.04-.71 1.08 0 1.4 0 .22 0 1.36-.22 1.12-.78-.28-.65-4.93-4.14-5.73-4.29-.73-.11-.32.71-.41 1.27-.06.47-.04 1.77-.56 1.9.22-1.01-.13-1.75-.28-2.54-.3-1.55-.19-2.39-1.68-.62-.15-.09-.6.04-.82 0 .11-.28.65-1.49.56-1.57-1.4-.09-2.93-.58-4.31-.65-1.21-.06-4.2 0-5.28.39-.56.22-.47.99-.45 1.55-1.62-1.64-2.97.28-3.08 2.22-.88-.34-.5-1.49-.26-2.22 0-.06.43-.06.28-.65l-2.35.34-3.51 1.23h-.56c-.67 0-.97-.22-.84.65-.04.02-.02.9 0 .95h-.28c-1.4-1.51-1.57.28-1.96.62-.54.47-.56-.5-.6-.54-.86-.65-2.99.95-4.14.54V38c-.67-.75-6.12 1.08-6.33 1.34-.22.24-.26 1.42-.34 1.83l-.28-1.27c-.52.02-3.49.8-3.62.95-.09.09.47 1.75.28 2.22-.56-.15-.26-1.38-.82-1.77-.5-.34-1.18.47-1.66.34.26-.95.69-.65 1.01-.9.15-.11.06-.52.09-.54.09-.06.43.09.56 0 1.01-.56 3.25-1.27 4.01-1.94.75-.67.78-2.22 1.85-2.18l-.41 1.57 3.77-1.59c.13-.37-1.4-.73-.82-1.25.17-.17 1.31.71 2.07.62.65-.09 2.91-1.16 3.73-1.51.5-.19 1.38.15.8-.95 0-.04-1.01-.19-.47-.71.47-.45 3.06 2.84 2.8-1.57.62 0 .47 1.81.56 1.9.3.37 6.44-1.87 7.52-1.57.34-.71-1.42-1.01-.84-1.57.47-.45 1.64.95 2.09.95.75 0 1.87-1.85 2.78-1.9l-.97 1.57c3.75-.43 7.37-.6 11.01.65l-.13-1.92c.84.73 1.23 2.15 1.66 2.39.39.22 2.37-.47 3.06-.17l-1.66.78c2.43 1.64 4.67 3.49 6.83 5.54.41-.04.73-2.31.69-2.84.06.11.26.22.28.32.32 1.12-.11 3.34 0 3.49.11.11 2.48.19 2.78 1.12.15.86-.99-.02-1.31-.11-.34-.09-.86-.19-.62.41.09.26 2.07 2.56 2.5 3.19.45.67 2.59 4.29 2.78 4.44.99.73.58-1.31 1.12-1.44.09.54-.11 3.04 0 3.17.11.11 2.2-.06 2.5 1.12l-1.38-.34-.58.34 4.74 7.93.28-1.12c.97.26.32 2.05.6 2.5.15.26 1.94.28 2.2 1.14h-1.66l3.08 5.21c.95.24.52-1.12 1.1-1.27-.02 1.55-.37 2.09.28 3.49l.28.32c.15.22.22.56.28.62l-.04-.04Z" class="st42"/>
    <path d="M133.57 33.79c-.13.3.3.82-.56.62l.28-.95c-.8.34-2.15-.65-2.65-.65h-5.99l.28 1.92c-.82.09-.8-.58-.84-1.27-.02-.56-.11-1.34.45-1.55 1.08-.39 4.07-.45 5.28-.39 1.38.09 2.91.58 4.31.65.09.11-.43 1.31-.56 1.57v.04Zm16.44 15.53c-1.12-2.05-2.61-4.61-4.05-6.36-.47-.58-.97-1.38-1.81-1.27.3-.26.37-1.14 1.21-.93.5.15 5.6 7.41 5.77 8.06.19.75-.71.43-1.12.47v.02Zm-8.08-10.47c-1.34-1.72-3.21-2.82-5.02-3.79.09-.56-.3-1.38.41-1.27.8.13 5.43 3.62 5.73 4.29.24.56-.9.78-1.12.78Zm-21.18-5.36c-1.62.22-3.45 1.1-4.98 1.21-.43.02-.54-.26-.6-.26l3.51-1.23 2.35-.34c.15.58-.26.58-.28.65v-.02ZM89.23 43.93c-.15-.93.24-.52.6-.71.47-.26 3.43-1.96 3.58-1.81.65.71-3.71 2.48-4.18 2.54zm81.98 33.89c-.8-.34-1.25-1.64-1.96-2.05-.39-.22-1.06-.11-1.12-.15-.04-.04.41-.65.15-1.25-.06-.15-1.7-2.33-1.81-2.41-.93-.58-1.1.84-1.96.82-.22-.71 1.1-1.49 1.1-1.75 0-.13-.67-.69-.84-.95-.17-.28-.22-.73-.26-.8l.28-.32s.39.02.54.19c.32.34.62 1.25.99 1.29.39.04 1.23-.75 1.81-.54.22 1.01-1.03.84-1.1.97-.47.62 1.57 3.15 2.07 3.49.62.43 1.34.15 1.83.78-1.51.6.47 1.44.28 2.67Z" class="st2"/>
    <path d="M164.94 60.72c-4.37-6.25-8.14-13.08-12.69-19.15-1.4-1.85-3.38-4.55-5-6.03-.43-.41-.8-.75-1.4-.78-.02-.11-.22-.22-.28-.32-.56-1.06-.71-1.08-1.59-1.83-2.91-2.48-5.56-3.4-9.01-4.18-.09 0-.19.02-.28 0-8.96-1.92-17.49-.04-26.22 2.37-2.99.82-5.9 2-8.92 2.71-.15-.9.22-.52.6-.71 14.43-7.54 35.5-12.37 48.32 1.06 4.96 5.19 13.96 19.3 16.76 26.26.19.47.26.78-.3.65v-.04Zm84.77 168.55c-4.44-6.72-7.97-14.24-10.75-22.02-.71-2.03-.9-3.71-1.94-5.54-.3-.56.22-.88-1.4-.65.15-.93 1.27-1.55 1.4-2.37.13-.78-.65-.45-1.12-.47l-5-17.28c-9.01-32.29-23.35-60.34-42.53-86-.37-.47-2.61-2.43-1.4-2.52 1.96 2.28 4.14 4.39 6.12 6.68 12.28 14.24 23.74 32.66 31.17 50.78 10.13 24.78 13.68 51.68 24.39 76.2.32.78 1.31 2.15 1.49 2.76.11.43-.04.56-.41.47z" class="st52"/>
    <path d="M267.85 228.61c-2.87-4.42-5.6-9.78-7.65-14.74-.95-2.31-9.74-31.58-10.19-34.02-.8-4.74-2.43-10.47-3.64-15.21-7.39-29.06-17.56-57.39-46.43-64.78-9.85-10.69-18.98-21.39-26.82-34.17-14.05-22.86-21.48-47.29-50.78-43.91-18.89 2.18-39.02 12.11-52.31 27.53 1.57 1.1 1.23.47 2.78.95.75-1.62 2.39-3.08 3.64-4.24 1.66-1.55 4.63-4.22 6.42-5.39.6-.41 1.18-.88 1.92-.82.39-.41.71-.88 1.12-1.27.26-.22.47-.26.56-.32 10.34-8.42 33.87-15.71 46.43-13.94 19.32 2.74 28.57 27.17 38.5 43.37 8.92 14.54 19.22 24.34 29.26 37.42 14.24 18.51 25.7 39.98 33.05 63.21 1.1 3.49 1.98 7.76 3.23 11.18 4.85 21.74 8.96 38.05 20.57 54.48.09.11.19.28.34.47.84 1.21 2.65 3.75 2.91 3.92.45.28.75-.17.56-.82-.28-.99-2.97-4.07-3.75-5.6-2.05-4.05-3.92-10.02-5.34-14.41-1.18-3.64-2.54-7.32-3.92-11.07-.47-1.27-.95-2.54-1.42-3.81v-.04l-.71-1.87c-.06-.17-.13-.34-.19-.52-.13-.37-.26-.71-.39-1.06-.26-.71-.52-1.42-.78-2.15-1.83-5.08-3.55-10.17-4.85-15.27h.15c-4.31-13.74-7.82-26.56-13.9-39.51-1.57-3.34-6.98-12.24-7.26-15.17-.67-6.92 4.74-2.15 6.94.02 6.64 6.55 13.98 23.61 16.85 33.13.26.84.5 1.72.73 2.59.15.62.34 1.25.47 1.87.13.47.24.95.37 1.44.15.67.32 1.34.47 2 .11.41.19.82.28 1.21.06.22.11.41.15.62.09.32.15.67.22.99.37 1.62.71 3.25 1.08 4.85.24 1.01.45 2.03.69 3.02.13.62.3 1.25.45 1.87 0 .02 0 .06.02.09.04.22.11.45.15.67v.02c.02.09.04.19.06.28h.04c.22.62.45 1.34.73 2.15 1.75 5.15 4.63 13.85 7.73 22.56 3.75 10.51 7.8 21.01 10.49 25.14.09.13.15.26.24.37 3.38 4.85 11.14 12.28 10.28 19-.62 4.85-8.77 5.08-12.11 4.93-23.12-.99-47.27-10.75-67.39-23.16-6.42-3.96-12.32-9.57-18.76-13.92-25.83-17.56-59.98-31.2-89.86-36.65-12.62-2.31-24.67-1.51-37.29-2.31-7.99-.52-16.01-.8-17.92-11.63-.47-2.76-.97-8.04 2.28-4.18l1.27 2.2c-.19-1.87-.28-4.22-.69-6.03-1.9-8.79-9.95-14.61-9.65-24.24.19-5.62 2.74-11.57 7.17-14.35 1.29-.82 4.42-2.59 5.41-.86.97 1.7-1.34 2.54-2.22 3.21-.39.28-1.27.75-1.14 1.4 3.02-.62 6.05-1.38 9.09-1.85 23.93-3.64 53.6 2.78 75.79 13.27 21.37 10.08 39.79 28.22 57.37 44.9h.04c7.91 9.29 16.2 18.4 24.75 26.8 16.22 16.01 36.45 32.23 56.47 39.36.75.28 1.49 0 .86-.82-.22-.26-3.75-1.85-5.9-2.89-.65-.32-1.16-.56-1.44-.71-4.57-2.59-8.34-5.13-12.19-7.95-2.11-1.53-4.24-3.15-6.57-4.89-5.17-3.92-10.15-8.06-15.02-12.39-.39-.32-.75-.67-1.12-1.01-3.77-3.38-7.48-6.89-11.16-10.47-6.53-6.38-12.95-13.03-19.43-19.8-.37-.39-.71-.78-1.03-1.14-.97-1.14-1.77-2.24-2.63-3.08-.62-.62-1.27-1.1-2.07-1.38-.22-.17-.47-.32-.56-.45v.28c-.15-.04-.32-.06-.52-.09l-.04-.04c-3.53-3.66-7.26-7.04-10.88-10.6-.9-.88-1.64-1.12-2.5-2.54-.5-.04-.86-.28-1.25-.62-10.92-9.5-21.95-19.93-34.15-27.25-1.1-.65-2.24-1.27-3.36-1.9-1.85-1.06-9.61-5.67-10.86-6.01-.6-.17-1.23-.34-1.83-.54-.19-.06-.37-.11-.56-.19-.8-.26-1.62-.52-2.41-.8-.62-.22-1.27-.45-1.92-.69-.17-.04-.34-.11-.52-.17-1.23-.43-2.43-.88-3.64-1.34q-1.515-.555-3.06-1.08c-.6-.22-1.23-.41-1.83-.62-.17-.04-.34-.11-.52-.17-.78-.26-1.57-.5-2.37-.73h-.06c-.26-.09-.5-.17-.75-.24-.78-.22-1.57-.43-2.37-.62-.8-.22-1.57-.41-2.37-.62-.8-.22-1.59-.41-2.39-.58-1.03-.26-2.05-.47-3.08-.69-.32-.09-.65-.15-.99-.22-1.06-.22-2.09-.43-3.15-.62-1.62-.32-3.21-.58-4.83-.84-11.14-1.72-22.47-2.13-33.61-.62.56-10.56 2.28-21.59 5.21-31.63 1.08-3.68 2.59-7.2 3.71-10.84-.99-.82-1.27-.8-1.96-1.27-4.37 10.58-6.98 22.02-8.49 33.59-.37.82-2.33.88-3.15 1.18-14.15 4.89-21.31 16.01-14.8 32.53.58 1.44 3.12 5.9 3.27 6.76.17 1.12-.97 5.8-1.08 7.54-.58 9.35 1.14 22.73 9.01 27.77 4.74 3.04 12.95 1.62 18.46 1.83 31.56 1.21 62.99 6.59 92.42 19.82 35.89 16.14 64.57 43.13 104.18 49.21 6.08.95 18.89 2.89 24-.84 9.72-7.11-5.06-21.65-8.94-27.66l.04-.06Z" class="st42"/>
    <path d="M167.71 167.79s.09.02.13.02c-1.78-2.95-3.4-6.96-5.17-10.1-9.07-16.23-18.67-30.51-29.92-44.86-.67-.84-1.55-2-1.96-3.01-1.36-.67-2.63-2.35-3.34-3.8 1.66 1.04 2.31 2.35 3.62 3.8 12.95 14.47 23.83 31.15 33.39 48.71 1.75 3.2 3.54 6.44 5.05 9.8z" class="st28"/>
    <path d="M181.81 181.08c0 .61-.16.32-.47-.03-.01-.02-.03-.04-.05-.06l-.05-.04c-3.53-3.66-7.26-7.04-10.87-10.6-.07-.18-.15-.35-.22-.53 0 .13-.02.25-.04.38-.01.07-.03.14-.05.21-.33-.31-.63-.65-.9-1.01-.21-.27-.39-.55-.56-.84-.21-.37-.48-.56-.78-.71-.04-.02-.07-.04-.11-.06l1.8.56c-1.51-3.36-3.3-6.6-5.05-9.8-9.56-17.56-20.44-34.24-33.39-48.71-1.31-1.45-1.96-2.76-3.62-3.8-.13-.28.22-.58-.71-.94-.07 1.16.47.79.71.94.71 1.45 1.98 3.13 3.34 3.8.41 1.01 1.29 2.17 1.96 3.01 11.25 14.35 20.85 28.63 29.92 44.86 1.77 3.14 3.39 7.15 5.17 10.1-.04 0-.08-.01-.13-.02-.36-.16-.75-.29-1.12-.61-10.92-9.5-21.95-19.92-34.14-27.25.05-.05.11-.08.18-.11.03-.01.06-.02.1-.02.05-.01.1-.02.16-.02.07 0 .14.01.22.02.27.05.58.16.85.29.28.12.54.25.71.32 4.26 1.91 8.96 5.58 12.97 7.13.56.22.96.28 1.24.23.06 0 .12-.03.17-.05.71-.33.33-1.72.05-3.11-.36-1.88-1.42-5.69-2.3-7.18-1.53-2.54-1.81-1.68-3.9-2.54-9.07-3.77-15.97-11.78-25.51-13.64.03-.19.17-.3.36-.35.04 0 .08-.02.13-.02.16-.02.34-.02.51-.01.07.01.13.02.2.02.09.02.19.03.27.04.02.01.04.01.07.01.09.01.17.02.23.03 3.55.39 7.39 2.46 10.6 4.12 1.54.8 3.33 2.37 5.09 2.93.13.05.27.08.41.11.13.03.27.05.4.07.25.02.5.03.75-.01h.05c1.87-.26.71-1.85 0-3.1-3.49-6.12-7.89-12.6-12.48-17.67-3.88-4.28-5.64-6.27-10.83-8.44-2.71-1.13-5.47-2.01-8.28-2.63-.47-.11-.94-.21-1.4-.29-.47-.09-.93-.17-1.4-.24-.48-.08-.96-.14-1.44-.2-.14-.02-.27-.04-.41-.05q-.75-.09-1.5-.15h-.05c-.48-.04-.95-.07-1.43-.09q-.375-.03-.75-.03c-.42-.02-.83-.02-1.25-.02-.39 0-.78.01-1.18.02-.38.01-.76.02-1.15.05h-.15l-1.17.09h-.04c-.4.04-.8.08-1.2.13l.02-.01h.02l2.68-.83c2.71-.58 5.86-.45 8.49-1.12 2.7-.69 3.13-1.66 2.52-2.89-.04-.1-.1-.21-.17-.31-.08-.14-.18-.28-.28-.43-.06-.08-.12-.16-.19-.25q0-.015-.03-.03c-.4-.53-.93-1.1-1.49-1.71-1.92-2.07-4.43-4.27-7.05-6.3-.52-.41-1.04-.81-1.57-1.19-.26-.2-.52-.4-.79-.58-.39-.29-.78-.57-1.17-.83-.38-.28-.77-.55-1.15-.8-.34-.22-.66-.44-.98-.65q-.9-.6-1.74-1.11c-.63-.39-1.27-.77-1.91-1.15-.02 0-.03-.01-.04-.02-.83-.5-1.67-.99-2.52-1.46-.02 0-.03-.01-.04-.02-.63-.36-1.26-.7-1.9-1.03-.01 0-.03 0-.04-.02-.41-.22-.83-.44-1.26-.64-.02-.01-.04-.01-.05-.03-.38-.18-.76-.36-1.13-.54l-.12-.06c-.31-.14-.62-.28-.93-.41-.35-.15-.7-.29-1.05-.44-.44-.18-.88-.35-1.33-.51-.02 0-.03-.01-.04-.01-.22-.08-.45-.16-.67-.23-.28-.1-.55-.19-.83-.27-.27-.09-.55-.17-.83-.24-.28-.08-.55-.16-.83-.22-.28-.07-.55-.13-.82-.19-.23-.05-.45-.09-.68-.13-.17-.04-.35-.07-.53-.09-.27-.05-.55-.09-.83-.12-.23-.03-.46-.06-.68-.08-.23-.03-.46-.04-.69-.06-3.37-.21-6.81.34-10.35 2.02-.35.15 0 .86-.78.63v-.02c-.13-.7.8-1.06 1.21-1.3.22-.14.49-.25.76-.36.1-.04.19-.07.29-.11.04-.02.08-.04.12-.05.26-.09.51-.2.73-.33h.01c.13-.07.25-.15.35-.24h.01c.07-.06.12-.12.18-.19.03-.03.05-.07.07-.1.03-.03.05-.07.06-.11q.075-.105.09-.24c.05-.16.06-.34.02-.55-.02-.14-.06-.27-.12-.41-.02-.07-.05-.14-.1-.22-.02-.05-.05-.11-.09-.16-.1-.18-.21-.35-.35-.52-.13-.16-.28-.33-.44-.49l-.02-.02c-.16-.16-.34-.33-.53-.49s-.41-.33-.63-.49l-.02-.02c-.21-.15-.44-.31-.67-.46-.24-.16-.48-.32-.73-.46-.13-.07-.25-.15-.38-.22-.25-.15-.51-.29-.77-.43-.38-.21-.77-.4-1.15-.58-.13-.06-.26-.12-.38-.18-.25-.12-.49-.23-.73-.33-.12-.05-.24-.1-.35-.15s-.23-.1-.34-.14c-.22-.09-.43-.17-.63-.25-.1-.04-.2-.08-.29-.11q-.285-.105-.51-.18c-.08-.02-.15-.05-.22-.07-.82-.25-1.64-.48-2.48-.69h-.02c-.84-.2-1.68-.38-2.53-.55-.44-.09-.88-.17-1.32-.25-.43-.08-.85-.15-1.28-.21-.42-.07-.85-.13-1.28-.2-.45-.06-.89-.12-1.34-.18-.66-.09-1.33-.17-1.99-.25-2.84-.35-5.67-.63-8.4-1-.06-.48.45-.34.81-.33.05.01.09.01.13.01h.03c1.68-.08 3.41-.1 5.17-.07.53.01 1.06.02 1.59.04h.04c1.05.04 2.1.09 3.14.15h.03c1.05.07 2.1.14 3.13.23 1.04.09 2.07.19 3.08.3 9.22.97 19.79 3.19 28.56 6.5 1.66.63 4.01 2.2 5.52 2.61 2.07.55 2.48-.09 2.06-1.2-.02-.08-.06-.16-.1-.25-.05-.11-.1-.22-.17-.34-.08-.16-.18-.33-.29-.5s-.23-.35-.35-.53c-.09-.14-.2-.28-.31-.42-.24-.33-.5-.66-.77-.99-.13-.16-.26-.31-.4-.47-.72-.83-1.47-1.61-2.06-2.17l-.18-.18c-.31-.28-.56-.5-.73-.62-.1-.07-.39-.22-.77-.43-.05-.03-.1-.05-.16-.08-.1-.06-.19-.11-.29-.16-.19-.09-.39-.2-.58-.3-.15-.08-.3-.17-.44-.25-.23-.13-.45-.26-.63-.38-.07-.04-.13-.09-.19-.13-.07-.05-.12-.09-.17-.13-.1-.1-.14-.17-.09-.21.39.1.77.22 1.15.33 0 0 .01 0 .02.01.39.13.77.26 1.14.4.31.11.62.24.93.37.14.06.29.12.43.19.24.11.48.22.71.33.27.13.54.27.81.41.03.02.06.03.09.05.2.1.4.22.6.33.29.16.57.33.85.5.24.15.47.29.7.45.12.08.24.16.35.24s.23.16.34.24c.29.2.58.42.86.63.12.09.24.19.36.28h.01c.21.17.4.34.61.51.01 0 .02.01.03.02l.02.02c.31.25.62.52.92.8.42.37.84.77 1.24 1.18.14.14.28.29.42.43l.14.14c.29.31.59.63.87.96.28.31.55.62.81.94.18.21.35.42.52.63.22.28.44.56.65.84.36.47.76 1.12 1.17 1.8.07.11.13.22.2.34.48.79.96 1.59 1.38 2.15.06.08.12.16.18.23s.12.13.17.19q.09.105.21.21.18.18.42.36l.02.02c.06.06.14.11.21.17s.14.12.22.17c.03.02.06.04.09.07.17.13.36.26.55.4.2.14.4.28.61.42.14.1.28.19.43.29.82.54 1.73 1.12 2.65 1.68l.39.24c.26.16.52.32.78.47.26.16.52.31.77.47.12.07.25.15.37.23.25.14.49.29.73.45.11.06.22.13.33.2.58.36 1.1.7 1.54 1 .04.04.08.06.12.09.05.03.1.06.14.09 4.39 3.19 8.6 6.81 13.08 9.84.18.13.57.39 1.05.72.16.11.34.22.52.34.01.02.02.03.04.03.18.12.36.24.55.35l.15.09c.13.08.26.15.38.23.13.08.26.15.38.22s.24.14.36.2c.12.07.24.13.35.18.23.11.43.2.61.26.25.09.44.12.56.08.02 0 .04 0 .05-.02h.02s.03-.01.04-.02c-.28-2-1.87-3.52-3.05-4.9.13.05.26.11.4.17.13.07.26.14.4.22.13.08.27.16.41.25.1.06.2.13.3.2.04.03.07.05.11.08.03.03.06.06.1.08.21.15.41.31.61.49.12.1.25.21.38.32.23.2.45.41.66.62.22.2.43.41.64.63h.01c.4.43.78.85 1.12 1.22.31.34.6.68.89 1.02.56.69 1.08 1.37 1.57 2.05.03.04.06.07.08.11.21.31.42.61.62.92.23.33.44.67.65 1 .31.5.6 1.01.88 1.51.15.25.29.5.43.76.14.25.28.5.42.76.01.04.03.08.06.11.36.68.71 1.37 1.06 2.07.54 1.07 1.08 2.15 1.66 3.24.38.73.78 1.46 1.2 2.2.21.37.42.74.65 1.12 1.01 1.7 3.29 3.64 4.59 5.3 3.42 4.37 6.91 9.99 11.16 13.31 1.62 1.27 2.5 1.41 2.93.8.06-.08.1-.16.14-.25.24-.57.26-1.5.19-2.65v-.06c0-.07-.01-.12-.02-.18-.02-.3-.05-.63-.08-.96-.19-2-.88-5.14-1.81-6.8-.11-.2-1.97-2.59-1.73-2.93.02-.03.05-.04.09-.04.06 0 .15.03.26.08.02.01.07.05.13.11l.11.11c.08.08.17.18.28.3.53.58 1.3 1.48 1.52 1.79.02.03.04.06.05.08.19.28.38.56.56.84.18.3.36.59.53.88s.33.59.48.89c.13.24.25.49.37.74.02.05.05.1.07.15l.01.02c.14.29.27.59.4.89.27.62.51 1.24.73 1.87.11.33.22.64.31.97.1.32.2.64.29.97.24.8.44 1.62.62 2.45.11.5.22 1 .32 1.51.09.51.19 1.02.28 1.54.1.52.19 1.05.27 1.58.49 3.14.47 8.05 1.55 10.9.15.41.47 1.04.88 1.79.05.09.1.18.16.28.1.19.21.39.34.6.07.12.14.25.22.39.11.18.22.37.33.56.19.32.38.64.57.97h.01c.13.22.26.43.38.64 0 .01.01.01.01.01.06.11.13.21.2.32.12.21.24.41.36.61 0 0 0 .01.01.01.18.31.37.6.54.87.11.17.22.35.32.51.05.09.11.17.16.25s.09.15.14.22q.135.21.24.39c.04.06.08.12.11.17.98 1.52 2.21 3.04 3.38 4.61.47.63.93 1.27 1.37 1.92q.33.495.63.99c1.47 2.42 2.91 6.12 4.51 8.19 1.96 2.54 1.27.52 1.33-.71.2-3 1.12-5.45 2.13-8.14-.1 0-.21.05-.34.13-.04.02-.08.05-.13.09-.11.08-.22.18-.34.29-.08.07-.16.16-.24.24-.17.17-.34.36-.51.56-.09.1-.18.2-.26.3-.26.3-.51.6-.75.85-.08.09-.15.17-.23.24-.14.15-.28.28-.4.36-.18.13-.32.18-.42.1-.83-3-1.65-6.04-2.51-9.09-.36-1.34-.74-2.68-1.12-4.01-.15-.54-.31-1.07-.47-1.61-.27-.95-.55-1.89-.84-2.83-.28-.94-.57-1.88-.87-2.81-.19-.62-.39-1.25-.6-1.87-.29-.91-.6-1.82-.92-2.72-.01 0-.01-.01-.01-.02-.31-.9-.63-1.8-.96-2.69h-.01c-.33-.91-.67-1.79-1.02-2.68l-.01-.01c-.69-1.77-1.43-3.51-2.23-5.22-.54-1.2-1.11-2.36-1.71-3.51-.04-.09-.09-.19-.14-.28-.03-.04-.05-.07-.06-.11-.05-.09-.1-.19-.15-.28-.03-.06-.06-.11-.09-.17s-.07-.12-.1-.18c-.2-.4-.42-.8-.65-1.19-.33-.59-.66-1.18-1.01-1.76 0 0-.01 0-.02-.02-.12-.2-.25-.41-.37-.62-.39-.64-.82-1.33-1.29-2.05 0 0-.01 0-.01-.01-.42-.63-.87-1.29-1.34-1.94 0 0-.01 0-.01-.01-.47-.65-.96-1.31-1.47-1.95 0 0-.01 0-.01-.01-.19-.24-.39-.48-.59-.71-.14-.18-.29-.36-.45-.53-.3-.35-.6-.69-.92-1.02-.02 0-.03-.03-.04-.05-.14-.15-.29-.3-.43-.43q-.21-.225-.42-.42c-.62-.6-1.25-1.14-1.88-1.6-.16-.12-.32-.24-.48-.34-.21-.15-.43-.28-.64-.41-.18-.1-.37-.2-.55-.29-.09-.05-.18-.09-.27-.13q-.105-.06-.21-.09l-.06-.03c-.07-.03-.14-.06-.21-.08-.14-.06-.29-.11-.43-.15-.11-.03-.21-.06-.31-.08s-.19-.04-.28-.05c-.25-.04-.47-.05-.67-.03-.06.01-.11.02-.16.03-.07.01-.13.03-.19.06-.06.02-.11.04-.16.07s-.1.06-.14.09c-.05.03-.09.07-.13.11-.07.07-.14.16-.2.25-.08.15-.15.32-.2.5-.03.13-.06.26-.07.41-.01.07-.02.14-.02.22-.12 1.59.48 3.87.44 5.23-3.26-7.99-8.66-15.14-13.94-21.54-2.97-3.62-6.9-8.14-10.49-10.88-1.98-1.51-8.15-5.41-10.37-4.59-.55.21-.44.69-.32 1.12.08.29.16.55.02.66-.02.02-.06.04-.1.05-.05.02-.11.02-.18.02-3.1-5.88-7.84-10.23-12.88-13.87-1.56-1.13-3.21-2.23-4.93-3.28-1.03-.64-2.08-1.25-3.15-1.84-.57-.31-1.15-.62-1.73-.93-1.17-.61-2.35-1.18-3.55-1.72-.44-.2-.87-.39-1.31-.58-.44-.18-.88-.37-1.33-.54-.44-.18-.89-.35-1.34-.52-.89-.33-1.79-.64-2.69-.93-.37-.11-.73-.23-1.1-.33-.52-.16-1.04-.31-1.56-.44-.03-.01-.07-.02-.1-.03h-.01c-.53-.14-1.05-.27-1.57-.38-3.91-.88-7.81-1.24-11.56-.89-.42.04-3.14.58-3.69.75q-.045.015-.06.03c-.55.36.23 1.22-.1 1.4-.02.01-.05.03-.08.04h-.23c-.12-.16-.24-.32-.38-.47-.07-.07-.13-.14-.19-.21s-.13-.14-.2-.2c-.09-.09-.18-.18-.28-.25-.12-.12-.26-.22-.39-.31-.2-.16-.4-.29-.61-.41-.21-.13-.43-.25-.65-.35-.15-.07-.3-.14-.45-.2-.17-.09-.35-.16-.53-.22-.01 0-.03 0-.04-.02l-.18-.06c-.15-.06-.31-.12-.47-.16-.55-.18-1.1-.34-1.64-.48-.87-.24-1.76-.45-2.66-.63-.34-.08-.69-.14-1.03-.2-.42-.08-.84-.15-1.27-.21-.27-.04-.54-.08-.82-.12-.27-.04-.54-.08-.82-.1-.15-.02-.31-.04-.46-.05-.41-.06-.82-.09-1.24-.12-.02-.01-.05-.01-.07-.01-.16-.01-.32-.03-.48-.04-.03 0-.06 0-.09-.01l-.6-.03c-.3-.02-.6-.03-.91-.04-.21-.02-.42-.03-.64-.02q-.645-.03-1.29-.03h-.18c-.46 0-.92.01-1.39.02-.23.01-.46.02-.7.03-.27.01-.53.02-.81.04-.27.01-.54.03-.81.05h-.05c-.3.02-.61.05-.91.08-.6.05-1.2.12-1.79.2-.33.04-.66.08-.98.13-.04 0-.07.01-.11.02-.34.05-.67.1-1 .16-.08.01-.17.03-.25.04-.42.07-.82.15-1.23.23-.06.01-.13.03-.19.04-.2.04-.39.08-.59.13-.61.12-1.21.26-1.81.42-.31.08-.61.16-.92.25-.16.04-.32.09-.48.14-.27.08-.53.16-.8.24-.13.04-.27.08-.4.13-.28.08-.56.18-.83.27-.77.25-1.53.54-2.29.85q-.435.165-.87.36c-.32.13-.64.27-.95.42-.04.01-.07.03-.11.05-.3.13-.59.27-.88.41-.02.01-.03.02-.05.03-.33.16-.66.33-.98.5-.29.15-.57.3-.85.46-.02 0-.05.03-.07.04h-.01s-.04.01-.07.04c-.3.16-.59.33-.88.5-.36.21-.71.43-1.06.66-.23.14-.45.29-.67.44l-.18.12c-.29.19-.58.39-.86.59-.29.22-.58.43-.86.65-.29.22-.58.45-.86.68s-.56.46-.83.7c-.28.24-.55.48-.81.73-.27.24-.53.49-.79.75s-.52.52-.77.78c-.37.39-.89.78-.82 1.41 8.81-1.3 17.45 1.52 26.09 2.84 6.72.99 10.17.58 16.7.04.96-.09 2.96-.35 3.46.6 0 .01.01.01.01.02-2.98-.45-5.73 1.84-6.41 5.04 0 .02-.01.03-.01.05 4.76.39 8.7 2.8 12.41 6.01 4.22 3.68 8.48 9.59 13.33 12.11 5.47 2.84 13.25 1.03 18.59-1.66.02.02.04.05.05.07s.02.07.02.1c.08.77-2.58 2.6-2.76 2.78-.13.15-.26.29-.38.43-.01 0-.01.01-.01.02-.12.15-.23.3-.32.45q-.15.225-.27.45c-.16.29-.28.58-.37.87s-.15.57-.18.86c-.03.33-.02.67.02 1 .01.09.02.18.05.27q.015.135.06.27c.3 1.27 1.1 2.5 2.05 3.78 2.6 3.51 8.51 6.55 12.26 8.55 5.32 2.85 10.83 5.41 16.54 7.03.01.08 0 .15-.03.19-.09.31-.63.12-.9.09-2.11-.22-5.6-1.23-5.12 2.65.11.91.4 1.84.82 2.76 0 .01.01.01.01.01.21.46.47.92.75 1.38s.6.92.94 1.38c.15.21.32.42.48.64.03.03.05.07.09.1.34.43.71.85 1.09 1.28.42.46.85.9 1.3 1.35.22.22.45.44.68.65.23.22.46.43.69.64.23.22.47.43.71.64l.72.63c.24.21.49.42.73.61.25.21.49.41.74.61.25.21.49.4.74.59.49.39.98.78 1.47 1.14.49.38.97.74 1.44 1.09.21.16.41.31.61.46.27.2.54.4.81.59.53.39 1.03.76 1.52 1.11.12.09.24.17.35.25.15.11.29.22.43.32.43.31.83.6 1.19.88.41.32 1.23.73 1.14 1.4-.01 0-.01-.01-.02-.01-1.88-1.08-9.59-5.66-10.84-6-.51-.61-1.04-1.18-1.6-1.72-1.13-1.1-2.33-2.11-3.48-3.16-.56-.52-1.1-1.05-1.62-1.61-3.64-3.98-6.5-8.75-8.66-13.94l-.04-.02-2.04-1.11-9.9-5.37h-.01c-.24-.61-7.6-5.25-8.84-6.25-1.72-1.41-5.27-5.69-7.09-6.31-.05-.02-.1-.04-.15-.05-1.3-.31-2.35-.59-3.26-.88-.14-.04-.27-.09-.4-.13-.12-.04-.24-.08-.35-.12-2.74-.97-4.16-2.19-7.49-5.29-2.91-2.67-5.35-5.4-8.38-7.9-.99-.82-1.27-.8-1.96-1.27-.03-.03.06-.48-.2-.65-3.49-2.37-7.13-3.68-11.22-2.84-.52-.56 2.5-5.11 2.22-5.39-14.59 1.55-29.39-7.3-43.63-1.9-.32-.13-.11-.69 0-.94 1.38-3.06 6.64-7.85 9.24-9.79 10.6-7.82 23.51-9.58 35.87-7.94 1.92.25 4.33 1.22 6.16 1.24 1.3.03 2.91-.58 4.21-.64 1.55-.09 13.74.84 14.34 1.27.82.57 1.12.68 1.44.71.18.02.36.02.65.07.18.03.4.08.69.17.88.26 2.21.66 3.03.94h.03c7.35 2.47 17.37 7.82 23.59 12.79 1.94 1.55 4.31 4.5 6.19 5.8 1.63 1.12 3.96 1.72 5.73 2.67 11.97 6.55 18.2 15.01 26.39 26.09.63.86 1.47 1.54 2.01 2.53.03.04.06.09.08.14l-.7-3.74v-.05c1.8.84 3.37 1.83 5.03 2.97 6.42 4.42 12.79 11.44 16.59 18.87 1.85 3.62 3.83 7.52 5.47 11.53.45 1.12 2.19 6.96 2.45 7.19l.02.04h.01l.48.83.05.08s-.02.22 0 .33v.02h.01l5.57 19.6.03-.02 2.73-2.18.02-.02 3.36-.64-1.12 2.22s-.05.07-.07.11c-1.36 1.86-2.56 6.61-2.43 8.87.07 1.29 3.75 12.3 4.44 13.51v.28l.05.04Z" class="st52"/>
    <path fill="#cbcbcb" d="M50.67 52.72c.22.05.32.05.36 0-.04.05-.14.04-.36 0m124.8 114.38c.2-3 1.12-5.45 2.13-8.14-.1 0-.21.05-.34.13-.04.02-.08.05-.13.09-.11.08-.22.18-.34.29-.08.07-.16.16-.24.24-.17.17-.34.36-.51.56-.09.1-.18.2-.26.3-.26.3-.51.6-.75.85-.08.09-.15.17-.23.24-.14.15-.28.28-.4.36-.18.13-.32.18-.42.1-.83-3-1.65-6.04-2.51-9.09-.36-1.34-.74-2.68-1.12-4.01-.15-.54-.31-1.07-.47-1.61-.28-.95-.55-1.89-.84-2.83-.28-.94-.57-1.88-.87-2.81-.19-.63-.39-1.25-.6-1.87-.3-.91-.61-1.81-.92-2.72-.01 0-.01-.01-.01-.02-.32-.9-.64-1.8-.96-2.69h-.01c-.33-.91-.67-1.79-1.02-2.68l-.01-.01c-.7-1.77-1.45-3.51-2.23-5.22q-.825-1.785-1.71-3.51c-.04-.09-.09-.19-.14-.28-.03-.04-.05-.07-.06-.11-.05-.09-.1-.19-.15-.28-.03-.06-.06-.11-.09-.17s-.07-.12-.1-.18c-.22-.4-.43-.8-.65-1.19-.34-.6-.68-1.19-1.03-1.78-.12-.2-.25-.41-.37-.62-.39-.64-.82-1.33-1.29-2.05 0 0-.01 0-.01-.01-.42-.63-.87-1.28-1.34-1.94 0 0-.01 0-.01-.01-.47-.65-.96-1.31-1.47-1.95 0 0-.01 0-.01-.01-.19-.24-.39-.48-.59-.71-.15-.18-.3-.35-.45-.53-.3-.35-.61-.69-.92-1.02-.02 0-.03-.03-.04-.05-.15-.14-.29-.29-.43-.43l-.42-.42c-.62-.6-1.25-1.14-1.88-1.6-.16-.12-.32-.24-.48-.34-.21-.15-.43-.28-.64-.41-.18-.1-.37-.2-.55-.29-.09-.05-.18-.09-.27-.13q-.105-.06-.21-.09l-.06-.03c-.07-.03-.14-.06-.21-.08-.14-.06-.29-.11-.43-.15-.11-.03-.21-.06-.31-.08s-.19-.04-.28-.05c-.25-.04-.47-.05-.67-.03-.06.01-.11.02-.16.03-.07.01-.13.03-.19.06-.06.02-.11.04-.16.07s-.1.06-.14.09c-.05.03-.09.07-.13.11-.07.07-.14.16-.2.25-.08.15-.15.32-.2.5-.03.13-.06.26-.07.41-.01.07-.02.14-.02.22-.12 1.59.48 3.87.44 5.23-3.26-7.99-8.66-15.14-13.94-21.54-2.97-3.62-6.9-8.14-10.49-10.88-1.98-1.51-8.15-5.41-10.37-4.59-.55.21-.44.69-.32 1.12.07.28.15.54.02.66-.02.02-.06.04-.1.05-.05.02-.11.02-.18.02h-.02c-3.1-5.88-7.84-10.23-12.88-13.87l-1.17-.84c-.8-.56-1.62-1.1-2.45-1.64-.42-.27-.85-.54-1.28-.8-1.03-.63-2.08-1.25-3.15-1.84-.57-.31-1.15-.62-1.73-.93-1.17-.6-2.35-1.18-3.55-1.72-.44-.2-.87-.39-1.31-.58-.44-.18-.89-.36-1.33-.54s-.89-.35-1.34-.52c-.89-.33-1.79-.64-2.69-.93-.37-.11-.73-.23-1.1-.33-.52-.15-1.04-.3-1.56-.44-.03-.01-.07-.02-.1-.03h-.01c-.53-.13-1.04-.26-1.57-.38-3.91-.88-7.81-1.24-11.56-.89-.42.04-3.14.58-3.69.75q-.075.015-.09.03c-.52.35.17 1.18-.07 1.4-.02.01-.05.03-.08.04h-.25c-.11-.16-.23-.32-.36-.47-.07-.07-.13-.14-.19-.21s-.13-.14-.2-.2c-.09-.09-.18-.17-.28-.25-.13-.11-.26-.21-.39-.31-.2-.14-.41-.28-.61-.41-.22-.12-.43-.24-.65-.35-.15-.07-.3-.14-.45-.2-.18-.07-.35-.15-.53-.22-.01 0-.03 0-.04-.02l-.18-.06c-.16-.06-.31-.11-.47-.16-.55-.18-1.1-.34-1.64-.48-.87-.24-1.76-.45-2.66-.63-.34-.08-.69-.14-1.03-.2-.42-.08-.85-.15-1.27-.21-.27-.04-.54-.08-.82-.12-.27-.04-.54-.07-.82-.1-.15-.02-.31-.04-.46-.05-.41-.05-.82-.09-1.24-.12-.02-.01-.05-.01-.07-.01-.16-.01-.32-.03-.48-.04-.03 0-.06 0-.09-.01l-.6-.03c-.3-.02-.6-.03-.91-.04-.21-.01-.43-.02-.64-.02q-.645-.03-1.29-.03h-.18c-.46 0-.92.01-1.39.02-.23.01-.46.02-.7.03-.27.01-.53.02-.81.04-.27.01-.54.03-.81.05h-.05c-.3.02-.61.05-.91.08-.6.05-1.2.12-1.79.2-.33.04-.66.08-.98.13-.04 0-.07.01-.11.02-.34.05-.67.1-1 .16-.08.01-.17.03-.25.04-.42.07-.82.15-1.23.23-.06.01-.13.03-.19.04-.2.04-.39.08-.59.13-.61.12-1.21.26-1.81.42-.31.08-.61.16-.92.25-.16.04-.32.09-.48.14-.27.08-.53.16-.8.24-.13.04-.27.08-.4.13-.28.08-.56.18-.83.27-.77.25-1.53.54-2.29.85q-.435.165-.87.36c-.32.13-.64.27-.95.42-.04.01-.07.03-.11.05-.3.13-.59.27-.88.41-.02.01-.03.02-.05.03-.33.16-.66.33-.98.5-.29.15-.57.3-.85.46-.02 0-.05.03-.07.04h-.01s-.04.01-.07.04c-.3.16-.59.33-.88.5-.36.21-.71.43-1.06.66-.23.14-.45.29-.67.44l-.18.12c-.29.19-.58.39-.86.59-.29.22-.58.43-.86.65-.29.22-.58.45-.86.68s-.56.46-.83.7c-.28.24-.55.48-.81.73-.27.24-.53.49-.79.75-.27.24-.53.51-.79.78-.37.37-.91.8-.84 1.42h.04c8.82-1.32 17.44 1.51 26.07 2.8 6.72 1 10.17.59 16.7.05.97-.09 3.01-.35 3.49.62h-.01c-3-.46-5.77 1.85-6.41 5.06h.01c4.78.39 8.69 2.81 12.4 6.04 4.22 3.68 8.48 9.56 13.33 12.08 5.5 2.85 13.25 1.04 18.59-1.63.03.03.04.05.05.09s.02.07.02.1c0 .05 0 .1-.03.16-.28.84-2.57 2.41-2.73 2.6-.14.15-.26.3-.38.45-.01 0-.01.01-.01.02-.12.15-.23.3-.32.45q-.15.225-.27.45c-.17.29-.29.58-.37.87-.1.29-.15.57-.18.86-.03.33-.02.67.02 1 .01.09.03.18.05.27l.06.27c.04.16.09.31.14.47.38 1.1 1.09 2.19 1.91 3.29 2.6 3.51 8.51 6.55 12.26 8.55 5.32 2.85 10.83 5.41 16.54 7.03v.02c.01.08 0 .15-.03.19-.12.28-.67.1-.92.07-2.11-.22-5.6-1.23-5.12 2.65.06.47.16.93.31 1.4.14.46.32.92.53 1.38 0 .01.01.01.01.01.21.46.47.92.75 1.38s.6.92.94 1.38c.15.21.32.42.48.64.03.03.05.07.09.1.34.43.71.85 1.09 1.28.42.46.85.9 1.3 1.35.22.22.45.44.68.65.23.22.46.43.69.64.23.22.47.43.71.64l.72.63c.24.21.49.42.73.61.25.21.49.41.74.61.25.21.49.4.74.59.49.39.98.78 1.47 1.14.49.38.97.74 1.44 1.09.21.16.41.31.61.46.27.2.54.4.81.59.53.39 1.03.76 1.52 1.11.12.09.24.17.35.25.15.11.29.22.43.32.21.16.42.31.62.45.19.15.37.29.55.43.41.32 1.22.73 1.14 1.39s-.02.03-.02.03c1.12.62 2.24 1.23 3.34 1.89l.02-.02s.11-.08.18-.11c.03-.01.06-.02.1-.02.05-.01.1-.02.16-.02.07 0 .14.01.22.02.27.05.57.17.85.29.27.13.52.26.69.34 4.26 1.91 8.96 5.58 12.97 7.13.57.22.98.28 1.26.21.06 0 .12-.03.17-.05.07-.04.13-.09.18-.14.42-.5.1-1.74-.15-2.95-.39-1.9-1.42-5.69-2.33-7.2-1.53-2.54-1.81-1.68-3.9-2.54-9.07-3.77-15.96-11.78-25.5-13.64.02-.21.18-.32.4-.35.04 0 .08-.02.13-.02.16-.02.34-.02.51-.01.07.01.13.02.2.02.09.02.19.03.27.04.02.01.04.01.07.01.07.02.13.02.18.03 3.56.39 7.39 2.44 10.6 4.12 1.55.82 3.37 2.4 5.14 2.93.13.05.27.08.41.11.13.03.27.05.4.07.26.02.5.02.75-.01 1.88-.26.71-1.85 0-3.1-3.49-6.1-7.88-12.58-12.47-17.67-3.86-4.28-5.62-6.27-10.84-8.44-1.67-.7-3.37-1.3-5.09-1.82 0 0-.01.01-.02 0-.51-.15-1.03-.29-1.55-.43-.52-.13-1.04-.26-1.57-.38-.46-.1-.93-.2-1.4-.29-.46-.08-.93-.17-1.4-.24-.48-.08-.96-.14-1.44-.2-.14-.02-.27-.04-.41-.05q-.75-.09-1.5-.15h-.05c-.48-.04-.96-.07-1.43-.09q-.375-.03-.75-.03c-.42-.02-.83-.02-1.25-.02-.39 0-.78.01-1.18.02-.38.01-.76.02-1.15.05h-.15l-1.17.09h-.04c-.39.04-.78.08-1.16.12h-.02s-.01 0-.02.01h-.04l2.71-.86c2.7-.58 5.86-.45 8.49-1.12 2.2-.55 2.91-1.3 2.78-2.22-.02-.14-.06-.28-.12-.43-.02-.07-.05-.14-.09-.22-.05-.1-.11-.2-.17-.31-.08-.14-.18-.28-.28-.43-.06-.08-.12-.16-.19-.25-.02-.01-.02-.02-.03-.03-.42-.53-.96-1.11-1.53-1.73-1.47-1.57-3.28-3.23-5.2-4.83-.27-.23-.55-.45-.83-.68-.33-.25-.65-.51-.98-.77-.53-.4-1.05-.8-1.57-1.19-.26-.2-.52-.39-.79-.58-.39-.28-.78-.56-1.17-.83-.38-.27-.77-.54-1.15-.8-.34-.22-.66-.44-.98-.65-.62-.4-1.21-.78-1.79-1.13-.62-.38-1.24-.75-1.86-1.13-.02 0-.03-.01-.04-.02-.84-.49-1.68-.98-2.52-1.46-.02 0-.03-.01-.04-.02-.63-.35-1.27-.69-1.9-1.03-.01 0-.03 0-.04-.02-.42-.22-.84-.43-1.26-.64-.02-.01-.04-.01-.05-.03-.38-.18-.76-.36-1.13-.54l-.12-.06c-.31-.14-.62-.27-.93-.41-.35-.15-.7-.29-1.05-.44-.45-.18-.89-.35-1.33-.51-.02 0-.03-.01-.04-.01-.23-.08-.45-.16-.67-.23-.28-.09-.55-.18-.83-.27-.27-.09-.55-.17-.83-.24-.28-.08-.55-.15-.83-.22-.27-.07-.55-.13-.82-.19-.23-.05-.45-.09-.68-.13-.17-.04-.35-.07-.53-.09-.27-.05-.55-.09-.83-.12-.23-.03-.46-.06-.68-.08-.23-.03-.46-.04-.69-.06-.82-.06-1.63-.07-2.46-.01-.18 0-.36.01-.55.03-.37.03-.74.07-1.12.12-2.06.26-4.14.86-6.26 1.86-.35.17-.01.87-.74.63-.01.01-.01 0-.02 0-.15-.69.8-1.06 1.21-1.32.22-.13.5-.24.78-.34.1-.04.19-.07.29-.11.04-.02.08-.04.12-.05.25-.1.51-.21.73-.33h.01c.13-.08.24-.16.35-.24h.01c.07-.06.12-.12.18-.19.03-.03.05-.07.07-.1s.04-.07.06-.11q.06-.12.09-.24.06-.255 0-.57c-.02-.13-.05-.26-.1-.39-.03-.08-.06-.15-.1-.22-.03-.06-.06-.11-.09-.16-.1-.18-.21-.35-.35-.52-.13-.16-.28-.33-.44-.49l-.02-.02c-.16-.16-.34-.33-.53-.49s-.41-.33-.63-.49l-.02-.02c-.21-.15-.44-.31-.67-.46-.24-.16-.48-.32-.73-.46-.13-.07-.25-.15-.38-.22-.25-.15-.51-.29-.77-.43-.38-.21-.77-.4-1.15-.58-.13-.06-.26-.12-.38-.18-.25-.12-.49-.23-.73-.33-.12-.05-.24-.1-.35-.15s-.23-.1-.34-.14c-.22-.09-.43-.17-.63-.25-.1-.04-.2-.08-.29-.11q-.285-.105-.51-.18c-.09-.04-.17-.07-.25-.09-.8-.25-1.62-.47-2.45-.67h-.02c-.84-.2-1.68-.38-2.53-.55-.44-.09-.88-.17-1.32-.25-.43-.08-.85-.15-1.28-.21-.42-.07-.85-.13-1.28-.2-.45-.06-.89-.12-1.34-.18-.66-.09-1.33-.17-1.99-.25-2.84-.35-5.67-.63-8.4-1h-.03c-.04-.39.28-.39.58-.35H31c.08 0 .17.01.24.02.05.01.09.01.13.01h.03c1.68-.08 3.41-.1 5.17-.07.53.01 1.06.02 1.59.04h.04c1.05.03 2.09.08 3.14.15h.03c1.05.07 2.1.14 3.13.23 1.03.08 2.05.18 3.05.28 9.22.97 19.8 3.18 28.57 6.5 1.66.63 4.01 2.18 5.52 2.59 2.05.55 2.47-.07 2.08-1.16-.03-.08-.06-.17-.1-.25-.05-.11-.11-.22-.17-.34-.09-.16-.19-.33-.29-.5-.11-.17-.23-.35-.35-.53-.1-.14-.2-.28-.31-.42-.24-.33-.5-.66-.77-.99-.13-.16-.26-.31-.4-.47-.72-.83-1.47-1.61-2.06-2.17l-.18-.18c-.31-.28-.56-.5-.73-.62-.01 0-.01-.02-.02-.02-.09-.07-.37-.22-.75-.41-.05-.03-.1-.05-.16-.08-.1-.06-.19-.11-.29-.16-.19-.09-.39-.2-.58-.3-.15-.08-.3-.17-.44-.25-.23-.13-.45-.26-.63-.38-.07-.04-.13-.09-.19-.13-.07-.05-.12-.09-.17-.13-.12-.1-.16-.18-.11-.23.39.11.78.22 1.17.35 0 0 .01 0 .02.01.38.12.76.25 1.14.4.31.11.62.24.93.37.14.06.29.12.43.19.24.11.48.22.71.33.27.13.54.27.81.41.03.02.06.03.09.05.2.1.4.22.6.33.29.16.57.33.85.5.24.15.47.29.7.45.12.08.24.16.35.24s.23.16.34.24c.29.2.58.42.86.63.12.09.24.19.36.28h.01c.21.17.4.34.61.51.01 0 .02.01.03.02l.02.02c.31.25.62.52.92.8.42.37.84.77 1.24 1.18.14.14.28.29.42.43l.14.14c.29.31.59.63.87.96.28.31.55.62.81.94.18.21.35.42.52.63.22.28.44.56.65.84.36.47.76 1.12 1.17 1.8.07.11.13.22.2.34.48.79.96 1.59 1.38 2.15.06.08.12.16.18.23s.12.13.17.19q.09.105.21.21.195.165.42.36l.02.02c.06.06.14.11.21.17.07.05.15.11.22.17.03.02.06.04.09.07.18.13.36.27.55.4.2.14.4.28.61.42.14.1.28.19.43.29.82.54 1.73 1.12 2.65 1.68l.39.24c.26.15.53.31.78.47.26.16.52.31.77.47.12.07.25.15.37.23.25.14.49.29.73.45.11.06.22.13.33.2.58.36 1.1.7 1.54 1 .04.04.08.06.12.09l.12.09c4.39 3.19 8.57 6.81 13.07 9.84.11.08.29.19.5.33.07.05.15.11.23.16.11.07.23.15.35.23.16.11.34.22.52.34.01.02.02.03.04.03.18.12.36.24.55.35l.15.09c.13.08.26.15.38.23.13.08.26.15.38.22s.24.14.36.2c.12.07.24.13.35.18.23.11.43.2.61.26.25.09.44.12.56.08.02 0 .04-.01.05-.02h.02l.02-.02c-.28-2-1.88-3.53-3.06-4.91h.03c.13.05.26.11.4.17.13.07.26.14.4.22.13.08.27.16.41.25.1.06.2.13.3.2.04.03.07.05.11.08.03.03.06.06.1.08.21.15.41.31.61.49.12.1.25.21.38.32.22.2.44.4.66.62.22.2.43.41.64.63h.01c.41.42.79.83 1.12 1.2.31.35.61.69.89 1.04.57.68 1.09 1.37 1.57 2.05.03.04.06.07.08.11.22.31.43.61.62.92.23.33.44.67.65 1 .31.5.6 1.01.88 1.51.15.25.29.5.43.76.14.25.28.5.42.76.01.04.03.08.06.11.36.68.71 1.37 1.06 2.07.54 1.07 1.08 2.15 1.66 3.24.38.73.77 1.46 1.2 2.2.21.37.42.74.65 1.12 1.01 1.7 3.29 3.64 4.59 5.3 3.42 4.37 6.91 9.99 11.16 13.31 1.62 1.27 2.5 1.41 2.93.8.05-.07.09-.15.14-.25.08-.2.14-.44.17-.72.04-.27.06-.57.06-.91 0-.31-.02-.66-.04-1.02-.01-.02-.01-.03 0-.05v-.02c0-.06-.01-.11-.02-.17-.02-.31-.05-.62-.08-.96-.19-2-.88-5.14-1.81-6.8-.11-.2-1.97-2.59-1.73-2.93.02-.02.05-.04.09-.04.06 0 .15.03.26.08.02.01.07.05.13.11l.11.11c.08.08.17.18.28.3.53.58 1.3 1.48 1.52 1.79.02.02.04.04.05.06.2.28.38.57.56.86.19.3.36.58.53.88.17.29.33.59.48.89.13.24.25.49.37.74.02.05.05.1.07.15l.01.02c.14.29.27.59.4.89v.01c.27.61.51 1.23.73 1.86.11.33.22.64.31.97.11.32.21.64.29.97.24.8.44 1.62.62 2.45.11.5.22 1 .32 1.51.09.51.19 1.02.28 1.54.09.51.17 1.03.25 1.56.49 3.16.47 8.05 1.55 10.92.07.2.19.46.35.76h.01q.045.12.12.24.12.24.27.51c.05.09.1.18.15.28.05.09.1.18.16.28.1.19.21.39.34.6.07.12.14.25.22.39.11.18.22.37.33.56.19.32.38.64.57.97h.01c.13.22.26.43.38.64 0 .01.01.01.01.01.06.11.13.21.2.32.12.21.24.41.36.61 0 0 0 .01.01.01.18.31.37.6.54.87.11.17.22.35.32.51.05.09.11.17.16.25s.09.15.14.22q.135.21.24.39c.04.06.08.12.11.17.98 1.52 2.21 3.04 3.38 4.61.47.63.94 1.27 1.37 1.92q.33.495.63.99c1.47 2.42 2.91 6.12 4.51 8.19 1.96 2.54 1.27.52 1.33-.71Zm-44.83-38.26c.17.1.17.21 0 .32zm-1.55-1.4c.45.36 1.23.6 1.14 1.4l-12.82-6.66c3.97.17 8.45 2.65 11.68 5.26m-36.37-45.8c.17.1.17.21 0 .32zm-31.93-2.55c-.28.33-1.12-.62-.84-.95.28-.32 1.12.63.84.95m25.77 8.81c-4.26 1.77-9.37 2.29-13.74.87-3.54-1.15-8.82-5.35-11.16-8.56-.26-.34-.69-.49-.56-1.1.3-.34 6.24 4.61 7.04 5.13 6.12 3.97 12.26 4.53 19.15 3.1h.02c.07.46-.45.43-.75.56m3.51 7.67v.31c-1.16.17-1.16-.46 0-.31m.43 1.27c6.98-.32 14.8.22 21.4 2.93 6.18 2.55 10.66 7.35 14.69 13.08-2.28-1.36-4.16-3.77-6.27-5.53-9.23-7.7-19.6-9.31-30.79-10.15-.06-.56.63-.33.97-.33M74.41 71.08c6.46 1.7 12.22 6.55 17.88 10.25h.02c0 .67-1.14-.06-1.38-.17-6.18-2.71-11.63-7-18.35-8.62-4.85-1.18-9.57-.97-14.46-.45-.32.02-1.01.28-.94-.28 5.73-1.64 11.39-2.26 17.23-.73m38.39 14.05c.17.1.17.21 0 .32zM71.95 54.08v.3c-1.16.17-1.16-.45 0-.3m-61.48 4.76v-.32c.17.11.17.21 0 .32m.43-.64c.03-.12.1-.24.19-.35.04-.07.1-.13.18-.2.04-.03.07-.06.11-.09.07-.07.14-.13.21-.17.04-.02.08-.05.11-.08.18-.14.36-.26.49-.36 2.5-1.94 6.25-3.8 9.16-4.79 1.19-.41 2.4-.76 3.61-1.05.3-.07.59-.14.89-.21.59-.14 1.18-.26 1.77-.37.3-.05.59-.1.89-.15l.36-.06c.46-.07.92-.14 1.38-.19.64-.09 1.27-.15 1.91-.2.29-.02.58-.05.86-.06q.015-.015.03 0c.01-.01.02-.01.03-.01.03-.01.07-.01.1 0 .33-.03.67-.05 1-.06.6-.03 1.2-.04 1.8-.04h.13q.645 0 1.29.03c.11 0 .22 0 .33.01.17 0 .34.01.51.02.01-.01.02 0 .02 0 .03-.01.05-.01.08 0 .39.02.77.04 1.15.07.17.01.33.02.5.04.58.05 1.17.11 1.75.17.63.08 1.25.16 1.88.27.62.09 1.25.21 1.87.34.63.12 1.25.26 1.87.42 1.24.28 2.47.63 3.68 1.03v.3c.01.1.02.17 0 .22s0 .03-.01.04c-.04.05-.14.04-.36 0-1.94-.41-3.94-1.05-5.93-1.2-4.71-.37-10.59-.02-15.29.66-6.46.95-12.76 2.98-18.57 6.3-.01-.03-.01-.06-.01-.09 0-.07.01-.13.03-.19m17 5.36c-1.17.17-1.17-.45 0-.3zm7.11.67c5.99.26 11.95-1.6 17.71.62-.35.8-1.77.02-2.37 0-6.19-.32-12.43 1.6-18.6-.08l-3.55-1.19c2.22-.06 4.61.54 6.81.65m13.34-8.19c-.66-.08-1.32-.17-1.97-.26-.02 0-.04 0-.06-.01l-1.92-.24c-.5-.06-1-.12-1.49-.17-.5-.06-1-.11-1.49-.15-.67-.06-1.35-.11-2.03-.15-.34-.02-.69-.03-1.03-.05-1.5-.07-3.07-.07-4.75 0-4.58.21-9.17 1.28-13.71 1.44h-.08c9.28-3.99 19.84-5.62 29.43-2.07.54.2 1.07.47 1.59.75.01.01.02.01.03.02.26.13.52.27.78.4s.53.25.79.37c.36.15.72.28 1.09.37s.03.01.03.01c-.01 0-.02 0-.03-.01v.02c.02.3-.17.36-.39.34-.04 0-.08-.01-.12-.01s-.08-.01-.11-.02c-.11-.02-.22-.05-.3-.06-1.46-.16-2.86-.34-4.21-.51-.02 0-.03 0-.05-.01m30.84 8.49-.13.62c-8.03-3.59-16.52-5.23-25.01-6.74-.32-.06-1.33-.09-1.33-.54 9.24-.39 18.09 2.54 26.47 6.66m.48-6.72-7.44-3.43c8 1.51 16.1 5.56 22.84 10.64 4.27 3.21 8.38 7.22 11.46 11.85h-.02c-1.21.05-1.92-1.55-2.78-2.37-7.09-6.85-15.7-12.1-24.06-16.69m16.26 16.24c6.34 1.32 11.36 6.31 16.44 10.45v.02c.09.71 0 .78-.58.5zm25.83 10.84c-.62-.73-1.96-1.29-2-2.63.67.5 1.36.86 1.98 1.4v-.02c7.67 6.57 15.47 17.49 20.14 27.01l.89 2.33c-6.59-9.76-13.57-19.15-21.01-28.09m14.87 24.95c.26-.31 3.62 2.75 4.03 3.16 2.19 2.24 4.71 5.41 5.73 8.56zm10.6 12.99c-.3.32-1.14-.63-.84-.95s1.12.62.84.95m2.37-7.91v-.32c.17.1.17.21 0 .32m3.62-.97v-.32c.17.11.17.21 0 .32m.56.97v-.32c.17.1.17.21 0 .32m16.54 40.44c-4-9.05-6.87-18.68-10.58-27.9-.06-1.68-6.24-11.74-5.81-12.24.21-.24.82.35.95.67 8.57 12.19 12.17 27.4 16.89 41.79z"/>
    <path d="m79.19 64.53-.13.62c-8.03-3.59-16.52-5.23-25.01-6.74-.32-.06-1.33-.09-1.33-.54 9.24-.39 18.09 2.54 26.47 6.66m8.12 22.81c.07.46-.45.43-.75.56-4.26 1.77-9.37 2.29-13.74.87-3.54-1.15-8.82-5.35-11.16-8.56-.26-.34-.69-.49-.56-1.1.3-.34 6.24 4.61 7.04 5.13 6.12 3.97 12.26 4.53 19.15 3.1zm5-6.01c0 .67-1.14-.06-1.38-.17-6.18-2.71-11.63-7-18.35-8.62-4.85-1.18-9.57-.97-14.46-.45-.32.02-1.01.28-.94-.28 5.73-1.64 11.39-2.26 17.23-.73 6.46 1.7 12.22 6.55 17.88 10.25zm14.22-4.46h-.02c-1.21.05-1.92-1.55-2.78-2.37-7.09-6.85-15.7-12.1-24.06-16.69l-7.44-3.43c8 1.51 16.1 5.56 22.84 10.64 4.27 3.21 8.38 7.22 11.46 11.85m5.26 8.15L95.93 74.05c6.34 1.32 11.36 6.31 16.44 10.45v.02c.09.71 0 .78-.58.5m14.8 27.83c-2.28-1.36-4.16-3.77-6.27-5.53-9.23-7.7-19.6-9.31-30.79-10.15-.06-.56.63-.33.97-.33 6.98-.32 14.8.22 21.4 2.93 6.18 2.55 10.66 7.35 14.69 13.08m16.18.13c-6.59-9.76-13.57-19.15-21.01-28.09-.62-.73-1.96-1.29-2-2.63.67.5 1.36.86 1.98 1.4v-.02c7.67 6.57 15.47 17.49 20.14 27.01zm29 44.7-1.45-2.32c-4-9.05-6.87-18.68-10.58-27.9-.06-1.68-6.24-11.74-5.81-12.24.21-.24.82.35.95.67 8.57 12.19 12.17 27.4 16.89 41.79m-25.38-36.12-9.76-11.72c.26-.31 3.62 2.75 4.03 3.16 2.19 2.24 4.71 5.41 5.73 8.56m-16.16 7.28-12.82-6.66c3.97.17 8.45 2.65 11.68 5.26.45.36 1.23.6 1.14 1.4" class="st28"/>
    <path d="M53.56 56.3c.06.56-.62.3-.93.28-6.74-.75-11.96-1.9-19-1.55-4.61.22-9.22 1.29-13.79 1.44 9.29-3.96 19.82-5.62 29.43-2.07 1.46.54 2.78 1.55 4.31 1.92z" class="st52"/>
    <path d="M50.67 52.72c-1.94-.41-3.94-1.05-5.93-1.2-4.71-.37-10.59-.02-15.29.66-6.46.95-12.76 2.98-18.57 6.3-.01-.03-.01-.06-.01-.09 0-.07.01-.13.03-.19.03-.12.1-.24.19-.35.06-.07.12-.13.18-.2.04-.03.07-.06.11-.09.07-.06.14-.11.21-.17.04-.02.08-.05.11-.08.18-.13.36-.24.49-.34 2.5-1.96 6.27-3.79 9.16-4.79 1.19-.41 2.4-.76 3.61-1.07 1.18-.29 2.36-.54 3.55-.73l.36-.06c.46-.07.92-.14 1.38-.19.64-.09 1.27-.15 1.91-.2.29-.02.58-.05.86-.06q.015-.015.03 0c.01-.01.02-.01.03-.01.03-.01.07-.01.1 0 .33-.03.67-.05 1-.06.6-.03 1.2-.04 1.8-.04h.13q.645 0 1.29.03c.11 0 .22 0 .33.01.17 0 .34.01.51.02.01-.01.02 0 .02 0 .03-.01.05-.01.08 0 .39.02.77.04 1.15.07.17.01.33.02.5.04.58.05 1.17.11 1.75.17.63.08 1.25.17 1.88.27s1.25.21 1.87.34c.63.13 1.25.27 1.87.42 1.24.3 2.46.65 3.68 1.05-.02.51.16.65-.37.54" class="st28"/>
    <path fill="#fefefe" d="M50.67 52.75c-1.94-.41-3.94-1.06-5.93-1.21-4.71-.37-10.59 0-15.29.67-6.49.94-12.76 2.97-18.57 6.29v-.02c5.81-3.32 12.11-5.35 18.57-6.3 4.7-.68 10.58-1.03 15.29-.66 1.99.15 3.99.79 5.93 1.2.53.11.35-.03.37-.54 0 .5.16.67-.37.57"/>
    <path d="M52.72 64.85c-.35.8-1.77.02-2.37 0-6.19-.32-12.43 1.6-18.6-.08l-3.55-1.19c2.22-.06 4.61.54 6.81.65 5.99.26 11.95-1.6 17.71.62" class="st28"/>
    <g id="ROBIN14" data-name="ROBIN1">
      <path d="m65.06 178.65-7.88-17.15c-.3-.67-1.21-.39-1.14.37l1.08 16.31c.02.43-.28.78-.67.73h-3.73c-1.87 0-4.91-.26-6.76-.58-2.05-.34-3.9-1.55-5.21-3.34-.47-.65-.82-1.18-.82-1.31l1.57-41.67c0-3.99 2.84-7.24 6.36-7.24l15.38-1.06h.52c5.99.15 8.21 1.59 10.43 3.73 2.39 2.28 2.69 3.19 4.01 5.8s1.96 5.54 1.96 8.81c0 3.51-.84 6.64-2.54 9.37-1.57 2.52-3.77 4.39-6.64 5.6-.37.15-.52.62-.32.99l9.37 17.92c1.06 2.03-.34 4.57-2.41 4.35l-6.38-.22c-.69-.02-1.38 0-2.07.02l-1.81.11c-.86.04-1.9-.62-2.28-1.51v-.04Zm-9.24-31.82c0 .39.28.69.6.69h5.06c1.38 0 2.41-.37 3.1-1.08s1.03-1.85 1.03-3.38c0-1.38-.34-2.48-1.06-3.27-.71-.8-1.72-1.18-3.06-1.18h-5.06c-.34 0-.6.3-.6.69v7.54h-.02Zm54.76-11.64c2.24 2.65 3.83 6.08 4.78 10.32.97 4.22 1.12 8.83.47 13.81s-1.96 9.35-3.94 13.08-4.39 6.53-7.22 8.36c-2.82 1.83-5.75 2.5-8.75 2s-5.69-2.09-7.93-4.76-3.86-6.12-4.83-10.36c-.97-4.22-1.14-8.83-.5-13.81s1.96-9.35 3.96-13.08 4.42-6.51 7.24-8.32 5.75-2.46 8.79-1.96 5.67 2.09 7.91 4.74v-.02ZM95.7 147.47c-1.36 1.85-2.26 4.55-2.71 8.04s-.26 6.29.58 8.51 2.26 3.49 4.31 3.83 3.68-.43 5.04-2.28 2.26-4.5 2.69-7.97.26-6.36-.58-8.57c-.84-2.22-2.24-3.49-4.24-3.83s-3.73.43-5.08 2.28Z" class="st15"/>
      <path d="M143.91 176.04c1.42 2.33 1.55 5.84.99 8.53-.78 3.81-2.05 6.83-4.7 8.6-2.31 1.53-8.57-.26-11.96-1.4l-15.75-4.72c-1.9-.56-2.76-3.08-1.68-4.93l.71-1.25c2.24-3.92 3.96-8.21 5.11-12.71l1.12-4.46c.32-1.27.6-2.56.86-3.88l.95-4.85c.65-3.36.93-6.81.78-10.25l-.06-1.79c-.09-2.46 2.15-4.16 4.11-3.1l11.07 5.97c3.1 1.72 8.68 5.92 10.41 8.42 1.59 2.31 1.79 5.32.82 8.96-.67 2.5-1.98 4.7-3.38 6.1-1.4 1.38-2.97 2.09-4.72 2.11 1.72 1.25 4.16 2.76 5.32 4.65Zm-17.77-15.21c-.34 1.12.24 2.33 1.25 2.56l4.07.99c1.29.15 2.11.26 2.89-.06s1.36-.88 1.81-2.24.56-3.1.3-4.03c-.32-1.12-1.14-2.52-2.43-3.21l-4.27-1.94c-1.1-.5-2.33.41-2.35 1.75v.19c-.17 1.9-.56 3.77-1.14 5.56l-.13.39zm6.67 23.15c1.5-.64 1.7-1.15 1.89-2.66.14-1.26-.53-2.9-1.6-4.3-1.08-1.39-2.62-2.55-3.98-3.22-.18-.09.08.04-.55-.23l-2.96-1.13c-1.08-.28-2.05 0-2.5 1.65-.38 1.46-.25.99-.82 2.56l-.6 1.81c-.66 1.35-.08 3.1 1.15 3.54l3.9 1.37c2.71.75 5.13 1.02 6.07.62v-.02Zm31.42-12.92-11.1 30.21c-.2.53-.8.79-1.32.55l-7.76-3.5c-.45-.2-.68-.7-.53-1.17l9.9-33.05c.5-1.66 2.28-2.28 3.51-1.21l6.79 5.9c.6.52.82 1.44.52 2.24v.02Zm15.49 47.27-6.42-4.2c-.75-.45-1.27-.77-1.53-1.68l-2.84-15.46-3.58 7.65c-.82 1.75-2 3.66-3.55 2.75l-5.77-3.07c-1.44-.85-.73-3.15-.11-4.86l8.57-23.83c.8-2.19 3.21-2.94 4.89-1.49l3.21 2.79c.6.51 1.01 1.26 1.16 2.07l4.63 23.92 4.22-9.71c.93-2.15 2.81-2.78 4.15-1.31l3.5 4.05c1.06 1.09 1.86 2.31 1.19 3.74l-7.86 15.19c-.82 1.75-2.28 4.34-3.83 3.43l-.02.04Z" class="st15"/>
    </g>
  </g>
</svg>
