<?xml version="1.0" encoding="UTF-8"?><svg id="Layer_1" xmlns="http://www.w3.org/2000/svg" viewBox="0 0 280 290.56"><defs><style>.cls-1{fill:#b2b0af;}.cls-2{fill:#06579a;}.cls-3{fill:#edecec;}.cls-4{fill:#df8117;}.cls-5{fill:#f1a159;}.cls-6{fill:#fafcf9;}.cls-7{fill:#578b30;}.cls-8{fill:#2786c4;}.cls-9{fill:#f34436;}.cls-10{fill:#c72b29;}.cls-11{fill:#ad5a13;}.cls-12{fill:#f7fafc;}.cls-13{fill:#fdf3f3;}.cls-14{fill:#fefdf6;}.cls-15{fill:#feec58;}.cls-16{fill:#fefefe;}.cls-17{fill:#ac5911;}.cls-18{fill:#7db243;}</style></defs><g id="Emoji"><g id="Pallete"><path class="cls-5" d="M264.33,113.13C224.68,40.52,124.95-21.45,44.77,27.46,21.93,41.4,10.19,59.47,3.44,84.9c2.87,7.6.76,17.04,1.34,25.14,4.05,57.21,61.74,123.68,115.01,142.91,29.99,10.82,73.28,14.75,97.77-9.29.6-6.29,2.1-6.23-2.67-12.56-11.94-15.84-42.17-20.66-47.86-46.98-1.1-5.04-3.1-8.27,4.58-9.32,15.27-2.09,32.22,12.5,46.58,17.29,23.5,7.81,42.55,3.75,59.22-14.59,7.33-22.46-2.08-44.26-13.08-64.38ZM73.25,165.6c-17.54-1.81-39.35-28.16-23.26-42.34,17.02-14.99,42.21,3.08,45.2,22.5,2.32,14.96-7.61,21.31-21.95,19.84ZM91.2,82.92c-10.09,13.09-24.3,6.38-35-2.21-10.49-8.42-14.92-17.95-4.89-28.89,3.33-3.61,2.79-3.81,7.97-5.29,4.23-1.2,7.56-1.57,11.97-1.32,9.88.53,20.96,7.48,23.94,17.2,2.48,8.07,1.14,13.86-3.99,20.5ZM152.38,211.92c-1.83,30.31-49.04,11.85-51.88-11.22-1.16-9.38.44-15.36,9.34-19.22,21.76-9.45,44.03,6.23,42.55,30.43ZM122.09,46.15c.75-3.4,2.74-3.48,3.7-4.9,3.21-4.68,3.62-6.67,10.3-7.61,15.79-2.25,31.1,7.91,33.6,23.49.53,3.35,2.18,3.28-.32,8.31-11.37,22.82-52,2.03-47.27-19.28ZM198.94,159c-.36.05-1.08,1.33-3.09,1.28-12.36-.39-29.37-15.15-30.16-27.75-1.14-18.03,16.08-18.99,28.87-12.17,14.57,7.76,28.69,34.88,4.38,38.64ZM214.5,113.74c-2.82-.65-19.6-13.36-21.16-15.99-4.31-7.26-3.54-13.02,2.94-18.14,11.97-9.45,29.07-1.41,35.91,10.59,8.72,15.3-.89,27.39-17.69,23.53Z"/><path class="cls-17" d="M277.4,177.52c-9.5,29.08-41.9,31.58-67.4,21.41-13.4-5.35-28.11-18.32-42.98-14.79-1.09-5.04-3.1-8.27,4.59-9.32,15.27-2.08,32.22,12.5,46.58,17.29,23.48,7.82,42.54,3.75,59.21-14.58Z"/><path class="cls-17" d="M217.56,243.66c-.47,4.89-.65,7.83-1.88,10.19-.01,0-.01.01-.01.01-1.24,2.37-3.57,4.16-8.32,6.76-5.68,3.11-12.09,5.34-18.88,6.83-7.63,1.7-15.71,2.47-23.71,2.54-16.4-.12-33.06-3.68-46.94-8.69-5.29-1.91-10.63-4.28-15.96-7.06l-9.22-5.2c-.03-.05-.07-.08-.09-.11-.09-.05-.19-.09-.29-.13-5.74-3.51-11.43-7.45-16.99-11.77-.01,0-.01-.01-.03-.03C36.19,206.73,3.16,158.31.1,115.05c-.36-5.26.37-11.06.21-16.58.81-4.61,1.95-9.16,3.13-13.57,2.87,7.6.76,17.04,1.34,25.14,4.05,57.21,61.74,123.68,115.01,142.91,29.99,10.82,73.28,14.75,97.77-9.29Z"/><path class="cls-11" d="M198.94,158.99c17.11-18.12-19.49-48.7-33.25-26.46-1.13-18.03,16.08-18.99,28.87-12.18,14.58,7.77,28.69,34.89,4.38,38.64Z"/><path class="cls-15" d="M169.68,57.12c-10.53,21.5-47.63,6.22-43.89-15.88,3.2-4.68,3.61-6.67,10.3-7.62,15.78-2.25,31.1,7.91,33.59,23.49ZM145.74,35.97c-1.84-2.61-11.66.08-13.92,2.66-5.39,6.15.76,16.53,5.84,13.09.94-.64.83-5.95,1.81-7.47.7-1.09,8.92-4.54,6.27-8.28Z"/><path class="cls-4" d="M169.68,57.12c.54,3.35,2.18,3.28-.32,8.31-11.36,22.83-52.01,2.04-47.28-19.27.76-3.41,2.74-3.49,3.71-4.91-3.75,22.09,33.35,37.38,43.89,15.88Z"/><path class="cls-14" d="M145.74,35.97c2.65,3.75-5.57,7.19-6.27,8.28-.97,1.52-.86,6.83-1.81,7.47-5.08,3.44-11.23-6.94-5.84-13.09,2.26-2.58,12.07-5.28,13.92-2.66Z"/><path class="cls-9" d="M71.27,45.22c-4.42-.24-7.75.13-11.97,1.32-5.19,1.47-4.66,1.67-7.98,5.29-2.28,4.61-2.07,10.21.72,14.5,1.85,2.85,17.99,13.73,21.55,14.33,11.77,1.96,18.6-8.42,21.61-18.24-2.98-9.71-14.06-16.66-23.93-17.2ZM65.27,57.26c-2.26,3.66-2.31,10.64-7.85,6.71-.07-.05-.14-.1-.21-.15-1.63-1.2-2.55-2.46-2.97-3.75-.01-.02-.01-.04-.02-.06-.21-.65-.28-1.31-.25-1.98.09-2.64,1.79-5.36,3.38-7.98,1.56-1.5,3.69-2.65,6.4-3.1,2.89-.47,9.79-.1,10.16,3.33v.02c-.24,2.89-5.45,3.23-8.02,6.11-.22.25-.42.53-.61.83v.02Z"/><path class="cls-10" d="M91.21,82.92c-10.1,13.1-24.31,6.38-35.01-2.21-10.49-8.42-14.92-17.94-4.88-28.88-2.28,4.61-2.07,10.21.72,14.5,1.85,2.85,17.99,13.73,21.55,14.33,11.77,1.96,18.6-8.42,21.61-18.24,2.49,8.07,1.13,13.86-3.99,20.5Z"/><path class="cls-13" d="M73.91,50.28v.02c-.24,2.89-5.45,3.23-8.02,6.11-.22.25-.42.53-.61.83v.02c-2.27,3.66-2.32,10.64-7.86,6.71-.07-.05-.14-.1-.21-.15-1.63-1.2-2.55-2.46-2.97-3.75-.01-.02-.01-.04-.02-.06-.21-.65-.28-1.31-.25-1.98.09-2.64,1.79-5.36,3.38-7.98,1.56-1.5,3.69-2.65,6.4-3.1,2.89-.47,9.79-.1,10.16,3.33Z"/><path class="cls-3" d="M109.84,181.48c-16.43,23.77,25.73,51.95,42.55,30.43,1.48-24.2-20.79-39.88-42.55-30.43ZM127.11,188.08c-7.95,2.05-7.11,5.82-9.99,11.92-6.06.37-7.11-6.38-5.69-10.98,2.24-7.3,18.94-5.63,15.68-.94Z"/><path class="cls-1" d="M152.39,211.91c-1.84,30.31-49.04,11.86-51.89-11.21-1.16-9.39.44-15.36,9.34-19.22-16.43,23.77,25.73,51.95,42.56,30.43Z"/><path class="cls-16" d="M127.11,188.07c-7.95,2.05-7.11,5.82-10,11.92-6.06.37-7.11-6.38-5.69-10.98,2.24-7.29,18.95-5.63,15.69-.94Z"/><path class="cls-18" d="M232.19,90.2c-6.84-12-23.94-20.04-35.91-10.59-2.34,4.94-4.27,9.61-.63,14.52.71.97,19.01,12.7,20.18,12.98,12.69,2.94,18.11-5.21,16.35-16.92ZM214.85,83.51c-.24.36-6.12,1.63-7.88,3.43-2.46,2.5-2.93,10.75-8.05,5.28-2.98-3.18-3.06-5.37-1.12-9.09,4.5-8.64,20.72-5.24,17.06.39Z"/><path class="cls-7" d="M232.18,90.2c8.72,15.3-.89,27.4-17.68,23.54-2.82-.65-19.6-13.35-21.17-15.98-4.31-7.25-3.54-13.02,2.94-18.14-2.33,4.94-4.27,9.61-.63,14.53.71.96,19.02,12.7,20.19,12.97,12.69,2.94,18.11-5.2,16.35-16.92Z"/><path class="cls-6" d="M214.84,83.51c-.23.36-6.11,1.64-7.88,3.43-2.46,2.49-2.92,10.75-8.05,5.27-2.98-3.18-3.07-5.37-1.13-9.09,4.5-8.63,20.72-5.24,17.06.39Z"/><path class="cls-8" d="M49.99,123.27c-8.32,25.58,31.3,47.57,45.2,22.5-2.99-19.41-28.19-37.49-45.2-22.5ZM72.58,125.22c-.35,1.38-6.79,4.16-8.55,6.07-2.08,2.27-1.95,7.56-6.51,6.39-6.41-1.65-5.32-14.95,5.42-16.76,3.03-.52,10.69-.03,9.63,4.29Z"/><path class="cls-2" d="M95.2,145.76c2.31,14.97-7.62,21.32-21.95,19.84-17.54-1.81-39.35-28.16-23.26-42.33-8.32,25.57,31.31,47.57,45.22,22.49Z"/><path class="cls-12" d="M62.95,120.92c3.03-.51,10.69-.03,9.63,4.29-.34,1.39-6.79,4.17-8.55,6.08-2.09,2.28-1.96,7.55-6.51,6.39-6.41-1.64-5.32-14.94,5.42-16.76Z"/></g></g></svg>