<?xml version="1.0" encoding="UTF-8"?><svg id="Layer_1" xmlns="http://www.w3.org/2000/svg" viewBox="0 0 503 503.18"><defs><style>.cls-1{fill:none;}.cls-1,.cls-2,.cls-3,.cls-4,.cls-5,.cls-6,.cls-7,.cls-8,.cls-9,.cls-10,.cls-11,.cls-12{stroke:#000;stroke-miterlimit:10;stroke-width:.5px;}.cls-2{fill:#00b400;}.cls-3{fill:#bb4a4b;}.cls-4{fill:#0078f0;}.cls-5{fill:#f09600;}.cls-6{fill:#3b4e51;}.cls-7{fill:#fff;}.cls-8{fill:#783cf0;}.cls-9{fill:#f00000;}.cls-10{fill:#e65454;}.cls-11{fill:#2b383c;}.cls-12{fill:#dcdc00;}</style></defs><polygon class="cls-4" points="251.5 284.79 211.94 356.45 130.11 356.45 171.03 285.59 251.5 284.79"/><polygon class="cls-9" points="372.89 356.45 291.5 356.45 291.29 356.06 251.5 284.79 331.52 284.79 331.97 285.59 372.89 356.45"/><polygon class="cls-1" points="291.29 356.06 291.5 356.45 291.06 356.45 291.29 356.06"/><polygon class="cls-12" points="291.06 214.72 251.5 284.79 211.94 214.72 251.5 146.21 291.06 214.72"/><polygon class="cls-8" points="291.29 356.06 291.06 356.45 251.5 424.96 211.94 356.45 251.5 284.79 291.29 356.06"/><polygon class="cls-5" points="372.89 214.72 331.97 285.59 331.52 284.79 251.5 284.79 291.06 214.72 372.89 214.72"/><polygon class="cls-2" points="251.5 284.79 171.03 285.59 130.11 214.72 211.94 214.72 251.5 284.79"/><g id="Attributes"><g id="Timer"><path class="cls-10" d="M300.36,165.72l-59.4,89.22c-33.87,15.57-23.87,65.27,14.9,61.7,21.85-2.02,30.44-25.79,25.32-44.97l24.37-101.75c.86-3.73-1.83-5.34-5.19-4.2ZM251.39,300.47c-8.16,0-14.78-6.67-14.78-14.89s6.62-14.87,14.78-14.87,14.77,6.66,14.77,14.87-6.62,14.89-14.77,14.89Z"/><path class="cls-10" d="M122.18,279.83c-1.93-.46-14.45-.36-16.77,0-6.91,1.09-6.59,10.73.57,11.86,3.13.5,15.41.55,17.75-.86,4.52-2.75,2-10.12-1.55-11ZM163.84,188.69c-.61-1.49-6.56-7.52-8.09-8.77-.47-.38-4.02-2.98-4.25-3.09-5.43-2.04-10.43,3.5-8.11,8.61.36.78,11.54,12.05,12.34,12.41,6.22,2.89,10.66-2.95,8.11-9.16ZM160.39,373.48c-5.8-.13-12.95,5.92-15.96,10.71-4.02,6.34,1.18,13.25,7.32,10.39,1.43-.66,12.61-12.52,12.84-13.94.5-2.9-1.06-7.09-4.2-7.16ZM257.29,416.94c-.77-6.29-10.86-6.14-11.84,0-.41,2.63-.45,13.38,0,15.89,1.17,6.38,10.94,6.77,11.84-.98.41-3.53.42-11.39,0-14.91ZM257.29,138.76c-1.06-6.84-10.79-6.81-11.84,0-.49,3.16-.36,11.57,0,14.91.94,8.41,10.8,7.71,11.84.98.46-2.93.46-12.96,0-15.89ZM300.36,165.72l-59.4,89.22c-33.87,15.57-23.87,65.27,14.9,61.7,21.85-2.02,30.44-25.79,25.32-44.97l24.37-101.75c.86-3.73-1.83-5.34-5.19-4.2ZM251.39,300.47c-8.16,0-14.78-6.67-14.78-14.89s6.62-14.87,14.78-14.87,14.77,6.66,14.77,14.87-6.62,14.89-14.77,14.89ZM351.68,176.7c-2.34.54-11.86,9.77-12.77,11.99-2.57,6.21,1.88,12.05,8.11,9.16.78-.36,11.96-11.63,12.34-12.41,2.36-5.15-1.95-10.04-7.68-8.74ZM351.02,376.64c-.45-.36-4.02-2.99-4.27-3.09-5.45-2.32-10.61,3.07-8.07,8.6.36.81,10.91,11.27,11.93,11.81,4.78,2.52,5.66,1.12,7.66-2.41.25-.43,1.43-.52,1.57-1.16,1.04-4.75-5.37-10.93-8.82-13.75ZM397.32,279.83c-2.39-.37-14.66-.46-16.76,0-4.27.98-5.72,8.48-1.54,11,2.45,1.47,18.55,1.54,20.66.02.38-.29,2.66-4.79,2.59-5.41-.37-2.88-2.05-5.14-4.95-5.61ZM397.32,279.83c-2.39-.37-14.66-.46-16.76,0-4.27.98-5.72,8.48-1.54,11,2.45,1.47,18.55,1.54,20.66.02.38-.29,2.66-4.79,2.59-5.41-.37-2.88-2.05-5.14-4.95-5.61ZM351.02,376.64c-.45-.36-4.02-2.99-4.27-3.09-5.45-2.32-10.61,3.07-8.07,8.6.36.81,10.91,11.27,11.93,11.81,4.78,2.52,5.66,1.12,7.66-2.41.25-.43,1.43-.52,1.57-1.16,1.04-4.75-5.37-10.93-8.82-13.75ZM351.68,176.7c-2.34.54-11.86,9.77-12.77,11.99-2.57,6.21,1.88,12.05,8.11,9.16.78-.36,11.96-11.63,12.34-12.41,2.36-5.15-1.95-10.04-7.68-8.74ZM300.36,165.72l-59.4,89.22c-33.87,15.57-23.87,65.27,14.9,61.7,21.85-2.02,30.44-25.79,25.32-44.97l24.37-101.75c.86-3.73-1.83-5.34-5.19-4.2ZM251.39,300.47c-8.16,0-14.78-6.67-14.78-14.89s6.62-14.87,14.78-14.87,14.77,6.66,14.77,14.87-6.62,14.89-14.77,14.89ZM257.29,154.65c.46-2.93.46-12.96,0-15.89-1.06-6.84-10.79-6.81-11.84,0-.49,3.16-.36,11.57,0,14.91.94,8.41,10.8,7.71,11.84.98ZM245.45,416.94c-.41,2.63-.45,13.38,0,15.89,1.17,6.38,10.94,6.77,11.84-.98.41-3.53.42-11.39,0-14.91-.77-6.29-10.86-6.14-11.84,0ZM160.39,373.48c-5.8-.13-12.95,5.92-15.96,10.71-4.02,6.34,1.18,13.25,7.32,10.39,1.43-.66,12.61-12.52,12.84-13.94.5-2.9-1.06-7.09-4.2-7.16ZM155.73,197.85c6.22,2.89,10.66-2.95,8.11-9.16-.61-1.49-6.56-7.52-8.09-8.77-.47-.38-4.02-2.98-4.25-3.09-5.43-2.04-10.43,3.5-8.11,8.61.36.78,11.54,12.05,12.34,12.41ZM122.18,279.83c-1.93-.46-14.45-.36-16.77,0-6.91,1.09-6.59,10.73.57,11.86,3.13.5,15.41.55,17.75-.86,4.52-2.75,2-10.12-1.55-11ZM392.86,123.51s-.05-.05-.08-.07c-.35-.32-.7-.62-1.05-.93-1.3-1.13-2.6-2.25-3.92-3.34-.1-.09-.21-.17-.31-.25-.91-.77-1.82-1.5-2.74-2.22-.01,0-.02-.02-.03-.03-.51-.43-1.03-.84-1.57-1.25-.94-.75-1.89-1.48-2.85-2.2-1.31-1.02-2.65-2-3.99-2.96-.87-.65-1.75-1.27-2.64-1.88-1.03-.73-2.08-1.43-3.12-2.15-.01,0-.01-.01-.02-.01-28.95-19.53-62.88-32.14-99.49-35.46h-.01c-.1-.01-.19-.02-.29-.03s-.21-.02-.3-.03c-.39-.03-.78-.06-1.17-.09-.8-.07-1.6-.14-2.4-.19-.4-.04-.79-.06-1.19-.09-.39-.02-.79-.04-1.19-.06-.96-.07-1.93-.12-2.91-.16-.79-.05-1.59-.08-2.39-.11-.79-.02-1.58-.04-2.38-.06-1.77-.06-3.53-.08-5.3-.08h-.11c-1.77,0-3.54.02-5.3.08-1.66.03-3.32.1-4.99.19-1.08.04-2.16.11-3.23.18-.52.02-1.02.05-1.53.09-1.56.12-3.11.25-4.66.39-36.58,3.36-70.49,15.98-99.42,35.56-.97.64-1.92,1.31-2.9,2-.05.03-.09.06-.13.09-.92.64-1.83,1.29-2.73,1.94h-.01c-1.91,1.38-3.79,2.79-5.64,4.24-.15.11-.29.22-.43.33-.62.47-1.21.93-1.81,1.43-.04.03-.09.07-.13.11-.63.5-1.25,1-1.87,1.51-.16.12-.32.25-.48.39-.44.36-.89.72-1.33,1.09-.64.54-1.27,1.07-1.9,1.61-.98.84-1.95,1.68-2.92,2.54-44.64,39.56-72.79,97.51-72.79,162.11,0,119.24,95.95,215.88,214.29,215.88s214.29-96.64,214.29-215.88c0-64.66-28.22-122.69-72.93-162.23ZM251.37,450.9c-90.6,0-164.05-73.98-164.05-165.27S160.77,120.36,251.37,120.36s164.06,74.01,164.06,165.27-73.45,165.27-164.06,165.27ZM397.32,279.83c-2.39-.37-14.66-.46-16.76,0-4.27.98-5.72,8.48-1.54,11,2.45,1.47,18.55,1.54,20.66.02.38-.29,2.66-4.79,2.59-5.41-.37-2.88-2.05-5.14-4.95-5.61ZM351.02,376.64c-.45-.36-4.02-2.99-4.27-3.09-5.45-2.32-10.61,3.07-8.07,8.6.36.81,10.91,11.27,11.93,11.81,4.78,2.52,5.66,1.12,7.66-2.41.25-.43,1.43-.52,1.57-1.16,1.04-4.75-5.37-10.93-8.82-13.75ZM351.68,176.7c-2.34.54-11.86,9.77-12.77,11.99-2.57,6.21,1.88,12.05,8.11,9.16.78-.36,11.96-11.63,12.34-12.41,2.36-5.15-1.95-10.04-7.68-8.74ZM300.36,165.72l-59.4,89.22c-33.87,15.57-23.87,65.27,14.9,61.7,21.85-2.02,30.44-25.79,25.32-44.97l24.37-101.75c.86-3.73-1.83-5.34-5.19-4.2ZM251.39,300.47c-8.16,0-14.78-6.67-14.78-14.89s6.62-14.87,14.78-14.87,14.77,6.66,14.77,14.87-6.62,14.89-14.77,14.89ZM257.29,154.65c.46-2.93.46-12.96,0-15.89-1.06-6.84-10.79-6.81-11.84,0-.49,3.16-.36,11.57,0,14.91.94,8.41,10.8,7.71,11.84.98ZM245.45,416.94c-.41,2.63-.45,13.38,0,15.89,1.17,6.38,10.94,6.77,11.84-.98.41-3.53.42-11.39,0-14.91-.77-6.29-10.86-6.14-11.84,0ZM160.39,373.48c-5.8-.13-12.95,5.92-15.96,10.71-4.02,6.34,1.18,13.25,7.32,10.39,1.43-.66,12.61-12.52,12.84-13.94.5-2.9-1.06-7.09-4.2-7.16ZM155.73,197.85c6.22,2.89,10.66-2.95,8.11-9.16-.61-1.49-6.56-7.52-8.09-8.77-.47-.38-4.02-2.98-4.25-3.09-5.43-2.04-10.43,3.5-8.11,8.61.36.78,11.54,12.05,12.34,12.41ZM122.18,279.83c-1.93-.46-14.45-.36-16.77,0-6.91,1.09-6.59,10.73.57,11.86,3.13.5,15.41.55,17.75-.86,4.52-2.75,2-10.12-1.55-11ZM122.18,279.83c-1.93-.46-14.45-.36-16.77,0-6.91,1.09-6.59,10.73.57,11.86,3.13.5,15.41.55,17.75-.86,4.52-2.75,2-10.12-1.55-11ZM163.84,188.69c-.61-1.49-6.56-7.52-8.09-8.77-.47-.38-4.02-2.98-4.25-3.09-5.43-2.04-10.43,3.5-8.11,8.61.36.78,11.54,12.05,12.34,12.41,6.22,2.89,10.66-2.95,8.11-9.16ZM160.39,373.48c-5.8-.13-12.95,5.92-15.96,10.71-4.02,6.34,1.18,13.25,7.32,10.39,1.43-.66,12.61-12.52,12.84-13.94.5-2.9-1.06-7.09-4.2-7.16ZM257.29,416.94c-.77-6.29-10.86-6.14-11.84,0-.41,2.63-.45,13.38,0,15.89,1.17,6.38,10.94,6.77,11.84-.98.41-3.53.42-11.39,0-14.91ZM257.29,138.76c-1.06-6.84-10.79-6.81-11.84,0-.49,3.16-.36,11.57,0,14.91.94,8.41,10.8,7.71,11.84.98.46-2.93.46-12.96,0-15.89ZM300.36,165.72l-59.4,89.22c-33.87,15.57-23.87,65.27,14.9,61.7,21.85-2.02,30.44-25.79,25.32-44.97l24.37-101.75c.86-3.73-1.83-5.34-5.19-4.2ZM251.39,300.47c-8.16,0-14.78-6.67-14.78-14.89s6.62-14.87,14.78-14.87,14.77,6.66,14.77,14.87-6.62,14.89-14.77,14.89ZM351.68,176.7c-2.34.54-11.86,9.77-12.77,11.99-2.57,6.21,1.88,12.05,8.11,9.16.78-.36,11.96-11.63,12.34-12.41,2.36-5.15-1.95-10.04-7.68-8.74ZM351.02,376.64c-.45-.36-4.02-2.99-4.27-3.09-5.45-2.32-10.61,3.07-8.07,8.6.36.81,10.91,11.27,11.93,11.81,4.78,2.52,5.66,1.12,7.66-2.41.25-.43,1.43-.52,1.57-1.16,1.04-4.75-5.37-10.93-8.82-13.75ZM397.32,279.83c-2.39-.37-14.66-.46-16.76,0-4.27.98-5.72,8.48-1.54,11,2.45,1.47,18.55,1.54,20.66.02.38-.29,2.66-4.79,2.59-5.41-.37-2.88-2.05-5.14-4.95-5.61ZM351.02,376.64c-.45-.36-4.02-2.99-4.27-3.09-5.45-2.32-10.61,3.07-8.07,8.6.36.81,10.91,11.27,11.93,11.81,4.78,2.52,5.66,1.12,7.66-2.41.25-.43,1.43-.52,1.57-1.16,1.04-4.75-5.37-10.93-8.82-13.75ZM351.68,176.7c-2.34.54-11.86,9.77-12.77,11.99-2.57,6.21,1.88,12.05,8.11,9.16.78-.36,11.96-11.63,12.34-12.41,2.36-5.15-1.95-10.04-7.68-8.74ZM300.36,165.72l-59.4,89.22c-33.87,15.57-23.87,65.27,14.9,61.7,21.85-2.02,30.44-25.79,25.32-44.97l24.37-101.75c.86-3.73-1.83-5.34-5.19-4.2ZM251.39,300.47c-8.16,0-14.78-6.67-14.78-14.89s6.62-14.87,14.78-14.87,14.77,6.66,14.77,14.87-6.62,14.89-14.77,14.89ZM257.29,154.65c.46-2.93.46-12.96,0-15.89-1.06-6.84-10.79-6.81-11.84,0-.49,3.16-.36,11.57,0,14.91.94,8.41,10.8,7.71,11.84.98ZM245.45,416.94c-.41,2.63-.45,13.38,0,15.89,1.17,6.38,10.94,6.77,11.84-.98.41-3.53.42-11.39,0-14.91-.77-6.29-10.86-6.14-11.84,0ZM160.39,373.48c-5.8-.13-12.95,5.92-15.96,10.71-4.02,6.34,1.18,13.25,7.32,10.39,1.43-.66,12.61-12.52,12.84-13.94.5-2.9-1.06-7.09-4.2-7.16ZM155.73,197.85c6.22,2.89,10.66-2.95,8.11-9.16-.61-1.49-6.56-7.52-8.09-8.77-.47-.38-4.02-2.98-4.25-3.09-5.43-2.04-10.43,3.5-8.11,8.61.36.78,11.54,12.05,12.34,12.41ZM122.18,279.83c-1.93-.46-14.45-.36-16.77,0-6.91,1.09-6.59,10.73.57,11.86,3.13.5,15.41.55,17.75-.86,4.52-2.75,2-10.12-1.55-11ZM397.32,279.83c-2.39-.37-14.66-.46-16.76,0-4.27.98-5.72,8.48-1.54,11,2.45,1.47,18.55,1.54,20.66.02.38-.29,2.66-4.79,2.59-5.41-.37-2.88-2.05-5.14-4.95-5.61ZM251.37,104.27c-99.39,0-179.96,81.18-179.96,181.31s80.57,181.33,179.96,181.33,179.97-81.18,179.97-181.33-80.57-181.31-179.97-181.31ZM251.37,450.9c-90.6,0-164.05-73.98-164.05-165.27S160.77,120.36,251.37,120.36s164.06,74.01,164.06,165.27-73.45,165.27-164.06,165.27ZM351.02,376.64c-.45-.36-4.02-2.99-4.27-3.09-5.45-2.32-10.61,3.07-8.07,8.6.36.81,10.91,11.27,11.93,11.81,4.78,2.52,5.66,1.12,7.66-2.41.25-.43,1.43-.52,1.57-1.16,1.04-4.75-5.37-10.93-8.82-13.75ZM351.68,176.7c-2.34.54-11.86,9.77-12.77,11.99-2.57,6.21,1.88,12.05,8.11,9.16.78-.36,11.96-11.63,12.34-12.41,2.36-5.15-1.95-10.04-7.68-8.74ZM300.36,165.72l-59.4,89.22c-33.87,15.57-23.87,65.27,14.9,61.7,21.85-2.02,30.44-25.79,25.32-44.97l24.37-101.75c.86-3.73-1.83-5.34-5.19-4.2ZM251.39,300.47c-8.16,0-14.78-6.67-14.78-14.89s6.62-14.87,14.78-14.87,14.77,6.66,14.77,14.87-6.62,14.89-14.77,14.89ZM257.29,154.65c.46-2.93.46-12.96,0-15.89-1.06-6.84-10.79-6.81-11.84,0-.49,3.16-.36,11.57,0,14.91.94,8.41,10.8,7.71,11.84.98ZM245.45,416.94c-.41,2.63-.45,13.38,0,15.89,1.17,6.38,10.94,6.77,11.84-.98.41-3.53.42-11.39,0-14.91-.77-6.29-10.86-6.14-11.84,0ZM160.39,373.48c-5.8-.13-12.95,5.92-15.96,10.71-4.02,6.34,1.18,13.25,7.32,10.39,1.43-.66,12.61-12.52,12.84-13.94.5-2.9-1.06-7.09-4.2-7.16ZM155.73,197.85c6.22,2.89,10.66-2.95,8.11-9.16-.61-1.49-6.56-7.52-8.09-8.77-.47-.38-4.02-2.98-4.25-3.09-5.43-2.04-10.43,3.5-8.11,8.61.36.78,11.54,12.05,12.34,12.41ZM122.18,279.83c-1.93-.46-14.45-.36-16.77,0-6.91,1.09-6.59,10.73.57,11.86,3.13.5,15.41.55,17.75-.86,4.52-2.75,2-10.12-1.55-11ZM397.32,279.83c-2.39-.37-14.66-.46-16.76,0-4.27.98-5.72,8.48-1.54,11,2.45,1.47,18.55,1.54,20.66.02.38-.29,2.66-4.79,2.59-5.41-.37-2.88-2.05-5.14-4.95-5.61Z"/><path class="cls-6" d="M231.64,40.39c-2.16-.66-7.43.3-10.34,0-24.95-2.68-22.93-35.84-1.04-37.79,16.07-1.43,45-1.21,61.23,0,23.61,1.77,24.21,34.71-.14,37.7-3.34.41-6.88,0-10.25.11-5.21.16-35.73-.77-37.3.25-.52.32.29,1.7-.66,1.75-.79.04-.68-1.75-1.48-2l-.02-.02Z"/><path class="cls-11" d="M231.64,40.39c.8.25.68,2.04,1.48,2,.95-.05.16-1.43.66-1.75,1.57-1.02,32.09-.09,37.3-.25l-.05,30.36c-13.09-1.21-26.25-1.2-39.34.02l-.05-30.38Z"/><path class="cls-6" d="M379.57,91.07c-.3-.18-2.79-5.75-2.91-6.52-.45-2.79-.16-5.25,1.07-7.75.91-1.84,13.13-18.96,14.14-19.64,1.63-1.07,2.71.11,3.29-.2.27-.14.3-1.59.68-1.7,2.8-.73,2.29,1.48,2.66,1.7.41.23,1.89-.64,4.05.43,4.52,2.27,19.84,13.27,23.84,16.8,4.73,4.18,5.21,7.48,2.57,13.46-.84,1.93-12.32,17.73-13.82,18.86-3.48,2.63-8,1.48-11.89.43.55-.89,2.3-.61,1.96-1.98-8.59-.98-14.66-9.14-21.77-13.39-1.48-.88-3.48-.32-3.88-.54v.04Z"/><path class="cls-11" d="M379.57,91.07c.39.21,2.39-.36,3.88.54,7.09,4.23,13.18,12.41,21.77,13.39.34,1.38-1.41,1.09-1.96,1.98-3.3,5.23-6.04,10.96-10.39,16.52-7.05-6.23-14.5-12-22.32-17.25l9.05-15.16-.02-.02Z"/><path class="cls-6" d="M122.18,91.07c-.84.61-3.55.93-5.25,2.16-4.98,3.61-13.09,11.11-17.43,13.73-3.41,2.05-8.64,2.13-11.89-.45-2.36-1.88-11.75-15.2-13.39-18.29-3.23-6-3.52-8.77,1.61-13.57,5.95-5.59,20.52-14.84,27.89-17.43,1.39-.48.93-3.86,6.57-.36,1.64,1.02,15.21,20.16,15.64,21.98.95,4.11-.27,9.73-3.73,12.21h-.02Z"/><path class="cls-11" d="M122.18,91.07l10.11,15.29c-7.79,5.25-15.23,11.02-22.29,17.27l-10.52-16.64c4.36-2.63,12.46-10.13,17.43-13.73,1.7-1.23,4.39-1.55,5.25-2.16l.02-.02Z"/><path class="cls-3" d="M251.37,104.27c-99.39,0-179.96,81.18-179.96,181.31s80.57,181.33,179.96,181.33,179.97-81.18,179.97-181.33-80.57-181.31-179.97-181.31ZM251.37,450.9c-90.6,0-164.05-73.98-164.05-165.27S160.77,120.36,251.37,120.36s164.06,74.01,164.06,165.27-73.45,165.27-164.06,165.27Z"/><path class="cls-7" d="M266.16,285.58c0,8.22-6.62,14.89-14.77,14.89s-14.78-6.67-14.78-14.89,6.62-14.87,14.78-14.87,14.77,6.66,14.77,14.87Z"/><path class="cls-6" d="M359.36,185.43c-.38.79-11.55,12.05-12.34,12.41-6.23,2.89-10.68-2.95-8.11-9.16.91-2.21,10.43-11.45,12.77-11.98,5.73-1.3,10.04,3.59,7.68,8.73Z"/><path class="cls-6" d="M155.73,197.84c-.8-.36-11.98-11.63-12.34-12.41-2.32-5.11,2.68-10.64,8.11-8.61.23.11,3.79,2.71,4.25,3.09,1.54,1.25,7.48,7.29,8.09,8.77,2.55,6.21-1.89,12.05-8.11,9.16Z"/><path class="cls-6" d="M164.59,380.63c-.23,1.43-11.41,13.29-12.84,13.95-6.14,2.86-11.34-4.05-7.32-10.39,3.02-4.79,10.16-10.84,15.96-10.71,3.14.07,4.7,4.27,4.2,7.16h0Z"/><path class="cls-6" d="M359.84,390.38c-.14.64-1.32.73-1.57,1.16-2,3.54-2.88,4.93-7.66,2.41-1.02-.54-11.57-11-11.93-11.8-2.54-5.54,2.63-10.93,8.07-8.61.25.11,3.82,2.73,4.27,3.09,3.45,2.82,9.86,9,8.82,13.75h0Z"/><path class="cls-6" d="M123.73,290.83c-2.34,1.41-14.63,1.36-17.75.86-7.16-1.13-7.48-10.77-.57-11.86,4.66,1.68,12.2,1.68,16.77,0,3.55.88,6.07,8.25,1.55,11Z"/><path class="cls-6" d="M402.27,285.43c.07.63-2.21,5.13-2.59,5.41-2.11,1.52-18.21,1.45-20.66-.02-4.18-2.52-2.73-10.02,1.54-11,4.66,1.68,12.2,1.68,16.77,0,2.89.46,4.57,2.73,4.95,5.61h0Z"/><path class="cls-6" d="M257.29,154.65c-1.04,6.73-10.89,7.43-11.84-.98,1.64-3.68,1.68-11.02,0-14.91,1.05-6.8,10.79-6.84,11.84,0-1.64,4.04-1.66,11.66,0,15.89Z"/><path class="cls-6" d="M257.29,431.85c-.89,7.75-10.66,7.36-11.84.98,1.64-4.02,1.68-11.66,0-15.89.98-6.14,11.07-6.29,11.84,0-1.64,3.68-1.66,11.02,0,14.91h0Z"/><path class="cls-11" d="M122.18,279.83c-4.57,1.68-12.11,1.68-16.77,0,2.32-.36,14.84-.46,16.77,0Z"/><path class="cls-11" d="M397.32,279.83c-4.57,1.68-12.11,1.68-16.77,0,2.11-.46,14.38-.38,16.77,0Z"/><path class="cls-11" d="M257.29,154.65c-1.66-4.23-1.64-11.86,0-15.89.46,2.93.46,12.96,0,15.89Z"/><path class="cls-11" d="M245.45,432.83c-.45-2.52-.41-13.27,0-15.89,1.68,4.23,1.64,11.88,0,15.89Z"/><path class="cls-11" d="M245.45,153.66c-.36-3.34-.48-11.75,0-14.91,1.68,3.89,1.64,11.23,0,14.91Z"/><path class="cls-11" d="M257.29,431.85c-1.66-3.89-1.64-11.23,0-14.91.43,3.52.41,11.38,0,14.91Z"/></g></g></svg>