<?xml version="1.0" encoding="UTF-8"?><svg id="Layer_1" xmlns="http://www.w3.org/2000/svg" viewBox="0 0 500 500"><defs><style>.cls-1{fill:#b37f03;}.cls-2{fill:#16617a;}.cls-3{fill:#654c01;}.cls-4{fill:#9b6e04;}.cls-5{fill:#704e00;}.cls-6{fill:#ba8507;}.cls-7{fill:#714f00;}.cls-8{fill:#8b6200;}.cls-9{fill:#604400;}.cls-10{fill:#845d01;}.cls-11{fill:#5b4000;}.cls-12{fill:#694a00;}.cls-13{fill:#a47401;}.cls-14{fill:#004e62;}.cls-15{fill:#ab7801;}.cls-16{fill:#0682a1;}.cls-17{fill:#835c00;}.cls-18{fill:#1b647b;}.cls-19{fill:#755300;}.cls-20{fill:#7f5900;}.cls-21{fill:#624d02;}.cls-22{fill:#553c00;}.cls-23{fill:#785400;}.cls-24{fill:#946801;}.cls-25{fill:#644600;}.cls-26{fill:#6b570d;}.cls-27{fill:#9f7001;}.cls-28{fill:#6c4c00;}</style></defs><path class="cls-26" d="M40.05,8.79c-2.8-.85-1.77-.92-1.95-.98l1.95.98Z"/><path class="cls-21" d="M3.92,0c8.48,3.2,17.59,4.7,26.37,6.84,2.01.49,1.86-.02,1.95,0,2.92.73,1.78,1.8,2.5,1.99.58.15,2.41-1.28,3.36-1.01.18.05-.85.13,1.95.98,1.03.31,1.93.64,2.93.98,2.42.81,7.77,2.06,6.84,3.91-2.6-.51-5.08-1.41-7.81-.98-6.26-3.13-15.44-5.31-22.45-4.9,8.81,3.92,18.38,6.27,27.33,9.78,11.66,4.58,22.91,10.57,35.15,13.67,11.29,7.29,29.76,10.47,41.92,17.09,2.73.74,3.94-2.78,4.95-3.42,3.13-1.96,5.81-4.67,8.79-6.84.75.43,1.75.85,1.95.98l-5.86,6.84c-1.46.78-3.19.55-3.91,2.93l-1.55,3.9c10.3,20.99,21.21,41.69,31.82,62.5,4.95,9.72,12.99,30.82,19.53,38.08-.34,1.35.59,2.05.98,2.93,1.02,2.33,2.2,3.42,2.93,4.88,8.86,17.86,17.39,35.9,26.37,53.71,12.56,24.94,25.95,49.56,37.12,75.19,3.89,4.06.98-16.48.96-17.58-.03-2.28.04-4.56,0-6.84-.05-2.6-.01-5.21,0-7.81.01-3.24-.1-6.53,0-9.76.09-2.68-.05-5.27.98-7.81h1.95c-.32,1.29.19,3.38,0,4.88-.16,1.26.09,2.63,0,3.91-.02.32.02.65,0,.98-.06,1.3.04,2.61,0,3.91-.16,4.89.9,9.58.98,13.67.04,1.95-.04,3.91,0,5.86.02,1.06-2.87,20.6.96,16.6,9.66-20.98,19.86-41.89,30.28-62.5,10.19-20.14,20.17-40.36,30.27-60.54,13.88-27.74,28.45-55.04,41.99-83,5.08-10.49,11.38-20.59,16.19-31.26l-.5-4.24c-.36-.83-1.96-.55-2.02-.63-1.14-1.66-1.87-1.85-2.93-2.93-.91-.93-4.45-5.66-4.88-5.86.39-.16.91-.57.98-.98,4.64,1.89,5.93,5.34,10.74,7.81.09.05-.39,1.8.66,2l4.27-.48c8.85-3.66,17.93-6.55,26.31-11.28,9.39-3.54,29.89-8.61,37.11-14.65,11.76-3.63,23.82-7.94,35.15-12.69,1.13-.47,2.19-.92,2.93-1.95,1.14-.24,2.67.18,3.9-.01l-2.92-2.92c4.73-1.02,10.41-1.69,14.65-3.91h4.88c-.94,1.78-.55,4.22-.98,5.86-2.17-.21-3-.34-4.88.98-4.92,3.45-44.19,82.6-50.78,94.72-.74,1.36-1.9,2.98-2.93,4.88-.74,1.36-1.9,2.98-2.93,4.88-16.96,31.22-33.82,62.52-50.78,93.74-15.35,28.27-31.8,56-45.9,84.96-1.44,2.28-2.55,4.6-3.91,6.84-.42.68-.65,1.4-.98,1.95-13.73,22.83-33.66,56.16-43.94,80.07-.44,1.03-.65,1.88-.98,2.93-1,.36-1.47,1.06-1.95,1.95-6.95,12.85-36.37,62.33-38.08,72.26-.34,1.99.17,4.67,0,6.84s.09,4.57,0,6.84-.05,4.58,0,6.84c0,.33,0,.65,0,.98.09,3.83-.69,10.46,0,13.67.27,1.26.9,1.31.98,0,4.55-8.38,9.43-16.86,13.67-25.39l.98,1.95c-.39.76-1.57,5.11-1.95,5.86-1.87,3.62-13.08,26.19-15.12,26.4-5.94-8-9.62-17.6-14.18-26.4-.13-.26.13-.72,0-.98l.98-.98c2.99,6,7.6,15.54,11.72,20.51.27.32-.54,1.98.49,1.97.9,0,.42-1.29.49-1.97.22-2.22-.06-4.59,0-6.84,0-.33,0-.65,0-.98.07-3.56.05-7.18,0-10.74-.04-2.59.16-5.24,0-7.81-.17-2.8.39-6.17,0-8.79s-.61-3.4-1.42-5.91c-2.05-6.44-34.96-66.58-39.53-72.56-.87-1.14-1.93-.52-2.02-.63,1.08-3-1.36-3.78-1.95-4.88-.34-.62-.64-1.31-.98-1.95s-.63-1.3-.98-1.95-.64-1.31-.98-1.95c-10.53-19.99-21.46-39.72-32.22-59.57-.2-.37-.79-.64-.98-.98-2.86-5.28-5.97-10.43-8.79-15.62-11.58-21.34-22.58-43.09-34.18-64.45-17.65-32.5-34.69-67.07-53.71-98.63-.51-.84-.26-2.45-1.95-2.93-.67-2.06-1.41-2.66-1.95-3.91C55.95,94.91,23.27,31.42,6.85,9.76c-.27-.36-.7-.62-.98-.98-.14-.17.09-.68,0-.98l-1.94-1.95.96,1.95v.98L.02,4.88V0h3.91ZM489.24,6.84c-10.98,3.03-22.17,7.4-32.22,12.69-7.75,1.43-15.17,5.89-22.46,8.79-.82.33-1.47.78-1.95.98-1.63.65-3.27,1.32-4.88,1.95-6.77,2.68-13.7,5.09-20.51,7.81-9.88,3.94-20.22,7.25-30.27,10.75-.56,2.27,1.22,3.34,1.95,4.87,1.3,2.68,4.69,4.6,4.88,4.88,1.11,1.67,2.53,3.3,2.93,3.91.88,1.33.56,1.11,1.95,2.93,1.27,1.65,1.02,3.36,3.91,6.84,1.29,1.56,3.16,6.73,5.36,6.94,7.81-.74,8.11-9.42,16.13-9.87l-17.58,15.62c-.05-.75-.81-1.42-.98-1.95-1.89-6.04-3.63-7.04-6.84-11.72-.47-.69-1.46-1.24-1.95-1.95-1.66-2.4-2.53-3.1-3.91-4.88-.27-.35-.81-1.43-1.95-2.93-.53-.7-4.36-8.56-4.9-8.78l-46.85,90.81c-.45.8-.7,1.47-.98,1.95-.91,1.62-1.98,3.18-2.93,4.88-.48.86-1.31,1.77-1.95,2.93-.37.67-.43,1.94-.98,2.93-9.54,17.27-17.5,35.15-26.37,52.73-.33.65-.65,1.3-.98,1.95-2.13,4.22-4.64,8.44-6.84,12.69-.68,1.31-1.29,2.6-1.95,3.91-1.73,3.42-4.69,6.72-4.88,10.74-11.29,16.66-18.57,38.18-28.89,55.67-1.62,2.45,1.45,3.58,1.55,3.9.58,1.74,1.14,2.45,1.95,3.91,1.59,2.86,6.59,7.35,6.84,7.81.66,1.25,1.58,3.5,1.95,4.88.42,1.53.64,3.3.98,4.88.92,4.27-2.38,13.91,3.9,15.62,5.62-14,12.74-27.55,19.54-41.01h2.93c-1.15,2.37-2.5,5.15-2.93,7.81-5.45,9.48-18.89,32.13-20.51,41.99-.62,3.79-.03,3.8,0,6.84s.83,5.34.98,7.81c.17,2.88.81,5.61.98,7.81.14,1.93-.18,3.94,0,5.86.17,1.78.75,3.77.98,5.86.35,3.25.64,6.51.98,9.76.6,5.82,1.25,11.69.99,17.58l1.43-1c37.23-68.19,73.89-136.71,110.85-205.04.35-.65.64-1.32.98-1.95,1.79-3.3,4.02-6.36,5.86-9.76,25.14-46.49,50.43-92.95,75.19-139.64.34-.65.64-1.31.98-1.95.69-1.31,1.29-2.65,1.95-3.91,4.6-8.68,10.24-17.06,14.63-25.9.16-4.99-12.73,7.61-13.65,8.33-3.68,2.82-7.13,6.08-10.74,8.79-2.05,1.54-3.89,3.36-5.86,4.88-2.28,1.76-7.91,4.34-9.76,5.86,0,.63.09,1.34,0,1.95h-2.93c1.3-1.07,2.44-1.55,2.93-1.95v-1.95c11.16-7.81,22.63-18.57,33.2-27.34,4.75-2.88,6.8-5.67,10.74-8.79.3-.24,2.17.2,2.93,0v-1.94c-3.34-1.19-2.76,1.9-2.93,1.95ZM17.59,5.87h-1.94v.95h1.94v-.95ZM13.69,10.74c-.08,1.06-1.14,3.1-.98,3.91.83,4.15,14.45,25.12,17.58,30.27,18.27,35.59,36.59,71.4,57.61,105.46,2.3,8.86,7.74,16.9,12.69,24.41.27.41.27,1.06.98,1.95.09.62-.13,1.38,0,1.95.88,3.75,2.32,2.42,2.93,2.93-.16,1.33.04,1.98.98,2.93.32.33.65.65.98.98l120.1,220.69c-.03-6.48.34-13.1.99-19.53.13-1.28-.13-2.63,0-3.91.27-2.52.69-5.21.98-7.81.08-.7.81-2,.98-3.91.11-1.28-.1-2.62,0-3.91.04-.52.83-2.03.98-3.91.05-.64-.05-1.31,0-1.95.23-3.26.95-5.99.98-9.76.01-2.4,1.35-4.72,1-7.31-.25-1.87-1.94-2.3-1.98-2.45-4.13-15.55-17.95-31.89-22.46-47.85.06.12,2.44-.41,2.73.17,6.96,13.7,13.75,27.66,19.74,41.82l4.87-3.9c.97,2.95-.86,6.55-.97,8.78-.57,11.52-1.71,22.62-1.95,34.18-.63,12.48-9.27,32.27,0,41.99.45,4.11,1.95,4.25,2.93,6.84,1.08,2.84,2.17,7.14,5.86,7.81.94,7.14,2.13,5.15,2.93,6.84,1.31,2.76,1.79,7.05,4.88,8.79v-145.5c-2.67,1.11-3.55,3.64-4.88,5.86-1.55,2.59-2.08,1.28-2.93,5.86l-4.89,15.62c-3.9.55-1.49-9.42-.97-11.71.71-3.12.53-2.91,1.95-5.86,1.05-2.16,5.04-5.82,6.84-8.79.92-1.52,1.3-2.2,1.95-3.91.04-.1,1.88.38,2.02-.63l-.64-3.18c-12.42-23.08-22.6-47.68-35.55-70.4-10.85-22.72-22.84-44.92-34.18-67.38-1.56-3.1-3.57-6.19-4.88-8.79-.65-1.3-1.3-2.6-1.95-3.91-15.32-30.37-29.77-61.32-44.93-91.79-1.25-.52-5.1,6.88-5.84,7.81-1.85,2.3-3.21,4.52-4.88,6.84-.36.49-1.71.96-1.95,1.95-1.59-1.41-.72-2.45,0-3.91.48-.97,2.85-3.97,3.91-5.86.73-1.3,1.26-2.67,1.95-3.91s5.01-2.4,3.91-5.85c-9.31-3.3-19.18-6.11-28.32-9.78-8.5-3.41-16.85-6.5-25.39-9.76-3.13-1.2-7.12-4.41-10.74-4.88-.63-.08-1.31.06-1.95,0-8-5.47-18.43-7.46-27.34-10.74-5.53-2.04-11.04-6.86-17.57-6.83-.63,2.12,1.35,2.14,1.95,2.92ZM255.86,307.6c-1.32-2.23-2.22-4.75-4.88-5.86v145.5c2.77-1.78,3.55-5.96,4.88-8.79s1.97-.38,2.93-6.84c2.69.09,3.83-3.97,4.88-5.86s2.35-3.57,2.93-5.86c.2-.78.79-1.22.98-2.93,7.89-9.04,2.05-29.46.98-41.99s-2.37-25.44-3.91-38.08c-.82-6.79.1-18.83-5.86-23.44-.71-4.61-1.47-3.39-2.93-5.86Z"/><path class="cls-26" d="M4.9,8.79h.98c.28.35.7.62.98.98,13.03,31.15,29.81,60.67,44.92,90.81.33.65.66,1.3.98,1.95.64,1.3,1.26,3.31,1.95,4.88,1.13,2.55,2.9,4.9,2.93,7.81-.65-.01-1.3,0-1.95,0-1.16-2.3-3.28-4.61-3.91-5.86C34.42,74.95,19.15,39.39.02,5.86v-.98l4.88,3.91Z"/><path class="cls-26" d="M499.01,5.86c-5.45,20.76-39.1,80.35-50.78,103.51-.31.61-1.99,2.03-2.93,3.91h-2.93c1.76-3.46,3.12-7.28,4.88-10.74.66-1.3,1.3-2.61,1.95-3.91.99-1.95,1.95-3.92,2.93-5.86,14.39-28.38,30.3-56.28,41.99-85.93,1.88-1.32,2.71-1.19,4.88-.98Z"/><path class="cls-23" d="M388.66,72.26c3.21,4.68,4.95,5.68,6.84,11.72-3.13,5.38-6.01,11.03-8.79,16.6l-124.02,209.95c-.24-.46-5.24-4.95-6.84-7.81l132.8-230.45Z"/><path class="cls-23" d="M244.14,302.71c-1.8,2.96-5.79,6.62-6.84,8.79L113.29,99.6c-.31-.65-.66-1.28-.98-1.95,2.2-1.53-.95-5.21-2.93-4.88-.86-1.94-2.19-3.53-2.93-5.86.12-2.22.58-3.43-1.95-2.93-.09-3.09,4.8-9.28,6.84-11.72l132.8,230.45Z"/><path class="cls-20" d="M467.76,48.82c-24.76,46.69-50.05,93.15-75.19,139.64-4.42-.56-7.61,6-5.86,9.76-.34.63-.63,1.3-.98,1.95l-113.27,188.46c-.33-3.25-.63-6.51-.98-9.76L467.76,48.82Z"/><path class="cls-12" d="M43.96,39.06c3.76,1.65,9.85,6.04,12.69,8.79l174.79,303.69c-.02,3.78-.75,6.5-.98,9.76L43.96,39.06Z"/><path class="cls-7" d="M471.66,25.39l-201.16,347.63c-.18-1.92.14-3.93,0-5.86L460.92,34.18c3.61-2.71,7.07-5.96,10.74-8.79Z"/><path class="cls-23" d="M471.66,25.39c.93-.71,13.81-13.32,13.65-8.33-4.39,8.85-10.02,17.22-14.63,25.9-1.98-.81-3.76,2.69-1.95,3.91-.34.64-.63,1.3-.98,1.95l-196.28,330.06c-.22-2.09-.81-4.08-.98-5.86L471.66,25.39Z"/><path class="cls-11" d="M429.68,58.59c4.28.13-3.76,11.76-4.7,13.37-44.73,77.17-91.55,153.56-135.92,230.76.43-2.66,1.78-5.44,2.93-7.81,16.07-33.04,32.68-66.67,50.78-98.63,23.97-42.31,53.04-82.74,74.21-126.94,3.21-4.66,8.73-6.98,12.69-10.74Z"/><path class="cls-8" d="M386.71,70.31l-132.8,228.5c-.1-.32-3.17-1.45-1.55-3.9,10.32-17.49,17.6-39.01,28.89-55.67.36-.53,10.75-8.36,4.88-10.74.66-1.31,1.28-2.6,1.95-3.91,3.68.9,8.29-9.76,6.84-12.69.33-.65.65-1.3.98-1.95l86.91-144.52c1.37,1.78,2.25,2.48,3.91,4.88Z"/><path class="cls-12" d="M455.06,39.06l-185.53,320.29c-.15-2.47-.95-4.72-.98-7.81L445.3,46.87c.09-.61,0-1.32,0-1.95,1.85-1.51,7.48-4.1,9.76-5.86Z"/><path class="cls-5" d="M237.31,311.5c-1.43,2.95-1.25,2.74-1.95,5.86l-65.43-105.46c-8.07-16.48-16.54-33.31-26.37-48.82.45-1.73-.42-2.62-.98-3.91-.81-1.89-1.69-2.41-1.95-2.93-4.32-8.72-8.35-17.64-12.69-26.37-.77-1.54-1.72-2.47-1.95-2.93-4.47-8.93-8.42-18.31-12.69-27.34l124.02,211.9Z"/><path class="cls-20" d="M30.29,44.92c67.71,111.37,130.82,225.64,197.25,337.87-.13,1.28.13,2.63,0,3.91-3.75-1.09-7.49-7.8-9.62-11.37-28.25-47.23-54.23-95.99-82.13-143.44-7.51-12.77-20.05-36.98-29.33-46.35-.32-.33-.65-.65-.98-.98,2.67-4.04-.47-2.5-.98-2.93-.61-.5-2.05.82-2.93-2.93l1.96-1.45c.09-1.05-1.76-.25-1.96-.5-.71-.89-.7-1.54-.98-1.95-.32-8.91-8.11-16.99-12.69-24.41-21.02-34.06-39.34-69.87-57.61-105.46Z"/><path class="cls-17" d="M113.29,70.31l132.8,228.5c-.65,1.7-1.03,2.39-1.95,3.91L111.34,72.26c.51-.61,1.05-1.04.98-1.95.26.13.71-.13.98,0Z"/><path class="cls-10" d="M227.54,386.69c-.64,6.43-1.02,13.05-.99,19.53l-120.1-220.69c9.28,9.37,21.82,33.58,29.33,46.35,27.91,47.45,53.89,96.21,82.13,143.44,2.14,3.57,5.87,10.28,9.62,11.37Z"/><path class="cls-17" d="M388.66,72.26l-132.8,230.45c-.81-1.46-1.37-2.16-1.95-3.91l132.8-228.5c.5.72,1.48,1.26,1.95,1.95Z"/><path class="cls-12" d="M169.93,211.9l65.43,105.46c-.52,2.29-2.93,12.26.97,11.71l4.89-15.62c-2.82,15.26-2.21,101.44,0,118.16-3.69-.68-4.78-4.97-5.86-7.81l2-80.57-2.98-2.44c.11-2.23,1.94-5.83.97-8.78l-4.87,3.9c-5.98-14.16-12.77-28.12-19.74-41.82-.29-.58-2.67-.05-2.73-.17-.33-.65-.65-1.3-.98-1.95-.18-.35.28-4.23-1.5-7.77-6.29-12.5-12.23-25.47-19.98-37.15-4.63-11.81-10.05-23.78-15.62-35.15Z"/><path class="cls-5" d="M386.71,100.58c-14.28,28.63-28.36,57.48-42.97,85.93-2.85-.1-2.25,1.39-2.93,2.93-1.31,2.95-2.52,5.86-3.91,8.79l-72.26,117.18c-.38-1.38-1.29-3.63-1.95-4.88l124.02-209.95Z"/><path class="cls-23" d="M17.59,16.6c1.88,1.3,5.1,5.47,6.84,6.84l204.09,351.54c-.29,2.6-.71,5.29-.98,7.81C161.11,270.56,98,156.28,30.29,44.92c-3.13-5.15-16.75-26.12-17.58-30.27,1.42.82,3.62,1.08,4.88,1.95Z"/><path class="cls-28" d="M270.51,367.16c-.16-2.2-.8-4.93-.98-7.81L455.06,39.06c1.97-1.53,3.81-3.34,5.86-4.88l-190.42,332.99Z"/><path class="cls-9" d="M72.28,60.54c-1.85,1.29,1.06,5.2,1.8,6.51,36.06,64.28,73.19,128.57,110.69,192.03,2.44,4.13,8.62,15.38,11.1,18.2,1.55,1.76,2.74,1.69,2.39-.93,2.7,5.28,5.32,10.78,8.79,15.62.33.65.64,1.3.98,1.95,4.51,15.96,18.32,32.3,22.46,47.85-8.93-10.63-15.67-23.49-22.65-35.45C159.12,222.8,110.93,138.92,63.49,54.68c3.85-.02,6,3.73,8.79,5.86Z"/><path class="cls-1" d="M366.2,44.92c1.06,1.08,1.79,1.27,2.93,2.93l-113.94,196.05-4.21,1.2c.19-1.5-.32-3.59,0-4.88,1.09-4.45,10.9-19.96,13.67-25.39,3.05-2.2,3.69-5.53,4.88-8.79.1-.29-.09-.68,0-.98l16.54-27.67,6.9-6.52-2.94-2.44c2.12-6.82,8.77-10.41,12.37-16.42,18.7-31.13,37.58-76.14,59.07-104.51,1.41-1.85,2.12-2.86,4.74-2.59Z"/><path class="cls-19" d="M29.31,27.34l200.18,343.73c-.17,1.91-.9,3.21-.98,3.91L24.43,23.44c1.69,1.33,3.22,2.54,4.88,3.91Z"/><path class="cls-8" d="M115.24,67.38c2.99-.34,4.18,1.56,5.69,3.59,28.08,37.79,59.5,104.22,84.12,147.3,2.83,4.95,6.61,5.89,6.86,6.32,12.96,22.72,23.14,47.32,35.55,70.4l.64,3.18c-.14,1.01-1.98.53-2.02.63L113.29,70.31v-.98c.24-.99,1.6-1.46,1.95-1.95Z"/><path class="cls-15" d="M369.13,47.85c.06.09,1.66-.2,2.02.63l.5,4.24c-4.81,10.67-11.11,20.77-16.19,31.26-8.57,7.67-15.37,21.25-21.51,31.71-26.54,45.24-51.81,91.29-78.2,136.63l-4.77,1.57c.04-1.3-.06-2.61,0-3.91,2.77.39,2.77-1.37,0-.98.09-1.28-.16-2.64,0-3.91l4.21-1.2,113.94-196.05Z"/><path class="cls-13" d="M129.89,48.82l118.16,199.21c-.1,3.24.01,6.52,0,9.76l-87.88-142.57c-10.61-20.82-21.52-41.51-31.82-62.5l1.55-3.9Z"/><path class="cls-10" d="M385.73,200.18c-36.97,68.33-73.62,136.85-110.85,205.04l-1.43,1c.26-5.88-.39-11.75-.99-17.58l113.27-188.46Z"/><path class="cls-15" d="M135.75,44.92l67.37,124.01c1.36-2.09,9.11,8.04,9.65,8.97.66,1.13-1.22,3.22-.37,4.67,1.39,2.35,4.43,4.72,5.78,7,3.46,5.86,4.19,13.93,12.29,15.5.31.66.67,1.29.98,1.95-1.42,2.02-1.73,3.39.98,2.93,1.34,2.88,2.53,6.26,3.92,9.36.24.54-1.51,2.79-.88,4.16.23.5,3.73,1.16,4.42,2.53,2.7,5.37,4.07,11.11,7.21,16.16,1.35.36,1.09-1.08.95-1.94h.98c-1.03,2.55-.89,5.14-.98,7.81L129.89,48.82c.72-2.38,2.45-2.15,3.91-2.93.58-.31,1.39-.83,1.95-.98Z"/><path class="cls-15" d="M233.4,209.95h-.98c-.12-.27.12-.71,0-.98.29.33.76.61.98.98Z"/><path class="cls-25" d="M63.49,54.68c47.44,84.24,95.63,168.12,144.33,251.64,6.98,11.97,13.71,24.82,22.65,35.45.04.15,1.72.59,1.98,2.45.35,2.59-.99,4.91-1,7.31L56.65,47.85c2.3,2.22,5.25,3.89,6.84,6.84Z"/><path class="cls-13" d="M355.46,83.98c-13.54,27.96-28.11,55.26-41.99,83l-61.52,100.58c-.07-4.09-1.13-8.78-.98-13.67l4.77-1.57c26.39-45.34,51.67-91.38,78.2-136.63,6.14-10.46,12.94-24.04,21.51-31.71Z"/><path class="cls-6" d="M361.32,39.06c.43.2,3.97,4.93,4.88,5.86-2.62-.27-3.33.73-4.74,2.59-21.49,28.37-40.37,73.38-59.07,104.51-3.61,6-10.26,9.6-12.37,16.42l2.94,2.44-6.9,6.52-16.54,27.67c.61-1.97,2.25-3.87,2.93-5.86.1-.29-.1-.69,0-.98,7.7-12.78,13.4-26.47,19.53-40.04,13.05-23.27,27.07-49.18,39.06-74.21.13-.26-.13-.71,0-.98l26.14-44.7c1.12-.23,3.08.28,4.13.76Z"/><path class="cls-9" d="M435.53,53.71c3.06-.35,1.93.8,1.19,2.66-2.83,7.12-8.82,16.42-12.75,23.39-46.63,82.64-94.76,164.93-142.92,246.7-3.45,5.86-7.33,13.95-12.5,18.26,1.61-9.86,15.06-32.51,20.51-41.99,44.37-77.2,91.19-153.58,135.92-230.76.93-1.61,8.97-13.24,4.7-13.37,1.91-1.82,3.87-3.2,5.86-4.88Z"/><path class="cls-15" d="M143.56,275.37c.35.26.68.65.98.98.38.41-1.1,2.62,1.95,1.95,2.31,9.45,8.19,17.06,12.69,25.39.57,1.05-1.36,2.55,2.93,1.95.23.76-.21,2.1,0,2.93,1.96,7.83,4.57,7.45,7.78,13.4.67,1.24-.63,4.48.2,5.98.18.32,2.67.05,3.62,1.71,18.65,32.71,35.36,66.34,54.4,98.92,3.56,6.09,12.39,22.83,15.94,27.03,1.31,1.54,3.16,1.5,4.96,1.38.39,2.62-.17,5.99,0,8.79-2.74.28-3.78-1.14-5.3-3-15.55-19.03-40.98-69.47-54.27-92.44-2.28-3.94-3.26-13.97-8.78-13.92-1.11-2.81-2.36-9.81-5.86-10.74-12.11-24.05-24.09-48.17-36.13-72.26,1.25.61,3.96,1.26,4.88,1.95Z"/><path class="cls-15" d="M180.67,357.4c-.3-.33-.74-.6-.98-.98h.98c.11.28-.11.7,0,.98Z"/><path class="cls-7" d="M37.12,33.2c0,2.55.78,8.14,3.91,7.81.08.31-.09.68,0,.98.99,3.35,1.9,1.82,1.95,1.95.19.51-.2,1.52,0,1.95.7,1.5-.02,4.43,2.93,3.91.1.29-.1.69,0,.98,3.56,9.69,11.26,21.08,17.58,29.29.13.26-.13.71,0,.98,2.38,4.86,4.97,12.74,9.76,15.62.13.26-.13.72,0,.98,10.54,21.1,22.8,42.07,36.13,61.52.54.99.6,2.24.98,2.93,8.26,15.22,15.93,31.01,26.37,44.92.28.67.72,1.28.98,1.95.71,1.87.91,6.16,3.91,5.86.1.29-.09.68,0,.98.51,1.67.17,4.41,2.93,3.91.1.29-.1.69,0,.98.97,2.66,2.49,9.13,5.86,9.76.12.27-.12.7,0,.98,1.85,4.17,4.38,11.59,8.79,13.67.11.28-.1.69,0,.98.58,1.64.1,4.41,2.93,3.91.09.3-.09.68,0,.98.5,1.67.18,4.41,2.93,3.91.08.31-.1.69,0,.98.78,2.21-.05,5.72,3.91,5.86.11.29-.11.7,0,.98,2.79,6.84,7.04,16.57,12.69,21.48.12.28-.11.69,0,.98.71,1.86.9,6.16,3.91,5.86.1.29-.11.69,0,.98.82,2.18,1.72,7.74,4.88,7.81.11.28-.11.69,0,.98.69,1.78,1.16,5.15,3.91,4.88.19.49-.19,1.48,0,1.95,1.32,3.24,1.9,1.83,1.95,1.95.12.27-.12.71,0,.98.97,2.07,1.57,6.78,4.88,6.84.19.49-.2,1.5,0,1.95,2.43,5.48,6.36,13.48,10.74,17.58.29.66.7,1.28.98,1.95.76,1.86.87,6.16,3.91,5.86.1.29-.11.69,0,.98,2.06,5.31,5.05,13.08,9.76,16.6.12.28-.11.69,0,.98.9,2.37,1.2,2.18,2.93,3.91-.1,1.29.11,2.62,0,3.91L29.31,27.34c2.44,2.01,4.99,3.13,7.81,5.86Z"/><path class="cls-25" d="M445.3,46.87l-176.75,304.67c-.03-3.04-.62-3.05,0-6.84,5.17-4.31,9.05-12.4,12.5-18.26,48.17-81.76,96.3-164.06,142.92-246.7,3.93-6.97,9.92-16.27,12.75-23.39.74-1.86,1.87-3-1.19-2.66,1.61-1.36,4.1-4.59,6.84-6.84h2.93Z"/><path class="cls-24" d="M120.13,60.54l50.78,83.98c.66,1.3,1.3,2.61,1.95,3.91-1.74,2.9,1.95,8.28,4.88,8.79,11.34,22.46,23.33,44.66,34.18,67.38-.24-.43-4.03-1.37-6.86-6.32-24.62-43.08-56.04-109.52-84.12-147.3-1.51-2.03-2.71-3.92-5.69-3.59,1.67-2.31,3.03-4.54,4.88-6.84Z"/><path class="cls-13" d="M367.18,257.8c-.27,3.01-1.85,6.01-2.93,8.79-.11.28.11.69,0,.98l-.98.98c-.11.28.12.7,0,.98-4.9,3.82-6.48,10.93-9.01,16.44-.18.38-2.42-.02-2.54.25-.74,1.61.33,4.68-.17,5.76-.12.27.12.71,0,.98-5.56-.9-4.05,6.4-5.45,8.75-7.44,12.47-15.61,24.52-22.87,38.12-.34.63-.63,1.3-.98,1.95-3.63-.7-2.33.65-3.23,2.11-13.49,21.98-26.58,44.74-39.43,67-6.94,12.01-15.22,33.27-23.82,43.59-1.5,1.79-2.65,1.75-4.8,1.55,1.71-9.93,31.14-59.41,38.08-72.26,5.21.59,1.88-1.71,1.95-1.95.32-1.05.53-1.9.98-2.93,6.74.47,6.01-8.8,7.06-10.53,21.1-34.63,45.1-68.01,61.29-104.7.47-1.06.62-2.07.98-2.93,2.01-.74,4-1.9,5.86-2.93ZM350.09,289.04v.98l.49-.49-.49-.49Z"/><path class="cls-28" d="M43.96,39.06l186.51,322.24c-.05.65.05,1.31,0,1.95h-3.91c-.11-.28.12-.7,0-.98-2.23-5.27-5.04-13.03-9.76-16.6-.11-.28.1-.69,0-.98-.67-1.86-.93-6.17-3.91-5.86-.27-.67-.69-1.29-.98-1.95-2.45-5.67-5.15-14.21-10.74-17.58-.2-.45.19-1.47,0-1.95-.86-2.15-1.68-6.77-4.88-6.84-.12-.27.12-.7,0-.98l-1.95-1.95c-.19-.48.19-1.47,0-1.95-.84-2.14-.53-4.77-3.91-4.88-.11-.28.11-.69,0-.98-.86-2.18-1.69-7.74-4.88-7.81-.11-.28.1-.69,0-.98-.66-1.86-.94-6.17-3.91-5.86-.11-.28.12-.7,0-.98-2.88-6.93-7.34-16.14-12.69-21.48-.11-.28.11-.69,0-.98-.63-1.69-1.36-6.22-3.91-5.86-.1-.28.08-.67,0-.98-.46-1.68-.22-4.41-2.93-3.91-.09-.3.09-.68,0-.98-.53-1.66-.16-4.41-2.93-3.91-.1-.29.11-.7,0-.98-1.62-4-4.71-11.62-8.79-13.67-.12-.27.12-.7,0-.98-1.17-2.7-2.34-9.1-5.86-9.76-.1-.29.1-.68,0-.98-.54-1.66-.14-4.41-2.93-3.91-.09-.3.1-.69,0-.98-.63-1.86-.96-6.17-3.91-5.86-.26-.67-.7-1.29-.98-1.95-6.33-15.07-16.62-32.05-26.37-44.92-.37-.69-.44-1.94-.98-2.93-11.28-20.7-22.39-42.8-36.13-61.52-.13-.26.13-.72,0-.98-2.39-4.82-4.7-12.85-9.76-15.62-.13-.26.13-.71,0-.98-4.88-9.86-9.97-21.18-17.58-29.29-.1-.29.1-.68,0-.98-.54-1.66-.15-4.41-2.93-3.91-.2-.43.19-1.45,0-1.95l-1.95-1.95c-.09-.3.08-.67,0-.98-.47-1.88-.59-3.95-.98-5.86,1.04,1.14,3.31,1.91,3.91,3.91Z"/><path class="cls-23" d="M13.69,10.74c-.6-.78-2.58-.8-1.95-2.92,6.53-.03,12.04,4.79,17.57,6.83l83.98,50.78c-.72,1.46-1.59,2.49,0,3.91v.98c-.27-.13-.71.13-.98,0-.58-.28-2.36.28-2.93,0-18.56-9.23-45.15-23.33-62.5-34.18-7.7-4.82-22.53-15.58-29.29-21.48-1.14-.99-3.05-2.79-3.91-3.91Z"/><path class="cls-13" d="M162.12,308.57l39.06,58.59c.34.65.64,1.32.98,1.95-2.18.9-1,2.53.98,1.95.33.64.64,1.33.98,1.95v4.89c.56.14,1.8-.17,1.95,0,.09.1,1.16-.51,2.02.63,4.56,5.98,37.48,66.12,39.53,72.56.8,2.51,1.02,3.23,1.42,5.91-1.8.12-3.66.16-4.96-1.38-3.55-4.2-12.38-20.94-15.94-27.03-19.04-32.59-35.75-66.22-54.4-98.92-.95-1.66-3.44-1.39-3.62-1.71-.84-1.5.46-4.74-.2-5.98-3.21-5.95-5.82-5.57-7.78-13.4Z"/><path class="cls-19" d="M478.5,15.62c-10.57,8.77-22.04,19.53-33.2,27.34-16.44,11.51-34.97,20.89-52.73,30.27-2.88-3.47-2.63-5.18-3.91-6.84,28.45-19.26,60.6-33.01,89.84-50.78Z"/><path class="cls-27" d="M108.41,204.09c.13.27-.12.71,0,.98,1.69,3.66,2.55,10.15,6.84,10.74.1.29-.1.69,0,.98.79,2.19-.06,5.73,3.91,5.86.31,1.01.61,1.94.98,2.93,8.48,22.74,26.24,41.33,35.16,63.94l3.9,1.49c2.82,5.19,5.92,10.35,8.79,15.62l.98.98c10.77,19.85,21.7,39.58,32.22,59.57l-39.06-58.59c-.21-.83.23-2.17,0-2.93-.45-1.48-1.5-1.91-2.93-1.95-4.5-8.33-10.39-15.94-12.69-25.39-.33-1.36.67-2.32-1.95-1.95-.3-.32-.63-.71-.98-.98-6.93-15.45-17.09-29.16-25.3-43.76-2.7-4.8-5.34-10.08-7.9-14.83s-4.46-9.19-6.84-13.67l4.88.98Z"/><path class="cls-24" d="M380.85,62.5c1.14,1.5,1.68,2.58,1.95,2.93l-86.91,144.52c8.87-17.58,16.82-35.46,26.37-52.73,2.38-.37,5.29-2.9.98-2.93.64-1.16,1.47-2.07,1.95-2.93,2.28,3.25,3.02-2.6,2.93-4.88.27-.49.53-1.16.98-1.95,15.12-26.88,34.39-52.42,47.69-80.68l4.07-1.34Z"/><path class="cls-3" d="M396.47,85.93l-53.71,110.34c-18.1,31.95-34.71,65.58-50.78,98.63h-2.93c9.17-18.18,18.29-36.44,27.34-54.68.64-1.3,1.3-2.6,1.95-3.91,1-2.01,1.4-3.75,1.95-4.88,5.48-11.07,11.3-21.99,16.6-33.2,1.38-2.92,2.6-5.84,3.91-8.79,2.87.16,2.23-1.57,2.93-2.93,14.61-28.46,28.69-57.3,42.97-85.93,2.78-5.57,5.66-11.22,8.79-16.6.17.53.93,1.2.98,1.95Z"/><path class="cls-27" d="M160.16,115.23l87.88,142.57c-.01,2.6-.05,5.21,0,7.81l-64.45-104.49c-.73-1.46-1.91-2.55-2.93-4.88,3.31-3.43-.81-2.74-.98-2.93-6.54-7.26-14.58-28.36-19.53-38.08Z"/><path class="cls-6" d="M208.99,164.05c-6.95-12.56-14.45-25.01-21.57-37.51-1.1-1.93-3.72-1.38-3.83-1.56-.21-.36,1.4-2.61,1.03-3.25-14.23-24.67-29.67-49-42.74-74.57l-2.92-3.23c-1.27-.3-2.27.74-3.21.99-.56.15-1.37.67-1.95.98l5.86-6.84c.86.56,6.96-.82,8.02,3.21l61.31,121.79Z"/><path class="cls-1" d="M331.05,332.01c-3.18,11.44-11.92,26.31-17.58,37.11l-.98.98c-.13.25.13.72,0,.98-3.75,1.89-6.86,6.6-5.86,10.74-.24.44-.27,1.65-.98,2.93-3.13-3-3.44,3.6-3.91,4.88-8.05,14.47-17.93,28.53-26.27,42.78-5.34,9.12-12.44,28.4-19.58,35.87-1.48,1.55-2.95,1.59-4.93,1.42.09-2.26-.18-4.59,0-6.84,2.16.22,3.03-.42,4.36-1.98,7.38-8.68,16.82-29.49,23.12-40.37,14.85-25.64,29.79-52.56,43.8-78.73.35-.65.64-1.32.98-1.95l1.96,1.46c.65-3,2.22-8.34,5.85-9.27Z"/><path class="cls-4" d="M407.22,181.63c-.71.99-2.67,1.3-1.95,3.91-.07.13-.91-.13-.98,0l-.98,3.91c-.13.26.13.72,0,.98-5.36-1.5-7.27,11.06-9.05,14.4-5.59,10.5-23.88,33.65-26.11,44.19-3.7,1.84-5.45,8.37-6.84,11.72-.35.86-.51,1.87-.98,2.93-5.82,2.76-7.72,11.32-11.26,16.56-1.66,2.46-6.9,7.63-8.27,9.8,14.1-28.95,30.55-56.69,45.9-84.96l38.08-57.61c-3.77,9.01-12.1,26.51-17.58,34.18Z"/><path class="cls-20" d="M489.24,6.84c-3.94,3.12-6,5.91-10.74,8.79-29.24,17.76-61.39,31.51-89.84,50.78-1.4-1.81-1.07-1.6-1.95-2.93,21.26-15.36,45.81-28.99,69.32-41.55.96-.51.88-2.33.99-2.39,10.05-5.29,21.25-9.66,32.22-12.69Z"/><path class="cls-22" d="M244.14,307.6c1.33-2.22,2.21-4.75,4.88-5.86v145.5c-3.09-1.74-3.58-6.03-4.88-8.79v-130.85Z"/><path class="cls-22" d="M255.86,307.6v130.85c-1.34,2.83-2.11,7.01-4.88,8.79v-145.5c2.66,1.11,3.56,3.63,4.88,5.86Z"/><path class="cls-10" d="M56.65,25.39c.24.17-.55,2.05.5,1.96l1.45-1.96c3.62.47,7.61,3.69,10.74,4.88l47.85,29.29c-1.06,1.89-3.43,4.89-3.91,5.86L29.31,14.65c8.91,3.29,19.34,5.27,27.34,10.74Z"/><path class="cls-24" d="M54.7,107.41c6.25-.5,5.71,12.78,12.69,13.67.55,1.25,1.28,1.85,1.95,3.91.08.24-2.92,2.2,1.95,2.93,19.01,31.55,36.06,66.13,53.71,98.63l-4.88-.98c-.37-.99-.66-1.92-.98-2.93-.9-2.93.4-6.9-3.91-5.86-.1-.29.1-.69,0-.98-.97-2.64-3.21-11.86-6.84-10.74-.12-.27.13-.71,0-.98-.71-1.51-.45-4.02-1.93-5.42-1.07-.83-2.54-.22-2.95-.44,0-.65,0-1.3,0-1.95.07-5.01-4.06-5.59-3.92-10.96l-21.47-32.98c-2.59-5.13-18.36-37.07-20.51-37.11-.03-2.92-1.8-5.26-2.93-7.81Z"/><path class="cls-1" d="M180.67,356.42c5.52-.05,6.5,9.98,8.78,13.92,13.29,22.97,38.72,73.41,54.27,92.44,1.52,1.86,2.56,3.29,5.3,3,.16,2.58-.04,5.23,0,7.81l-6.49-3.76-41.36-71.43c-.3-.65-.67-1.28-.98-1.95-.99-3.1.02-6.23-3.91-6.84-.11-.28.11-.69,0-.98-.91-2.41.81-6.11-3.91-6.84-.13-.26.13-.72,0-.98l-.98-1.95c-3.66-7.25-7.64-13.88-10.74-21.48-.11-.28.11-.7,0-.98Z"/><path class="cls-1" d="M174.81,345.68c3.5.94,4.74,7.93,5.86,10.74h-.98c-2.1-3.35-3.14-7.29-4.88-10.74Z"/><path class="cls-4" d="M313.47,166.98c-10.1,20.18-20.08,40.41-30.27,60.54l-31.25,45.9c-.04-1.95.04-3.91,0-5.86l61.52-100.58Z"/><path class="cls-24" d="M248.05,265.61c.04,2.28-.03,4.56,0,6.84l-38.08-57.61c-8.97-17.81-17.5-35.85-26.37-53.71l64.45,104.49Z"/><path class="cls-6" d="M305.66,384.74c-1.42,2.58-3.75,4.61-3.91,4.88-1.56,4.31-2.95,8.53-4.88,12.69-9.83,21.15-20.83,42.54-31.25,63.47-4.24,8.53-9.12,17.01-13.67,25.39h-.98c-.69-3.21.09-9.84,0-13.67v-.98c-.05-2.26-.09-4.58,0-6.84,1.98.17,3.45.13,4.93-1.42,7.14-7.47,14.24-26.75,19.58-35.87,8.34-14.26,18.22-28.31,26.27-42.78.46-1.28.77-7.88,3.91-4.88Z"/><path class="cls-9" d="M244.14,438.45c-.8-1.68-1.98.3-2.93-6.84-2.21-16.72-2.82-102.9,0-118.16.85-4.58,1.38-3.27,2.93-5.86v130.85Z"/><path class="cls-9" d="M258.79,313.46c2.64,17.17,2.57,100.85,0,118.16-.96,6.45-1.65,4.12-2.93,6.84v-130.85c1.46,2.47,2.22,1.25,2.93,5.86Z"/><path class="cls-27" d="M329.1,144.52l46.85-90.81c.54.22,4.37,8.08,4.9,8.78l-4.07,1.34c-13.3,28.26-32.57,53.8-47.69,80.68Z"/><path class="cls-24" d="M447.25,102.53c-1.76,3.46-3.12,7.28-4.88,10.74-4,7.85-8.74,15.57-12.69,23.44-3.31,1.71-2.22,4.06-3.08,5.75-.21.42-2.68-.03-2.74.14-.78,2.01,1.01,3.69.94,3.88-.11.28.12.7,0,.98l-38.08,57.61c16.95-31.22,33.82-62.53,50.78-93.74l2.92.97v-5.85c1.04-1.9,2.2-3.52,2.94-4.88l3.91.98Z"/><path class="cls-27" d="M360.34,263.65c-16.19,36.69-40.19,70.07-61.29,104.7-1.06,1.73-.32,10.99-7.06,10.53,10.29-23.91,30.21-57.25,43.94-80.07,1.97.58,3.16-1.06.98-1.95,1.36-2.24,2.46-4.55,3.91-6.84s6.61-7.34,8.27-9.8c3.53-5.24,5.44-13.81,11.26-16.56Z"/><path class="cls-15" d="M93.76,24.41c1.44,3.38,7.05,2.45,7.81,2.94.32.21-1.44,2.63-.99,2.91,7.92,4.95,20.03,9.59,28.33,14.66-1.02.64-2.22,4.16-4.95,3.42-12.16-6.62-30.62-9.8-41.92-17.09-1.29-.83-9.39-10.13-10.02-10.49-2.56-1.46-10.76.85-9.51-4.16,10.46,2.41,20.85,5.23,31.25,7.81Z"/><path class="cls-27" d="M170.9,144.52l-50.78-83.98c.74-.93,4.59-8.33,5.84-7.81,15.16,30.46,29.61,61.41,44.93,91.79Z"/><path class="cls-12" d="M264.65,336.89l-.98,88.86c-1.05,1.89-2.2,5.95-4.88,5.86,2.57-17.3,2.64-100.98,0-118.16,5.96,4.6,5.04,16.64,5.86,23.44Z"/><path class="cls-12" d="M316.4,240.22c-9.05,18.24-18.17,36.5-27.34,54.68-6.79,13.46-13.92,27.01-19.54,41.01-6.28-1.71-2.98-11.35-3.9-15.62l50.78-80.07Z"/><path class="cls-28" d="M336.91,198.23c-5.3,11.21-11.12,22.13-16.6,33.2-2.44-.77-3.83,3.6-1.95,4.88-.65,1.31-1.31,2.61-1.95,3.91l-50.78,80.07c-.34-1.58-.56-3.36-.98-4.88l72.26-117.18Z"/><path class="cls-15" d="M322.26,341.77c-14.02,26.17-28.96,53.09-43.8,78.73-6.3,10.88-15.74,31.68-23.12,40.37-1.33,1.57-2.2,2.2-4.36,1.98.17-2.16-.34-4.85,0-6.84,2.15.2,3.3.25,4.8-1.55,8.6-10.32,16.88-31.57,23.82-43.59,12.86-22.27,25.94-45.03,39.43-67,.9-1.47-.39-2.81,3.23-2.11Z"/><path class="cls-6" d="M201.18,398.41l41.36,71.43,6.49,3.76c.05,3.56.07,7.18,0,10.74v.98c-.06,2.25.22,4.62,0,6.84h-.98c-4.12-4.97-8.73-14.51-11.72-20.51-12.02-24.11-23.83-48.79-35.15-73.24Z"/><path class="cls-15" d="M429.68,19.53c-10.97,4.54-17.59,12.2-25.39,16.6-8.38,4.73-17.47,7.62-26.31,11.28l-4.27.48c-1.05-.2-.57-1.95-.66-2,6.65-9.6,20.7-12.52,29.29-20.51,8.98-2.06,17.79-6.19,27.34-5.86Z"/><path class="cls-8" d="M6.85,9.76c16.41,21.66,49.09,85.14,60.54,111.32-6.99-.89-6.44-14.17-12.69-13.67-.7-1.58-1.31-3.58-1.95-4.88,2.45-1.32.46-4.81-.98-1.95C36.67,70.43,19.88,40.92,6.85,9.76Z"/><path class="cls-8" d="M248.05,272.44c.02,1.1,2.93,21.63-.96,17.58-11.17-25.63-24.56-50.25-37.12-75.19l38.08,57.61Z"/><path class="cls-8" d="M457.02,19.53c-.11.06-.03,1.88-.99,2.39-23.51,12.57-48.06,26.2-69.32,41.55-.4-.61-1.82-2.24-2.93-3.91l43.94-28.32c1.61-.64,3.25-1.3,4.88-1.95,1.68,1.68,2.25,1.33,1.95-.98,7.29-2.9,14.71-7.36,22.46-8.79Z"/><path class="cls-8" d="M452.13,92.77c-2.17-2.92-5.16,3.5-2.93,5.86-.66,1.3-1.29,2.6-1.95,3.91l-3.91-.98c6.59-12.12,45.86-91.27,50.78-94.72-11.69,29.66-27.6,57.55-41.99,85.93Z"/><path class="cls-1" d="M124.03,30.27c8.32,2.54,9.14,5.2,13.67,7.81-2.98,2.16-5.66,4.87-8.79,6.84-8.3-5.07-20.41-9.71-28.33-14.66-.45-.28,1.31-2.7.99-2.91-.76-.49-6.37.44-7.81-2.94,9.15,2.27,21.64,3.22,30.27,5.86Z"/><path class="cls-7" d="M264.65,336.89c1.53,12.64,2.82,25.43,3.91,38.08-2.96-.55-1.88,1.5-1.95,3.37-.37,9.3.19,18.64,0,27.88-3.12,2.13-3.17,12.06,0,13.67-.58,2.29-1.83,3.88-2.93,5.86l.98-88.86Z"/><path class="cls-24" d="M283.2,227.52c-10.43,20.6-20.62,41.51-30.28,62.5-3.83,4-.94-15.54-.96-16.6l31.25-45.9Z"/><path class="cls-19" d="M234.38,340.8l2.98,2.44-2,80.57c-.98-2.58-2.48-2.72-2.93-6.84-1.16-10.58-.24-30.66,0-41.99.24-11.56,1.38-22.65,1.95-34.18Z"/><path class="cls-26" d="M480.45,3.91l2.92,2.92c-1.23.19-2.76-.23-3.9.01-1.32.28-2.23.82-2.93.98-10.33,2.36-21.06,3.89-31.25,6.84-6.01,1.74-9.55,2.37-15.62,4.88-9.55-.33-18.36,3.8-27.34,5.86-7.51,1.72-14.98,2.86-22.46,4.88-.09-.89,1-2.44.98-2.93-.02-.34.08-.75,0-.98,33.44-6.45,66.34-15.26,99.6-22.46Z"/><path class="cls-24" d="M94.74,40.04l24.41,15.62c-.69,1.23-1.23,2.61-1.95,3.91l-47.85-29.29c8.54,3.27,16.89,6.36,25.39,9.76Z"/><path class="cls-6" d="M402.33,25.39c-8.6,7.99-22.64,10.9-29.29,20.51-4.81-2.47-6.1-5.92-10.74-7.81.96-5.92,12.06-6.33,17.58-7.81,7.48-2.02,14.95-3.16,22.46-4.88Z"/><path class="cls-4" d="M125.01,226.55c11.6,21.36,22.6,43.11,34.18,64.45l-3.9-1.49c-8.92-22.61-26.68-41.2-35.16-63.94l4.88.98Z"/><path class="cls-27" d="M445.3,14.65c.65,1.22-3.6,6.58-3.91,6.84-7.22,6.03-27.71,11.11-37.11,14.65,7.8-4.4,14.41-12.06,25.39-16.6,6.08-2.51,9.62-3.15,15.62-4.88Z"/><path class="cls-24" d="M427.72,31.25l-43.94,28.32c-.19-.29-3.59-2.2-4.88-4.88l28.32-15.62c6.81-2.72,13.73-5.13,20.51-7.81Z"/><path class="cls-4" d="M49.82,13.67c4.25.84,8.48,1.96,12.69,2.93-1.25,5.01,6.95,2.7,9.51,4.16.63.36,8.73,9.66,10.02,10.49-12.25-3.1-23.49-9.09-35.15-13.67,1.09-5.17-2.98-1.83-4.83-3.02-.34-.22.06-1.8-.05-1.86,2.74-.44,5.21.46,7.81.98Z"/><path class="cls-26" d="M119.15,26.37c.89.25,2.43,1.52,3.91,1.95l.98,1.95c-8.63-2.64-21.12-3.59-30.27-5.86-10.4-2.58-20.79-5.4-31.25-7.81-4.22-.97-8.44-2.09-12.69-2.93.94-1.84-4.42-3.09-6.84-3.91,24.57,6.54,51.89,9.9,76.17,16.6Z"/><path class="cls-20" d="M268.55,374.97c1.07,12.53,6.91,32.95-.98,41.99.44-4.07-1.04-7.47-.98-10.74.19-9.24-.37-18.58,0-27.88.07-1.87-1-3.92,1.95-3.37Z"/><path class="cls-24" d="M476.55,7.81v.98c-11.33,4.75-23.39,9.06-35.15,12.69.3-.25,4.56-5.61,3.91-6.84,10.18-2.95,20.92-4.48,31.25-6.84Z"/><path class="cls-17" d="M232.42,416.96c-9.27-9.72-.63-29.51,0-41.99-.24,11.33-1.16,31.41,0,41.99Z"/><path class="cls-27" d="M407.22,39.06l-28.32,15.62c-.74-1.53-2.51-2.6-1.95-4.87,10.05-3.5,20.39-6.81,30.27-10.75Z"/><path class="cls-27" d="M94.74,40.04c9.14,3.66,19.01,6.48,28.32,9.78,1.1,3.45-3.24,4.66-3.91,5.85l-24.41-15.62Z"/><path class="cls-8" d="M42.01,12.69c.11.06-.29,1.64.05,1.86,1.85,1.2,5.92-2.14,4.83,3.02-8.95-3.52-18.52-5.86-27.33-9.78,7.01-.41,16.19,1.77,22.45,4.9Z"/><path class="cls-10" d="M87.9,150.38c4.58,7.43,12.37,15.5,12.69,24.41-4.95-7.51-10.39-15.55-12.69-24.41Z"/><path class="cls-23" d="M267.58,416.96c-.18,1.71-.78,2.15-.98,2.93-3.17-1.61-3.12-11.54,0-13.67-.07,3.27,1.42,6.67.98,10.74Z"/><path class="cls-24" d="M294.92,211.9c1.45,2.93-3.16,13.6-6.84,12.69,2.2-4.25,4.7-8.48,6.84-12.69Z"/><path class="cls-24" d="M286.13,228.5c5.87,2.38-4.52,10.21-4.88,10.74.19-4.02,3.15-7.32,4.88-10.74Z"/><path class="cls-10" d="M392.57,188.46c-1.84,3.41-4.07,6.46-5.86,9.76-1.75-3.76,1.44-10.32,5.86-9.76Z"/><path class="cls-27" d="M177.74,157.22c-2.93-.51-6.63-5.89-4.88-8.79,1.31,2.59,3.32,5.69,4.88,8.79Z"/><path class="cls-3" d="M17.59,14.65v1.95c-1.27-.88-3.46-1.13-4.88-1.95-.16-.81.9-2.84.98-3.91.85,1.12,2.77,2.91,3.91,3.91Z"/><path class="cls-8" d="M440.42,106.44v5.85s-2.93-.97-2.93-.97c1.03-1.9,2.19-3.52,2.93-4.88Z"/><path class="cls-5" d="M230.47,363.26c-.14,1.87-.94,3.38-.98,3.91-1.73-1.73-2.03-1.54-2.93-3.91h3.91Z"/><path class="cls-27" d="M328.12,146.47c.09,2.28-.65,8.13-2.93,4.88.95-1.7,2.02-3.27,2.93-4.88Z"/><path class="cls-27" d="M206.06,377.9c-.15-.17-1.4.14-1.95,0v-4.89c.59,1.1,3.03,1.88,1.95,4.88Z"/><path class="cls-20" d="M470.69,42.97c-.67,1.26-1.26,2.6-1.95,3.91-1.81-1.22-.02-4.72,1.95-3.91Z"/><path class="cls-8" d="M71.3,127.92c-4.87-.73-1.87-2.69-1.95-2.93,1.69.48,1.45,2.09,1.95,2.93Z"/><path class="cls-24" d="M179.69,153.31c.17.19,4.29-.5.98,2.93-.38-.87-1.31-1.58-.98-2.93Z"/><path class="cls-28" d="M489.24,6.84c.17-.05-.41-3.14,2.92-1.95v1.94c-.76.21-2.62-.23-2.92,0Z"/><path class="cls-10" d="M104.5,181.63c.51.43,3.64-1.12.98,2.93-.94-.95-1.14-1.6-.98-2.93Z"/><path class="cls-27" d="M291.01,381.81c-.07.24,3.26,2.54-1.95,1.95.48-.89.95-1.59,1.95-1.95Z"/><path class="cls-4" d="M336.91,296.86c2.19.9,1,2.53-.98,1.95.33-.55.56-1.27.98-1.95Z"/><path class="cls-24" d="M434.56,28.32c.3,2.3-.28,2.66-1.95.98.48-.19,1.13-.65,1.95-.98Z"/><path class="cls-24" d="M58.61,25.39l-1.45,1.96c-1.05.09-.26-1.79-.5-1.96.64.06,1.32-.08,1.95,0Z"/><path class="cls-10" d="M101.57,176.75c.2.25,2.05-.55,1.96.5l-1.96,1.45c-.13-.57.09-1.34,0-1.95Z"/><path class="cls-10" d="M479.48,6.84c-.74,1.03-1.8,1.48-2.93,1.95v-.98c.7-.16,1.6-.7,2.93-.98Z"/><path class="cls-3" d="M445.3,42.97v1.95c-.49.4-1.63.88-2.93,1.95-2.73,2.24-5.23,5.48-6.84,6.84-1.99,1.68-3.95,3.07-5.86,4.88-3.96,3.76-9.48,6.08-12.69,10.74-.88.57-1.87.92-2.93.98-8.02.45-8.31,9.14-16.13,9.87-2.2-.21-4.06-5.38-5.36-6.94,17.76-9.38,36.29-18.76,52.73-30.27Z"/><path class="cls-27" d="M323.24,154.29c4.32.03,1.4,2.56-.98,2.93.55-.99.6-2.26.98-2.93Z"/><path class="cls-27" d="M203.13,371.07c-1.98.58-3.16-1.06-.98-1.95.34.65.64,1.31.98,1.95Z"/><polygon class="cls-26" points="5.88 7.81 4.9 7.81 3.93 5.86 5.88 7.81"/><rect class="cls-26" x="15.65" y="5.87" width="1.94" height=".95"/><path class="cls-26" d="M32.24,6.84c-.09-.02.06.49-1.95,0h1.95Z"/><path class="cls-1" d="M250.98,249.01c2.77-.39,2.77,1.37,0,.98.02-.32-.02-.65,0-.98Z"/><path class="cls-13" d="M249.02,492.15c-.07.68.41,1.96-.49,1.97-1.03.01-.22-1.64-.49-1.97h.98Z"/><path class="cls-4" d="M168.95,307.6l-.98-.98c.18.34.78.61.98.98Z"/><path class="cls-8" d="M5.88,8.79h-.98v-.98h.98c.09.29-.14.8,0,.98Z"/><path class="cls-13" d="M250.98,477.51c0-.33,0-.65,0-.98v.98Z"/><path class="cls-13" d="M249.02,485.32v-.98c0,.33,0,.65,0,.98Z"/><path class="cls-13" d="M250.98,491.18h.98c-.07,1.31-.7,1.26-.98,0Z"/><path class="cls-24" d="M452.13,92.77c-.98,1.94-1.94,3.91-2.93,5.86-2.23-2.36.76-8.78,2.93-5.86Z"/><path class="cls-24" d="M51.77,100.58c1.44-2.86,3.43.64.98,1.95-.32-.65-.65-1.3-.98-1.95Z"/><path class="cls-21" d="M17.59,14.65c6.77,5.9,21.6,16.67,29.29,21.48-.11,1.35-.28,2.02.98,2.93.21.15.75-.15.98,0,6.75,4.59,12.21,9.75,19.53,13.67-.28,2.69,3.1,3.28,4.88,3.91.29.1.69-.11.98,0,3.55,5.18,25.46,23.8,30.13,21.32.75-.75.74-3.42,1.12-3.75,1.11-.95,5.1.29,3.91-3.91.57.28,2.35-.28,2.93,0,.07.91-.46,1.34-.98,1.95-2.04,2.44-6.92,8.63-6.84,11.72-.52,1.77,1.9,2.76,1.95,2.93.74,2.32,2.07,3.92,2.93,5.86,1.08,2.43,2.46,3.88,2.93,4.88.31.67.67,1.3.98,1.95,4.28,9.03,8.22,18.41,12.69,27.34l-.98,1.95c-14.78-28.45-16.31-39.06-41.99-59.57-3.63-2.9-6.99-5.93-10.74-8.79-2.79-2.12-4.94-5.88-8.79-5.86-1.59-2.95-4.54-4.62-6.84-6.84-2.84-2.74-8.94-7.14-12.69-8.79-.6-2-2.86-2.76-3.91-3.91-.66-.72-2.17-1.22-2.93-1.95-2.82-2.73-5.37-3.85-7.81-5.86-1.67-1.37-3.19-2.58-4.88-3.91s-4.96-5.54-6.84-6.84v-1.95Z"/><path class="cls-5" d="M112.31,97.65c-.47-1-1.85-2.45-2.93-4.88,1.98-.32,5.13,3.36,2.93,4.88Z"/><path class="cls-5" d="M104.5,83.98c2.53-.5,2.08.71,1.95,2.93-.05-.17-2.47-1.16-1.95-2.93Z"/><path class="cls-22" d="M342.77,196.28l53.71-110.34,17.58-15.62c1.06-.06,2.04-.41,2.93-.98-21.17,44.2-50.24,84.63-74.21,126.94Z"/><path class="cls-3" d="M169.93,211.9c5.57,11.37,10.99,23.35,15.62,35.15h-.98c-6.42-12.76-14.09-25.3-20.51-38.08-7.54-15.04-13.88-30.98-21.48-45.9h.98c9.82,15.52,18.29,32.35,26.37,48.82Z"/><path class="cls-21" d="M140.63,156.24l-.98,1.95c-4.62-9.06-9.01-18.33-13.67-27.34l1.95-.98c4.34,8.72,8.37,17.64,12.69,26.37Z"/><path class="cls-21" d="M143.56,163.07h-.98c-.08-.16-.77-.61-1.95-2.93l1.95-.98c.55,1.29,1.43,2.18.98,3.91Z"/><path class="cls-3" d="M142.59,159.17l-1.95.98c-.33-.65-.65-1.31-.98-1.95l.98-1.95c.26.52,1.14,1.04,1.95,2.93Z"/><path class="cls-3" d="M127.94,129.87l-1.95.98c-.34-.65-.64-1.31-.98-1.95l.98-1.95c.23.46,1.19,1.39,1.95,2.93Z"/><path class="cls-21" d="M185.55,247.05c7.75,11.68,13.69,24.64,19.98,37.15,1.78,3.54,1.32,7.42,1.5,7.77-3.47-4.84-6.09-10.34-8.79-15.62-4.88-9.56-8.88-19.77-13.67-29.29h.98Z"/><path class="cls-28" d="M343.74,186.51c-.7,1.36-.05,3.09-2.93,2.93.68-1.54.08-3.03,2.93-2.93Z"/><path class="cls-11" d="M83.02,69.33l81.05,139.64c6.41,12.79,14.09,25.32,20.51,38.08,4.79,9.52,8.79,19.74,13.67,29.29.35,2.62-.85,2.69-2.39.93-2.47-2.82-8.65-14.07-11.1-18.2-37.49-63.46-74.63-127.75-110.69-192.03-.74-1.31-3.65-5.21-1.8-6.51,3.75,2.86,7.12,5.89,10.74,8.79Z"/><path class="cls-6" d="M269.53,206.04c-1.2,3.26-1.84,6.58-4.88,8.79,1.39-2.73,1.69-6.97,4.88-8.79Z"/><path class="cls-1" d="M135.75,44.92c.93-.25,1.94-1.29,3.21-.99l2.92,3.23c13.07,25.57,28.51,49.9,42.74,74.57.37.64-1.24,2.89-1.03,3.25.1.18,2.73-.37,3.83,1.56,7.12,12.5,14.63,24.95,21.57,37.51,6.23,11.26,13.01,22.56,18.55,34.18.13.27-.13.71,0,.98.94,1.97,2,3.89,2.93,5.86-8.1-1.57-8.83-9.64-12.29-15.5-1.35-2.28-4.39-4.65-5.78-7-.85-1.45,1.02-3.54.37-4.67-.54-.92-8.29-11.05-9.65-8.97l-67.37-124.01Z"/><path class="cls-1" d="M232.42,208.97c.12.27-.12.71,0,.98-2.71.46-2.4-.91-.98-2.93.3.64.66,1.28.98,1.95Z"/><path class="cls-1" d="M248.05,240.22c.14.86.4,2.3-.95,1.94-3.14-5.05-4.51-10.8-7.21-16.16-.69-1.37-4.19-2.03-4.42-2.53-.63-1.37,1.12-3.62.88-4.16-1.39-3.1-2.58-6.48-3.92-9.36h.98c2.93,4.98,13.92,25.8,14.65,30.27Z"/><path class="cls-18" d="M126.96,28.32c31.46,9.86,28.97,28.31,42.26,53.52,18.35,34.82,37.6,68.98,54.76,102.86,1.15,2.28,6.93,12.56,3.56,13.53-5.54-11.61-12.33-22.92-18.55-34.18l-61.31-121.79c-1.07-4.03-7.16-2.64-8.02-3.21-.2-.13-1.2-.54-1.95-.98-4.54-2.62-5.35-5.27-13.67-7.81l-.98-1.95c1.01.3,2.92-.31,3.91,0Z"/><path class="cls-18" d="M227.54,199.21c7.55.12,10.09,16.69,13,22.25,2.17,4.16,8.16,9.35,8.98,14.86,2.82.9,16.68-33.38,18.23-35.48s2.44-1.84,4.71-1.64c-.68,1.99-2.32,3.88-2.93,5.86-.09.3.1.69,0,.98-3.19,1.82-3.49,6.06-4.88,8.79-2.77,5.43-12.58,20.94-13.67,25.39h-2.93c-.73-4.48-11.72-25.29-14.65-30.27-.22-.37-.69-.65-.98-.98-.32-.68-.68-1.31-.98-1.95s-.66-1.3-.98-1.95c-.93-1.97-1.99-3.89-2.93-5.86Z"/><path class="cls-18" d="M380.85,27.34c.03.49-1.07,2.03-.98,2.93-5.51,1.49-16.62,1.89-17.58,7.81-.07.41-.58.81-.98.98-1.05-.48-3.01-.99-4.13-.76l-26.14,44.7c.12-.24-1.26-2.45-.25-4.56,10.08-21.25,16.97-43.93,41.27-50.12,2.16-.55,6.24.06,8.79-.98Z"/><path class="cls-16" d="M380.85,26.37c.08.23-.02.64,0,.98-2.55,1.04-6.62.43-8.79.98-6.45-10.09-19.19-15.48-30.72-16.64-39.99-4.02-145.23-4.56-184.58.06-11.31,1.33-22.56,7.96-29.8,16.58-.98-.31-2.89.3-3.91,0-1.48-.44-3.02-1.71-3.91-1.95,5.98-8.62,16.39-16.76,26.58-19.8C166.57.35,315.14,1.02,342.25,3.93c10.92,1.17,34.68,11.54,38.6,22.43Z"/><path class="cls-14" d="M372.06,28.32c-24.29,6.19-31.19,28.87-41.27,50.12-1,2.12.37,4.32.25,4.56-.13.26.13.71,0,.98-2.44-.21-3.47.64-4.75,2.57-9.98,15.11-27.34,51.03-35.3,68.41-.42.92,1.07,3.07,1,3.23-3.37,6.01-9.29,13.49-12.98,20.8-1.02,2.01.58,3.94.29,4.58-.07.14-2.43-.56-2.96.67-1.77,4.08-4.39,8.43-5.73,12.54-.14.42,1.91,1.28,1.85,1.45-.1.29.1.68,0,.98-2.27-.2-3.23-.37-4.71,1.64s-15.41,36.38-18.23,35.48c-.82-5.51-6.81-10.7-8.98-14.86-2.91-5.56-5.45-22.13-13-22.25-.13-.26.13-.71,0-.98,3.37-.97-2.4-11.25-3.56-13.53-17.16-33.88-36.41-68.04-54.76-102.86-13.29-25.21-10.8-43.67-42.26-53.52,7.24-8.63,18.49-15.25,29.8-16.58,39.35-4.62,144.59-4.08,184.58-.06,11.53,1.16,24.27,6.56,30.72,16.64Z"/><path class="cls-18" d="M331.05,83.98c-11.99,25.03-26.01,50.95-39.06,74.21-6.13,13.57-11.82,27.26-19.53,40.04.06-.17-1.99-1.02-1.85-1.45,1.33-4.12,3.96-8.46,5.73-12.54.53-1.22,2.89-.52,2.96-.67.29-.65-1.31-2.57-.29-4.58,3.69-7.31,9.61-14.79,12.98-20.8.07-.15-1.42-2.3-1-3.23,7.96-17.38,25.32-53.3,35.3-68.41,1.28-1.94,2.31-2.79,4.75-2.57Z"/><path class="cls-4" d="M78.14,152.33l21.47,32.98c-.14,5.37,3.99,5.95,3.92,10.96l-1.94,2.93c1.08.44,1.85-1.02,1.94-.97.41.21,1.88-.4,2.95.44,1.49,1.41,1.22,3.91,1.93,5.42l-4.88-.98c-8.9-16.77-16.85-33.85-25.39-50.78Z"/><path class="cls-13" d="M110.36,216.78c2.57,4.74,5.21,10.03,7.9,14.83,8.21,14.61,18.37,28.32,25.3,43.76-.92-.7-3.64-1.35-4.88-1.95l-28.32-56.64Z"/><path class="cls-6" d="M192.39,381.81c4.71.73,2.99,4.42,3.91,6.84-1.88-1.89-2.75-4.51-3.91-6.84Z"/><path class="cls-6" d="M196.29,389.62c3.92.61,2.91,3.74,3.91,6.84-.92-2.02-2.88-4.29-3.91-6.84Z"/><path class="cls-6" d="M192.39,380.83c-.32-.65-.65-1.31-.98-1.95l.98,1.95Z"/><path class="cls-13" d="M162.12,305.64c-4.29.6-2.36-.9-2.93-1.95,1.43.04,2.48.48,2.93,1.95Z"/><path class="cls-13" d="M144.54,276.35c2.62-.37,1.62.6,1.95,1.95-3.06.67-1.57-1.55-1.95-1.95Z"/><path class="cls-5" d="M109.38,159.17c-13.33-19.45-25.59-40.42-36.13-61.52,13.74,18.72,24.85,40.82,36.13,61.52Z"/><path class="cls-5" d="M110.36,162.1c9.74,12.86,20.03,29.85,26.37,44.92-10.44-13.91-18.1-29.69-26.37-44.92Z"/><path class="cls-5" d="M63.49,80.07c-6.32-8.21-14.02-19.6-17.58-29.29,7.6,8.11,12.7,19.43,17.58,29.29Z"/><path class="cls-5" d="M168.95,262.68c5.35,5.35,9.81,14.55,12.69,21.48-5.66-4.92-9.91-14.64-12.69-21.48Z"/><path class="cls-5" d="M201.18,319.31c5.59,3.37,8.29,11.91,10.74,17.58-4.38-4.1-8.31-12.1-10.74-17.58Z"/><path class="cls-5" d="M216.8,345.68c4.72,3.57,7.54,11.33,9.76,16.6-4.72-3.52-7.7-11.29-9.76-16.6Z"/><path class="cls-5" d="M73.25,96.67c-4.79-2.88-7.39-10.76-9.76-15.62,5.06,2.77,7.38,10.8,9.76,15.62Z"/><path class="cls-5" d="M150.4,231.43c4.07,2.05,7.16,9.67,8.79,13.67-4.41-2.08-6.94-9.51-8.79-13.67Z"/><path class="cls-5" d="M144.54,220.69c3.52.67,4.69,7.07,5.86,9.76-3.37-.64-4.89-7.1-5.86-9.76Z"/><path class="cls-5" d="M40.05,35.15c.38,1.91.5,3.98.98,5.86-3.12.33-3.91-5.26-3.91-7.81.76.73,2.27,1.23,2.93,1.95Z"/><path class="cls-5" d="M185.55,291.97c3.19.08,4.02,5.63,4.88,7.81-3.16-.07-4.06-5.63-4.88-7.81Z"/><path class="cls-5" d="M196.29,310.53c3.21.07,4.03,4.68,4.88,6.84-3.32-.05-3.91-4.76-4.88-6.84Z"/><path class="cls-5" d="M165.04,255.84c2.55-.37,3.28,4.17,3.91,5.86-3.96-.14-3.12-3.65-3.91-5.86Z"/><path class="cls-5" d="M181.65,285.14c2.97-.31,3.25,4,3.91,5.86-3.01.3-3.2-4-3.91-5.86Z"/><path class="cls-5" d="M212.89,338.84c2.98-.31,3.23,4,3.91,5.86-3.04.3-3.14-4-3.91-5.86Z"/><path class="cls-5" d="M137.7,208.97c2.95-.31,3.27,4,3.91,5.86-3,.31-3.19-3.99-3.91-5.86Z"/><path class="cls-5" d="M194.34,305.64c-2.75.27-3.22-3.1-3.91-4.88,3.38.11,3.06,2.74,3.91,4.88Z"/><path class="cls-5" d="M141.61,215.81c2.79-.5,2.39,2.25,2.93,3.91-2.76.5-2.42-2.24-2.93-3.91Z"/><path class="cls-5" d="M42.98,45.9c2.78-.5,2.39,2.24,2.93,3.91-2.95.53-2.23-2.41-2.93-3.91Z"/><path class="cls-5" d="M159.19,246.08c2.77-.5,2.4,2.24,2.93,3.91-2.83.5-2.35-2.27-2.93-3.91Z"/><path class="cls-5" d="M162.12,250.96c2.71-.5,2.47,2.23,2.93,3.91-2.74.5-2.43-2.23-2.93-3.91Z"/><path class="cls-5" d="M194.34,307.6l1.95,1.95c-.06-.13-.63,1.29-1.95-1.95Z"/><path class="cls-5" d="M41.03,41.99l1.95,1.95c-.05-.13-.97,1.4-1.95-1.95Z"/><path class="cls-15" d="M351.56,292.95c-5.35,11.6-11.65,22.87-17.58,34.18-5.13-.94-2.72,2.99-2.93,3.91-.07.31.08.68,0,.98-3.63.93-5.21,6.27-5.85,9.27l-1.96-1.46c7.26-13.6,15.42-25.65,22.87-38.12,1.4-2.35-.1-9.65,5.45-8.75Z"/><path class="cls-27" d="M368.16,249.01c-.53,2.51-.44,5.28,0,7.81-.36.24-.64.79-.98.98-1.86,1.03-3.85,2.19-5.86,2.93,1.38-3.34,3.14-9.88,6.84-11.72Z"/><path class="cls-15" d="M351.56,291.97c.5-1.08-.57-4.15.17-5.76.12-.27,2.36.13,2.54-.25,2.53-5.52,4.11-12.62,9.01-16.44-3.25,7.83-7.3,15.24-11.72,22.46Z"/><path class="cls-15" d="M369.13,256.82c-1.33,2.72-1.76,7.36-4.88,9.76,1.08-2.78,2.66-5.78,2.93-8.79.34-.19.62-.74.98-.98h.98Z"/><polygon class="cls-15" points="350.09 289.04 350.58 289.53 350.09 290.02 350.09 289.04"/><path class="cls-15" d="M363.27,268.54l.98-.98c-.24.62-.94.87-.98.98Z"/><path class="cls-5" d="M109.38,70.31c1.19,4.2-2.8,2.95-3.91,3.91-9.78-7.01-19.89-13.32-31.25-17.58-.28-.11-.69.1-.98,0-.03-3.57-3.12-2.96-4.88-3.91-7.32-3.92-12.78-9.08-19.53-13.67h-.98c-1.26-.91-1.09-1.58-.98-2.93,17.34,10.85,43.93,24.95,62.5,34.18Z"/><path class="cls-4" d="M108.41,205.06c3.63-1.11,5.87,8.1,6.84,10.74-4.28-.59-5.14-7.08-6.84-10.74Z"/><path class="cls-4" d="M115.24,216.78c4.31-1.04,3,2.93,3.91,5.86-3.96-.13-3.12-3.67-3.91-5.86Z"/><path class="cls-12" d="M320.31,231.43c-.56,1.13-.96,2.87-1.95,4.88-1.88-1.28-.48-5.66,1.95-4.88Z"/><path class="cls-6" d="M306.64,381.81c-1-4.14,2.11-8.85,5.86-10.74-1.91,3.59-3.91,7.17-5.86,10.74Z"/><path class="cls-6" d="M312.5,370.09l.98-.98c-.2.38-.81.66-.98.98Z"/><path class="cls-13" d="M403.31,190.42c-10.52,21.24-21.67,42.24-32.22,63.47l-1.95,1.95c-.13.26.13.71,0,.98h-.98c-.44-2.53-.53-5.3,0-7.81,2.23-10.53,20.52-33.69,26.11-44.19,1.78-3.34,3.69-15.91,9.05-14.4Z"/><path class="cls-13" d="M405.26,185.53c-.72-2.61,1.24-2.91,1.95-3.91.25,1.97-1.38,2.87-1.95,3.91Z"/><path class="cls-13" d="M403.31,189.44l.98-3.91c-.19.38-.02,1.91-.98,3.91Z"/><path class="cls-27" d="M103.53,196.28c0,.65,0,1.3,0,1.95-.1-.05-.86,1.41-1.94.97l1.94-2.93Z"/><path class="cls-4" d="M424.79,146.47c.08-.18-1.72-1.87-.94-3.88.06-.16,2.53.29,2.74-.14.86-1.69-.23-4.04,3.08-5.75-1.52,3.02-2.15,7.23-4.88,9.76Z"/><path class="cls-1" d="M333.98,327.13c-.75,1.42.08,4.46-2.93,3.91.21-.92-2.2-4.85,2.93-3.91Z"/><path class="cls-15" d="M369.13,255.84l1.95-1.95c-.59,1.19-1.88,1.8-1.95,1.95Z"/><path class="cls-22" d="M125.01,128.9c.33.64.64,1.3.98,1.95,4.66,9.01,9.05,18.28,13.67,27.34.33.65.64,1.3.98,1.95,1.19,2.32,1.87,2.77,1.95,2.93,7.6,14.91,13.94,30.86,21.48,45.9L83.02,69.33c25.68,20.51,27.21,31.11,41.99,59.57Z"/><path class="cls-28" d="M105.48,74.21c-.38.33-.38,2.99-1.12,3.75-4.67,2.47-26.58-16.15-30.13-21.32,11.36,4.26,21.46,10.57,31.25,17.58Z"/><path class="cls-28" d="M73.25,56.64c-1.78-.63-5.16-1.22-4.88-3.91,1.76.94,4.85.33,4.88,3.91Z"/><path class="cls-28" d="M48.84,39.06c-.22-.15-.76.15-.98,0h.98Z"/><path class="cls-16" d="M264.65,473.6c.39-.75,1.57-5.1,1.95-5.86.54-1.06,2.14-2.34,2.93-3.91l165.54-79.07c10.54-8.79,13.56-17.88,17.37-30.47,16.02-52.85,23.84-112.52,37.87-166.31-.01-27.64-32.54-50.56-45.99-72.75.33-.65.65-1.3.98-1.95.94-1.87,2.62-3.29,2.93-3.91,16.03,22.2,49.4,48.5,49.82,77.69.36,24.91-29.01,137.16-37.6,166.44-6.13,20.9-10.3,31.59-29.78,43.46l-166.02,76.64Z"/><path class="cls-16" d="M55.68,115.23c.13.26-.13.72,0,.98-14.25,20.79-45.97,45-45.99,71.77,17.49,49.69,20.9,136.89,42.87,181.82,4.5,9.2,12.38,15.85,21.02,20.97l156.89,73.07c1.53,2.99,3.38,5.88,4.88,8.79.13.26-.13.72,0,.98l-175.3-82.98c-13.54-11.19-15.67-20.34-20.31-36.33C31.09,324.42,1.59,212.44,1.95,187.06c.42-29.19,33.79-55.49,49.82-77.69.63,1.25,2.75,3.56,3.91,5.86Z"/><path class="cls-2" d="M57.63,115.23c2.15.04,17.92,31.98,20.51,37.11,8.54,16.93,16.49,34,25.39,50.78,2.38,4.48,4.38,9.14,6.84,13.67l28.32,56.64c12.04,24.09,24.02,48.21,36.13,72.26,1.74,3.45,2.79,7.4,4.88,10.74.24.38.68.65.98.98,3.11,7.6,7.08,14.23,10.74,21.48.33.65.65,1.31.98,1.95.13.26-.13.72,0,.98,1.15,2.33,2.03,4.95,3.91,6.84.11.29-.11.7,0,.98,1.03,2.55,2.99,4.81,3.91,6.84.31.68.67,1.3.98,1.95,11.33,24.45,23.13,49.13,35.15,73.24l-.98.98c-1.5-2.9-3.35-5.8-4.88-8.79-59.16-115.38-116.41-231.77-174.79-347.63-.13-.26.13-.72,0-.98.65,0,1.3-.01,1.95,0Z"/><path class="cls-18" d="M296.87,404.27c-.64,2.2-.69,2.57-.98,4.88-3.75-.43-.77,1.32-.98,1.95-4.2,13.11-18.57,39.22-25.39,52.73-.79,1.57-2.39,2.85-2.93,3.91l-.98-1.95c10.42-20.93,21.41-42.33,31.25-63.47-.1.61.15,1.43,0,1.95Z"/><path class="cls-14" d="M269.53,463.84c6.81-13.51,21.19-39.62,25.39-52.73.57-.52.88-1.19.98-1.95.28-2.31.34-2.68.98-4.88,1.06,1.81,5.87-7.58,6.1-8.03,46.86-93.81,94.21-187.47,141.35-281.01,13.45,22.19,45.97,45.11,45.99,72.75-14.03,53.79-21.85,113.46-37.87,166.31-3.82,12.59-6.84,21.68-17.37,30.47l-165.54,79.07Z"/><path class="cls-2" d="M445.3,113.27c-.33.65-.65,1.3-.98,1.95-47.14,93.54-94.49,187.19-141.35,281.01-.23.45-5.03,9.84-6.1,8.03.15-.53-.1-1.35,0-1.95,1.94-4.16,3.33-8.39,4.88-12.69.15-.27,2.48-2.3,3.91-4.88.71-1.28.73-2.49.98-2.93,1.95-3.57,3.95-7.15,5.86-10.74.13-.25-.13-.72,0-.98.17-.31.78-.59.98-.98,5.66-10.8,14.4-25.66,17.58-37.11.08-.3-.07-.67,0-.98,3.01.55,2.18-2.48,2.93-3.91,5.92-11.31,12.23-22.58,17.58-34.18.12-.27-.12-.71,0-.98,4.42-7.21,8.47-14.63,11.72-22.46.12-.28-.11-.7,0-.98.04-.1.74-.36.98-.98.11-.28-.11-.69,0-.98,3.13-2.4,3.55-7.05,4.88-9.76.13-.26-.13-.71,0-.98.08-.15,1.36-.76,1.95-1.95,10.55-21.24,21.71-42.24,32.22-63.47.13-.26-.13-.71,0-.98.96-2,.79-3.53.98-3.91.07-.13.9.13.98,0,.57-1.03,2.21-1.94,1.95-3.91,5.47-7.67,13.81-25.17,17.58-34.18.12-.28-.11-.7,0-.98,2.73-2.53,3.37-6.75,4.88-9.76,3.96-7.87,8.69-15.59,12.69-23.44h2.93Z"/><path class="cls-14" d="M55.68,116.2c58.38,115.86,115.63,232.25,174.79,347.63l-156.89-73.07c-8.65-5.12-16.52-11.77-21.02-20.97-21.97-44.93-25.38-132.13-42.87-181.82.01-26.77,31.74-50.98,45.99-71.77Z"/><path class="cls-2" d="M295.9,409.15c-.09.77-.4,1.43-.98,1.95.2-.63-2.77-2.38.98-1.95Z"/></svg>