<?xml version="1.0" encoding="UTF-8"?><svg id="Layer_1" xmlns="http://www.w3.org/2000/svg" viewBox="0 0 1000 1000"><defs><style>.cls-1{fill:#d02e24;}.cls-2,.cls-3{fill:#616d7e;}.cls-4,.cls-5{fill:#fdfcf7;}.cls-5{stroke:#cda180;stroke-miterlimit:10;stroke-width:2px;}.cls-3{opacity:.6;}</style></defs><rect class="cls-4" x="20.83" y="140.95" width="117.4" height="117.46"/><line class="cls-5" x1="138.22" y1="164.45" x2="20.83" y2="164.45"/><line class="cls-5" x1="138.22" y1="187.94" x2="20.83" y2="187.94"/><line class="cls-5" x1="138.22" y1="211.43" x2="20.83" y2="211.43"/><line class="cls-5" x1="138.22" y1="234.92" x2="20.83" y2="234.92"/><line class="cls-5" x1="138.22" y1="140.95" x2="20.83" y2="140.95"/><line class="cls-5" x1="138.22" y1="258.41" x2="20.83" y2="258.41"/><line class="cls-5" x1="44.31" y1="140.95" x2="44.31" y2="258.41"/><line class="cls-5" x1="67.79" y1="140.95" x2="67.79" y2="258.41"/><line class="cls-5" x1="91.26" y1="140.95" x2="91.26" y2="258.41"/><line class="cls-5" x1="114.74" y1="140.95" x2="114.74" y2="258.41"/><line class="cls-5" x1="20.83" y1="140.95" x2="20.83" y2="258.41"/><line class="cls-5" x1="138.22" y1="140.95" x2="138.22" y2="258.41"/><rect class="cls-4" x="140.96" y="140.95" width="117.4" height="117.46"/><line class="cls-5" x1="258.36" y1="164.45" x2="140.96" y2="164.45"/><line class="cls-5" x1="258.36" y1="187.94" x2="140.96" y2="187.94"/><line class="cls-5" x1="258.36" y1="211.43" x2="140.96" y2="211.43"/><line class="cls-5" x1="258.36" y1="234.92" x2="140.96" y2="234.92"/><line class="cls-5" x1="258.36" y1="140.95" x2="140.96" y2="140.95"/><line class="cls-5" x1="258.36" y1="258.41" x2="140.96" y2="258.41"/><line class="cls-5" x1="164.44" y1="140.95" x2="164.44" y2="258.41"/><line class="cls-5" x1="187.92" y1="140.95" x2="187.92" y2="258.41"/><line class="cls-5" x1="211.4" y1="140.95" x2="211.4" y2="258.41"/><line class="cls-5" x1="234.88" y1="140.95" x2="234.88" y2="258.41"/><line class="cls-5" x1="140.96" y1="140.95" x2="140.96" y2="258.41"/><line class="cls-5" x1="258.36" y1="140.95" x2="258.36" y2="258.41"/><rect class="cls-4" x="261.1" y="140.95" width="117.4" height="117.46"/><line class="cls-5" x1="378.5" y1="164.45" x2="261.1" y2="164.45"/><line class="cls-5" x1="378.5" y1="187.94" x2="261.1" y2="187.94"/><line class="cls-5" x1="378.5" y1="211.43" x2="261.1" y2="211.43"/><line class="cls-5" x1="378.5" y1="234.92" x2="261.1" y2="234.92"/><line class="cls-5" x1="378.5" y1="140.95" x2="261.1" y2="140.95"/><line class="cls-5" x1="378.5" y1="258.41" x2="261.1" y2="258.41"/><line class="cls-5" x1="284.58" y1="140.95" x2="284.58" y2="258.41"/><line class="cls-5" x1="308.06" y1="140.95" x2="308.06" y2="258.41"/><line class="cls-5" x1="331.54" y1="140.95" x2="331.54" y2="258.41"/><line class="cls-5" x1="355.02" y1="140.95" x2="355.02" y2="258.41"/><line class="cls-5" x1="261.1" y1="140.95" x2="261.1" y2="258.41"/><line class="cls-5" x1="378.5" y1="140.95" x2="378.5" y2="258.41"/><rect class="cls-4" x="501.37" y="140.95" width="117.4" height="117.46"/><line class="cls-5" x1="618.77" y1="164.45" x2="501.37" y2="164.45"/><line class="cls-5" x1="618.77" y1="187.94" x2="501.37" y2="187.94"/><line class="cls-5" x1="618.77" y1="211.43" x2="501.37" y2="211.43"/><line class="cls-5" x1="618.77" y1="234.92" x2="501.37" y2="234.92"/><line class="cls-5" x1="618.77" y1="140.95" x2="501.37" y2="140.95"/><line class="cls-5" x1="618.77" y1="258.41" x2="501.37" y2="258.41"/><line class="cls-5" x1="524.85" y1="140.95" x2="524.85" y2="258.41"/><line class="cls-5" x1="548.33" y1="140.95" x2="548.33" y2="258.41"/><line class="cls-5" x1="571.81" y1="140.95" x2="571.81" y2="258.41"/><line class="cls-5" x1="595.29" y1="140.95" x2="595.29" y2="258.41"/><line class="cls-5" x1="501.37" y1="140.95" x2="501.37" y2="258.41"/><line class="cls-5" x1="618.77" y1="140.95" x2="618.77" y2="258.41"/><rect class="cls-4" x="621.5" y="140.95" width="117.4" height="117.46"/><line class="cls-5" x1="738.9" y1="164.45" x2="621.5" y2="164.45"/><line class="cls-5" x1="738.9" y1="187.94" x2="621.5" y2="187.94"/><line class="cls-5" x1="738.9" y1="211.43" x2="621.5" y2="211.43"/><line class="cls-5" x1="738.9" y1="234.92" x2="621.5" y2="234.92"/><line class="cls-5" x1="738.9" y1="140.95" x2="621.5" y2="140.95"/><line class="cls-5" x1="738.9" y1="258.41" x2="621.5" y2="258.41"/><line class="cls-5" x1="644.98" y1="140.95" x2="644.98" y2="258.41"/><line class="cls-5" x1="668.46" y1="140.95" x2="668.46" y2="258.41"/><line class="cls-5" x1="691.94" y1="140.95" x2="691.94" y2="258.41"/><line class="cls-5" x1="715.42" y1="140.95" x2="715.42" y2="258.41"/><line class="cls-5" x1="621.5" y1="140.95" x2="621.5" y2="258.41"/><line class="cls-5" x1="738.9" y1="140.95" x2="738.9" y2="258.41"/><rect class="cls-4" x="381.23" y="140.95" width="117.4" height="117.46"/><line class="cls-5" x1="498.63" y1="164.45" x2="381.23" y2="164.45"/><line class="cls-5" x1="498.63" y1="187.94" x2="381.23" y2="187.94"/><line class="cls-5" x1="498.63" y1="211.43" x2="381.23" y2="211.43"/><line class="cls-5" x1="498.63" y1="234.92" x2="381.23" y2="234.92"/><line class="cls-5" x1="498.63" y1="140.95" x2="381.23" y2="140.95"/><line class="cls-5" x1="498.63" y1="258.41" x2="381.23" y2="258.41"/><line class="cls-5" x1="404.71" y1="140.95" x2="404.71" y2="258.41"/><line class="cls-5" x1="428.19" y1="140.95" x2="428.19" y2="258.41"/><line class="cls-5" x1="451.67" y1="140.95" x2="451.67" y2="258.41"/><line class="cls-5" x1="475.15" y1="140.95" x2="475.15" y2="258.41"/><line class="cls-5" x1="381.23" y1="140.95" x2="381.23" y2="258.41"/><line class="cls-5" x1="498.63" y1="140.95" x2="498.63" y2="258.41"/><rect class="cls-4" x="741.64" y="140.95" width="117.4" height="117.46"/><line class="cls-5" x1="859.04" y1="164.45" x2="741.64" y2="164.45"/><line class="cls-5" x1="859.04" y1="187.94" x2="741.64" y2="187.94"/><line class="cls-5" x1="859.04" y1="211.43" x2="741.64" y2="211.43"/><line class="cls-5" x1="859.04" y1="234.92" x2="741.64" y2="234.92"/><line class="cls-5" x1="859.04" y1="140.95" x2="741.64" y2="140.95"/><line class="cls-5" x1="859.04" y1="258.41" x2="741.64" y2="258.41"/><line class="cls-5" x1="765.12" y1="140.95" x2="765.12" y2="258.41"/><line class="cls-5" x1="788.6" y1="140.95" x2="788.6" y2="258.41"/><line class="cls-5" x1="812.08" y1="140.95" x2="812.08" y2="258.41"/><line class="cls-5" x1="835.56" y1="140.95" x2="835.56" y2="258.41"/><line class="cls-5" x1="741.64" y1="140.95" x2="741.64" y2="258.41"/><line class="cls-5" x1="859.04" y1="140.95" x2="859.04" y2="258.41"/><rect class="cls-4" x="861.78" y="140.95" width="117.4" height="117.46"/><line class="cls-5" x1="979.17" y1="164.45" x2="861.78" y2="164.45"/><line class="cls-5" x1="979.17" y1="187.94" x2="861.78" y2="187.94"/><line class="cls-5" x1="979.17" y1="211.43" x2="861.78" y2="211.43"/><line class="cls-5" x1="979.17" y1="234.92" x2="861.78" y2="234.92"/><line class="cls-5" x1="979.17" y1="140.95" x2="861.78" y2="140.95"/><line class="cls-5" x1="979.17" y1="258.41" x2="861.78" y2="258.41"/><line class="cls-5" x1="885.26" y1="140.95" x2="885.26" y2="258.41"/><line class="cls-5" x1="908.74" y1="140.95" x2="908.74" y2="258.41"/><line class="cls-5" x1="932.21" y1="140.95" x2="932.21" y2="258.41"/><line class="cls-5" x1="955.69" y1="140.95" x2="955.69" y2="258.41"/><line class="cls-5" x1="861.78" y1="140.95" x2="861.78" y2="258.41"/><line class="cls-5" x1="979.17" y1="140.95" x2="979.17" y2="258.41"/><rect class="cls-4" x="20.83" y="381.21" width="117.4" height="117.46"/><line class="cls-5" x1="138.22" y1="404.7" x2="20.83" y2="404.7"/><line class="cls-5" x1="138.22" y1="428.19" x2="20.83" y2="428.19"/><line class="cls-5" x1="138.22" y1="451.68" x2="20.83" y2="451.68"/><line class="cls-5" x1="138.22" y1="475.17" x2="20.83" y2="475.17"/><line class="cls-5" x1="138.22" y1="381.21" x2="20.83" y2="381.21"/><line class="cls-5" x1="138.22" y1="498.66" x2="20.83" y2="498.66"/><line class="cls-5" x1="44.31" y1="381.21" x2="44.31" y2="498.66"/><line class="cls-5" x1="67.79" y1="381.21" x2="67.79" y2="498.66"/><line class="cls-5" x1="91.26" y1="381.21" x2="91.26" y2="498.66"/><line class="cls-5" x1="114.74" y1="381.21" x2="114.74" y2="498.66"/><line class="cls-5" x1="20.83" y1="381.21" x2="20.83" y2="498.66"/><line class="cls-5" x1="138.22" y1="381.21" x2="138.22" y2="498.66"/><rect class="cls-4" x="140.96" y="381.21" width="117.4" height="117.46"/><line class="cls-5" x1="258.36" y1="404.7" x2="140.96" y2="404.7"/><line class="cls-5" x1="258.36" y1="428.19" x2="140.96" y2="428.19"/><line class="cls-5" x1="258.36" y1="451.68" x2="140.96" y2="451.68"/><line class="cls-5" x1="258.36" y1="475.17" x2="140.96" y2="475.17"/><line class="cls-5" x1="258.36" y1="381.21" x2="140.96" y2="381.21"/><line class="cls-5" x1="258.36" y1="498.66" x2="140.96" y2="498.66"/><line class="cls-5" x1="164.44" y1="381.21" x2="164.44" y2="498.66"/><line class="cls-5" x1="187.92" y1="381.21" x2="187.92" y2="498.66"/><line class="cls-5" x1="211.4" y1="381.21" x2="211.4" y2="498.66"/><line class="cls-5" x1="234.88" y1="381.21" x2="234.88" y2="498.66"/><line class="cls-5" x1="140.96" y1="381.21" x2="140.96" y2="498.66"/><line class="cls-5" x1="258.36" y1="381.21" x2="258.36" y2="498.66"/><rect class="cls-4" x="261.1" y="381.21" width="117.4" height="117.46"/><line class="cls-5" x1="378.5" y1="404.7" x2="261.1" y2="404.7"/><line class="cls-5" x1="378.5" y1="428.19" x2="261.1" y2="428.19"/><line class="cls-5" x1="378.5" y1="451.68" x2="261.1" y2="451.68"/><line class="cls-5" x1="378.5" y1="475.17" x2="261.1" y2="475.17"/><line class="cls-5" x1="378.5" y1="381.21" x2="261.1" y2="381.21"/><line class="cls-5" x1="378.5" y1="498.66" x2="261.1" y2="498.66"/><line class="cls-5" x1="284.58" y1="381.21" x2="284.58" y2="498.66"/><line class="cls-5" x1="308.06" y1="381.21" x2="308.06" y2="498.66"/><line class="cls-5" x1="331.54" y1="381.21" x2="331.54" y2="498.66"/><line class="cls-5" x1="355.02" y1="381.21" x2="355.02" y2="498.66"/><line class="cls-5" x1="261.1" y1="381.21" x2="261.1" y2="498.66"/><line class="cls-5" x1="378.5" y1="381.21" x2="378.5" y2="498.66"/><rect class="cls-4" x="501.37" y="381.21" width="117.4" height="117.46"/><line class="cls-5" x1="618.77" y1="404.7" x2="501.37" y2="404.7"/><line class="cls-5" x1="618.77" y1="428.19" x2="501.37" y2="428.19"/><line class="cls-5" x1="618.77" y1="451.68" x2="501.37" y2="451.68"/><line class="cls-5" x1="618.77" y1="475.17" x2="501.37" y2="475.17"/><line class="cls-5" x1="618.77" y1="381.21" x2="501.37" y2="381.21"/><line class="cls-5" x1="618.77" y1="498.66" x2="501.37" y2="498.66"/><line class="cls-5" x1="524.85" y1="381.21" x2="524.85" y2="498.66"/><line class="cls-5" x1="548.33" y1="381.21" x2="548.33" y2="498.66"/><line class="cls-5" x1="571.81" y1="381.21" x2="571.81" y2="498.66"/><line class="cls-5" x1="595.29" y1="381.21" x2="595.29" y2="498.66"/><line class="cls-5" x1="501.37" y1="381.21" x2="501.37" y2="498.66"/><line class="cls-5" x1="618.77" y1="381.21" x2="618.77" y2="498.66"/><rect class="cls-4" x="621.5" y="381.21" width="117.4" height="117.46"/><line class="cls-5" x1="738.9" y1="404.7" x2="621.5" y2="404.7"/><line class="cls-5" x1="738.9" y1="428.19" x2="621.5" y2="428.19"/><line class="cls-5" x1="738.9" y1="451.68" x2="621.5" y2="451.68"/><line class="cls-5" x1="738.9" y1="475.17" x2="621.5" y2="475.17"/><line class="cls-5" x1="738.9" y1="381.21" x2="621.5" y2="381.21"/><line class="cls-5" x1="738.9" y1="498.66" x2="621.5" y2="498.66"/><line class="cls-5" x1="644.98" y1="381.21" x2="644.98" y2="498.66"/><line class="cls-5" x1="668.46" y1="381.21" x2="668.46" y2="498.66"/><line class="cls-5" x1="691.94" y1="381.21" x2="691.94" y2="498.66"/><line class="cls-5" x1="715.42" y1="381.21" x2="715.42" y2="498.66"/><line class="cls-5" x1="621.5" y1="381.21" x2="621.5" y2="498.66"/><line class="cls-5" x1="738.9" y1="381.21" x2="738.9" y2="498.66"/><rect class="cls-4" x="381.23" y="381.21" width="117.4" height="117.46"/><line class="cls-5" x1="498.63" y1="404.7" x2="381.23" y2="404.7"/><line class="cls-5" x1="498.63" y1="428.19" x2="381.23" y2="428.19"/><line class="cls-5" x1="498.63" y1="451.68" x2="381.23" y2="451.68"/><line class="cls-5" x1="498.63" y1="475.17" x2="381.23" y2="475.17"/><line class="cls-5" x1="498.63" y1="381.21" x2="381.23" y2="381.21"/><line class="cls-5" x1="498.63" y1="498.66" x2="381.23" y2="498.66"/><line class="cls-5" x1="404.71" y1="381.21" x2="404.71" y2="498.66"/><line class="cls-5" x1="428.19" y1="381.21" x2="428.19" y2="498.66"/><line class="cls-5" x1="451.67" y1="381.21" x2="451.67" y2="498.66"/><line class="cls-5" x1="475.15" y1="381.21" x2="475.15" y2="498.66"/><line class="cls-5" x1="381.23" y1="381.21" x2="381.23" y2="498.66"/><line class="cls-5" x1="498.63" y1="381.21" x2="498.63" y2="498.66"/><rect class="cls-4" x="741.64" y="381.21" width="117.4" height="117.46"/><line class="cls-5" x1="859.04" y1="404.7" x2="741.64" y2="404.7"/><line class="cls-5" x1="859.04" y1="428.19" x2="741.64" y2="428.19"/><line class="cls-5" x1="859.04" y1="451.68" x2="741.64" y2="451.68"/><line class="cls-5" x1="859.04" y1="475.17" x2="741.64" y2="475.17"/><line class="cls-5" x1="859.04" y1="381.21" x2="741.64" y2="381.21"/><line class="cls-5" x1="859.04" y1="498.66" x2="741.64" y2="498.66"/><line class="cls-5" x1="765.12" y1="381.21" x2="765.12" y2="498.66"/><line class="cls-5" x1="788.6" y1="381.21" x2="788.6" y2="498.66"/><line class="cls-5" x1="812.08" y1="381.21" x2="812.08" y2="498.66"/><line class="cls-5" x1="835.56" y1="381.21" x2="835.56" y2="498.66"/><line class="cls-5" x1="741.64" y1="381.21" x2="741.64" y2="498.66"/><line class="cls-5" x1="859.04" y1="381.21" x2="859.04" y2="498.66"/><rect class="cls-4" x="861.78" y="381.21" width="117.4" height="117.46"/><line class="cls-5" x1="979.17" y1="404.7" x2="861.78" y2="404.7"/><line class="cls-5" x1="979.17" y1="428.19" x2="861.78" y2="428.19"/><line class="cls-5" x1="979.17" y1="451.68" x2="861.78" y2="451.68"/><line class="cls-5" x1="979.17" y1="475.17" x2="861.78" y2="475.17"/><line class="cls-5" x1="979.17" y1="381.21" x2="861.78" y2="381.21"/><line class="cls-5" x1="979.17" y1="498.66" x2="861.78" y2="498.66"/><line class="cls-5" x1="885.26" y1="381.21" x2="885.26" y2="498.66"/><line class="cls-5" x1="908.74" y1="381.21" x2="908.74" y2="498.66"/><line class="cls-5" x1="932.21" y1="381.21" x2="932.21" y2="498.66"/><line class="cls-5" x1="955.69" y1="381.21" x2="955.69" y2="498.66"/><line class="cls-5" x1="861.78" y1="381.21" x2="861.78" y2="498.66"/><line class="cls-5" x1="979.17" y1="381.21" x2="979.17" y2="498.66"/><rect class="cls-4" x="20.83" y="501.34" width="117.4" height="117.46"/><line class="cls-5" x1="138.22" y1="524.83" x2="20.83" y2="524.83"/><line class="cls-5" x1="138.22" y1="548.32" x2="20.83" y2="548.32"/><line class="cls-5" x1="138.22" y1="571.81" x2="20.83" y2="571.81"/><line class="cls-5" x1="138.22" y1="595.3" x2="20.83" y2="595.3"/><line class="cls-5" x1="138.22" y1="501.34" x2="20.83" y2="501.34"/><line class="cls-5" x1="138.22" y1="618.79" x2="20.83" y2="618.79"/><line class="cls-5" x1="44.31" y1="501.34" x2="44.31" y2="618.79"/><line class="cls-5" x1="67.79" y1="501.34" x2="67.79" y2="618.79"/><line class="cls-5" x1="91.26" y1="501.34" x2="91.26" y2="618.79"/><line class="cls-5" x1="114.74" y1="501.34" x2="114.74" y2="618.79"/><line class="cls-5" x1="20.83" y1="501.34" x2="20.83" y2="618.79"/><line class="cls-5" x1="138.22" y1="501.34" x2="138.22" y2="618.79"/><rect class="cls-4" x="140.96" y="501.34" width="117.4" height="117.46"/><line class="cls-5" x1="258.36" y1="524.83" x2="140.96" y2="524.83"/><line class="cls-5" x1="258.36" y1="548.32" x2="140.96" y2="548.32"/><line class="cls-5" x1="258.36" y1="571.81" x2="140.96" y2="571.81"/><line class="cls-5" x1="258.36" y1="595.3" x2="140.96" y2="595.3"/><line class="cls-5" x1="258.36" y1="501.34" x2="140.96" y2="501.34"/><line class="cls-5" x1="258.36" y1="618.79" x2="140.96" y2="618.79"/><line class="cls-5" x1="164.44" y1="501.34" x2="164.44" y2="618.79"/><line class="cls-5" x1="187.92" y1="501.34" x2="187.92" y2="618.79"/><line class="cls-5" x1="211.4" y1="501.34" x2="211.4" y2="618.79"/><line class="cls-5" x1="234.88" y1="501.34" x2="234.88" y2="618.79"/><line class="cls-5" x1="140.96" y1="501.34" x2="140.96" y2="618.79"/><line class="cls-5" x1="258.36" y1="501.34" x2="258.36" y2="618.79"/><rect class="cls-4" x="261.1" y="501.34" width="117.4" height="117.46"/><line class="cls-5" x1="378.5" y1="524.83" x2="261.1" y2="524.83"/><line class="cls-5" x1="378.5" y1="548.32" x2="261.1" y2="548.32"/><line class="cls-5" x1="378.5" y1="571.81" x2="261.1" y2="571.81"/><line class="cls-5" x1="378.5" y1="595.3" x2="261.1" y2="595.3"/><line class="cls-5" x1="378.5" y1="501.34" x2="261.1" y2="501.34"/><line class="cls-5" x1="378.5" y1="618.79" x2="261.1" y2="618.79"/><line class="cls-5" x1="284.58" y1="501.34" x2="284.58" y2="618.79"/><line class="cls-5" x1="308.06" y1="501.34" x2="308.06" y2="618.79"/><line class="cls-5" x1="331.54" y1="501.34" x2="331.54" y2="618.79"/><line class="cls-5" x1="355.02" y1="501.34" x2="355.02" y2="618.79"/><line class="cls-5" x1="261.1" y1="501.34" x2="261.1" y2="618.79"/><line class="cls-5" x1="378.5" y1="501.34" x2="378.5" y2="618.79"/><rect class="cls-4" x="501.37" y="501.34" width="117.4" height="117.46"/><line class="cls-5" x1="618.77" y1="524.83" x2="501.37" y2="524.83"/><line class="cls-5" x1="618.77" y1="548.32" x2="501.37" y2="548.32"/><line class="cls-5" x1="618.77" y1="571.81" x2="501.37" y2="571.81"/><line class="cls-5" x1="618.77" y1="595.3" x2="501.37" y2="595.3"/><line class="cls-5" x1="618.77" y1="501.34" x2="501.37" y2="501.34"/><line class="cls-5" x1="618.77" y1="618.79" x2="501.37" y2="618.79"/><line class="cls-5" x1="524.85" y1="501.34" x2="524.85" y2="618.79"/><line class="cls-5" x1="548.33" y1="501.34" x2="548.33" y2="618.79"/><line class="cls-5" x1="571.81" y1="501.34" x2="571.81" y2="618.79"/><line class="cls-5" x1="595.29" y1="501.34" x2="595.29" y2="618.79"/><line class="cls-5" x1="501.37" y1="501.34" x2="501.37" y2="618.79"/><line class="cls-5" x1="618.77" y1="501.34" x2="618.77" y2="618.79"/><rect class="cls-4" x="621.5" y="501.34" width="117.4" height="117.46"/><line class="cls-5" x1="738.9" y1="524.83" x2="621.5" y2="524.83"/><line class="cls-5" x1="738.9" y1="548.32" x2="621.5" y2="548.32"/><line class="cls-5" x1="738.9" y1="571.81" x2="621.5" y2="571.81"/><line class="cls-5" x1="738.9" y1="595.3" x2="621.5" y2="595.3"/><line class="cls-5" x1="738.9" y1="501.34" x2="621.5" y2="501.34"/><line class="cls-5" x1="738.9" y1="618.79" x2="621.5" y2="618.79"/><line class="cls-5" x1="644.98" y1="501.34" x2="644.98" y2="618.79"/><line class="cls-5" x1="668.46" y1="501.34" x2="668.46" y2="618.79"/><line class="cls-5" x1="691.94" y1="501.34" x2="691.94" y2="618.79"/><line class="cls-5" x1="715.42" y1="501.34" x2="715.42" y2="618.79"/><line class="cls-5" x1="621.5" y1="501.34" x2="621.5" y2="618.79"/><line class="cls-5" x1="738.9" y1="501.34" x2="738.9" y2="618.79"/><rect class="cls-4" x="381.23" y="501.34" width="117.4" height="117.46"/><line class="cls-5" x1="498.63" y1="524.83" x2="381.23" y2="524.83"/><line class="cls-5" x1="498.63" y1="548.32" x2="381.23" y2="548.32"/><line class="cls-5" x1="498.63" y1="571.81" x2="381.23" y2="571.81"/><line class="cls-5" x1="498.63" y1="595.3" x2="381.23" y2="595.3"/><line class="cls-5" x1="498.63" y1="501.34" x2="381.23" y2="501.34"/><line class="cls-5" x1="498.63" y1="618.79" x2="381.23" y2="618.79"/><line class="cls-5" x1="404.71" y1="501.34" x2="404.71" y2="618.79"/><line class="cls-5" x1="428.19" y1="501.34" x2="428.19" y2="618.79"/><line class="cls-5" x1="451.67" y1="501.34" x2="451.67" y2="618.79"/><line class="cls-5" x1="475.15" y1="501.34" x2="475.15" y2="618.79"/><line class="cls-5" x1="381.23" y1="501.34" x2="381.23" y2="618.79"/><line class="cls-5" x1="498.63" y1="501.34" x2="498.63" y2="618.79"/><rect class="cls-4" x="741.64" y="501.34" width="117.4" height="117.46"/><line class="cls-5" x1="859.04" y1="524.83" x2="741.64" y2="524.83"/><line class="cls-5" x1="859.04" y1="548.32" x2="741.64" y2="548.32"/><line class="cls-5" x1="859.04" y1="571.81" x2="741.64" y2="571.81"/><line class="cls-5" x1="859.04" y1="595.3" x2="741.64" y2="595.3"/><line class="cls-5" x1="859.04" y1="501.34" x2="741.64" y2="501.34"/><line class="cls-5" x1="859.04" y1="618.79" x2="741.64" y2="618.79"/><line class="cls-5" x1="765.12" y1="501.34" x2="765.12" y2="618.79"/><line class="cls-5" x1="788.6" y1="501.34" x2="788.6" y2="618.79"/><line class="cls-5" x1="812.08" y1="501.34" x2="812.08" y2="618.79"/><line class="cls-5" x1="835.56" y1="501.34" x2="835.56" y2="618.79"/><line class="cls-5" x1="741.64" y1="501.34" x2="741.64" y2="618.79"/><line class="cls-5" x1="859.04" y1="501.34" x2="859.04" y2="618.79"/><rect class="cls-4" x="861.78" y="501.34" width="117.4" height="117.46"/><line class="cls-5" x1="979.17" y1="524.83" x2="861.78" y2="524.83"/><line class="cls-5" x1="979.17" y1="548.32" x2="861.78" y2="548.32"/><line class="cls-5" x1="979.17" y1="571.81" x2="861.78" y2="571.81"/><line class="cls-5" x1="979.17" y1="595.3" x2="861.78" y2="595.3"/><line class="cls-5" x1="979.17" y1="501.34" x2="861.78" y2="501.34"/><line class="cls-5" x1="979.17" y1="618.79" x2="861.78" y2="618.79"/><line class="cls-5" x1="885.26" y1="501.34" x2="885.26" y2="618.79"/><line class="cls-5" x1="908.74" y1="501.34" x2="908.74" y2="618.79"/><line class="cls-5" x1="932.21" y1="501.34" x2="932.21" y2="618.79"/><line class="cls-5" x1="955.69" y1="501.34" x2="955.69" y2="618.79"/><line class="cls-5" x1="861.78" y1="501.34" x2="861.78" y2="618.79"/><line class="cls-5" x1="979.17" y1="501.34" x2="979.17" y2="618.79"/><rect class="cls-4" x="20.83" y="621.46" width="117.4" height="117.46"/><line class="cls-5" x1="138.22" y1="644.95" x2="20.83" y2="644.95"/><line class="cls-5" x1="138.22" y1="668.45" x2="20.83" y2="668.45"/><line class="cls-5" x1="138.22" y1="691.94" x2="20.83" y2="691.94"/><line class="cls-5" x1="138.22" y1="715.43" x2="20.83" y2="715.43"/><line class="cls-5" x1="138.22" y1="621.46" x2="20.83" y2="621.46"/><line class="cls-5" x1="138.22" y1="738.92" x2="20.83" y2="738.92"/><line class="cls-5" x1="44.31" y1="621.46" x2="44.31" y2="738.92"/><line class="cls-5" x1="67.79" y1="621.46" x2="67.79" y2="738.92"/><line class="cls-5" x1="91.26" y1="621.46" x2="91.26" y2="738.92"/><line class="cls-5" x1="114.74" y1="621.46" x2="114.74" y2="738.92"/><line class="cls-5" x1="20.83" y1="621.46" x2="20.83" y2="738.92"/><line class="cls-5" x1="138.22" y1="621.46" x2="138.22" y2="738.92"/><rect class="cls-4" x="140.96" y="621.46" width="117.4" height="117.46"/><line class="cls-5" x1="258.36" y1="644.95" x2="140.96" y2="644.95"/><line class="cls-5" x1="258.36" y1="668.45" x2="140.96" y2="668.45"/><line class="cls-5" x1="258.36" y1="691.94" x2="140.96" y2="691.94"/><line class="cls-5" x1="258.36" y1="715.43" x2="140.96" y2="715.43"/><line class="cls-5" x1="258.36" y1="621.46" x2="140.96" y2="621.46"/><line class="cls-5" x1="258.36" y1="738.92" x2="140.96" y2="738.92"/><line class="cls-5" x1="164.44" y1="621.46" x2="164.44" y2="738.92"/><line class="cls-5" x1="187.92" y1="621.46" x2="187.92" y2="738.92"/><line class="cls-5" x1="211.4" y1="621.46" x2="211.4" y2="738.92"/><line class="cls-5" x1="234.88" y1="621.46" x2="234.88" y2="738.92"/><line class="cls-5" x1="140.96" y1="621.46" x2="140.96" y2="738.92"/><line class="cls-5" x1="258.36" y1="621.46" x2="258.36" y2="738.92"/><rect class="cls-4" x="261.1" y="621.46" width="117.4" height="117.46"/><line class="cls-5" x1="378.5" y1="644.95" x2="261.1" y2="644.95"/><line class="cls-5" x1="378.5" y1="668.45" x2="261.1" y2="668.45"/><line class="cls-5" x1="378.5" y1="691.94" x2="261.1" y2="691.94"/><line class="cls-5" x1="378.5" y1="715.43" x2="261.1" y2="715.43"/><line class="cls-5" x1="378.5" y1="621.46" x2="261.1" y2="621.46"/><line class="cls-5" x1="378.5" y1="738.92" x2="261.1" y2="738.92"/><line class="cls-5" x1="284.58" y1="621.46" x2="284.58" y2="738.92"/><line class="cls-5" x1="308.06" y1="621.46" x2="308.06" y2="738.92"/><line class="cls-5" x1="331.54" y1="621.46" x2="331.54" y2="738.92"/><line class="cls-5" x1="355.02" y1="621.46" x2="355.02" y2="738.92"/><line class="cls-5" x1="261.1" y1="621.46" x2="261.1" y2="738.92"/><line class="cls-5" x1="378.5" y1="621.46" x2="378.5" y2="738.92"/><rect class="cls-4" x="501.37" y="621.46" width="117.4" height="117.46"/><line class="cls-5" x1="618.77" y1="644.95" x2="501.37" y2="644.95"/><line class="cls-5" x1="618.77" y1="668.45" x2="501.37" y2="668.45"/><line class="cls-5" x1="618.77" y1="691.94" x2="501.37" y2="691.94"/><line class="cls-5" x1="618.77" y1="715.43" x2="501.37" y2="715.43"/><line class="cls-5" x1="618.77" y1="621.46" x2="501.37" y2="621.46"/><line class="cls-5" x1="618.77" y1="738.92" x2="501.37" y2="738.92"/><line class="cls-5" x1="524.85" y1="621.46" x2="524.85" y2="738.92"/><line class="cls-5" x1="548.33" y1="621.46" x2="548.33" y2="738.92"/><line class="cls-5" x1="571.81" y1="621.46" x2="571.81" y2="738.92"/><line class="cls-5" x1="595.29" y1="621.46" x2="595.29" y2="738.92"/><line class="cls-5" x1="501.37" y1="621.46" x2="501.37" y2="738.92"/><line class="cls-5" x1="618.77" y1="621.46" x2="618.77" y2="738.92"/><rect class="cls-4" x="621.5" y="621.46" width="117.4" height="117.46"/><line class="cls-5" x1="738.9" y1="644.95" x2="621.5" y2="644.95"/><line class="cls-5" x1="738.9" y1="668.45" x2="621.5" y2="668.45"/><line class="cls-5" x1="738.9" y1="691.94" x2="621.5" y2="691.94"/><line class="cls-5" x1="738.9" y1="715.43" x2="621.5" y2="715.43"/><line class="cls-5" x1="738.9" y1="621.46" x2="621.5" y2="621.46"/><line class="cls-5" x1="738.9" y1="738.92" x2="621.5" y2="738.92"/><line class="cls-5" x1="644.98" y1="621.46" x2="644.98" y2="738.92"/><line class="cls-5" x1="668.46" y1="621.46" x2="668.46" y2="738.92"/><line class="cls-5" x1="691.94" y1="621.46" x2="691.94" y2="738.92"/><line class="cls-5" x1="715.42" y1="621.46" x2="715.42" y2="738.92"/><line class="cls-5" x1="621.5" y1="621.46" x2="621.5" y2="738.92"/><line class="cls-5" x1="738.9" y1="621.46" x2="738.9" y2="738.92"/><rect class="cls-4" x="381.23" y="621.46" width="117.4" height="117.46"/><line class="cls-5" x1="498.63" y1="644.95" x2="381.23" y2="644.95"/><line class="cls-5" x1="498.63" y1="668.45" x2="381.23" y2="668.45"/><line class="cls-5" x1="498.63" y1="691.94" x2="381.23" y2="691.94"/><line class="cls-5" x1="498.63" y1="715.43" x2="381.23" y2="715.43"/><line class="cls-5" x1="498.63" y1="621.46" x2="381.23" y2="621.46"/><line class="cls-5" x1="498.63" y1="738.92" x2="381.23" y2="738.92"/><line class="cls-5" x1="404.71" y1="621.46" x2="404.71" y2="738.92"/><line class="cls-5" x1="428.19" y1="621.46" x2="428.19" y2="738.92"/><line class="cls-5" x1="451.67" y1="621.46" x2="451.67" y2="738.92"/><line class="cls-5" x1="475.15" y1="621.46" x2="475.15" y2="738.92"/><line class="cls-5" x1="381.23" y1="621.46" x2="381.23" y2="738.92"/><line class="cls-5" x1="498.63" y1="621.46" x2="498.63" y2="738.92"/><rect class="cls-4" x="741.64" y="621.46" width="117.4" height="117.46"/><line class="cls-5" x1="859.04" y1="644.95" x2="741.64" y2="644.95"/><line class="cls-5" x1="859.04" y1="668.45" x2="741.64" y2="668.45"/><line class="cls-5" x1="859.04" y1="691.94" x2="741.64" y2="691.94"/><line class="cls-5" x1="859.04" y1="715.43" x2="741.64" y2="715.43"/><line class="cls-5" x1="859.04" y1="621.46" x2="741.64" y2="621.46"/><line class="cls-5" x1="859.04" y1="738.92" x2="741.64" y2="738.92"/><line class="cls-5" x1="765.12" y1="621.46" x2="765.12" y2="738.92"/><line class="cls-5" x1="788.6" y1="621.46" x2="788.6" y2="738.92"/><line class="cls-5" x1="812.08" y1="621.46" x2="812.08" y2="738.92"/><line class="cls-5" x1="835.56" y1="621.46" x2="835.56" y2="738.92"/><line class="cls-5" x1="741.64" y1="621.46" x2="741.64" y2="738.92"/><line class="cls-5" x1="859.04" y1="621.46" x2="859.04" y2="738.92"/><rect class="cls-4" x="861.78" y="621.46" width="117.4" height="117.46"/><line class="cls-5" x1="979.17" y1="644.95" x2="861.78" y2="644.95"/><line class="cls-5" x1="979.17" y1="668.45" x2="861.78" y2="668.45"/><line class="cls-5" x1="979.17" y1="691.94" x2="861.78" y2="691.94"/><line class="cls-5" x1="979.17" y1="715.43" x2="861.78" y2="715.43"/><line class="cls-5" x1="979.17" y1="621.46" x2="861.78" y2="621.46"/><line class="cls-5" x1="979.17" y1="738.92" x2="861.78" y2="738.92"/><line class="cls-5" x1="885.26" y1="621.46" x2="885.26" y2="738.92"/><line class="cls-5" x1="908.74" y1="621.46" x2="908.74" y2="738.92"/><line class="cls-5" x1="932.21" y1="621.46" x2="932.21" y2="738.92"/><line class="cls-5" x1="955.69" y1="621.46" x2="955.69" y2="738.92"/><line class="cls-5" x1="861.78" y1="621.46" x2="861.78" y2="738.92"/><line class="cls-5" x1="979.17" y1="621.46" x2="979.17" y2="738.92"/><rect class="cls-4" x="20.83" y="20.83" width="117.4" height="117.46"/><line class="cls-5" x1="138.22" y1="44.32" x2="20.83" y2="44.32"/><line class="cls-5" x1="138.22" y1="67.81" x2="20.83" y2="67.81"/><line class="cls-5" x1="138.22" y1="91.3" x2="20.83" y2="91.3"/><line class="cls-5" x1="138.22" y1="114.79" x2="20.83" y2="114.79"/><line class="cls-5" x1="138.22" y1="20.83" x2="20.83" y2="20.83"/><line class="cls-5" x1="138.22" y1="138.28" x2="20.83" y2="138.28"/><line class="cls-5" x1="44.31" y1="20.83" x2="44.31" y2="138.28"/><line class="cls-5" x1="67.79" y1="20.83" x2="67.79" y2="138.28"/><line class="cls-5" x1="91.26" y1="20.83" x2="91.26" y2="138.28"/><line class="cls-5" x1="114.74" y1="20.83" x2="114.74" y2="138.28"/><line class="cls-5" x1="20.83" y1="20.83" x2="20.83" y2="138.28"/><line class="cls-5" x1="138.22" y1="20.83" x2="138.22" y2="138.28"/><rect class="cls-4" x="140.96" y="20.83" width="117.4" height="117.46"/><line class="cls-5" x1="258.36" y1="44.32" x2="140.96" y2="44.32"/><line class="cls-5" x1="258.36" y1="67.81" x2="140.96" y2="67.81"/><line class="cls-5" x1="258.36" y1="91.3" x2="140.96" y2="91.3"/><line class="cls-5" x1="258.36" y1="114.79" x2="140.96" y2="114.79"/><line class="cls-5" x1="258.36" y1="20.83" x2="140.96" y2="20.83"/><line class="cls-5" x1="258.36" y1="138.28" x2="140.96" y2="138.28"/><line class="cls-5" x1="164.44" y1="20.83" x2="164.44" y2="138.28"/><line class="cls-5" x1="187.92" y1="20.83" x2="187.92" y2="138.28"/><line class="cls-5" x1="211.4" y1="20.83" x2="211.4" y2="138.28"/><line class="cls-5" x1="234.88" y1="20.83" x2="234.88" y2="138.28"/><line class="cls-5" x1="140.96" y1="20.83" x2="140.96" y2="138.28"/><line class="cls-5" x1="258.36" y1="20.83" x2="258.36" y2="138.28"/><rect class="cls-4" x="261.1" y="20.83" width="117.4" height="117.46"/><line class="cls-5" x1="378.5" y1="44.32" x2="261.1" y2="44.32"/><line class="cls-5" x1="378.5" y1="67.81" x2="261.1" y2="67.81"/><line class="cls-5" x1="378.5" y1="91.3" x2="261.1" y2="91.3"/><line class="cls-5" x1="378.5" y1="114.79" x2="261.1" y2="114.79"/><line class="cls-5" x1="378.5" y1="20.83" x2="261.1" y2="20.83"/><line class="cls-5" x1="378.5" y1="138.28" x2="261.1" y2="138.28"/><line class="cls-5" x1="284.58" y1="20.83" x2="284.58" y2="138.28"/><line class="cls-5" x1="308.06" y1="20.83" x2="308.06" y2="138.28"/><line class="cls-5" x1="331.54" y1="20.83" x2="331.54" y2="138.28"/><line class="cls-5" x1="355.02" y1="20.83" x2="355.02" y2="138.28"/><line class="cls-5" x1="261.1" y1="20.83" x2="261.1" y2="138.28"/><line class="cls-5" x1="378.5" y1="20.83" x2="378.5" y2="138.28"/><rect class="cls-4" x="501.37" y="20.83" width="117.4" height="117.46"/><line class="cls-5" x1="618.77" y1="44.32" x2="501.37" y2="44.32"/><line class="cls-5" x1="618.77" y1="67.81" x2="501.37" y2="67.81"/><line class="cls-5" x1="618.77" y1="91.3" x2="501.37" y2="91.3"/><line class="cls-5" x1="618.77" y1="114.79" x2="501.37" y2="114.79"/><line class="cls-5" x1="618.77" y1="20.83" x2="501.37" y2="20.83"/><line class="cls-5" x1="618.77" y1="138.28" x2="501.37" y2="138.28"/><line class="cls-5" x1="524.85" y1="20.83" x2="524.85" y2="138.28"/><line class="cls-5" x1="548.33" y1="20.83" x2="548.33" y2="138.28"/><line class="cls-5" x1="571.81" y1="20.83" x2="571.81" y2="138.28"/><line class="cls-5" x1="595.29" y1="20.83" x2="595.29" y2="138.28"/><line class="cls-5" x1="501.37" y1="20.83" x2="501.37" y2="138.28"/><line class="cls-5" x1="618.77" y1="20.83" x2="618.77" y2="138.28"/><rect class="cls-4" x="621.5" y="20.83" width="117.4" height="117.46"/><line class="cls-5" x1="738.9" y1="44.32" x2="621.5" y2="44.32"/><line class="cls-5" x1="738.9" y1="67.81" x2="621.5" y2="67.81"/><line class="cls-5" x1="738.9" y1="91.3" x2="621.5" y2="91.3"/><line class="cls-5" x1="738.9" y1="114.79" x2="621.5" y2="114.79"/><line class="cls-5" x1="738.9" y1="20.83" x2="621.5" y2="20.83"/><line class="cls-5" x1="738.9" y1="138.28" x2="621.5" y2="138.28"/><line class="cls-5" x1="644.98" y1="20.83" x2="644.98" y2="138.28"/><line class="cls-5" x1="668.46" y1="20.83" x2="668.46" y2="138.28"/><line class="cls-5" x1="691.94" y1="20.83" x2="691.94" y2="138.28"/><line class="cls-5" x1="715.42" y1="20.83" x2="715.42" y2="138.28"/><line class="cls-5" x1="621.5" y1="20.83" x2="621.5" y2="138.28"/><line class="cls-5" x1="738.9" y1="20.83" x2="738.9" y2="138.28"/><rect class="cls-4" x="381.23" y="20.83" width="117.4" height="117.46"/><line class="cls-5" x1="498.63" y1="44.32" x2="381.23" y2="44.32"/><line class="cls-5" x1="498.63" y1="67.81" x2="381.23" y2="67.81"/><line class="cls-5" x1="498.63" y1="91.3" x2="381.23" y2="91.3"/><line class="cls-5" x1="498.63" y1="114.79" x2="381.23" y2="114.79"/><line class="cls-5" x1="498.63" y1="20.83" x2="381.23" y2="20.83"/><line class="cls-5" x1="498.63" y1="138.28" x2="381.23" y2="138.28"/><line class="cls-5" x1="404.71" y1="20.83" x2="404.71" y2="138.28"/><line class="cls-5" x1="428.19" y1="20.83" x2="428.19" y2="138.28"/><line class="cls-5" x1="451.67" y1="20.83" x2="451.67" y2="138.28"/><line class="cls-5" x1="475.15" y1="20.83" x2="475.15" y2="138.28"/><line class="cls-5" x1="381.23" y1="20.83" x2="381.23" y2="138.28"/><line class="cls-5" x1="498.63" y1="20.83" x2="498.63" y2="138.28"/><rect class="cls-4" x="741.64" y="20.83" width="117.4" height="117.46"/><line class="cls-5" x1="859.04" y1="44.32" x2="741.64" y2="44.32"/><line class="cls-5" x1="859.04" y1="67.81" x2="741.64" y2="67.81"/><line class="cls-5" x1="859.04" y1="91.3" x2="741.64" y2="91.3"/><line class="cls-5" x1="859.04" y1="114.79" x2="741.64" y2="114.79"/><line class="cls-5" x1="859.04" y1="20.83" x2="741.64" y2="20.83"/><line class="cls-5" x1="859.04" y1="138.28" x2="741.64" y2="138.28"/><line class="cls-5" x1="765.12" y1="20.83" x2="765.12" y2="138.28"/><line class="cls-5" x1="788.6" y1="20.83" x2="788.6" y2="138.28"/><line class="cls-5" x1="812.08" y1="20.83" x2="812.08" y2="138.28"/><line class="cls-5" x1="835.56" y1="20.83" x2="835.56" y2="138.28"/><line class="cls-5" x1="741.64" y1="20.83" x2="741.64" y2="138.28"/><line class="cls-5" x1="859.04" y1="20.83" x2="859.04" y2="138.28"/><rect class="cls-4" x="861.78" y="20.83" width="117.4" height="117.46"/><line class="cls-5" x1="979.17" y1="44.32" x2="861.78" y2="44.32"/><line class="cls-5" x1="979.17" y1="67.81" x2="861.78" y2="67.81"/><line class="cls-5" x1="979.17" y1="91.3" x2="861.78" y2="91.3"/><line class="cls-5" x1="979.17" y1="114.79" x2="861.78" y2="114.79"/><line class="cls-5" x1="979.17" y1="20.83" x2="861.78" y2="20.83"/><line class="cls-5" x1="979.17" y1="138.28" x2="861.78" y2="138.28"/><line class="cls-5" x1="885.26" y1="20.83" x2="885.26" y2="138.28"/><line class="cls-5" x1="908.74" y1="20.83" x2="908.74" y2="138.28"/><line class="cls-5" x1="932.21" y1="20.83" x2="932.21" y2="138.28"/><line class="cls-5" x1="955.69" y1="20.83" x2="955.69" y2="138.28"/><line class="cls-5" x1="861.78" y1="20.83" x2="861.78" y2="138.28"/><line class="cls-5" x1="979.17" y1="20.83" x2="979.17" y2="138.28"/><rect class="cls-4" x="20.83" y="261.08" width="117.4" height="117.46"/><line class="cls-5" x1="138.22" y1="284.57" x2="20.83" y2="284.57"/><line class="cls-5" x1="138.22" y1="308.06" x2="20.83" y2="308.06"/><line class="cls-5" x1="138.22" y1="331.55" x2="20.83" y2="331.55"/><line class="cls-5" x1="138.22" y1="355.05" x2="20.83" y2="355.05"/><line class="cls-5" x1="138.22" y1="261.08" x2="20.83" y2="261.08"/><line class="cls-5" x1="138.22" y1="378.54" x2="20.83" y2="378.54"/><line class="cls-5" x1="44.31" y1="261.08" x2="44.31" y2="378.54"/><line class="cls-5" x1="67.79" y1="261.08" x2="67.79" y2="378.54"/><line class="cls-5" x1="91.26" y1="261.08" x2="91.26" y2="378.54"/><line class="cls-5" x1="114.74" y1="261.08" x2="114.74" y2="378.54"/><line class="cls-5" x1="20.83" y1="261.08" x2="20.83" y2="378.54"/><line class="cls-5" x1="138.22" y1="261.08" x2="138.22" y2="378.54"/><rect class="cls-4" x="140.96" y="261.08" width="117.4" height="117.46"/><line class="cls-5" x1="258.36" y1="284.57" x2="140.96" y2="284.57"/><line class="cls-5" x1="258.36" y1="308.06" x2="140.96" y2="308.06"/><line class="cls-5" x1="258.36" y1="331.55" x2="140.96" y2="331.55"/><line class="cls-5" x1="258.36" y1="355.05" x2="140.96" y2="355.05"/><line class="cls-5" x1="258.36" y1="261.08" x2="140.96" y2="261.08"/><line class="cls-5" x1="258.36" y1="378.54" x2="140.96" y2="378.54"/><line class="cls-5" x1="164.44" y1="261.08" x2="164.44" y2="378.54"/><line class="cls-5" x1="187.92" y1="261.08" x2="187.92" y2="378.54"/><line class="cls-5" x1="211.4" y1="261.08" x2="211.4" y2="378.54"/><line class="cls-5" x1="234.88" y1="261.08" x2="234.88" y2="378.54"/><line class="cls-5" x1="140.96" y1="261.08" x2="140.96" y2="378.54"/><line class="cls-5" x1="258.36" y1="261.08" x2="258.36" y2="378.54"/><rect class="cls-4" x="261.1" y="261.08" width="117.4" height="117.46"/><line class="cls-5" x1="378.5" y1="284.57" x2="261.1" y2="284.57"/><line class="cls-5" x1="378.5" y1="308.06" x2="261.1" y2="308.06"/><line class="cls-5" x1="378.5" y1="331.55" x2="261.1" y2="331.55"/><line class="cls-5" x1="378.5" y1="355.05" x2="261.1" y2="355.05"/><line class="cls-5" x1="378.5" y1="261.08" x2="261.1" y2="261.08"/><line class="cls-5" x1="378.5" y1="378.54" x2="261.1" y2="378.54"/><line class="cls-5" x1="284.58" y1="261.08" x2="284.58" y2="378.54"/><line class="cls-5" x1="308.06" y1="261.08" x2="308.06" y2="378.54"/><line class="cls-5" x1="331.54" y1="261.08" x2="331.54" y2="378.54"/><line class="cls-5" x1="355.02" y1="261.08" x2="355.02" y2="378.54"/><line class="cls-5" x1="261.1" y1="261.08" x2="261.1" y2="378.54"/><line class="cls-5" x1="378.5" y1="261.08" x2="378.5" y2="378.54"/><rect class="cls-4" x="501.37" y="261.08" width="117.4" height="117.46"/><line class="cls-5" x1="618.77" y1="284.57" x2="501.37" y2="284.57"/><line class="cls-5" x1="618.77" y1="308.06" x2="501.37" y2="308.06"/><line class="cls-5" x1="618.77" y1="331.55" x2="501.37" y2="331.55"/><line class="cls-5" x1="618.77" y1="355.05" x2="501.37" y2="355.05"/><line class="cls-5" x1="618.77" y1="261.08" x2="501.37" y2="261.08"/><line class="cls-5" x1="618.77" y1="378.54" x2="501.37" y2="378.54"/><line class="cls-5" x1="524.85" y1="261.08" x2="524.85" y2="378.54"/><line class="cls-5" x1="548.33" y1="261.08" x2="548.33" y2="378.54"/><line class="cls-5" x1="571.81" y1="261.08" x2="571.81" y2="378.54"/><line class="cls-5" x1="595.29" y1="261.08" x2="595.29" y2="378.54"/><line class="cls-5" x1="501.37" y1="261.08" x2="501.37" y2="378.54"/><line class="cls-5" x1="618.77" y1="261.08" x2="618.77" y2="378.54"/><rect class="cls-4" x="621.5" y="261.08" width="117.4" height="117.46"/><line class="cls-5" x1="738.9" y1="284.57" x2="621.5" y2="284.57"/><line class="cls-5" x1="738.9" y1="308.06" x2="621.5" y2="308.06"/><line class="cls-5" x1="738.9" y1="331.55" x2="621.5" y2="331.55"/><line class="cls-5" x1="738.9" y1="355.05" x2="621.5" y2="355.05"/><line class="cls-5" x1="738.9" y1="261.08" x2="621.5" y2="261.08"/><line class="cls-5" x1="738.9" y1="378.54" x2="621.5" y2="378.54"/><line class="cls-5" x1="644.98" y1="261.08" x2="644.98" y2="378.54"/><line class="cls-5" x1="668.46" y1="261.08" x2="668.46" y2="378.54"/><line class="cls-5" x1="691.94" y1="261.08" x2="691.94" y2="378.54"/><line class="cls-5" x1="715.42" y1="261.08" x2="715.42" y2="378.54"/><line class="cls-5" x1="621.5" y1="261.08" x2="621.5" y2="378.54"/><line class="cls-5" x1="738.9" y1="261.08" x2="738.9" y2="378.54"/><rect class="cls-4" x="381.23" y="261.08" width="117.4" height="117.46"/><line class="cls-5" x1="498.63" y1="284.57" x2="381.23" y2="284.57"/><line class="cls-5" x1="498.63" y1="308.06" x2="381.23" y2="308.06"/><line class="cls-5" x1="498.63" y1="331.55" x2="381.23" y2="331.55"/><line class="cls-5" x1="498.63" y1="355.05" x2="381.23" y2="355.05"/><line class="cls-5" x1="498.63" y1="261.08" x2="381.23" y2="261.08"/><line class="cls-5" x1="498.63" y1="378.54" x2="381.23" y2="378.54"/><line class="cls-5" x1="404.71" y1="261.08" x2="404.71" y2="378.54"/><line class="cls-5" x1="428.19" y1="261.08" x2="428.19" y2="378.54"/><line class="cls-5" x1="451.67" y1="261.08" x2="451.67" y2="378.54"/><line class="cls-5" x1="475.15" y1="261.08" x2="475.15" y2="378.54"/><line class="cls-5" x1="381.23" y1="261.08" x2="381.23" y2="378.54"/><line class="cls-5" x1="498.63" y1="261.08" x2="498.63" y2="378.54"/><rect class="cls-4" x="741.64" y="261.08" width="117.4" height="117.46"/><line class="cls-5" x1="859.04" y1="284.57" x2="741.64" y2="284.57"/><line class="cls-5" x1="859.04" y1="308.06" x2="741.64" y2="308.06"/><line class="cls-5" x1="859.04" y1="331.55" x2="741.64" y2="331.55"/><line class="cls-5" x1="859.04" y1="355.05" x2="741.64" y2="355.05"/><line class="cls-5" x1="859.04" y1="261.08" x2="741.64" y2="261.08"/><line class="cls-5" x1="859.04" y1="378.54" x2="741.64" y2="378.54"/><line class="cls-5" x1="765.12" y1="261.08" x2="765.12" y2="378.54"/><line class="cls-5" x1="788.6" y1="261.08" x2="788.6" y2="378.54"/><line class="cls-5" x1="812.08" y1="261.08" x2="812.08" y2="378.54"/><line class="cls-5" x1="835.56" y1="261.08" x2="835.56" y2="378.54"/><line class="cls-5" x1="741.64" y1="261.08" x2="741.64" y2="378.54"/><line class="cls-5" x1="859.04" y1="261.08" x2="859.04" y2="378.54"/><rect class="cls-4" x="861.78" y="261.08" width="117.4" height="117.46"/><line class="cls-5" x1="979.17" y1="284.57" x2="861.78" y2="284.57"/><line class="cls-5" x1="979.17" y1="308.06" x2="861.78" y2="308.06"/><line class="cls-5" x1="979.17" y1="331.55" x2="861.78" y2="331.55"/><line class="cls-5" x1="979.17" y1="355.05" x2="861.78" y2="355.05"/><line class="cls-5" x1="979.17" y1="261.08" x2="861.78" y2="261.08"/><line class="cls-5" x1="979.17" y1="378.54" x2="861.78" y2="378.54"/><line class="cls-5" x1="885.26" y1="261.08" x2="885.26" y2="378.54"/><line class="cls-5" x1="908.74" y1="261.08" x2="908.74" y2="378.54"/><line class="cls-5" x1="932.21" y1="261.08" x2="932.21" y2="378.54"/><line class="cls-5" x1="955.69" y1="261.08" x2="955.69" y2="378.54"/><line class="cls-5" x1="861.78" y1="261.08" x2="861.78" y2="378.54"/><line class="cls-5" x1="979.17" y1="261.08" x2="979.17" y2="378.54"/><rect class="cls-4" x="20.83" y="741.59" width="117.4" height="117.46"/><line class="cls-5" x1="138.22" y1="765.08" x2="20.83" y2="765.08"/><line class="cls-5" x1="138.22" y1="788.57" x2="20.83" y2="788.57"/><line class="cls-5" x1="138.22" y1="812.06" x2="20.83" y2="812.06"/><line class="cls-5" x1="138.22" y1="835.55" x2="20.83" y2="835.55"/><line class="cls-5" x1="138.22" y1="741.59" x2="20.83" y2="741.59"/><line class="cls-5" x1="138.22" y1="859.05" x2="20.83" y2="859.05"/><line class="cls-5" x1="44.31" y1="741.59" x2="44.31" y2="859.05"/><line class="cls-5" x1="67.79" y1="741.59" x2="67.79" y2="859.05"/><line class="cls-5" x1="91.26" y1="741.59" x2="91.26" y2="859.05"/><line class="cls-5" x1="114.74" y1="741.59" x2="114.74" y2="859.05"/><line class="cls-5" x1="20.83" y1="741.59" x2="20.83" y2="859.05"/><line class="cls-5" x1="138.22" y1="741.59" x2="138.22" y2="859.05"/><rect class="cls-4" x="140.96" y="741.59" width="117.4" height="117.46"/><line class="cls-5" x1="258.36" y1="765.08" x2="140.96" y2="765.08"/><line class="cls-5" x1="258.36" y1="788.57" x2="140.96" y2="788.57"/><line class="cls-5" x1="258.36" y1="812.06" x2="140.96" y2="812.06"/><line class="cls-5" x1="258.36" y1="835.55" x2="140.96" y2="835.55"/><line class="cls-5" x1="258.36" y1="741.59" x2="140.96" y2="741.59"/><line class="cls-5" x1="258.36" y1="859.05" x2="140.96" y2="859.05"/><line class="cls-5" x1="164.44" y1="741.59" x2="164.44" y2="859.05"/><line class="cls-5" x1="187.92" y1="741.59" x2="187.92" y2="859.05"/><line class="cls-5" x1="211.4" y1="741.59" x2="211.4" y2="859.05"/><line class="cls-5" x1="234.88" y1="741.59" x2="234.88" y2="859.05"/><line class="cls-5" x1="140.96" y1="741.59" x2="140.96" y2="859.05"/><line class="cls-5" x1="258.36" y1="741.59" x2="258.36" y2="859.05"/><rect class="cls-4" x="261.1" y="741.59" width="117.4" height="117.46"/><line class="cls-5" x1="378.5" y1="765.08" x2="261.1" y2="765.08"/><line class="cls-5" x1="378.5" y1="788.57" x2="261.1" y2="788.57"/><line class="cls-5" x1="378.5" y1="812.06" x2="261.1" y2="812.06"/><line class="cls-5" x1="378.5" y1="835.55" x2="261.1" y2="835.55"/><line class="cls-5" x1="378.5" y1="741.59" x2="261.1" y2="741.59"/><line class="cls-5" x1="378.5" y1="859.05" x2="261.1" y2="859.05"/><line class="cls-5" x1="284.58" y1="741.59" x2="284.58" y2="859.05"/><line class="cls-5" x1="308.06" y1="741.59" x2="308.06" y2="859.05"/><line class="cls-5" x1="331.54" y1="741.59" x2="331.54" y2="859.05"/><line class="cls-5" x1="355.02" y1="741.59" x2="355.02" y2="859.05"/><line class="cls-5" x1="261.1" y1="741.59" x2="261.1" y2="859.05"/><line class="cls-5" x1="378.5" y1="741.59" x2="378.5" y2="859.05"/><rect class="cls-4" x="501.37" y="741.59" width="117.4" height="117.46"/><line class="cls-5" x1="618.77" y1="765.08" x2="501.37" y2="765.08"/><line class="cls-5" x1="618.77" y1="788.57" x2="501.37" y2="788.57"/><line class="cls-5" x1="618.77" y1="812.06" x2="501.37" y2="812.06"/><line class="cls-5" x1="618.77" y1="835.55" x2="501.37" y2="835.55"/><line class="cls-5" x1="618.77" y1="741.59" x2="501.37" y2="741.59"/><line class="cls-5" x1="618.77" y1="859.05" x2="501.37" y2="859.05"/><line class="cls-5" x1="524.85" y1="741.59" x2="524.85" y2="859.05"/><line class="cls-5" x1="548.33" y1="741.59" x2="548.33" y2="859.05"/><line class="cls-5" x1="571.81" y1="741.59" x2="571.81" y2="859.05"/><line class="cls-5" x1="595.29" y1="741.59" x2="595.29" y2="859.05"/><line class="cls-5" x1="501.37" y1="741.59" x2="501.37" y2="859.05"/><line class="cls-5" x1="618.77" y1="741.59" x2="618.77" y2="859.05"/><rect class="cls-4" x="621.5" y="741.59" width="117.4" height="117.46"/><line class="cls-5" x1="738.9" y1="765.08" x2="621.5" y2="765.08"/><line class="cls-5" x1="738.9" y1="788.57" x2="621.5" y2="788.57"/><line class="cls-5" x1="738.9" y1="812.06" x2="621.5" y2="812.06"/><line class="cls-5" x1="738.9" y1="835.55" x2="621.5" y2="835.55"/><line class="cls-5" x1="738.9" y1="741.59" x2="621.5" y2="741.59"/><line class="cls-5" x1="738.9" y1="859.05" x2="621.5" y2="859.05"/><line class="cls-5" x1="644.98" y1="741.59" x2="644.98" y2="859.05"/><line class="cls-5" x1="668.46" y1="741.59" x2="668.46" y2="859.05"/><line class="cls-5" x1="691.94" y1="741.59" x2="691.94" y2="859.05"/><line class="cls-5" x1="715.42" y1="741.59" x2="715.42" y2="859.05"/><line class="cls-5" x1="621.5" y1="741.59" x2="621.5" y2="859.05"/><line class="cls-5" x1="738.9" y1="741.59" x2="738.9" y2="859.05"/><rect class="cls-4" x="381.23" y="741.59" width="117.4" height="117.46"/><line class="cls-5" x1="498.63" y1="765.08" x2="381.23" y2="765.08"/><line class="cls-5" x1="498.63" y1="788.57" x2="381.23" y2="788.57"/><line class="cls-5" x1="498.63" y1="812.06" x2="381.23" y2="812.06"/><line class="cls-5" x1="498.63" y1="835.55" x2="381.23" y2="835.55"/><line class="cls-5" x1="498.63" y1="741.59" x2="381.23" y2="741.59"/><line class="cls-5" x1="498.63" y1="859.05" x2="381.23" y2="859.05"/><line class="cls-5" x1="404.71" y1="741.59" x2="404.71" y2="859.05"/><line class="cls-5" x1="428.19" y1="741.59" x2="428.19" y2="859.05"/><line class="cls-5" x1="451.67" y1="741.59" x2="451.67" y2="859.05"/><line class="cls-5" x1="475.15" y1="741.59" x2="475.15" y2="859.05"/><line class="cls-5" x1="381.23" y1="741.59" x2="381.23" y2="859.05"/><line class="cls-5" x1="498.63" y1="741.59" x2="498.63" y2="859.05"/><rect class="cls-4" x="741.64" y="741.59" width="117.4" height="117.46"/><line class="cls-5" x1="859.04" y1="765.08" x2="741.64" y2="765.08"/><line class="cls-5" x1="859.04" y1="788.57" x2="741.64" y2="788.57"/><line class="cls-5" x1="859.04" y1="812.06" x2="741.64" y2="812.06"/><line class="cls-5" x1="859.04" y1="835.55" x2="741.64" y2="835.55"/><line class="cls-5" x1="859.04" y1="741.59" x2="741.64" y2="741.59"/><line class="cls-5" x1="859.04" y1="859.05" x2="741.64" y2="859.05"/><line class="cls-5" x1="765.12" y1="741.59" x2="765.12" y2="859.05"/><line class="cls-5" x1="788.6" y1="741.59" x2="788.6" y2="859.05"/><line class="cls-5" x1="812.08" y1="741.59" x2="812.08" y2="859.05"/><line class="cls-5" x1="835.56" y1="741.59" x2="835.56" y2="859.05"/><line class="cls-5" x1="741.64" y1="741.59" x2="741.64" y2="859.05"/><line class="cls-5" x1="859.04" y1="741.59" x2="859.04" y2="859.05"/><rect class="cls-4" x="861.78" y="741.59" width="117.4" height="117.46"/><line class="cls-5" x1="979.17" y1="765.08" x2="861.78" y2="765.08"/><line class="cls-5" x1="979.17" y1="788.57" x2="861.78" y2="788.57"/><line class="cls-5" x1="979.17" y1="812.06" x2="861.78" y2="812.06"/><line class="cls-5" x1="979.17" y1="835.55" x2="861.78" y2="835.55"/><line class="cls-5" x1="979.17" y1="741.59" x2="861.78" y2="741.59"/><line class="cls-5" x1="979.17" y1="859.05" x2="861.78" y2="859.05"/><line class="cls-5" x1="885.26" y1="741.59" x2="885.26" y2="859.05"/><line class="cls-5" x1="908.74" y1="741.59" x2="908.74" y2="859.05"/><line class="cls-5" x1="932.21" y1="741.59" x2="932.21" y2="859.05"/><line class="cls-5" x1="955.69" y1="741.59" x2="955.69" y2="859.05"/><line class="cls-5" x1="861.78" y1="741.59" x2="861.78" y2="859.05"/><line class="cls-5" x1="979.17" y1="741.59" x2="979.17" y2="859.05"/><rect class="cls-4" x="20.83" y="861.72" width="117.4" height="117.46"/><line class="cls-5" x1="138.22" y1="885.21" x2="20.83" y2="885.21"/><line class="cls-5" x1="138.22" y1="908.7" x2="20.83" y2="908.7"/><line class="cls-5" x1="138.22" y1="932.19" x2="20.83" y2="932.19"/><line class="cls-5" x1="138.22" y1="955.68" x2="20.83" y2="955.68"/><line class="cls-5" x1="138.22" y1="861.72" x2="20.83" y2="861.72"/><line class="cls-5" x1="138.22" y1="979.17" x2="20.83" y2="979.17"/><line class="cls-5" x1="44.31" y1="861.72" x2="44.31" y2="979.17"/><line class="cls-5" x1="67.79" y1="861.72" x2="67.79" y2="979.17"/><line class="cls-5" x1="91.26" y1="861.72" x2="91.26" y2="979.17"/><line class="cls-5" x1="114.74" y1="861.72" x2="114.74" y2="979.17"/><line class="cls-5" x1="20.83" y1="861.72" x2="20.83" y2="979.17"/><line class="cls-5" x1="138.22" y1="861.72" x2="138.22" y2="979.17"/><rect class="cls-4" x="140.96" y="861.72" width="117.4" height="117.46"/><line class="cls-5" x1="258.36" y1="885.21" x2="140.96" y2="885.21"/><line class="cls-5" x1="258.36" y1="908.7" x2="140.96" y2="908.7"/><line class="cls-5" x1="258.36" y1="932.19" x2="140.96" y2="932.19"/><line class="cls-5" x1="258.36" y1="955.68" x2="140.96" y2="955.68"/><line class="cls-5" x1="258.36" y1="861.72" x2="140.96" y2="861.72"/><line class="cls-5" x1="258.36" y1="979.17" x2="140.96" y2="979.17"/><line class="cls-5" x1="164.44" y1="861.72" x2="164.44" y2="979.17"/><line class="cls-5" x1="187.92" y1="861.72" x2="187.92" y2="979.17"/><line class="cls-5" x1="211.4" y1="861.72" x2="211.4" y2="979.17"/><line class="cls-5" x1="234.88" y1="861.72" x2="234.88" y2="979.17"/><line class="cls-5" x1="140.96" y1="861.72" x2="140.96" y2="979.17"/><line class="cls-5" x1="258.36" y1="861.72" x2="258.36" y2="979.17"/><rect class="cls-4" x="261.1" y="861.72" width="117.4" height="117.46"/><line class="cls-5" x1="378.5" y1="885.21" x2="261.1" y2="885.21"/><line class="cls-5" x1="378.5" y1="908.7" x2="261.1" y2="908.7"/><line class="cls-5" x1="378.5" y1="932.19" x2="261.1" y2="932.19"/><line class="cls-5" x1="378.5" y1="955.68" x2="261.1" y2="955.68"/><line class="cls-5" x1="378.5" y1="861.72" x2="261.1" y2="861.72"/><line class="cls-5" x1="378.5" y1="979.17" x2="261.1" y2="979.17"/><line class="cls-5" x1="284.58" y1="861.72" x2="284.58" y2="979.17"/><line class="cls-5" x1="308.06" y1="861.72" x2="308.06" y2="979.17"/><line class="cls-5" x1="331.54" y1="861.72" x2="331.54" y2="979.17"/><line class="cls-5" x1="355.02" y1="861.72" x2="355.02" y2="979.17"/><line class="cls-5" x1="261.1" y1="861.72" x2="261.1" y2="979.17"/><line class="cls-5" x1="378.5" y1="861.72" x2="378.5" y2="979.17"/><rect class="cls-4" x="501.37" y="861.72" width="117.4" height="117.46"/><line class="cls-5" x1="618.77" y1="885.21" x2="501.37" y2="885.21"/><line class="cls-5" x1="618.77" y1="908.7" x2="501.37" y2="908.7"/><line class="cls-5" x1="618.77" y1="932.19" x2="501.37" y2="932.19"/><line class="cls-5" x1="618.77" y1="955.68" x2="501.37" y2="955.68"/><line class="cls-5" x1="618.77" y1="861.72" x2="501.37" y2="861.72"/><line class="cls-5" x1="618.77" y1="979.17" x2="501.37" y2="979.17"/><line class="cls-5" x1="524.85" y1="861.72" x2="524.85" y2="979.17"/><line class="cls-5" x1="548.33" y1="861.72" x2="548.33" y2="979.17"/><line class="cls-5" x1="571.81" y1="861.72" x2="571.81" y2="979.17"/><line class="cls-5" x1="595.29" y1="861.72" x2="595.29" y2="979.17"/><line class="cls-5" x1="501.37" y1="861.72" x2="501.37" y2="979.17"/><line class="cls-5" x1="618.77" y1="861.72" x2="618.77" y2="979.17"/><rect class="cls-4" x="621.5" y="861.72" width="117.4" height="117.46"/><line class="cls-5" x1="738.9" y1="885.21" x2="621.5" y2="885.21"/><line class="cls-5" x1="738.9" y1="908.7" x2="621.5" y2="908.7"/><line class="cls-5" x1="738.9" y1="932.19" x2="621.5" y2="932.19"/><line class="cls-5" x1="738.9" y1="955.68" x2="621.5" y2="955.68"/><line class="cls-5" x1="738.9" y1="861.72" x2="621.5" y2="861.72"/><line class="cls-5" x1="738.9" y1="979.17" x2="621.5" y2="979.17"/><line class="cls-5" x1="644.98" y1="861.72" x2="644.98" y2="979.17"/><line class="cls-5" x1="668.46" y1="861.72" x2="668.46" y2="979.17"/><line class="cls-5" x1="691.94" y1="861.72" x2="691.94" y2="979.17"/><line class="cls-5" x1="715.42" y1="861.72" x2="715.42" y2="979.17"/><line class="cls-5" x1="621.5" y1="861.72" x2="621.5" y2="979.17"/><line class="cls-5" x1="738.9" y1="861.72" x2="738.9" y2="979.17"/><rect class="cls-4" x="381.23" y="861.72" width="117.4" height="117.46"/><line class="cls-5" x1="498.63" y1="885.21" x2="381.23" y2="885.21"/><line class="cls-5" x1="498.63" y1="908.7" x2="381.23" y2="908.7"/><line class="cls-5" x1="498.63" y1="932.19" x2="381.23" y2="932.19"/><line class="cls-5" x1="498.63" y1="955.68" x2="381.23" y2="955.68"/><line class="cls-5" x1="498.63" y1="861.72" x2="381.23" y2="861.72"/><line class="cls-5" x1="498.63" y1="979.17" x2="381.23" y2="979.17"/><line class="cls-5" x1="404.71" y1="861.72" x2="404.71" y2="979.17"/><line class="cls-5" x1="428.19" y1="861.72" x2="428.19" y2="979.17"/><line class="cls-5" x1="451.67" y1="861.72" x2="451.67" y2="979.17"/><line class="cls-5" x1="475.15" y1="861.72" x2="475.15" y2="979.17"/><line class="cls-5" x1="381.23" y1="861.72" x2="381.23" y2="979.17"/><line class="cls-5" x1="498.63" y1="861.72" x2="498.63" y2="979.17"/><rect class="cls-4" x="741.64" y="861.72" width="117.4" height="117.46"/><line class="cls-5" x1="859.04" y1="885.21" x2="741.64" y2="885.21"/><line class="cls-5" x1="859.04" y1="908.7" x2="741.64" y2="908.7"/><line class="cls-5" x1="859.04" y1="932.19" x2="741.64" y2="932.19"/><line class="cls-5" x1="859.04" y1="955.68" x2="741.64" y2="955.68"/><line class="cls-5" x1="859.04" y1="861.72" x2="741.64" y2="861.72"/><line class="cls-5" x1="859.04" y1="979.17" x2="741.64" y2="979.17"/><line class="cls-5" x1="765.12" y1="861.72" x2="765.12" y2="979.17"/><line class="cls-5" x1="788.6" y1="861.72" x2="788.6" y2="979.17"/><line class="cls-5" x1="812.08" y1="861.72" x2="812.08" y2="979.17"/><line class="cls-5" x1="835.56" y1="861.72" x2="835.56" y2="979.17"/><line class="cls-5" x1="741.64" y1="861.72" x2="741.64" y2="979.17"/><line class="cls-5" x1="859.04" y1="861.72" x2="859.04" y2="979.17"/><rect class="cls-4" x="861.78" y="861.72" width="117.4" height="117.46"/><line class="cls-5" x1="979.17" y1="885.21" x2="861.78" y2="885.21"/><line class="cls-5" x1="979.17" y1="908.7" x2="861.78" y2="908.7"/><line class="cls-5" x1="979.17" y1="932.19" x2="861.78" y2="932.19"/><line class="cls-5" x1="979.17" y1="955.68" x2="861.78" y2="955.68"/><line class="cls-5" x1="979.17" y1="861.72" x2="861.78" y2="861.72"/><line class="cls-5" x1="979.17" y1="979.17" x2="861.78" y2="979.17"/><line class="cls-5" x1="885.26" y1="861.72" x2="885.26" y2="979.17"/><line class="cls-5" x1="908.74" y1="861.72" x2="908.74" y2="979.17"/><line class="cls-5" x1="932.21" y1="861.72" x2="932.21" y2="979.17"/><line class="cls-5" x1="955.69" y1="861.72" x2="955.69" y2="979.17"/><line class="cls-5" x1="861.78" y1="861.72" x2="861.78" y2="979.17"/><line class="cls-5" x1="979.17" y1="861.72" x2="979.17" y2="979.17"/><path class="cls-1" d="M514.26,835.27c-8.01,0-14.69-5.86-16.61-14.59-.24-1.09-.29-2.07-.28-2.81-1.56-8.44-2.08-18.63-2.51-26.89-.07-1.3-.13-2.56-.2-3.75-.04-.65-.02-1.24-.01-1.59h0c-.19-3.86-.08-7.55.02-11.13.18-6.1.34-11.85-1.01-16.73l-.42-1.49.03-1.55c.33-19.17-.92-38.92-2.13-58.02-.58-9.26-1.18-18.75-1.61-28.24l-3.13-.14v-25.3l2.97.55c.06-2.11.1-4.27.1-6.37l-3.07.59v-21.17l1.41-.9c0-.32-.01-.64-.01-.98.02-1.82.07-3.74.12-5.69.19-7.03.39-14.3-1.11-19.56l-.5-1.75.11-1.82c.06-.91.03-2.02,0-3.19-.02-1.05-.04-2.1-.03-3.15v-1.41c.05-4.2.05-7.6,0-10.7,0-.36,0-.72,0-1.07v-.24c-.01-.87,0-1.66,0-2.46,0-.58.01-1.16,0-1.75-.11-5.49-.44-10.87-.78-16.57-.21-3.51-.43-7.13-.59-10.77-.04-.81-.02-1.52,0-2.09,0-.23.02-.45,0-.68-.04-.81-.02-1.52,0-2.08,0-.22.02-.44,0-.66-.07-1.27-.04-2.49-.01-3.57.02-.74.03-1.43.01-1.96-.09-2.01-.02-4,.04-5.75.06-1.78.12-3.47,0-4.73l-.03-.26v-.26c-.14-2.56-.06-4.98,0-7.31.06-2.25.13-4.37,0-6.25-.27-3.82-.74-7.93-1.23-12.28-.65-5.7-1.32-11.6-1.53-17.02-.01-.48-.01-.87,0-1.27v-.12c-.05-1.35-.08-2.71-.11-4.06l-1.59,1.47c.02.42.05.86.07,1.22.08,1.26.17,2.68.11,4.15-.35,9.04-.93,18.17-1.39,25.12-.11,1.7-.39,3.58-.68,5.56-.28,1.89-.57,3.85-.69,5.52-.55,7.59-.98,15.37-1.38,22.89-.4,7.39-.82,15.03-1.36,22.56-.06.94-.24,1.86-.54,2.8l-.09.27-.17.46c-.16.43-.53,1.44-.57,2.05,0,.17,0,.63.02.97.03.87.07,1.94-.02,3.18,0,.15,0,.62.02.96.03.87.07,1.95-.02,3.19-.35,4.86-.54,10.07-.73,15.1-.17,4.53-.34,9.2-.63,13.54.01.35.02.92-.01,1.59-.34,5.03-.87,10.22-1.38,15.25-.5,4.94-1.02,10.04-1.36,14.9.01.35.02.92-.01,1.6-.5,7.9-1.01,16.28-1.37,24.65l-.29,6.83-1.07.42c-.14,9.63-.62,20.25-1.37,30.04.01.42.02.93-.01,1.55v.21c-.15,1.61-.27,3.83-.4,6.19-.58,10.32-1.16,18.64-2.84,23.83-.83,2.61-2.41,4.31-3.81,5.81-.13.14-.29.31-.44.48l-1.46,6.5-8.23-.09h-.79s-2.37,0-2.37,0h-.94s-13.69-.14-13.69-.14l2.19-7.32c-1.02-1.1-1.71-2.26-2.21-3.29l-6.55-1.65,1.54-7.25-.3-.77c-1.37-3.54-2.87-6.93-4.46-10.52-1.23-2.78-2.5-5.65-3.71-8.61l-.06-.14c-.47-1.2-.68-2.33-.75-3.31-.35-.94-.71-1.97-1.1-3.08-1.04-2.94-3.55-10.02-5.49-13.38-.06,0-.12,0-.18.01-.89.05-1.9.11-2.95.11-.35,0-.69,0-1.03-.02,0,0-1.45.02-1.76.02-.29,0-.59,0-.88-.01-2.44-.08-5.09-.12-8.13-.12s-5.79.03-8.69.07c-2.97.03-5.94.07-8.91.07-.96,0-1.93,0-2.89-.01h-1.74c-.36,0-.72,0-1.08,0-.83-.01-1.69-.01-2.55-.01-2.72,0-5.46.04-8.2.09-2.85.05-5.7.09-8.55.09-3.15,0-5.92-.06-8.46-.17-.12,0-.24,0-.36,0-.42,0-.85.02-1.27.03-.66.02-1.32.04-1.97.04-.84,0-1.61-.03-2.34-.1-5.86-.51-10.75-2.27-14.67-3.69-2.47-.89-4.6-1.66-6.22-1.86l-2.12-.26-1.84-1.11c-4.67-2.8-7.53-5.71-10.29-8.53l-2.26-2.31c-8.2-8.37-14.13-14.41-23.04-21.8-1.73-1.45-2.71-3.02-3.36-4.06-.61-.98-.7-1.13-1.7-1.65-4.26-2.22-9.62-3.26-16.85-3.26-1.99,0-4.13.07-6.72.23-.36.02-.72.03-1.09.03-.39,0-.79-.01-1.19-.03-.1,0-.21,0-.31-.01-5.1.56-14.33,3.58-19.28,6.28l-1.32,4.14-6.73.61c-.18.02-.37.03-.55.04-.65.5-1.56,1.13-2.71,1.71-5.49,2.74-15.61,9.2-19.27,12.51l-1.51,8.72-8.68-.83c-.8.46-2.03,1.72-2.4,2.5l-2.05,6.48-6.74.61c-1.78.16-3.81.92-6.37,1.88-3.72,1.39-8.35,3.12-14.26,3.64-.57.05-1.21.08-1.91.08-.52,0-1.04-.02-1.57-.04-.28-.01-.57-.02-.85-.02h-.15c-2.55.13-5.34.2-8.51.2-2.88,0-5.78-.05-8.58-.1-2.7-.05-5.5-.1-8.19-.1-.86,0-1.71,0-2.56.02-.23,0-.48,0-.73,0h-1.59s-.42,0-.42,0c-3.91.04-7.8.06-11.7.06-4.55,0-9.11-.02-13.66-.04l-3.66-.02h-1.79c-.34,0-3.19,0-4.28,0-2.87,0-5.74.01-8.61.03-2.91.01-5.81.03-8.72.03s-5.52-.01-8.27-.05h-.43s-1.58,0-1.58,0c-.25,0-1.1,0-1.1,0-.86,0-2.04.03-3.42.06-2.07.04-4.64.1-7.25.1-11.4,0-17.49-.84-21.3-5.64l-.11-.15c-2.61-3.42-2.54-7.02-2.39-8.72-.16-1.98-.23-4.92.42-7.25,1.41-5,4.73-7.23,6.25-8.16,0,0,2.87-3.16,2.87-3.16l3.89-.37c1.92-.18,4.08-.27,6.6-.27,2.13,0,4.25.06,6.31.12,1.93.06,3.76.11,5.46.11h1.8s1.06,0,1.06,0h.31s1.83,0,1.83,0c.25,0,.92,0,.92,0h19.27l.04-.11,6.92.11c.26,0,.51,0,.77,0h1.98c.26,0,.51,0,.76,0h1.83s5.37,0,5.37,0c3.33,0,6.66.02,9.99.02,3.1,0,6.2,0,9.29-.03h3.48c.17,0,.7,0,.7,0h1.84c.25,0,.91,0,.91,0h1.06s.31,0,.31,0h2.64c.82,0,1.65-.01,2.47-.01,2.25,0,4.51.03,6.77.06,2.18.03,4.35.06,6.53.06s4.17-.03,5.93-.1h.19s.19,0,.19,0c.23,0,.47,0,.74.02l.34-.02c.15,0,.3,0,.45,0,.24,0,.47,0,.71.01.29-.02.59-.03.89-.03.46,0,.93.02,1.39.05,1.03-.13,1.92-.17,2.6-.19.21,0,.48-.02.69-.03,2.87-1.53,11.09-7.09,15.25-10.24l1.27-7.82,7.22.25c.18-.15.37-.31.56-.46.6-.48,1.2-1.01,1.85-1.58,1.53-1.35,3.44-3.03,6.01-4.64,4.31-2.69,10.28-6.34,14.1-8.5,1.06-.6,2.27-1.19,3.55-1.81.77-.38,1.57-.76,2.26-1.12,1.72-.89,3.32-1.34,4.61-1.7.19-.05.4-.11.6-.17l3.07-4.61,5.62,1.21c.71-.12,1.97-.57,2.57-.92l2.82-3.31,3.29.07.71-2.6,8.67,1.32c.26,0,.5-.02.7-.04h.11c2.01-.15,3.88-.3,5.64-.44,4.49-.36,8.37-.67,12.23-.67,9.96,0,18,2.17,28.68,7.76,8.36,4.36,12.9,8.63,18.66,14.03l1.45,1.36c.38.36.71.7,1.04,1.04.1.1.19.2.29.3l.08.08c.34.32.67.66,1,1,.1.1.19.2.29.3,1.54,1.44,2.93,2.89,4.27,4.29,1.36,1.42,2.64,2.76,3.99,4.01,2.3,2.15,4.16,4.08,5.8,5.78,5.41,5.61,7.04,7.3,15.67,8.09.18.02.35.02.52.02.42,0,.85-.02,1.28-.03.66-.02,1.32-.04,1.97-.04.43,0,.86,0,1.28.03,2.26.11,4.73.16,7.58.16s5.49-.05,8.24-.09c2.79-.05,5.67-.09,8.54-.09.92,0,1.84,0,2.76.02.29,0,.54,0,.8,0h1.99s.3,0,.3,0h.92c2.26,0,4.47,0,6.68,0,2.66,0,5.31,0,7.97-.01,2.67,0,5.33-.01,8-.01,1.61,0,4.95,0,4.95,0,.26,0,.51,0,.77,0h2.25c1.19,0,2.43-.04,3.68-.08,1.46-.04,2.94-.08,4.38-.08,1.81,0,3.38.07,4.8.2l3.9.36s2.98,3.29,3.04,3.36c.4.32.79.65,1.16.97.39.33.9.76,1.21.99l6.36,1.07c.21-2.26.43-4.5.65-6.71.48-4.91.98-9.98,1.35-14.93-.01-.42-.02-.95.01-1.57v-.13c.38-5.01.88-10.08,1.37-14.98.49-4.97,1.01-10.1,1.36-15.06-.01-.41-.02-.93.01-1.53v-.12c.34-4.68.54-9.55.73-14.25.18-4.34.36-8.84.65-13.28.04-.7.02-1.52,0-2.38-.03-.98-.06-2,0-3.08.29-4.58.85-9.27,1.38-13.81.53-4.52,1.08-9.19,1.35-13.56,0-.31-.02-.78,0-1.35h0c0-.36-.03-.95.01-1.65.16-2.92.43-5.67.69-8.33.43-4.3.83-8.36.67-12.72l-.18-4.86,1.73-1.61c-.02-.46-.05-.94-.07-1.34-.07-1.2-.16-2.56-.11-3.95.27-8.79.73-18.12,1.36-27.71-.01-.43-.02-.96.01-1.59v-.12c.13-1.63.51-3.08.84-4.35.24-.92.49-1.87.54-2.5.27-4.02.48-8.18.68-12.22.2-4.04.4-8.22.68-12.36-.01-.43-.02-.95.01-1.58.32-4.53.52-9.12.72-13.55.18-4.15.37-8.45.66-12.71l.02-.27c.14-1.52.59-2.96,1.31-4.24-.01-.68-.02-1.47.03-2.32.39-6.16.66-12.46.91-18.56.14-3.35.28-6.71.44-10.06v-.08c0-.37-.02-.92.01-1.59.13-2.79.42-5.39.69-7.9.39-3.57.76-6.94.67-10.61l-.14-5.98,1.54-.97c0-.32-.01-.65-.01-.99.16-12.62.62-25.11,1.37-37.12.31-4.91.85-10.03,1.36-14.99.52-5.02,1.06-10.2,1.37-15.1,0-.35-.03-.93.01-1.61.28-4.64.48-9.42.66-14.04.2-4.9.4-9.97.72-14.97,0-.17,0-.67-.02-1.07-.02-.83-.05-1.87.02-3.04.26-4.15.47-8.52.67-12.75.21-4.44.43-9.02.71-13.51.15-2.32,1.01-3.95,1.37-4.65.01-.02.02-.04.04-.07.19-3.2.18-6.54.16-10.08-.03-6.4-.06-13.01,1.12-19.81-.02-.8.04-1.83.31-2.99,2.09-9.06,8.84-15.15,16.8-15.15,6.03,0,13.57,3.83,16.68,14.56.41,1.4.49,2.66.47,3.58,1.55,8.36,3.47,21.86,4.06,30.42.05.8.03,1.39.02,1.74v.02c.06,1.89-.36,3.69-1.19,5.28l2.57,23.44v.56c.02,4.79.36,10,.68,15.04.34,5.32.7,10.83.7,16.04v26.23c0,2.78.33,6.9.65,10.89.11,1.37.22,2.76.32,4.13l3.08-.55.05,12.43v15.14c0,1.24,0,2.49,0,3.74v7.87s-.02.01-.02.01l.02,2.13c0,.97,0,1.92,0,2.89v2.73c0,1.56,0,3.2,0,4.85,0,1.55-.01,3.09,0,4.64,0,.4,0,.8,0,1.2v.33c.04,3.63,0,7.29-.02,10.83-.03,4.11-.06,8.36.01,12.46.04,1.74.02,3.46,0,5.13-.02,1.57-.03,3.06,0,4.49.1,4.13.37,8.23.64,12.58.34,5.34.69,10.87.73,16.55,0,1.05-.06,2.1-.11,3.02,0,.12-.01.24-.02.37l1.65,1.29-.14,5.33c-.12,4.7-.08,9.61-.04,14.37.02,2.48.04,4.96.04,7.43v11.38c-.08,2.47.28,6.21.62,9.82.33,3.41.67,6.94.75,10.28,0,.34,0,.72,0,1.1v.26c.27,10.14.52,19.71,1.34,29.77.07.74.05,1.42.03,1.85.05.94.01,1.71-.01,2.26v.18c.07,1.07.03,1.97,0,2.58v.14s.1,1.02.1,1.02l-.21,1.37c-.56,3.64,0,8,.61,12.61.37,2.85.75,5.8.88,8.76.03.68.02,1.47,0,2.35,0,.59-.03,1.24,0,1.88.13,4.12.06,8.16,0,12.07-.06,3.96-.13,7.7,0,11.38.05,1.35.41,3.3.71,4.87.33,1.77.62,3.3.67,4.83.18,6.03.12,12.09.06,17.95-.03,2.88-.06,5.75-.06,8.61v8.54c-.07,3.15.29,7.89.65,12.47.31,4.02.64,8.18.72,11.86,0,.59,0,1.09,0,1.6,0,.36-.01.73,0,1.09.03,1.16.05,2.34.08,3.52l2.04-1.42c.04-.21.07-.44.1-.63.45-2.8,1.2-7.48,5.08-11.38,3.28-3.28,5.9-4.75,8.76-5.71l.73-1.86,5.85-.85c1.76-.26,3.7-.37,6.12-.37,1.92,0,3.85.08,5.71.15,1.61.06,3.14.12,4.43.12h2.12c.25,0,.89,0,.89,0,2.5,0,5,0,7.51,0h14.65s7.91,0,7.91,0l7.21-.23.08.23h2.84c2.77.02,5.54.02,8.31.02,2.38,0,4.76,0,7.14-.02h0s.61,0,.61,0l4.78-.04.03.04h2.01l9.21-.15.02.15c1.09,0,2.19.02,3.28.03,2.32.02,4.64.04,6.96.04h.02c2.42,0,4.53-.02,6.45-.07h.88c.57,0,1.15.01,1.73.03l.79.02c.56.02,1.1.04,1.66.04.44,0,.81-.01,1.12-.04.78-.06,1.42-.1,2.02-.12.69-.02,1.33-.02,1.94-.02q1.73,0,2.74-.48c2.35-1.12,6.93-6.71,9.66-10.04,1.58-1.94,3.08-3.76,4.55-5.36.67-.74,1.62-2.01,2.46-3.13,1.04-1.39,2.03-2.71,3.06-3.82,2.18-2.35,4.44-4.85,6.83-7.5,6.5-7.2,13.21-14.64,19.75-20.59l-.25-1.38,37.1-24.85h2.95c5.77-1.69,10.6-2.45,15.5-2.45,5.17,0,10.23.81,17.47,2.81.87.23,1.62.56,2.26.9l5.85-.29,1.52,6.69c.87.93,2.29,2.28,3.23,3.18,2.13,2.03,4.14,3.95,5.52,5.81,6.19,8.22,12.77,18.69,17.81,26.89.18.28.34.57.5.86l4.98-1.18,1.41,10.69c.54.68,1.26,1.69,1.9,3.03l.12.26c.39.88.59,1.3.9,1.85,5.63,9.79,11.79,16.58,16.64,18.41.76-.14,1.43-.18,1.96-.18h.15c2.21.04,4.38.05,6.56.05,2.33,0,4.66-.02,7-.03,2.15-.01,4.29-.03,6.44-.03l.04-.11,7.45.12c.26,0,.51,0,.77,0h.82s.03-.03.03-.03l3.75.02h5.24v.02h.81c2.51,0,5.02,0,7.53-.01,2.53,0,5.06-.01,7.59-.01,1.65,0,3.29,0,4.94.01,0,0,.58,0,.84,0h2.01c.26,0,.51,0,.76,0h3.21c1.69,0,3.31.01,4.93.01,2.23,0,4.47,0,6.71-.02,2.26,0,4.52-.02,6.78-.02,1.67,0,3.33,0,5,.02.51,0,1.01.01,1.53.01h4.01s.68-.01.68-.01h.04s1.75,0,1.75,0c1.35,0,2.71-.02,4.07-.04,1.45-.02,2.91-.04,4.36-.04,1.62,0,3.06.02,4.38.08h1.45s.19.01.19.01c.19,0,.39-.02.6-.04.68-.04,1.36-.08,1.96-.08,1.4,0,2.65.17,3.82.51l2.49.73,3.31,3.33.09.1c.93.99,1.57,2.01,2.04,2.91l3.59,1.53v12.97l-2.3,2.15c-.89,2.17-2.88,6.52-8.07,8.43-2.34.85-5.2,1.18-10.23,1.18-3.07,0-6.51-.13-9.54-.24-2.25-.08-4.37-.16-5.7-.16,0,0-.73,0-.94,0h-.86c-2.9.03-5.8.05-8.71.05-3.06,0-6.13-.02-9.19-.03-3.03-.02-6.06-.03-9.08-.03-1.08,0-4.48.01-5.11.01h-3.66s-2.45,0-2.45,0c-3.55.01-7.1.03-10.66.03-2.99,0-5.98-.01-8.96-.04h-.91s-4.05.01-4.05.01c-.65,0-1.29,0-1.94-.01-.63,0-1.26-.01-1.89-.01-2.84,0-5.72.06-8.76.13-3.06.07-6.22.14-9.35.14-3.46,0-6.46-.09-9.18-.27-.09,0-.18,0-.28.01-.43.02-.85.04-1.28.04-.68,0-1.31-.04-1.94-.11-16.05-1.88-24.78-12.11-32.49-21.14l-1.42-1.66c-1.27-1.47-2.13-2.95-2.82-4.14-.13-.23-.29-.5-.43-.74l-3.78-1.92-.56-3.39-2.5-1.73-.46-3.59-4.35-1.05v-6.86c-5.18-9.04-10.74-17.31-16.96-25.23-1.02-1.3-1.63-2.36-2.03-3.06-.28-.49-.36-.63-1.21-1.46-4.44-4.36-6.19-4.36-6.84-4.36-2.25,0-6.1,1.59-10.9,3.67-3.26,1.42-4.42,2.36-6.71,4.24-1.02.83-2.17,1.78-3.63,2.86-4.98,3.7-8.89,6.74-13,10.44l-1.47,1.32c-4.67,4.19-9.12,8.18-12.9,12.55v5.93l-6.21,1.46c-3.45,3.13-11.28,12.73-13.3,16.36l-.53,3.69-4.09,2.55c-.59.37-1.28.78-2.04,1.21-.7.41-1.86,1.08-2.8,1.7l-.21,5.49-8.37,1.29c-1.92.29-3.21.85-5.17,1.68-3.32,1.42-7.46,3.18-14.63,3.8-.57.05-1.16.1-1.78.13-.6.04-1.29.05-1.99.05-.57,0-1.14-.01-1.71-.02,0,0-1.42-.03-1.58-.03s-.32,0-.48,0c-2.08.06-4.37.09-6.98.09-2.39,0-4.79-.03-7.18-.05-2.32-.02-4.64-.05-6.95-.05-.8,0-1.6,0-2.4.01-.6,0-1.22,0-1.83,0-.81,0-3.98-.02-4.76-.02-.55,0-1.09,0-1.64,0-2.43.02-4.84.03-7.26.03-2.7,0-5.41,0-8.11-.02-2.68,0-5.36-.02-8.04-.02-1.37,0-2.74,0-4.11,0h-2.8c-1.22,0-2.5.01-3.78.01-2.87,0-5.75-.02-8.63-.03-2.84-.02-5.69-.03-8.53-.03-2.59,0-5.17.01-7.75.05-.24,0-.49,0-.75,0h-1.59s-.42,0-.42,0c-.63.01-1.33.02-2.04.02-1.23,0-2.47-.02-3.71-.04-.7-.01-1.4-.02-2.1-.03-.63,2.38-1.11,4.92-1.61,7.53-.4,2.11-.82,4.3-1.33,6.53-.28,1.22-.68,2.2-.97,2.91-.19.47-.31.75-.35.96l-.27,1.34c-1.67,8.35-3.57,17.8-3.64,25.6v1.25c0,.97,0,1.93,0,2.9l-.1,10.5-2.35-.03c-.1,1.63-.19,3.55-.27,5.75l-.05,1.24-4.32,28.89-.2.69c-.53,1.83-.6,5.33-.65,8.14-.04,2.12-.08,4.13-.29,6.01.02.63.01,1.47-.14,2.45-1.97,13.06-3.76,23.09-5.32,29.82,0,.91-.1,2.05-.48,3.31-2.55,8.44-9.18,13.86-16.89,13.86ZM482.17,454.47c-.06,1.53-.08,3.09-.03,4.7,0-1.57.01-3.14.03-4.7Z"/><path class="cls-2" d="M909.33,83.76v-17.95h-14.91v17.95h-17.95v14.91h17.95v17.95h14.91v-17.95h17.95v-14.91h-17.95ZM909.33,83.76v-17.95h-14.91v17.95h-17.95v14.91h17.95v17.95h14.91v-17.95h17.95v-14.91h-17.95ZM105.58,901.33v-17.95h-14.92v17.95h-17.94v14.91h17.94v17.95h14.92v-17.95h17.95v-14.91h-17.95ZM909.33,83.76v-17.95h-14.91v17.95h-17.95v14.91h17.95v17.95h14.91v-17.95h17.95v-14.91h-17.95ZM909.33,901.33v-17.95h-14.91v17.95h-17.95v14.91h17.95v17.95h14.91v-17.95h17.95v-14.91h-17.95ZM909.33,83.76v-17.95h-14.91v17.95h-17.95v14.91h17.95v17.95h14.91v-17.95h17.95v-14.91h-17.95ZM909.33,901.33v-17.95h-14.91v17.95h-17.95v14.91h17.95v17.95h14.91v-17.95h17.95v-14.91h-17.95ZM105.58,901.33v-17.95h-14.92v17.95h-17.94v14.91h17.94v17.95h14.92v-17.95h17.95v-14.91h-17.95ZM976.19,0H23.81C10.68,0,0,10.68,0,23.81v952.37c0,13.13,10.68,23.81,23.81,23.81h952.38c13.13,0,23.81-10.69,23.81-23.81V23.81c0-13.14-10.68-23.81-23.81-23.81ZM98.12,52.49c21.36,0,38.73,17.37,38.73,38.73s-17.37,38.73-38.73,38.73-38.73-17.37-38.73-38.73,17.37-38.73,38.73-38.73ZM98.12,947.51c-21.36,0-38.73-17.37-38.73-38.73s17.37-38.73,38.73-38.73,38.73,17.36,38.73,38.73-17.37,38.73-38.73,38.73ZM499.99,917.48c-230.2,0-417.49-187.28-417.49-417.49S269.8,82.51,499.99,82.51s417.49,187.29,417.49,417.49-187.28,417.49-417.49,417.49ZM901.88,947.51c-21.36,0-38.73-17.37-38.73-38.73s17.37-38.73,38.73-38.73,38.73,17.36,38.73,38.73-17.37,38.73-38.73,38.73ZM901.88,129.95c-21.36,0-38.73-17.37-38.73-38.73s17.37-38.73,38.73-38.73,38.73,17.37,38.73,38.73-17.37,38.73-38.73,38.73ZM909.33,883.38h-14.91v17.95h-17.95v14.91h17.95v17.95h14.91v-17.95h17.95v-14.91h-17.95v-17.95ZM909.33,65.81h-14.91v17.95h-17.95v14.91h17.95v17.95h14.91v-17.95h17.95v-14.91h-17.95v-17.95ZM105.58,883.38h-14.92v17.95h-17.94v14.91h17.94v17.95h14.92v-17.95h17.95v-14.91h-17.95v-17.95ZM90.66,116.62h14.92v-17.95h17.95v-14.91h-17.95v-17.95h-14.92v17.95h-17.94v14.91h17.94v17.95ZM909.33,901.33v-17.95h-14.91v17.95h-17.95v14.91h17.95v17.95h14.91v-17.95h17.95v-14.91h-17.95ZM909.33,83.76v-17.95h-14.91v17.95h-17.95v14.91h17.95v17.95h14.91v-17.95h17.95v-14.91h-17.95ZM909.33,901.33v-17.95h-14.91v17.95h-17.95v14.91h17.95v17.95h14.91v-17.95h17.95v-14.91h-17.95ZM909.33,83.76v-17.95h-14.91v17.95h-17.95v14.91h17.95v17.95h14.91v-17.95h17.95v-14.91h-17.95Z"/><path class="cls-3" d="M887.1,416.51l-3.26,4.67c-1.09,1.56-2.15,3.13-3.31,4.62l-3.41,4.53c-1.15,1.5-2.23,3.02-3.45,4.47-2.4,2.92-4.74,5.87-7.18,8.7-2.5,2.81-4.94,5.65-7.48,8.39-10.19,10.97-21.16,21.05-32.76,30.15-23.21,18.22-48.9,32.41-75.66,42.19-26.76,9.81-54.59,15.24-82.11,16.34-24.94,1.01-49.64-1.56-73.12-7.4-7.65,21.94-22.68,40.46-42.09,52.56,18.2,15.52,38.3,28.2,59.39,37.7,23.38,10.54,47.97,17.21,72.5,19.97,24.54,2.76,49.01,1.59,72.23-3.22,11.61-2.41,22.91-5.71,33.8-9.83,2.72-1.02,5.39-2.18,8.07-3.24,2.68-1.12,5.29-2.38,7.91-3.55,1.33-.55,2.6-1.27,3.89-1.89l3.86-1.93c1.29-.62,2.53-1.34,3.78-2.02l3.74-2.05,27.76,69.21-5.5,1.49c-1.84.48-3.66,1-5.51,1.4l-5.52,1.28c-1.84.42-3.66.88-5.52,1.21-3.71.69-7.39,1.44-11.1,2.05-3.72.54-7.41,1.15-11.12,1.61-14.84,1.85-29.74,2.53-44.48,2.04-29.47-.96-58.28-6.61-85.07-16.32-26.81-9.69-51.62-23.42-73.4-40.26-19.77-15.28-37.04-33.12-51.27-52.7-15.13,9.07-32.82,14.29-51.71,14.29-4.85,0-9.63-.36-14.3-1.01,3.96,23.57,11.22,46.18,21.26,67.03,11.13,23.1,25.68,44.03,42.71,61.9,17.02,17.88,36.52,32.71,57.4,43.95,10.44,5.63,21.22,10.36,32.21,14.19,2.74.96,5.53,1.81,8.28,2.71,2.76.86,5.57,1.58,8.33,2.38,1.37.42,2.8.68,4.19,1.04l4.19.99c1.39.36,2.8.61,4.2.89l4.19.84-23.22,70.87-5.17-2.41c-1.71-.81-3.45-1.57-5.12-2.46l-5.05-2.56c-1.67-.88-3.38-1.68-5.01-2.63-3.29-1.86-6.6-3.64-9.82-5.56-3.21-1.98-6.42-3.89-9.55-5.92-12.58-8.13-24.42-17.18-35.38-27.02-21.96-19.68-40.4-42.52-54.69-67.17-14.3-24.66-24.48-51.12-30.35-78.03-5.32-24.4-7.08-49.15-5.4-73.29-23.3-3.75-43.96-15.51-59.06-32.35-12.14,20.62-21.13,42.62-26.82,65.06-6.33,24.85-8.63,50.23-7.08,74.87,1.55,24.64,6.95,48.54,15.72,70.56,4.38,11.02,9.6,21.58,15.54,31.57,1.48,2.5,3.08,4.94,4.6,7.39,1.56,2.43,3.25,4.79,4.86,7.17.78,1.2,1.69,2.33,2.54,3.49l2.57,3.46c.84,1.16,1.77,2.26,2.64,3.38l2.68,3.34-63.34,39.35-2.43-5.16c-.79-1.73-1.62-3.43-2.35-5.18l-2.21-5.22c-.72-1.75-1.51-3.45-2.14-5.23-1.33-3.54-2.72-7.02-3.95-10.56-1.18-3.58-2.41-7.1-3.51-10.69-4.41-14.3-7.66-28.84-9.73-43.44-4.18-29.19-3.62-58.54,1.29-86.62,4.89-28.07,14.1-54.89,26.92-79.26,11.6-22.13,26.19-42.24,42.99-59.67-14.64-16.93-23.76-38.78-24.52-62.69-22.54,7.99-43.55,19.07-62.33,32.58-20.82,14.98-38.9,32.93-53.54,52.8-14.67,19.87-25.88,41.66-33.31,64.17-3.72,11.25-6.52,22.69-8.38,34.18-.47,2.86-.82,5.75-1.23,8.61-.37,2.88-.59,5.76-.9,8.63-.17,1.42-.19,2.88-.29,4.31l-.25,4.31c-.11,1.42-.1,2.87-.15,4.29l-.09,4.27-73.82-10.55,1.46-5.52c.49-1.83.96-3.67,1.54-5.47l1.65-5.42c.56-1.8,1.07-3.61,1.71-5.39,1.25-3.56,2.44-7.12,3.77-10.64,1.39-3.48,2.72-6.99,4.17-10.44,5.81-13.78,12.68-27.02,20.47-39.53,15.58-25.05,34.86-47.17,56.66-65.52,21.81-18.36,46.09-32.99,71.58-43.43,23.1-9.48,47.19-15.51,71.25-18.05-.01-.48-.02-.96-.02-1.45,0-23.5,8.08-45.16,21.6-62.33-22.41-8.37-45.64-13.4-68.72-15.11-25.58-1.92-50.97.22-74.96,6.03-24,5.79-46.59,15.27-66.77,27.74-10.09,6.22-19.57,13.19-28.39,20.78-2.21,1.9-4.32,3.9-6.48,5.83-2.12,1.96-4.15,4.04-6.22,6.02-1.05.98-2.01,2.08-3,3.12l-2.96,3.13c-1.01,1.02-1.92,2.12-2.86,3.19l-2.82,3.21-49.77-55.53,4.66-3.28c1.56-1.08,3.09-2.2,4.69-3.2l4.76-3.1c1.59-1.01,3.14-2.08,4.78-3.01,3.24-1.92,6.44-3.9,9.71-5.72,3.32-1.79,6.59-3.62,9.92-5.32,13.32-6.82,27.08-12.55,41.09-17.13,28.02-9.17,57.02-13.72,85.52-13.77,28.51-.05,56.51,4.36,82.75,12.74,23.8,7.59,46.15,18.46,66.22,31.99,14.34-17.57,34.47-30.24,57.47-35.06-11.78-20.79-26.33-39.56-42.9-55.7-18.37-17.92-39.19-32.6-61.31-43.57-22.12-10.98-45.51-18.25-68.98-21.67-11.73-1.72-23.47-2.48-35.1-2.32-2.92.03-5.82.2-8.71.28-2.9.15-5.78.43-8.64.63-1.43.07-2.86.3-4.3.45l-4.29.5c-1.42.14-2.83.39-4.24.61l-4.21.64-2.44-74.53,5.69.48c1.89.18,3.78.3,5.66.56l5.62.68c1.87.26,3.73.43,5.6.75,3.72.62,7.43,1.17,11.12,1.87,3.69.76,7.36,1.45,11.01,2.29,14.58,3.35,28.82,7.8,42.49,13.3,27.37,10.98,52.51,26.14,74.36,44.42,21.87,18.28,40.49,39.66,55.2,62.95,13.35,21.09,23.47,43.77,30.15,67.02,6.15-1.17,12.47-1.79,18.95-1.79,17.21,0,33.43,4.33,47.61,11.95,4.35-23.51,5.27-47.26,2.95-70.28-2.55-25.52-9.06-50.16-18.95-72.77-9.88-22.63-23.13-43.25-38.92-60.94-7.88-8.86-16.39-16.99-25.4-24.35-2.25-1.85-4.58-3.59-6.85-5.38-2.31-1.75-4.7-3.39-7.01-5.08-1.15-.86-2.4-1.61-3.6-2.42l-3.6-2.36c-1.18-.82-2.43-1.53-3.64-2.28l-3.66-2.21,46.06-58.66,4.05,4.03c1.33,1.35,2.7,2.66,3.97,4.06l3.86,4.15c1.28,1.39,2.6,2.72,3.8,4.17,2.46,2.88,4.95,5.68,7.33,8.59,2.33,2.95,4.69,5.85,6.95,8.83,9.03,11.94,17.07,24.49,24.01,37.49,13.9,26.01,23.41,53.79,28.41,81.84,5.01,28.06,5.53,56.41,1.83,83.7-3.34,24.75-10.17,48.63-20.01,70.74,20.02,11.22,35.84,29.07,44.5,50.55,18.44-15.22,34.39-32.81,47.42-51.93,14.45-21.2,25.29-44.25,32.26-67.94s10.07-47.99,9.36-71.69c-.35-11.85-1.63-23.55-3.81-34.98-.54-2.86-1.21-5.69-1.79-8.51-.65-2.82-1.42-5.62-2.12-8.41-.31-1.4-.79-2.77-1.19-4.15l-1.23-4.13c-.39-1.38-.88-2.73-1.33-4.08l-1.38-4.05,72.98-15.33.51,5.69c.16,1.89.36,3.76.43,5.66l.3,5.66c.07,1.88.23,3.75.23,5.65.03,3.78.15,7.53.09,11.28-.11,3.75-.16,7.5-.36,11.23-.74,14.96-2.67,29.73-5.71,44.16-6.06,28.87-16.63,56.26-30.84,80.95-14.21,24.72-32.03,46.77-52.4,65.3-18.47,16.81-39.03,30.71-60.77,41.32,4.25,11.16,6.6,23.25,6.6,35.88,0,10.97-1.77,21.54-5.02,31.44,23.91.2,47.44-3.01,69.7-9.3,24.68-6.94,47.81-17.64,68.37-31.31,20.57-13.66,38.56-30.29,53.25-48.89,7.36-9.31,13.89-19.1,19.58-29.25,1.42-2.53,2.73-5.14,4.1-7.68,1.33-2.57,2.53-5.22,3.78-7.79.66-1.29,1.17-2.65,1.76-3.95l1.71-3.96c.6-1.31,1.08-2.66,1.6-3.98l1.56-3.97,65.75,35.17Z"/></svg>