<?xml version="1.0" encoding="UTF-8"?><svg id="Layer_1" xmlns="http://www.w3.org/2000/svg" viewBox="0 0 503 503.18"><defs><style>.cls-1{fill:#474040;}.cls-1,.cls-2,.cls-3,.cls-4{stroke:#5c4a49;stroke-miterlimit:10;stroke-width:3px;}.cls-2{fill:none;}.cls-5{fill:#7a5653;}.cls-3{fill:#874f4a;}.cls-4{fill:#b3261b;}.cls-6{fill:#a6443d;}</style></defs><g id="pulp"><g id="inner_pulp"><path class="cls-6" d="M228,315.28c-34.86-12.94-69.41-26.41-104.7-38.83,19.52-19.46,47.48-34.79,80.81-42.18,1.42-.42,2.74-.35,2.61-1.82,8.95,26.68,19.27,53.22,29.41,79.7-3.07.16-5.7,3.53-8.14,3.13Z"/><path class="cls-6" d="M228.48,347.94c-19.2,23.46-39.29,46.67-57.74,70.4-28.9-13.12-51.84-31.94-62.72-54.34-.67-.91-.55-1.85-2.72-1.76,39.69-5.97,79.16-12.92,118.53-19.77.23,2.07,5.25,3.83,4.65,5.47Z"/><path class="cls-6" d="M251.86,307.97c-10.39-25.64-21.18-51.24-32.86-76.61,35.62-5.07,72.46-1.89,104.7,9.34-20.92,22.29-41.34,44.8-60.96,67.63-1.32,1.99-9.88.91-10.88-.36h0Z"/><path class="cls-6" d="M276.85,314.56c19.31-23.26,39.14-46.41,57.47-70.01,28.91,13.13,51.84,31.93,62.72,54.34.65.92.56,1.84,2.7,1.76-38.77,5.84-77.31,12.66-115.84,19.22-2.89.53-8.01-3.64-7.06-5.31h0Z"/><path class="cls-6" d="M277.63,347.79c34.58,12.98,69.01,26.32,104.13,38.65-19.47,19.44-47.61,34.82-80.82,42.18-1.36.45-2.76.37-2.61,1.82-8.68-26.08-18.79-52-28.59-77.89-.78-1.94,5.41-5.39,7.89-4.75h0Z"/><path class="cls-6" d="M117.58,283.59c33.78,14.33,68.21,28.12,102.12,42.17.17,1.53-.13,5.43-2.07,6.13-38.12,7.02-76.22,14.22-113.94,22.1-7.44-23.9-2.93-48.77,13.9-70.4h0Z"/><path class="cls-6" d="M253.21,354.92c10.55,25.61,21.15,51.25,32.86,76.61l-4.66-.5c-34.43,5.08-68.07-.98-100.03-8.85,21.33-22.7,41.81-45.87,62.71-68.67,2.28-.11,8.07.08,9.12,1.4h0ZM222.29,398.82c-.87,9.41,8.5,28.23,26.74,21.28,17.75-6.76,16.28-36.81-3.64-39.59-14.84-2.07-22.36,10.29-23.11,18.31Z"/><path class="cls-6" d="M287.44,331c38.11-7.05,76.21-14.25,113.94-22.1,2.65,22.78,3.12,46.26-13.39,67.24l-.51,3.15c-33.16-14.05-66.58-27.87-100.59-41-2.96-.89-1.36-6.62.54-7.3h0ZM309.75,339.44c5.63,10.79,46.86,7.38,40.47-5.23-7.04-9.66-45.15-7.78-40.47,5.23Z"/></g><g id="outter_pulp"><path class="cls-5" d="M176.36,427c34.01,11.9,72.99,15.21,110.55,9.87,10.43,19.28,13.96,18.55,3.25,38.19-44.12,5.93-91.12,1.5-131.51-11.46-2.85-20.99.49-19.3,17.72-36.6h0Z"/><path class="cls-5" d="M326.63,235.36c-28.07-13.17-78.29-17.55-110.55-9.86-10.28-19.01-13.93-18.66-3.25-38.19,44.17-5.97,91.07-1.52,131.54,11.45,2.68,21.13-.2,19.33-17.74,36.6h0Z"/><path class="cls-5" d="M393.99,381.71c17.72-22.88,22.57-49.05,14.67-74.33,28.23-6.9,27.78-9.37,56.8-2.19,8.85,29.69,2.26,61.25-17.05,88.43-31.28,1.92-28.69-.32-54.42-11.91Z"/><path class="cls-5" d="M54.58,268.74c31.28-1.91,28.66.33,54.42,11.92-18.73,13.71-26.25,57.36-14.67,74.33-28.74,7.02-27.49,9.41-56.8,2.19-8.82-29.68-2.26-61.26,17.05-88.44h0Z"/><path class="cls-5" d="M387.63,390.89c.19-.53.27-1.09.31-1.65,9.58,3.37,19.92,5.96,29.32,9.61l12.96,15.65c-25.04,24.25-64.13,46.95-106.66,53.75-22.27-13.54-18.99-13.37-23.71-32.56,33.74-7.26,69.76-24.07,87.79-44.81h0Z"/><path class="cls-5" d="M436.93,294.73c-6.5,1.98-22.15,2.74-29.99,3.94-11.05-22.29-36.58-49.4-69.08-59.24,5-6.44,8.86-13.4,14.29-19.72l23.28-8.74c36.06,16.86,69.81,43.11,79.93,71.74-.74.86-17.25,11.66-18.43,12.01Z"/><path class="cls-5" d="M115.35,271.47c-.19.53-.27,1.08-.31,1.65-9.48-3.34-19.73-5.94-29.11-9.47l-13.2-15.79c25.08-24.25,64.11-46.95,106.69-53.75,22.27,13.56,18.97,13.37,23.7,32.56-33.87,7.27-69.73,24.1-87.77,44.81h0Z"/><path class="cls-5" d="M66.05,367.62c6.52-1.96,22.15-2.74,29.99-3.93,10.93,22.16,36.77,49.51,69.09,59.24-5.02,6.44-8.84,13.4-14.29,19.72l-23.28,8.74c-36.01-16.88-69.85-43.12-79.93-71.74.74-.86,17.25-11.67,18.41-12.02h0Z"/></g></g><g id="dm"><path class="cls-3" d="M314,130.21l-3.57,5.15-9.08,13.13.05.08,12.65-18.29-.05-.08h0Z"/><path class="cls-3" d="M312.4,127.99l-55.05-76.15h-37.6v9.79c-14.48-6.66-35.04-9.79-63.65-9.79h-76.39v10.31l3.83.13c18.58.62,18.58,2.28,18.58,13.06v68.29c0,2.68,0,4.8-.31,6.49-.95,5.18-4.8,6.26-20.5,6.73h-.07l-3.76.12v10.15h61.19c20.25,0,51.59-2.13,75.87-13.33v5.87c1.86-.23,3.73-.44,5.6-.65,4.85-.53,9.8-.98,14.84-1.34.66-.05,1.31-.1,1.96-.14,7.98-.56,16.17-.9,24.59-1.04.79-.02,1.59-.03,2.4-.04,2.67.03,5.32.08,7.95.16,3.56.1,7.08.23,10.56.41v-4.69l-3.69-.25c-10.73-.71-16.41-2.1-19.01-4.63-2.2-2.13-2.94-5.69-2.94-14.1,0-4.96.32-10.9.98-18.26l1.87-26.55,39.85,57.29,1.86,2.67,9.08-13.13,3.57-5.15-1.61-2.22h0ZM209.05,139.43c-13.5,10.26-34.65,15.68-61.16,15.68-24.95,0-24.95-2.79-24.95-12.01V63.38c.92-.04,2.17-.08,3.76-.11,3.64-.08,9.06-.14,16.44-.14,21.22,0,37.64,1.58,50.19,4.81,20.03,6.51,31.98,21.84,31.98,41.01,0,7.14-2.16,13.96-6.25,20-2.58,3.85-5.94,7.37-10.02,10.47h0ZM233.65,148.88l-.05.16s-.02.08-.04.12c-2.61,1.43-7.13,2.46-15.29,2.91l-.29.02c6.8-3.49,12.94-7.76,17.98-12.98-.92,5.01-1.73,8.01-2.32,9.77h0ZM242.67,80.56c-3.63-5.55-8.62-10.41-14.92-14.5-2.32-1.54-4.84-2.95-7.58-4.23l3.2.26c4.85.4,8.5.82,11.24,1.37,3.1,2.31,5.84,4.83,8.2,7.56.07.92.08,1.96.08,3.11,0,1.83-.09,3.99-.23,6.44h0Z"/><path class="cls-3" d="M425.53,150.16v14.42h-73.4v-14.44l5.87-.32c3-.17,8.98-.5,12.63-1.38,1.31-.31,2.32-.7,2.79-1.17,1.28-1.29,1.19-7.48,1.12-12.46l-.76-55.3,20.69-29.92h24.83v14.37l-5.8.38c-5.52.38-11.42.84-14.96,1.78-.15,2.07-.05,4.75.1,7.35v.17l1.75,60.87c.31,7.1.72,11.18,2.04,12.36,2.28,2.06,12.03,2.64,17.27,2.95l5.84.34h0Z"/><g id="shadow"><path class="cls-1" d="M374.53,134.8c.07,4.98.16,11.17-1.12,12.46-.47.47-1.48.86-2.79,1.17.24-2.53.19-5.91.15-8.86l-.76-55.3,23.99-34.69h.46l-20.69,29.92.76,55.3h0Z"/><polygon class="cls-1" points="421.77 164.59 421.77 169.36 348.38 169.36 348.38 154.91 352.13 154.7 352.13 164.59 421.77 164.59"/><path class="cls-1" d="M274.99,156.84c-1.09-.08-2.13-.15-3.12-.24-2.63-.08-5.28-.13-7.95-.16-.8,0-1.61.02-2.4.04-8.42.14-16.62.48-24.59,1.04-.65.04-1.3.09-1.96.14-5.03.36-9.98.81-14.84,1.34-1.88.2-3.75.42-5.6.65v-2.8h-.02l-3.73.21v7.36c1.86-.23,3.73-.44,5.6-.65,4.85-.53,9.8-.98,14.84-1.34.66-.05,1.31-.1,1.96-.14,7.98-.56,16.17-.9,24.59-1.04.79-.02,1.59-.03,2.4-.04,6.29.08,12.46.26,18.51.56v-4.69l-3.69-.25h0Z"/><path class="cls-1" d="M85.05,152.06l-3.82.12v4.65h.07c15.7-.47,19.55-1.55,20.5-6.73-2.94,1.25-8.01,1.7-16.74,1.96ZM212.81,134.66c-13.5,10.26-34.65,15.68-61.16,15.68-24.95,0-24.95-2.79-24.95-12.01V63.27c-1.58.03-2.83.08-3.76.11v79.72c0,9.22,0,12.01,24.95,12.01,26.51,0,47.66-5.42,61.16-15.68,4.08-3.1,7.44-6.63,10.02-10.47-1.84,2.03-3.94,3.94-6.26,5.7ZM159.84,47.07h-76.39v4.77h72.64c28.61,0,49.17,3.13,63.65,9.79v-6.36c-14.22-5.57-33.67-8.2-59.9-8.2h0ZM212.81,134.66c-13.5,10.26-34.65,15.68-61.16,15.68-24.95,0-24.95-2.79-24.95-12.01V63.27c-1.58.03-2.83.08-3.76.11v79.72c0,9.22,0,12.01,24.95,12.01,26.51,0,47.66-5.42,61.16-15.68,4.08-3.1,7.44-6.63,10.02-10.47-1.84,2.03-3.94,3.94-6.26,5.7ZM317.52,125.12l-1.37-1.9-55.05-76.15h-37.6v4.77h33.85l55.05,76.15,1.61,2.22.05.08,3.52-5.09-.06-.08h0ZM212.81,134.66c-13.5,10.26-34.65,15.68-61.16,15.68-24.95,0-24.95-2.79-24.95-12.01V63.27c-1.58.03-2.83.08-3.76.11v79.72c0,9.22,0,12.01,24.95,12.01,26.51,0,47.66-5.42,61.16-15.68,4.08-3.1,7.44-6.63,10.02-10.47-1.84,2.03-3.94,3.94-6.26,5.7Z"/><polygon class="cls-1" points="423.05 44.81 423.05 59.18 419.29 59.43 419.29 49.58 394.47 49.58 397.77 44.81 423.05 44.81"/></g></g><g id="straw"><path class="cls-2" d="M499.03,47.49l-6.98,9.97c-1.26,1.8-3.75,2.25-5.56,1l-38.05-26.31c-1.82-1.25-2.28-3.75-1.01-5.57l2.92-4.23,4-5.78c1.25-1.82,3.75-2.28,5.57-1.01l38.11,26.35c1.83,1.26,2.28,3.77,1,5.59h0Z"/><path class="cls-2" d="M453.76,11.29c1.58,1.1,1.98,3.26.89,4.84l-4.29,6.21-3.21,4.66c-1.1,1.58-3.26,1.98-4.84.89l-.96-.66c-.59-.4-1.18-.78-1.77-1.13,0,0-.02,0-.02-.02-1.48-.85-2.17-2.61-1.6-4.22l2.59-7.26,1.97-5.53c.71-2.01,3.07-2.94,4.94-1.89,1.24.69,2.46,1.44,3.64,2.26l2.69,1.86h0Z"/><path class="cls-2" d="M441.88,4.56c1.09.42,1.63,1.65,1.24,2.74l-2.6,7.29-2.88,8.05c-.41,1.13-1.64,1.7-2.77,1.31h-.02c-1.44-.5-2.9-.85-4.39-1.08-.24-.04-.48-.07-.71-.11-1.14-.15-1.95-1.17-1.86-2.32l.63-7.89.7-8.64c.1-1.23,1.21-2.14,2.43-1.98.17.02.33.05.5.07,3.26.46,6.49,1.3,9.64,2.52.04.02.07.03.11.04h0Z"/><path class="cls-2" d="M425.01,1.56c2.37-.05,4.23,2.01,4.04,4.36l-.53,6.63-.5,6.38c-.16,2-1.77,3.54-3.77,3.7h-.04c-.46.04-.91.09-1.36.15-2.15.29-4.15-1.13-4.54-3.25l-1.22-6.66-1.13-6.13c-.41-2.26,1.13-4.39,3.41-4.72.34-.05.68-.1,1.02-.14,1.54-.19,3.08-.3,4.63-.33v.02Z"/><path class="cls-2" d="M418.73,21.88c.18.97-.38,1.91-1.31,2.25h-.02c-1.36.49-2.68,1.1-3.96,1.83-1.02.59-2.32.21-2.82-.86l-5.75-12.11-1.52-3.21c-.45-.95-.09-2.1.83-2.61,1.37-.76,2.76-1.45,4.19-2.06,1.53-.65,3.1-1.22,4.7-1.7,1.14-.34,2.33.39,2.54,1.56l1.46,7.9,1.66,8.99h0Z"/><path class="cls-2" d="M410.71,25.3c.5,1.05.18,2.29-.73,3.02,0,0,0,0-.02.02-.84.68-1.65,1.41-2.4,2.2-1.02,1.06-2.72,1.03-3.67-.09l-10.16-11.93c-.82-.96-.78-2.4.09-3.31s1.8-1.8,2.75-2.64c1.15-1.02,2.35-1.97,3.59-2.85s2.98-.39,3.64.98l1.09,2.3,5.84,12.3h-.02Z"/><path class="cls-2" d="M404.77,31.49c.56.66.61,1.61.11,2.33h0l-3.43,4.97c-.59.86-1.77,1.07-2.62.48l-6.75-4.66-6.8-4.7c-.86-.59-1.07-1.77-.48-2.62l4.6-6.66c.39-.56.78-1.1,1.19-1.63.41-.53.82-1.06,1.24-1.55.16-.2.32-.38.49-.56l12.46,14.62h0Z"/><polygon class="cls-2" points="400.37 40.33 395.4 47.53 370.79 47.53 383.73 28.82 392.07 34.6 400.37 40.33"/></g><path id="outter" class="cls-4" d="M313.87,165.43l56.16-81.22,1.38-2,22.96-33.19,1.04-1.5h-24.61l-53.27,77.04-3.52,5.09-3.57,5.15-9.08,13.13-3.66,5.29-6.23,9.01c-4.23-.47-8.49-.86-12.78-1.17-8.93-.66-18-1-27.18-1-13.87,0-27.47.77-40.72,2.25C92.07,175.61,1.5,246.02,1.5,330.88c0,94.33,111.93,170.81,250,170.81s250-76.48,250-170.81c0-79.62-79.74-146.52-187.63-165.45h0ZM251.39,485.4c-124.46,0-225.35-68.93-225.35-153.96s100.89-153.96,225.35-153.96c9.72,0,19.29.42,28.69,1.24,7.69.66,15.26,1.59,22.68,2.78,99.71,15.89,173.98,76.99,173.98,149.94,0,85.03-100.89,153.96-225.35,153.96h0Z"/></svg>