<?xml version="1.0" encoding="UTF-8"?><svg id="Layer_1" xmlns="http://www.w3.org/2000/svg" xmlns:xlink="http://www.w3.org/1999/xlink" viewBox="0 0 1000 1000"><defs><style>.cls-1{fill:#0f75bc;}.cls-2{filter:url(#drop-shadow-2);}.cls-3{filter:url(#drop-shadow-1);}.cls-4{fill:#ed1c24;}.cls-5{fill:url(#linear-gradient);}</style><filter id="drop-shadow-1" x="105" y="225" width="394.4" height="530" filterUnits="userSpaceOnUse"><feOffset dx="-20" dy="-10"/><feGaussianBlur result="blur" stdDeviation="5"/><feFlood flood-color="#000" flood-opacity=".75"/><feComposite in2="blur" operator="in"/><feComposite in="SourceGraphic"/></filter><filter id="drop-shadow-2" x="500" y="225" width="395" height="530" filterUnits="userSpaceOnUse"><feOffset dx="20" dy="-10"/><feGaussianBlur result="blur-2" stdDeviation="5"/><feFlood flood-color="#000" flood-opacity=".75"/><feComposite in2="blur-2" operator="in"/><feComposite in="SourceGraphic"/></filter><linearGradient id="linear-gradient" x1="0" y1="500" x2="1000" y2="500" gradientUnits="userSpaceOnUse"><stop offset="0" stop-color="#ed1c24"/><stop offset="1" stop-color="#0f75bc"/></linearGradient></defs><g class="cls-3"><path class="cls-4" d="M347.25,735.82l-64.48-143.87c-2.21-4.92-9.56-3.35-9.56,2.05v132.01c0,13.25-10.74,23.99-23.99,23.99h-85.22c-13.25,0-23.99-10.74-23.99-23.99v-452.02c0-13.25,10.74-23.99,23.99-23.99h174.01c34.4,0,63.8,7.18,88.2,21.54,24.39,14.37,42.69,33.9,54.9,58.62,12.2,24.72,18.3,52.61,18.3,83.69,0,33.43-7.9,63.1-23.7,88.98-14.92,24.45-35.99,42.39-63.2,53.83-2.64,1.11-3.82,4.2-2.58,6.78l86.61,179.4c1.6,3.32-.82,7.17-4.5,7.17h-122.9c-9.45,0-18.02-5.55-21.89-14.18ZM273.2,461.1c0,2.76,2.24,5,5,5h47.8c12.8,0,22.4-3.41,28.8-10.24,6.39-6.82,9.6-17.53,9.6-32.13,0-13.18-3.3-23.54-9.9-31.07-6.6-7.53-16.11-11.3-28.5-11.3h-47.8c-2.76,0-5,2.24-5,5v74.75Z"/></g><g class="cls-2"><path class="cls-1" d="M860,275.43v449.14c0,14.04-11.38,25.43-25.43,25.43h-71.16c-14.04,0-25.43-11.38-25.43-25.43v-169.49h-115.97v169.49c0,14.04-11.38,25.43-25.43,25.43h-91.59c-2.76,0-5-2.24-5-5v-469.57c0-14.04,11.38-25.43,25.43-25.43h71.16c14.04,0,25.43,11.38,25.43,25.43v154.66h115.97v-154.66c0-14.04,11.38-25.43,25.43-25.43h71.16c14.04,0,25.43,11.38,25.43,25.43Z"/></g><path class="cls-5" d="M500,60c59.43,0,117.04,11.63,171.25,34.55,52.39,22.16,99.45,53.89,139.88,94.32,40.43,40.43,72.16,87.49,94.32,139.88,22.93,54.21,34.55,111.82,34.55,171.25s-11.63,117.04-34.55,171.25c-22.16,52.39-53.89,99.45-94.32,139.88-40.43,40.43-87.49,72.16-139.88,94.32-54.21,22.93-111.82,34.55-171.25,34.55s-117.04-11.63-171.25-34.55c-52.39-22.16-99.45-53.89-139.88-94.32-40.43-40.43-72.16-87.49-94.32-139.88-22.93-54.21-34.55-111.82-34.55-171.25s11.63-117.04,34.55-171.25c22.16-52.39,53.89-99.45,94.32-139.88,40.43-40.43,87.49-72.16,139.88-94.32,54.21-22.93,111.82-34.55,171.25-34.55M500,0C223.86,0,0,223.86,0,500s223.86,500,500,500,500-223.86,500-500S776.14,0,500,0h0Z"/></svg>