<?xml version="1.0" encoding="UTF-8"?><svg id="Layer_1" xmlns="http://www.w3.org/2000/svg" viewBox="0 0 280.01 292.56"><defs><style>.cls-1{fill:#292828;}.cls-2{fill:#ceaf52;}.cls-3{fill:#333;}</style></defs><g id="Gambling"><g id="Chip_black_"><circle class="cls-3" cx="140.01" cy="142" r="140"/><circle class="cls-2" cx="140.01" cy="142" r="82.07"/><path class="cls-1" d="M140.01,50.28c50.66,0,91.72,41.07,91.72,91.72s-41.07,91.72-91.72,91.72-91.72-41.07-91.72-91.72,41.07-91.72,91.72-91.72M140.01,40.62c-55.9,0-101.38,45.48-101.38,101.38s45.48,101.38,101.38,101.38,101.38-45.48,101.38-101.38-45.48-101.38-101.38-101.38h0Z"/><path class="cls-2" d="M140.01,2c-8.24,0-16.29.75-24.14,2.12v22.26c0,3.67,3.24,6.53,6.86,5.95,5.63-.89,11.4-1.37,17.27-1.37s11.64.47,17.27,1.37c3.62.57,6.86-2.29,6.86-5.95V4.12c-7.85-1.36-15.9-2.12-24.14-2.12Z"/><path class="cls-2" d="M115.87,257.62v22.26c7.85,1.36,15.9,2.12,24.14,2.12s16.29-.75,24.14-2.12v-22.26c0-3.67-3.24-6.53-6.86-5.95-5.63.89-11.4,1.37-17.27,1.37s-11.64-.47-17.27-1.37c-3.62-.57-6.86,2.29-6.86,5.95Z"/><path class="cls-2" d="M280.01,142c0-8.24-.75-16.29-2.12-24.14h-22.26c-3.67,0-6.53,3.24-5.95,6.86.89,5.63,1.37,11.4,1.37,17.27s-.47,11.64-1.37,17.27c-.57,3.62,2.29,6.86,5.95,6.86h22.26c1.36-7.85,2.12-15.9,2.12-24.14Z"/><path class="cls-2" d="M24.38,117.86H2.12C.76,125.71,0,133.76,0,142s.75,16.29,2.12,24.14h22.26c3.67,0,6.53-3.24,5.95-6.86-.89-5.63-1.37-11.4-1.37-17.27s.47-11.64,1.37-17.27c.57-3.62-2.29-6.86-5.95-6.86Z"/><path class="cls-2" d="M239,43c-5.82-5.82-12.05-10.99-18.56-15.57l-15.74,15.74c-2.59,2.59-2.32,6.91.64,9.06,4.61,3.35,9.02,7.09,13.18,11.25,4.16,4.16,7.9,8.57,11.25,13.18,2.15,2.97,6.47,3.23,9.06.64l15.74-15.74c-4.58-6.51-9.75-12.74-15.57-18.56Z"/><path class="cls-2" d="M41.18,206.69l-15.74,15.74c4.58,6.51,9.75,12.74,15.57,18.56,5.82,5.82,12.05,10.99,18.56,15.57l15.74-15.74c2.59-2.59,2.32-6.91-.64-9.06-4.61-3.35-9.02-7.09-13.18-11.25-4.16-4.16-7.9-8.57-11.25-13.18-2.15-2.97-6.47-3.23-9.06-.64Z"/><path class="cls-2" d="M239,241c5.82-5.82,10.99-12.05,15.57-18.56l-15.74-15.74c-2.59-2.59-6.91-2.32-9.06.64-3.35,4.61-7.09,9.02-11.25,13.18-4.16,4.16-8.57,7.9-13.18,11.25-2.97,2.15-3.23,6.47-.64,9.06l15.74,15.74c6.51-4.58,12.74-9.75,18.56-15.57Z"/><path class="cls-2" d="M75.32,43.17l-15.74-15.74c-6.51,4.58-12.74,9.75-18.56,15.57-5.82,5.82-10.99,12.05-15.57,18.56l15.74,15.74c2.59,2.59,6.91,2.32,9.06-.64,3.35-4.61,7.09-9.02,11.25-13.18,4.16-4.16,8.57-7.9,13.18-11.25,2.97-2.15,3.24-6.47.64-9.06Z"/><circle class="cls-2" cx="28.5" cy="188.19" r="7.24"/><circle class="cls-2" cx="251.51" cy="95.81" r="7.24"/><circle class="cls-2" cx="93.82" cy="30.49" r="7.24"/><circle class="cls-2" cx="186.19" cy="253.51" r="7.24"/><circle class="cls-2" cx="28.5" cy="95.81" r="7.24"/><circle class="cls-2" cx="251.51" cy="188.19" r="7.24"/><circle class="cls-2" cx="186.19" cy="30.49" r="7.24"/><circle class="cls-2" cx="93.82" cy="253.51" r="7.24"/><path class="cls-2" d="M221.01,81.3l-8.37,4.83c4.9,6.36,9.03,13.34,12.14,20.86l8.42-4.86c-3.21-7.47-7.36-14.42-12.18-20.84Z"/><path class="cls-2" d="M175.01,57.23c7.53,3.11,14.5,7.24,20.86,12.14l4.83-8.37c-6.42-4.82-13.37-8.98-20.84-12.18l-4.86,8.42Z"/><path class="cls-2" d="M127.94,41.41v9.75c3.96-.52,7.97-.88,12.07-.88s8.11.36,12.07.88v-9.75c-3.97-.47-7.98-.79-12.07-.79s-8.1.31-12.07.79Z"/><path class="cls-2" d="M231.73,142c0,4.1-.36,8.11-.88,12.07h9.75c.47-3.97.79-7.98.79-12.07s-.31-8.1-.79-12.07h-9.75c.52,3.96.88,7.97.88,12.07Z"/><path class="cls-2" d="M48.28,142c0-4.1.36-8.11.88-12.07h-9.75c-.47,3.97-.79,7.98-.79,12.07s.31,8.1.79,12.07h9.75c-.52-3.96-.88-7.97-.88-12.07Z"/><path class="cls-2" d="M84.14,69.37c6.36-4.9,13.34-9.03,20.86-12.14l-4.86-8.42c-7.47,3.21-14.42,7.36-20.84,12.18l4.83,8.37Z"/><path class="cls-2" d="M233.19,181.86l-8.42-4.86c-3.11,7.53-7.24,14.5-12.14,20.86l8.37,4.83c4.82-6.42,8.98-13.37,12.18-20.84Z"/><path class="cls-2" d="M152.08,242.59v-9.75c-3.96.52-7.97.88-12.07.88s-8.11-.36-12.07-.88v9.75c3.97.47,7.98.79,12.07.79s8.1-.31,12.07-.79Z"/><path class="cls-2" d="M195.88,214.63c-6.36,4.9-13.34,9.03-20.86,12.14l4.86,8.42c7.47-3.21,14.42-7.36,20.84-12.18l-4.83-8.37Z"/><path class="cls-2" d="M105,226.77c-7.53-3.11-14.5-7.24-20.86-12.14l-4.83,8.37c6.42,4.82,13.37,8.98,20.84,12.18l4.86-8.42Z"/><path class="cls-2" d="M67.38,197.87c-4.9-6.36-9.03-13.34-12.14-20.86l-8.42,4.86c3.21,7.47,7.36,14.42,12.18,20.84l8.37-4.83Z"/><path class="cls-2" d="M46.82,102.13l8.42,4.86c3.11-7.53,7.24-14.5,12.14-20.86l-8.37-4.83c-4.82,6.42-8.98,13.37-12.18,20.84Z"/><path class="cls-3" d="M139.52,82.54l15.64,15.99c10.36,8.81,35.59,25.48,38.43,39.42,3.88,19.01-14.2,43.11-34.58,35.55-6.9-2.56-10.06-9.46-16.57-11.16,4.09,15.93,13.99,28.93,28.22,36.97v1.95c-10.14.46-20.92,0-31.14,0s-20.33.44-30.17,0v-1.95c13.3-9.59,25.28-20.99,28.22-37.95-.89-.96-11.15,9.19-12.71,10.15-20.94,12.75-42.68-12.72-38.43-33.56,3.89-19.05,42.18-38.73,53.09-55.41Z"/></g></g></svg>