<?xml version="1.0" encoding="UTF-8"?>
<svg id="Layer_1" xmlns="http://www.w3.org/2000/svg" version="1.1" viewBox="0 0 500 500">
  <!-- Generator: Adobe Illustrator 29.3.1, SVG Export Plug-In . SVG Version: 2.1.0 Build 151)  -->
  <defs>
    <style>
      .st0 {
        fill: #012f5d;
      }

      .st1 {
        fill: #b00809;
      }

      .st2 {
        fill: #c9c8c8;
      }

      .st3 {
        fill: #fdfdfd;
      }
    </style>
  </defs>
  <path class="st0" d="M500,236.6c-.1,0-.2-.2-.3-.3,0,0-.1-.1-.1-.2-.2-.2-.3-.5-.4-.8-.5-1.4,0-3.2,0-4.6h0C492.8,110.5,388.8,8.6,269.5,1.2c-.3,0-.7,0-1,0-.5,0-1,0-1.5,0-.5,0-1,0-1.5,0-.2,0-.3,0-.5-.1,0,0-.1,0-.2,0-.2,0-.4-.2-.6-.3-.1,0-.2-.2-.3-.2-.1,0-.2-.2-.3-.3h-27.3l-5.9,1C11,18.3-80.8,292.1,85,438.2c152.8,134.7,403.5,34.6,414-168.4h0c0-1.9-.7-4.6,1-5.9h0v-27.3h0ZM443.4,288.3c.2.3.3.7.4,1h0c.2.5.4.9.5,1.3,0,.1,0,.3.1.4.1.4.2.8.3,1.1h0c0,.4.2.8.2,1.1,0,.5.1,1,0,1.3,0,.1,0,.3,0,.4,0,.2-.2.4-.3.6-.1.1-.3.2-.5.3-.7.3-1.9,0-3.2-.5,0,0,0,0,0,0-.3-.1-.7-.3-1-.5h0c-.8-.4-1.6-.8-2.4-1.2-.6-.3-1.2-.7-1.8-1-.2-.1-.4-.2-.6-.3-1.2-.7-2.3-1.3-3.3-1.9,0,0-.1,0-.2,0h0c-.2,1.5-.4,2.9-.7,4.3,0,.6-.2,1.1-.3,1.7-.1.6-.2,1.2-.4,1.8-.2.9-.4,1.8-.7,2.6-.2.7-.3,1.3-.5,2-.1.5-.3,1-.4,1.4-.1.5-.3.9-.4,1.4-.1.5-.3.9-.5,1.4-.3.9-.6,1.9-1,2.8-.2.5-.3.9-.5,1.4-.5,1.4-1.1,2.8-1.6,4.1-.7,1.6-1.4,3.3-2.1,4.9-.7,1.5-1.4,3.1-2.1,4.6-.4.9-.8,1.7-1.3,2.6-.3.6-.6,1.2-.9,1.8-.6,1.1-1.1,2.2-1.7,3.3-2.2,4.5-4.4,8.9-6.5,13.5-.4,1-.9,1.9-1,2.9.4.4.7.7,1.1,1.1.2.2.4.4.6.6.4.4.7.7,1.1,1.1.3.2.5.5.8.8.5.4.9.9,1.4,1.3,1.7,1.6,3.3,3.2,4.8,5,.2.2.3.3.5.5.3.3.5.6.8,1,.2.2.4.5.6.8.2.2.4.5.6.8.4.5.7,1,1.1,1.6.3.5.7,1.1.9,1.6.1.2.2.5.4.7.2.5.5,1,.7,1.5h0c.2.5.4,1,.5,1.6.2.8.4,1.6.6,2.5.2,1,.2,2,.2,3.1h0c0,1.8,1,3.4.8,5.2l-3.8,2.2c-.7-1-1.3-2-2-3-.4-.6-.8-1.1-1.2-1.7,0,0-.1-.2-.2-.2-.4-.5-.8-1-1.2-1.5-.3-.4-.6-.8-.9-1.1-.9-1.1-1.8-2.2-2.8-3.3-.3-.3-.5-.6-.8-.9-1.1-1.2-2.2-2.4-3.3-3.5-.4-.4-.9-.9-1.3-1.3-.8-.8-1.7-1.7-2.6-2.5,0,0,0,0-.1-.1-.8-.8-1.6-1.5-2.5-2.3,0,0-.2-.2-.3-.2-1.7-1.5-3.4-3.1-5.1-4.6-1.3-1.2-2.7-2.4-4-3.6-.7-.6-1.3-1.2-2-1.8-1.6-1.4-3.1-2.8-4.6-4.2-1.8-1.6-3.5-3.3-5.2-5-.4-.4-.8-.8-1.2-1.2-.4-.4-.8-.8-1.1-1.2,0,0,0,0,0,0,0,0-.1-.1-.2-.2-.5-.6-1-1.2-1.6-1.9-.7-.9-1.4-1.8-2.1-2.7-.6-.7-1.1-1.5-1.7-2.2-.8-1-1.5-1.9-2.3-2.8-.8-1-1.7-1.9-2.5-2.8h0c-.5-.6-1.2-1.3-1.9-2s-.3-.4-.5-.5c-.5-.5-1-1-1.4-1.4h0s0,0,0,0c-2.2-2-4.5-4-6.8-5.9h0c0,.6,0,1.3,0,1.9h0s0,0,0,0c3.7,10.2,6.7,20.6,8.8,31.2h0c0,.2,0,.3.1.4,0,.2,0,.3.1.5,0,.2.1.4.2.5,0,.2.1.4.2.6,0,.2.1.4.2.6,0,.2.1.4.2.7,0,.2,0,.3,0,.5h0c2.9,17.4,3.9,36.1,2.9,53.7-.8,14.2-3.1,25.5-6.7,33.9-.3.7-.5,1.3-.8,1.9-.3.6-.6,1.2-.9,1.8-.3.6-.6,1.1-.9,1.7-.3.5-.7,1.1-1,1.6-.2.3-.3.5-.5.8-.3.5-.7,1-1,1.4-13,16.9-35.4,10.8-61.4-18.2-.3-.2-.5-.3-.8-.3s-.4,0-.6.1c-.6.2-1.1.7-1.4.7h0c-.2,0-.5,0-.7,0-.4,0-.8,0-1.2,0-.4,0-.8,0-1.2.1-.3,0-.7,0-1,.1-.4,0-.8,0-1.1.2s-.8.1-1.2.2c-.3,0-.6.1-.9.2-.3,0-.6.1-.9.2-.8.2-1.6.3-2.4.5-.7.2-1.5.3-2.2.5-.7.2-1.5.3-2.2.5-1.2.2-2.3.5-3.5.8-.5,0-.9.2-1.4.3-.9.2-1.8.4-2.7.5-.4,0-.9.2-1.3.2-1.7.3-3.4.5-5,.6-21.6,1.4-45.2,0-65.9-6.8h0c-.8.9-1.8,1.8-2.7,2.8-.4.4-.8.8-1.2,1.2s-.8.8-1.2,1.2c-1.7,1.7-3.5,3.4-5.5,5.1-1.7,1.5-3.5,3.1-5.3,4.6-.8.7-1.6,1.3-2.4,1.9,0,0,0,0,0,0-.5.4-1.1.8-1.6,1.2-.6.4-1.1.8-1.7,1.2-.8.6-1.7,1.2-2.5,1.8-.3.2-.6.4-.9.6-.6.4-1.1.8-1.7,1.1-.3.2-.6.4-.9.5-.6.4-1.1.7-1.7,1-1.2.7-2.3,1.3-3.5,2-.6.3-1.2.6-1.7.9-.3.2-.6.3-.9.4-.6.3-1.2.5-1.7.8-.3.1-.6.2-.9.4-.9.3-1.7.7-2.6.9-.8.3-1.6.5-2.4.7-3.8,1-7.5,1.2-11,.6-.8-.1-1.5-.4-2.3-.7-.2-.1-.5-.2-.7-.3-.8-.4-1.6-.8-2.3-1.3-.4-.2-.8-.5-1.1-.8-.4-.3-.7-.6-1.1-.9-.2-.2-.4-.3-.5-.5-.4-.3-.7-.7-1.1-1-.2-.2-.3-.4-.5-.5-.4-.4-.7-.8-1-1.1-.3-.4-.7-.8-1-1.2-.5-.6-1-1.3-1.4-2-.5-.7-.9-1.3-1.4-2.1h0c-.3-.5-.6-1-.9-1.4-.1-.2-.3-.5-.4-.8-.3-.5-.6-1-.8-1.5t0,0c-.4-.8-.8-1.5-1.2-2.3t0,0c-.3-.6-.6-1.3-.9-2-.3-.7-.6-1.3-.8-2h0c-.5-1.3-1-2.7-1.4-4-.9-2.7-1.5-5.4-2-7.9,0-.5-.2-1-.2-1.5-.5-3.3-.5-6.4,0-8.9,0,0,0,0,0-.1,0,0,0,0,0-.1,0-.1,0-.3.1-.4,0,0,0,0,0,0,0,0,0,0,0-.1,2.1-7.1-.8-7.6-1.2-17.7-.6-2.7-1.4-7.1-1.7-10.6,0,0,0,0,0,0-.1-1.2-.2-2.2-.2-3h0s-23.4-27.3-23.4-27.3c-.3.2-.5.5-.8.7-.5.5-1.1.9-1.7,1.4-2.6,2.1-5.4,3.9-7.9,6.2-.3.2-.5.5-.8.8,0,0-.2.2-.2.2-.2.2-.3.3-.4.5,0,0-.1.1-.2.2-.2.2-.4.5-.6.7-.2.3-.5.6-.7.9,0,0,0,0,0,0l-3.1-2.6c-.2-1.8.8-3.4.8-5.2h0c0-10.3,1.8-6.9,7.8-13.7h0c0,0,0-.1,0-.2,0-.3,0-.7,0-1,0,0,0-.1,0-.2,0,0,0,0,0,0,0-.1,0-.2,0-.3,0,0,0-.1,0-.2h0c-1.1-2.8-2.3-5.5-3.7-8.3-.5-1.1-1.1-2.2-1.6-3.4-1-2.1-2.1-4.2-3.2-6.3-.4-.7-.7-1.4-1.1-2.1-.6-1.1-1.2-2.3-1.7-3.4-.5-1.1-1.1-2.2-1.6-3.2-.5-1.1-1-2.2-1.5-3.3-.8-1.8-1.6-3.7-2.3-5.5,0-.3-.2-.5-.3-.8-.2-.6-.5-1.2-.7-1.8-.2-.4-.3-.8-.4-1.3-.2-.5-.4-1.1-.5-1.7,0-.1,0-.3-.1-.4-.2-.5-.3-1.1-.5-1.6-.2-.5-.3-1.1-.4-1.7-.1-.5-.3-1.1-.4-1.6,0-.3-.1-.6-.2-.8,0-.4-.2-.8-.2-1.1,0-.2,0-.5-.1-.8,0-.5-.2-1-.2-1.5,0-.5-.1-1-.2-1.5,0-.1,0-.3,0-.5,0-.2,0-.3,0-.5,0-.3,0-.5,0-.8,0,0,0,0,0,0,0,0,0,0,0,0,0-.3,0-.5,0-.8,0,0,0,0,0-.1,0-.5,0-1,0-1.6-.4.2-.7.4-1.1.6-.3.2-.6.3-.9.5-2,1.2-3.9,2.5-5.9,3.6-.2.1-.4.2-.7.4-.2.1-.5.2-.7.4-.2.1-.5.2-.7.3-.2,0-.4.2-.5.2-.5.2-1.1.4-1.6.6h0s-.6-7.6-.6-7.6c0,0,0,0,0,0-.1-.1-.3-.2-.4-.3-.2-.2-.4-.4-.6-.7,0-.1-.1-.2-.2-.3,0,0,0-.1,0-.2,0-.2-.1-.4-.1-.6,0,0,0-.2,0-.3h0c0-.3,0-.4,0-.5,0-.2,0-.4.2-.6,0,0,0-.2.1-.3.1-.3.3-.6.5-.9h0c.2-.4.5-.8.9-1.3,1.4-1.7,3.4-3.4,5.2-4.8.3-.2.6-.5.9-.7.3-.2.6-.4.9-.6.4-.3.8-.6,1.2-.8.1,0,.2-.2.4-.2.3-.2.6-.4.9-.6,0,0,0,0,0,0,0,0-.1-.2-.2-.3,0,0-.1-.2-.2-.3,0,0,0-.2-.1-.3,0,0,0-.2-.1-.3,0-.1,0-.2,0-.3,0-.3-.1-.5-.2-.8,0-.1,0-.3,0-.4,0-.2,0-.4,0-.5,0-.6,0-1.1,0-1.7h0c0-1.2-.1-2.4-.1-3.6,0-.9,0-1.8,0-2.7,0-.9,0-1.8,0-2.7,0-.9,0-1.8,0-2.7,0-2.1,0-4.2,0-6.3,0,0,0,0,0,0,0,0,0,0,0,0,0,0,0-.1,0-.2,0-2.3,0-4.5.2-6.8,0-.2,0-.5,0-.7,0-.9,0-1.9.1-2.8,0-1.2.1-2.3.2-3.5,0-.7,0-1.3.1-2,0-.3,0-.7,0-1,0-1,.2-2,.3-3,0-.2,0-.4,0-.7.1-1.2.2-2.5.4-3.7.2-1.2.3-2.4.5-3.6.2-1.2.3-2.4.5-3.7.3-1.8.6-3.6.9-5.4h0c.2-1.2.5-2.4.7-3.6t0,0c.2-1.2.5-2.4.8-3.5h0c.2-.9.4-1.8.6-2.7.2-.9.4-1.8.6-2.7.3-1.2.6-2.3.9-3.5.2-.6.3-1.2.5-1.8.5-1.8,1-3.5,1.6-5.2.2-.6.4-1.2.6-1.7.6-1.7,1.2-3.4,1.8-5.2h0c.4-1.1.9-2.3,1.3-3.4h0c.7-1.7,1.4-3.4,2.1-5.1t0,0c.7-1.7,1.5-3.3,2.3-5,.3-.6.5-1.1.8-1.7.6-1.1,1.1-2.2,1.7-3.3.9-1.8,1.9-3.5,2.9-5.2.2-.4.5-.9.8-1.3.6-1.1,1.3-2.2,2-3.2.7-1.1,1.3-2.1,2-3.2h0c.5-.8,1-1.6,1.6-2.4,1.6-2.4,3.3-4.7,5.1-7.1.6.7,1.2,1.4,1.9,2.1.7.8,1.4,1.6,2.1,2.4.6.6,1.2,1.2,1.7,1.9,1,1,1.9,2,2.9,3,.9,1,1.9,1.9,2.8,2.9,5,5,10.3,10,15.7,14.9,2.6,2.4,5.2,4.8,7.9,7.2,1.1,1,2.2,2.1,3.4,3.1,1.5,1.4,3,2.8,4.4,4.2.7.7,1.5,1.4,2.2,2.1.5.5,1,.9,1.5,1.4.2.2.5.5.7.7,1.4,1.4,2.9,2.8,4.3,4.2.7.7,1.4,1.4,2.1,2.1.7.7,1.4,1.4,2,2.1.7.7,1.4,1.4,2,2.1.7.7,1.3,1.4,2,2.1.6.6,1.1,1.2,1.6,1.8,1.3,1.4,2.5,2.9,3.7,4.4.4.5.8.9,1.1,1.4.3.4.6.7.9,1.1h0c.2.3.5.5.7.7,0,0,.2.2.2.2h0s0,0,0,0h0c13.4-5.4,36-5.4,38.1-22.5h0s0,0,0,0h0c-.3-.6-.6-1.2-.9-1.8-.2-.5-.5-.9-.7-1.4-1.1-2.1-2.2-4.1-3.4-6.1-.3-.4-.5-.9-.8-1.3-.5-.8-1-1.6-1.5-2.4-1-1.6-2-3.1-3-4.7-.5-.8-1-1.5-1.5-2.3-.6-.9-1.1-1.7-1.7-2.5-2.1-3.2-4.3-6.2-6.5-9.3-1-1.4-2-2.8-2.9-4.2-7.8-11.2-15.4-22.7-21.1-37.3l-18.5-18.1,10.7-6.3h0c-3.9-8.5-6.8-12.8-12.7-20-.3-.3-.5-.6-.8-.9-.5-.5-1-1-1.4-1.5-.2-.1-.3-.3-.5-.4-.2-.2-.5-.5-.8-.7-1.7-1.4-3.3-2.6-4.8-3.8-.2-.1-.4-.3-.6-.5-.3-.3-.7-.5-1-.8-.2-.2-.5-.4-.7-.6-.2-.2-.4-.4-.7-.6,0,0-.2-.2-.3-.3-.2-.2-.5-.5-.7-.8-.2-.2-.3-.4-.5-.6-.2-.3-.5-.7-.7-1.1,0-.1-.1-.3-.2-.4,0,0,0-.1,0-.2,0,0,0-.2-.1-.3-.3-.8-.6-1.6-.8-2.6,0-.2,0-.3,0-.5,0-.2,0-.3,0-.5,0-.2,0-.3,0-.5v-.4c0-.1,0-.3,0-.4,0-.8,0-1.7,0-2.6h0c0-.9-2.4-3.7,0-5.5l5,1h0s0,0,0,0c11.7,11.9,24.8,23.7,31.2,39.6.1,0,.2,0,.4,0,.6,0,1.2.2,1.6,0h0c53.5-20.4,103.2-34.7,159.2-6.8.6.3,1.3.7,1.9,1h0s0,0,0,0c.3-.7.8-1.5,1.3-2.4.2-.3.4-.6.6-.9h0c.3-.5.6-1.1,1-1.6.2-.3.4-.6.5-.9.3-.4.5-.9.9-1.3.3-.4.6-.8.9-1.3.2-.3.3-.5.5-.8t0,0c1.4-2,2.9-4.2,4.6-6.4h0c.6-.8,1.3-1.7,1.9-2.5t0,0c.9-1.1,1.8-2.2,2.7-3.4h0c2-2.5,4.2-5,6.3-7.2t0,0c.4-.4.7-.8,1.1-1.1s.4-.4.6-.6c.2-.2.4-.4.5-.5.2-.2.4-.4.5-.5.4-.3.7-.7,1.1-1h0c.6-.5,1.1-1,1.7-1.5.5-.4,1-.8,1.4-1.2.2-.2.4-.3.6-.5.2-.1.4-.3.6-.4.2-.1.4-.3.5-.4.2-.1.3-.2.5-.4,2.6-1.8,5.1-2.8,7.1-2.7l3.3,3.1h0c-.2.9-2.7,2.6-3.7,3.4l2.8,5.7h0c-.4.2-.9.4-1.3.6h0c-.5.3-1.1.5-1.6.8-1,.6-2,1.2-3,1.8-.5.3-1,.6-1.5,1h0c-.6.4-1.1.8-1.7,1.2-.9.7-1.8,1.5-2.7,2.2h0c-1,.9-2,1.9-3,2.9-.3.3-.7.7-1,1-.6.7-1.2,1.4-1.9,2.1h0c-4.9,5.8-8.9,12.3-12.5,18.6,10.6,5.1,20.6,11.3,29.8,18.4,1.7,1.3,3.3,2.6,5,4,1.6,1.3,3.2,2.7,4.8,4.2,1.6,1.4,3.2,2.9,4.7,4.3.8.7,1.5,1.5,2.3,2.2,36.2,35.8,57.5,87.1,55.6,138.1-.1,3-.3,6.1-.6,9.1-.3,3-.6,6.1-1.1,9.1,0,.6,0,1.3,0,1.9h0c0,0,.2.1.3.2.1,0,.2.2.4.2,0,0,.2.1.3.2.2.1.4.2.6.4h0c.2.1.5.3.7.5.3.2.5.3.8.5.1,0,.3.2.4.3h0c.3.2.7.5,1,.7.7.5,1.4,1,2.1,1.6h0c.3.3.6.5.9.8,0,0,0,0,0,0,.5.4.9.8,1.3,1.2,1.1,1.1,1.9,2.2,2.2,3.1.4,1.3-.2,2.3-2.3,2.9Z"/>
  <path class="st2" d="M269.5.3v1c-1.8-.1-4.5.8-5.9-1h5.9Z"/>
  <path class="st2" d="M500,269.8h-1c.1-1.8-.7-4.6,1-5.9v5.9Z"/>
  <path class="st2" d="M500,236.6c-1.7-1.3-.9-4-1-5.9h1v5.9Z"/>
  <polygon class="st2" points="236.4 .3 230.5 1.2 230.5 .3 236.4 .3"/>
  <path class="st3" d="M300.7,198.4c1.8.9,3.7,1.8,5.5,2.6-1.9-.8-3.7-1.7-5.5-2.6Z"/>
  <path class="st3" d="M383.5,242.3c3,2.8,5.9,5.5,9,8-3.1-2.5-6-5.2-9-8Z"/>
  <path class="st3" d="M392.4,250.4c1.2.9,2.3,1.8,3.5,2.7-1.2-.9-2.4-1.8-3.5-2.7Z"/>
  <path class="st3" d="M407.5,260.3c1.9,1,3.9,2,5.8,2.9-1.9-.9-3.9-1.9-5.8-2.9Z"/>
  <path class="st3" d="M427.5,269.8c-2-1-3.9-1.9-5.9-2.8,2,.9,3.9,1.8,5.9,2.8Z"/>
  <path class="st3" d="M210.7,156.3c.3.5.6,1,1,1.5-.4-.5-.7-.9-1-1.5Z"/>
  <path class="st3" d="M211.7,157.8c.4.4.8.9,1.2,1.2-.4-.3-.8-.8-1.2-1.2Z"/>
  <path class="st3" d="M217.1,103.2c-9.2,9.3-2.2,18.4-3.7,27.1-.5,2.8-4.9,6.5-5.4,12.1-.3,3.5.3,9.8,2.7,13.9-2.4-4.2-3-10.4-2.7-13.9.5-5.6,4.9-9.4,5.4-12.1,1.6-8.7-5.5-17.8,3.8-27.1Z"/>
  <polygon class="st3" points="215.8 160.5 215.8 160.5 211.5 166.3 211.5 166.3 211.5 166.3 215.8 160.5"/>
  <path class="st3" d="M232.8,97.1c.5-.5.9-1.3,1.4-2.3-.5,1-.9,1.8-1.4,2.3Z"/>
  <path class="st3" d="M293.5,180.9c13.5-20.1,13.4-44.3,17.2-67.5-3.8,23.2-3.7,47.3-17.2,67.5Z"/>
  <path class="st3" d="M310.7,113.4c.4-2.2.8-4.4,1.2-6.6-.4,2.2-.8,4.4-1.2,6.6Z"/>
  <path class="st3" d="M311.8,106.8c.3-1.6.7-3.3,1.1-4.9-.4,1.6-.8,3.3-1.1,4.9Z"/>
  <path class="st3" d="M317,89.1c.6-1.6,1.3-3.1,2-4.7-.7,1.5-1.4,3.1-2,4.7Z"/>
  <path class="st3" d="M322.3,78.4c-1.2,2-2.3,4-3.3,6.1,1-2,2.1-4.1,3.3-6.1h0Z"/>
  <path class="st3" d="M73.8,189c.6-1.7,1.2-3.4,1.8-5.2-.6,1.7-1.2,3.4-1.8,5.2Z"/>
  <path class="st3" d="M77,180.4c.7-1.7,1.4-3.4,2.1-5.1-.7,1.7-1.4,3.4-2.1,5.1Z"/>
  <path class="st3" d="M79.1,175.3c.7-1.7,1.5-3.4,2.3-5-.8,1.7-1.6,3.3-2.3,5Z"/>
  <path class="st3" d="M141,184.6c2.9,2.8,5.8,5.6,8.6,8.4-2.8-2.8-5.7-5.6-8.6-8.4Z"/>
  <path class="st3" d="M165.1,210.2h0c-.3-.4-.6-.7-.9-1.1.3.4.6.7.9,1.1Z"/>
  <path class="st3" d="M400.1,274.5c.3.2.6.3.8.5-.3-.2-.6-.3-.8-.5-22.7-13.7-39.5-38.6-66-47.5,26.4,8.9,43.3,33.7,66,47.5Z"/>
  <path class="st3" d="M400.9,275c.9.5,1.7,1,2.7,1.5-.9-.5-1.8-1-2.7-1.5Z"/>
  <path class="st3" d="M425.9,287.4c2,1,3.9,1.9,5.8,2.9h0c-1.8-.9-3.8-1.9-5.7-2.9Z"/>
  <polygon class="st3" points="431.7 290.3 431.7 290.3 431.7 290.3 431.7 290.3"/>
  <path class="st3" d="M98.4,273.4c-5.4,3.1-11.2,6-17.1,8.8,5.8-2.8,11.7-5.6,17.1-8.8Z"/>
  <path class="st3" d="M113.1,313.6c0,0,0,.2-.1.3-4.2,8.7-9.1,17.1-15.7,24.2,0,0,0,0-.1.1,7.2-9.1,12-17,15.9-24.7Z"/>
  <path class="st3" d="M267.1,436.7c1.6-.1,3.2-.3,5-.6-1.8.3-3.4.5-5,.6-21.6,1.4-45.2,0-65.9-6.8h0c20.6,6.8,44.3,8.2,65.9,6.8Z"/>
  <path class="st3" d="M295.9,431.9h0c-.2,0-.5,0-.7,0,.2,0,.5,0,.7,0Z"/>
  <path class="st3" d="M121.1,384h0s0,0,0,0h0Z"/>
  <path class="st3" d="M137.2,291.1c1.1-1.9,2.2-3.8,3.4-5.7-1.2,1.9-2.3,3.8-3.4,5.7Z"/>
  <path class="st3" d="M143.4,281.3c1-1.4,2-2.7,3-4-1,1.3-2,2.7-3,4Z"/>
  <path class="st1" d="M445,295c0,.2-.2.4-.3.6-.1.1-.3.2-.5.3-.7.3-1.9,0-3.2-.5,0,0,0,0,0,0-.3-.1-.7-.3-1-.5,0,0,0,0,0,0-.8-.4-1.6-.8-2.4-1.2-.6-.3-1.2-.7-1.8-1-.2-.1-.4-.2-.6-.3-1.2-.7-2.3-1.3-3.3-1.9,0,0-.1,0-.2,0h0s0,0,0,0c-1.8-.9-3.8-1.9-5.7-2.9,0,0,0,0-.1,0-1.3-.6-2.6-1.2-3.9-1.9-.8-.4-1.5-.7-2.3-1.1-2.7-1.3-5.5-2.6-8.2-3.9-.7-.3-1.4-.7-2-1-.7-.3-1.3-.7-2-1-.3-.2-.7-.3-1-.5-1-.5-1.9-1-2.8-1.5h0c-.9-.5-1.8-1-2.7-1.5t0,0c-.3-.2-.6-.3-.8-.5-22.7-13.7-39.5-38.6-66-47.5-4.9-1.6-10.1-2.7-15.7-3.1h0c5.7,24.8,26.8,35,39.8,53.4,16.5,23.4,22.6,53.8,51.9,68.7-.4.9-.9,1.8-1,2.9h0c-7.4-7.4-16.4-13.1-23.4-21-15.7-17.8-20.6-40.9-36.1-58.6-5.6-6.4-15.6-12.2-20.4-18.7-7.1-9.7-12.5-27.5-18.7-38.4,0,0,0,0,0,0,13.8,4.5,27.7,7.3,40.6,14.5,17.6,9.7,30.5,27.4,47.1,37.9,14.1,8.9,31.2,14.1,45,23.8h0c.2.3.3.7.4,1h0c.2.5.4.9.5,1.3,0,.1,0,.3.1.4.1.4.2.8.3,1.1h0c.3,1.3.4,2.2.2,2.8Z"/>
  <path class="st1" d="M97.1,338.3s0,0,0,0c-2.2,2.8-4.6,5.7-7.3,8.7h0c0,0,0-.1,0-.2,0-.3,0-.7,0-1,0,0,0-.1,0-.2,0,0,0,0,0,0,0-.1,0-.2,0-.3,0,0,0-.1,0-.2,1.9-1.5,3.6-3,5.3-4.6.7-.7,1.3-1.3,1.9-2h0s0,0,0,0Z"/>
  <path class="st1" d="M97.3,338.1c7.1-8.9,11.7-16.7,15.7-24.2-4.2,8.8-9.1,17.2-15.8,24.3,0,0,0,0,0,0Z"/>
  <path class="st1" d="M185.6,212.2c-7.9,28.7-35.5,39.2-50.6,61.2-10.6,15.5-15.1,27.4-21.8,40.2,0-.1.1-.2.2-.4,0,0,0,0,0,0h0c6.9-14.4,12.1-29.7,20.7-41.7,2.9-4.1,6.2-7.7,9.6-11,.5-.5,1-1,1.5-1.4,1-.9,2-1.8,3-2.8,1.5-1.4,3.1-2.7,4.7-4,1-.9,2.1-1.8,3.1-2.7,3.1-2.7,6.1-5.3,9-8.2,2.8-2.9,5.5-5.9,7.8-9.2.8-1.1,1.5-2.3,2.2-3.5.7-1.2,1.4-2.4,2-3.7.3-.6.6-1.3.9-2h0c-33.1,3.7-51,32.2-75.5,48.1-1.3.8-2.6,1.6-3.9,2.4-5.4,3.1-11.2,6-17.1,8.8-.7.3-1.5.7-2.2,1-1.5.7-2.9,1.4-4.3,2.1-2.2,1-4.3,2.1-6.3,3.1,0,0,0,0,0,0-.4.2-.7.4-1.1.6-.3.2-.6.3-.9.5-2,1.2-3.9,2.5-5.9,3.6-.2.1-.4.2-.7.4-.2.1-.5.2-.7.4-.2.1-.5.2-.7.3-.2,0-.4.2-.5.2-.5.2-1.1.4-1.6.6l-.6-7.6c.9-.6,1.8-1.2,2.8-1.8.5-.3.9-.6,1.4-.9.9-.6,1.9-1.1,2.8-1.7,1-.5,1.9-1.1,2.9-1.6.5-.3,1-.5,1.5-.8,1-.5,2-1,2.9-1.5.6-.3,1.1-.6,1.7-.9.9-.5,1.8-.9,2.8-1.4.5-.2,1-.5,1.5-.7,1-.5,2-1,3-1.5,2-1,4-1.9,6-2.9.5-.2,1-.5,1.5-.7,1-.5,2-1,3-1.5h0c1-.5,2-1,2.9-1.5.5-.3,1-.5,1.5-.8,1-.5,1.9-1.1,2.9-1.6h0c.9-.5,1.9-1.1,2.8-1.7.5-.3.9-.6,1.4-.9.5-.3.9-.6,1.4-.9.7-.5,1.4-.9,2-1.4.3-.2.7-.4,1-.7.3-.2.7-.5,1-.7.7-.5,1.3-1,2-1.5,3.2-2.4,6.3-4.9,9.3-7.5,1-.8,2-1.7,3.1-2.6,1-.8,1.9-1.7,2.9-2.5,0,0,0,0,.1-.1,2.3-2,4.5-4,6.8-5.9.8-.7,1.5-1.3,2.3-2,1.6-1.3,3.1-2.6,4.7-3.9.8-.6,1.6-1.3,2.4-1.9.4-.3.8-.6,1.2-.9,0,0,.2-.2.3-.2,0,0,.2-.1.3-.2.6-.5,1.2-.9,1.8-1.4.4-.3.8-.6,1.2-.9.8-.6,1.7-1.2,2.5-1.8.8-.6,1.7-1.1,2.5-1.7.8-.5,1.7-1.1,2.6-1.6.4-.3.9-.5,1.3-.8.4-.3.9-.5,1.3-.8.4-.2.9-.5,1.3-.7.4-.2.9-.5,1.3-.7.5-.2,1-.5,1.4-.7.9-.5,1.9-.9,2.8-1.3.5-.2.9-.4,1.4-.6.4-.2.9-.3,1.3-.5,1-.4,2-.8,3.1-1.1.4-.1.8-.3,1.2-.4.1,0,.2,0,.3-.1.4-.1.8-.3,1.2-.4,0,0,.1,0,.2,0,0,0,.1,0,.2,0,0,0,0,0,0,0,.4-.1.8-.2,1.2-.3,0,0,.2,0,.3,0,0,0,0,0,.1,0,.4-.1.8-.2,1.2-.3.3,0,.6-.1.9-.2,0,0,.2,0,.2,0,.2,0,.3,0,.5,0,.2,0,.3,0,.5,0,.2,0,.4,0,.7-.1,0,0,0,0,0,0,.4,0,.8-.1,1.2-.2,0,0,0,0,.1,0,.2,0,.5,0,.7-.1.4,0,.7-.1,1.1-.2,0,0,0,0,0,0,0,0,.2,0,.2,0,.2,0,.4,0,.5,0,0,0,0,0,0,0,0,0,.1,0,.2,0h0s0,0,.1,0c.2,0,.4,0,.6,0,0,0,0,0,.1,0,.3,0,.6,0,.9,0,.3,0,.6,0,.9,0,0,0,.1,0,.2,0,.6,0,1.1,0,1.7-.1h0Z"/>
  <path class="st1" d="M324.2,79.4c-18.4,36.1-8.6,72.4-30.8,105.5h0s-16-27.9-16-27.9c23.6-8,7.4-16.5,7-26.5-.2-6.2,9.9-16.6-2.2-26.2-.2-.1-.3-.2-.4-.3-.1-.1-.3-.2-.4-.3-.1,0-.3-.2-.4-.3,0,0-.1,0-.2-.1,0,0-.1,0-.2-.1-.2-.1-.4-.2-.6-.3-.2-.1-.4-.2-.6-.3-.2,0-.4-.2-.6-.2,0,0-.1,0-.2,0-.1,0-.2,0-.3-.1-.1,0-.2,0-.3,0-.3,0-.6-.1-.8-.2-.2,0-.3,0-.5,0-.2,0-.3,0-.5,0-1.2-.1-2.2,0-3.2,0-.5,0-.9,0-1.3,0h0c-.4,0-.7,0-1,0,0,0,0,0,0,0-.1,0-.2,0-.3,0,0,0,0,0,0,0-.1,0-.3,0-.4-.1,0,0,0,0,0,0,0,0-.1,0-.2-.1s-.2,0-.2-.2c0,0-.2-.1-.2-.2-.2-.2-.3-.3-.5-.5-.1-.2-.3-.4-.4-.6,0,0,0,0,0,0,0-.1-.2-.2-.2-.4-1.6-2.5-3.3-6.5-5.8-8.5-.2-.2-.5-.3-.7-.5-.3-.2-.5-.3-.8-.4-.2,0-.4-.1-.6-.2-4.2-1.2-5.8,2.6-9.1,2.3,0,0,0,0,0,0-.2,0-.4,0-.5,0-.1,0-.2,0-.3-.1,0,0-.1,0-.2,0-.3-.1-.6-.3-.9-.5-.3-.2-.6-.4-.8-.6,0,0,0,0,0,0-.2-.2-.4-.3-.6-.5,0,0-.1,0-.2-.2-.2-.2-.5-.4-.7-.6-.1,0-.2-.2-.3-.2,0,0-.2-.2-.3-.2-.1,0-.2-.1-.3-.2-.3-.2-.6-.3-.9-.4-.1,0-.3,0-.5-.1-1.6-.2-3.6.6-6.5,4.1-1.9,2.2-2.7,7-3.1,7.2-2,1.3-9.6-1-15.4,4.6-10,9.7-1.2,17.1-2.2,24-.5,3-7.4,10.2-6.5,14.8l2.3,6.5,9.3,5.3h0s-13.7,21-13.7,21c0,0,0,0,0,0-7.7-20-26.4-34.5-35.5-53.8-6.1-12.8-6.3-24.5-11.4-37,.1,0,.2,0,.4,0,.6,0,1.2.2,1.6,0,5.3,13.5,5.6,25.3,12.5,38.8.4.8.8,1.6,1.3,2.4.2.4.4.7.6,1.1.5.8.9,1.6,1.4,2.4,3.9,6.3,8.7,12.5,13.9,18.3.8.9,1.6,1.8,2.4,2.7.4.5.8.9,1.2,1.3,1.2,1.3,2.5,2.6,3.7,3.8,3.3,3.3,6.8,6.5,10.1,9.4.4.4.8.7,1.2,1.1h0s4.4-5.9,4.4-5.9c-1.1-.2-2.1-.7-3-1.5-.4-.3-.8-.8-1.2-1.2,0,0,0,0,0,0-.4-.5-.7-.9-1-1.5t0,0c-2.4-4.2-3-10.4-2.7-13.9.5-5.6,4.9-9.4,5.4-12.1,1.6-8.7-5.5-17.8,3.8-27.1.2-.3.5-.5.8-.8,1.6-1.5,3.3-2.4,4.8-2.9.6-.2,1.2-.4,1.8-.5,0,0,.1,0,.2,0,.8-.2,1.5-.3,2.3-.3.2,0,.3,0,.5,0,.3,0,.6,0,.8,0h0c.3,0,.5,0,.8,0,0,0,0,0,0,0,.2,0,.5,0,.7-.1.2,0,.4,0,.5,0,.2,0,.4,0,.6-.1.5-.1,1-.3,1.4-.6.1,0,.3-.2.4-.3.5-.5.9-1.3,1.4-2.3s.3-.6.4-.9c.2-.3.3-.6.5-.9.6-1.1,1.2-2.3,2-3.3.2-.3.5-.6.7-.9.1-.1.3-.3.4-.4,1.2-1.2,2.7-2,4.5-2.2.7,0,1.3,0,1.9.1.2,0,.4.1.6.2.7.2,1.4.6,2,1,.2.1.3.2.5.3,0,0,0,0,0,0,.3.2.6.5.9.7,0,0,0,0,0,0,.3.2.5.4.7.6,0,0,.1,0,.2.1.1,0,.2.2.3.2t0,0c.1.1.3.2.4.3.1,0,.2.1.4.1,3.2.4,4.3-4.6,11.1-1.3h0c.4.2.8.4,1.1.7.3.3.7.6,1,.9.8.9,1.5,1.9,2.1,2.9h0c.2.3.3.5.4.8.2.3.3.5.4.8l.4.7c.1.2.3.5.4.7.2.4.5.8.7,1.2,0,0,0,0,0,0,.2.3.4.5.5.7.2.2.4.4.6.5h0c.4.2.8.4,1.2.5.5.1,1,.2,1.6.3,1.1.2,2.3.3,3.6.5.5,0,1,.2,1.5.3.2,0,.5.1.7.2,1.6.4,3.3,1.1,4.9,2.3.9.6,1.6,1.2,2.3,1.9l.4.4c8.2,8.6,1.8,20.4,2.3,28.9.4,7,7.1,14,2.1,24.7l-7.1,4.6h0l10.2,18.1s0,0,0,0c13.5-20.1,13.4-44.3,17.2-67.5.4-2.2.8-4.4,1.2-6.6h0c.3-1.7.7-3.3,1.1-4.9.4-1.6.8-3.2,1.3-4.9.3-1.1.7-2.1,1-3.2h0c.4-1.1.7-2.1,1.1-3.2.2-.5.4-1,.6-1.6.6-1.6,1.3-3.1,2-4.7,1-2,2.1-4.1,3.3-6.1h0c.6.3,1.3.7,1.9,1,0,0,0,0,0,0Z"/>
  <path class="st1" d="M164.6,255.2c-.2.6-.4,1.2-.7,1.8-.1.3-.2.6-.3.9-.1.3-.2.6-.4.9-.2.6-.5,1.2-.7,1.8-.2.6-.5,1.2-.7,1.8h0c-.6,1.6-1.3,3.2-2,4.9,0,0,0,0,0,0-.7,1.6-1.4,3.3-2.1,4.9,0,0,0,0,0,0-.7,1.6-1.5,3.3-2.2,4.9s-1.5,3.3-2.3,4.9c-.8,1.6-1.5,3.3-2.3,4.9-.5,1-1,2-1.5,3.1-1.9,3.9-3.8,7.8-5.6,11.8-.4.8-.8,1.6-1.1,2.5-.4.8-.8,1.7-1.1,2.5h0c-.7,1.7-1.5,3.3-2.2,4.9,0,0,0,0,0,0-.4.8-.7,1.6-1.1,2.5-.7,1.6-1.4,3.3-2.1,4.9-.3.8-.7,1.6-1,2.5-.3.8-.6,1.6-1,2.4-1.2,3.3-2.4,6.5-3.4,9.7-2,6.4-5.2,15.2-1.9,21h0s0,0,0,0c-.1,0-.2,0-.3,0-.7,0-1.2,0-1.6,0,0,0-.1,0-.2,0,0,0,0,0-.1,0,0,0,0,0-.1,0,0,0,0,0-.1,0,0,0,0,0,0,0,0,0,0,0,0,0s0,0,0,0c0,0,0,0,0,0,0,0,0,0,0,.1,0,0,0,0,0,.1-.1.5.1,1.3.2,2.2,0,.4,0,.7,0,1.1h0c0,0,.1,0,.2-.1h0c0,0,.1,0,.2-.1.4-.2.9,0,1.3.3h0c.5.5.5,1.2,0,1.7h0c-.3.4-.8.4-1.3.3,0,0-.1,0-.2-.1,0,0-.1,0-.2-.2s-.1-.1-.2-.2c0,0,0-.1,0-.2,0,0,0-.1,0-.2h0c-.8,3.3-1.4,6.5-1.9,10,0,.2,0,.4,0,.6,0,.1,0,.3.2.4.1.1.3.2.5.3,0,0,.1,0,.1,0,0,0,.2,0,.3,0,.1,0,.3,0,.4.1h0c0,0,.2,0,.2,0,0,0,0,0,.1,0,0,0,0,0,.1,0,0,0,0,0,0,.1,0,0,0,0,0,.1,0,0,0,0,0,0,0,0,0,0,0,0,0,0,0,.2,0,.3,0,0,0,0,0,0,0,0,0,0-.2,0,0,0,0,0-.1,0,0,0,0,0-.1,0,0,0-.1,0-.2,0,0,0,0,0,0,0s0,0,0,0,0,0,0,0,0,0,0,0c0,0,0,0,0,0,0,0-.1,0-.2,0,0,0-.1,0-.2,0,0,0,0,0-.1,0,0,0,0,0-.1,0,0,0,0,0-.1,0,0,0,0,0-.1.1,0,0,0,0-.1.1,0,0,0,0-.1.2,0,.1-.2.2-.2.4,0,0,0,.1-.1.2-.3.6-.5,1.5-.5,2.8-.3,6.6-.3,14.4,0,21,0,0,0,0,0,0h0c-.8-3.6-1.9-10.2-1.9-13.6-.2-11.4,1.2-22.2,3.6-32.7t0,0c1-4.3,2.1-8.6,3.4-12.8t0,0c.4-1.2.8-2.4,1.1-3.6t0,0c.4-1.2.8-2.4,1.2-3.6.2-.6.4-1.2.6-1.8.6-1.8,1.3-3.5,1.9-5.3.2-.6.5-1.2.7-1.8,1.1-2.9,2.3-5.9,3.5-8.8,0,0,0,0,0,0,.5-1.2,1-2.3,1.5-3.5,0,0,0,0,0,0,.5-1.2,1-2.3,1.5-3.5h0c.5-1.2,1-2.3,1.5-3.5t0,0c1.3-2.9,2.5-5.8,3.8-8.8,0,0,0,0,0,0,.8-1.8,1.5-3.5,2.3-5.3.3-.6.5-1.2.8-1.8,1.5-3.5,3-7.1,4.5-10.6.3-.6.5-1.2.7-1.8.5-1.2,1-2.4,1.4-3.6h0c.7-1.8,1.4-3.6,2.1-5.4h0c-2.3,2-4.4,4.1-6.3,6.2-.8.8-1.5,1.7-2.3,2.6-.8.9-1.5,1.8-2.2,2.6-1,1.3-2,2.7-3,4h0c-.6.9-1.3,1.8-1.9,2.8-.3.5-.6.9-.9,1.4-1.2,1.9-2.3,3.8-3.4,5.7h0c-.5.9-1,1.9-1.5,2.8-1.1,2-2.1,4-3.1,6s-1,2-1.4,2.9c-6,12.4-11.4,25.2-19.5,37.2-.6.8-1.2,1.7-1.8,2.5-1.6,2.2-3.2,4.4-5,6.5-.5.6-1,1.1-1.5,1.7-.3.4-.7.8-1,1.1-1.1,1.2-2.2,2.3-3.3,3.5-.4.5-.9.9-1.4,1.3h0c-.3.3-.5.5-.8.8-.5.5-1.1.9-1.7,1.4-2.6,2.1-5.4,3.9-7.9,6.2-.3.2-.5.5-.8.8,0,0-.2.2-.2.2-.2.2-.3.3-.4.5,0,0-.1.1-.2.2-.2.2-.4.5-.6.7-.2.3-.5.6-.7.9l-3.1-2.6c-.2-1.8.8-3.4.8-5.2.5-.3,1-.6,1.5-.9.2-.1.5-.3.8-.4,0,0,.1,0,.2,0,.5-.3,1-.6,1.5-.9.4-.2.8-.5,1.2-.8.1,0,.2-.1.3-.2.4-.2.7-.5,1-.7.4-.2.7-.5,1-.7.3-.2.6-.4.8-.6.1,0,.2-.1.3-.2.5-.4,1-.7,1.5-1.1.2-.2.4-.3.6-.5.3-.2.5-.4.8-.6.3-.2.6-.5.9-.7.3-.2.5-.4.8-.7,0,0,0,0,0,0,.3-.3.7-.6,1-.9.6-.5,1.2-1.1,1.8-1.7.3-.3.6-.6.9-.9,0-.1.2-.2.3-.3.2-.2.4-.4.6-.6,0,0,.1-.1.2-.2.1-.1.2-.2.3-.3,0,0,0,0,0,0,.4-.4.8-.8,1.1-1.2,0,0,0,0,0,0,0,0,0,0,0-.1.6-.7,1.2-1.4,1.8-2.1.3-.4.7-.8,1-1.2.3-.4.7-.8,1-1.3.4-.6.9-1.1,1.3-1.7.2-.3.4-.6.6-.9.2-.3.4-.6.6-.9.4-.6.8-1.2,1.2-1.8.3-.4.6-.8.8-1.3.3-.4.6-.8.8-1.3.4-.6.8-1.2,1.1-1.8.4-.6.7-1.2,1.1-1.8.6-1,1.2-2.1,1.8-3.1,2.9-5.2,5.6-10.7,8.2-16.2,1-2.2,2.1-4.4,3.1-6.6,0-.2.2-.4.3-.6.2-.5.4-.9.6-1.4.6-1.3,1.2-2.6,1.9-3.9.3-.7.6-1.3.9-2,.3-.6.6-1.2.9-1.9.3-.7.7-1.3,1-2,0,0,0,0,0,0,.6-1.2,1.3-2.5,1.9-3.7.7-1.3,1.3-2.5,2-3.8.7-1.2,1.4-2.5,2.1-3.7.7-1.2,1.4-2.4,2.2-3.5.4-.6.8-1.2,1.2-1.8.4-.6.8-1.2,1.2-1.7.3-.5.7-1,1-1.5.1-.2.3-.4.4-.5.3-.5.7-.9,1-1.4.4-.6.8-1.1,1.3-1.7.9-1.1,1.8-2.2,2.7-3.2.4-.4.8-.8,1.1-1.3.1-.1.3-.3.4-.5.4-.5.9-.9,1.3-1.4s1-1,1.5-1.5c.5-.5,1-1,1.6-1.4,1.1-.9,2.2-1.9,3.3-2.7.5-.4,1-.8,1.5-1.1,0,0,.1,0,.2-.1,0,0,.1,0,.2-.1.6-.4,1.1-.8,1.7-1.2.6-.4,1.2-.8,1.8-1.2h0s0,0,0,0l1,3Z"/>
  <path class="st1" d="M434.6,275.6h0c-1.7-1.1-3.4-2.1-5.1-3-1.8-.9-3.5-1.8-5.4-2.6-1.1-.5-2.2-1-3.3-1.5-7-3-14.1-5.7-20.5-9.9-12.4-8-21.7-20.4-33.6-28.9-15.3-11-31.9-16.3-48.7-22-1.5-.5-3.1-1.1-4.6-1.6-3.1-1.1-6.1-2.2-9.2-3.4-.8-.3-1.5-.6-2.3-.9-1.5-.6-3.1-1.2-4.6-1.9-.8-.3-1.5-.7-2.3-1l2.9-1h0s-3.2-6.1-3.2-6.1c6.1-6.3,10.2-13.3,13.1-20.6.4-1,.8-2,1.1-3,3.4-9.5,4.9-19.7,6.2-30,.1-.9.2-1.8.3-2.6.4-2.9.7-5.8,1.1-8.7.2-1.4.4-2.8.6-4.2.1-.8.2-1.5.3-2.3.2-1.3.4-2.7.7-4,0-.2,0-.5.1-.7.1-.8.3-1.7.5-2.5.6-3,1.2-6,2-9,.2-.7.4-1.3.6-2,.8-2.8,1.7-5.5,2.8-8.2,6.2-15.3,13.2-25.4,22.7-35,.4-.4.9-.9,1.3-1.3,4-3.9,8.4-7.8,13.3-11.9h0s2.8,5.7,2.8,5.7c-.4.2-.9.4-1.3.6t0,0c-2.1,1-4.1,2.2-6,3.6,0,0,0,0,0,0-1.5,1.1-3,2.2-4.4,3.5t0,0c-1,.9-2.1,1.9-3,2.9-.3.3-.7.7-1,1-.6.7-1.3,1.4-1.9,2.1h0c-4.9,5.7-8.9,12.3-12.5,18.6-3.5,6.2-7.6,13.9-10.7,21.4t0,0c-1.6,3.9-2.9,7.9-3.7,11.5-1.1,5-1.8,10.2-2.4,15.4-2.5,22.5-2.3,45.8-18.3,64.9,0,0,0,0,0,0,.6.3,1.2.6,1.8,1,1.8.9,3.7,1.8,5.5,2.6.6.3,1.3.5,1.9.8,1.2.5,2.5,1,3.8,1.5h0c1.3.5,2.5,1,3.8,1.5,1.3.5,2.6.9,3.9,1.4,1.3.5,2.6.9,3.9,1.3,9.1,3.1,18.4,6,27.2,10.2,1.3.6,2.5,1.2,3.8,1.9,1.9,1,3.7,2,5.6,3.1,5.3,3.2,10,7.1,14.5,11.2.8.7,1.5,1.4,2.2,2.1,1.5,1.4,3,2.8,4.4,4.2.7.7,1.5,1.4,2.2,2.1h0c3,2.8,5.9,5.5,9,8,0,0,0,0,0,0,1.2.9,2.3,1.8,3.5,2.7.4.3.8.6,1.2.9,0,0,0,0,0,0,.8.5,1.5,1.1,2.3,1.6h0c.8.5,1.5,1,2.3,1.5h0c.8.5,1.5.9,2.3,1.4h0c.8.5,1.5.9,2.3,1.3.4.2.8.4,1.2.6,1.9,1,3.9,2,5.8,2.9h0c1.9.9,3.9,1.8,5.9,2.7,0,0,0,0,0,0,.8.4,1.6.7,2.4,1.1,0,0,0,0,0,0,2,.9,3.9,1.8,5.9,2.8,2.4,1.2,4.7,2.4,7.1,3.8,0,.6,0,1.3,0,1.9Z"/>
  <path class="st1" d="M425.8,374.3c0,1.8,1,3.4.8,5.2l-3.8,2.2c-10.3-16.5-26.6-27.4-40-41-4.6-4.6-8.1-10.4-12.7-15.2-.4-1.9-2.2-3.5-2.9-4.9-6-12-11.2-24.8-20-35.1,2.4,9.6,11.3,20.4,12.2,30.3,0,.6,0,1.3,0,2-6.4-17.5-16.7-33.8-23.4-51.3,22,14.4,26.9,42.8,43,62.5,7.7,9.5,33.1,35.5,42.4,43.6,1.4,1.2,2.4,2.2,4.5,1.9h0Z"/>
  <path class="st1" d="M204.1,188.7h0s0,0,0,0c-.3-.6-.6-1.2-.9-1.7-.2-.5-.5-.9-.7-1.4-1.1-2.1-2.2-4.1-3.4-6.1-.2-.4-.5-.9-.8-1.3-.5-.8-1-1.6-1.5-2.4-1-1.6-2-3.1-3-4.7-.5-.8-1-1.5-1.5-2.3-.6-.9-1.1-1.7-1.7-2.5-2.1-3.2-4.3-6.2-6.5-9.3-1-1.4-2-2.8-2.9-4.2-7.8-11.2-15.4-22.7-21.1-37.3h0c-.6-1.5-1.1-3-1.5-4.4-.3-1.1-.6-2.2-.9-3.3-.3-1.3-.7-2.6-1-4-.1-.5-.3-1-.4-1.5-.5-2-1.1-4-1.9-6.2,0-.3-.2-.5-.3-.8-.3-.8-.6-1.7-1-2.5-.2-.6-.5-1.2-.8-1.8h0c-3.9-8.5-6.8-12.8-12.7-20-.3-.3-.5-.6-.8-.9-.5-.5-1-1-1.4-1.5-.2-.2-.3-.3-.5-.4-.2-.2-.5-.5-.8-.7-1.7-1.4-3.3-2.6-4.8-3.8-.2-.1-.4-.3-.6-.5-.3-.3-.7-.5-1-.8-.2-.2-.5-.4-.7-.6-.2-.2-.4-.4-.7-.6,0,0-.2-.2-.3-.3-.2-.2-.5-.5-.7-.8-.2-.2-.3-.4-.5-.6-.2-.3-.5-.7-.7-1.1,0-.1-.1-.3-.2-.4,0,0,0-.1,0-.2,0,0,0-.2-.1-.3-.3-.8-.6-1.6-.8-2.6,0-.2,0-.3,0-.5,0-.2,0-.3,0-.5,0-.2,0-.3,0-.5v-.4c0-.1,0-.3,0-.4,0-.8,0-1.7,0-2.6h0c.7.6,1.3,1.2,2,1.8,0,0,0,0,0,0,10.1,9.3,20.3,19.2,26.5,31.7,6.6,13.3,6.5,24.4,11.7,37.1,7.9,19.4,41.2,49.4,38.9,68Z"/>
  <path class="st1" d="M166,211.2h0c-33.7,13.6-43.1,31.5-70.4,48.3-.3.2-.6.3-.9.5-.3.2-.6.3-.9.5-.6.3-1.2.7-1.8,1h0c-.6.3-1.2.6-1.9.9-.5.2-1,.5-1.5.7-.2,0-.3.2-.5.2-.2.1-.5.2-.7.3,0,0-.2,0-.3.1-.7.3-1.3.6-2,.9-.9.4-1.8.8-2.8,1.1-.5.2-.9.4-1.4.6-.3.1-.6.2-.9.4-.3.1-.7.3-1,.4-.7.3-1.3.5-2,.8-.7.3-1.3.5-2,.8-.3.1-.7.3-1,.4-1,.4-1.9.8-2.8,1.3-.3.1-.6.3-.9.4h0c-.3.2-.6.3-1,.5-.3.1-.5.3-.8.4-.6.3-1.2.6-1.7.9-.3.2-.5.3-.8.5-.3.2-.5.3-.8.5,0,0,0,0,0,0,0,0-.1-.2-.2-.3,0,0-.1-.2-.2-.3,0,0,0-.2-.1-.3,0,0,0-.2-.1-.3,0-.1,0-.2,0-.3,0-.3-.1-.5-.2-.8,0-.1,0-.3,0-.4,0-.2,0-.4,0-.5,0-.6,0-1.1,0-1.7l2,2.5h0c39.3-11.5,59.6-50.4,98.6-61.1.2.3.5.5.7.7,0,0,.2.2.2.2h0Z"/>
  <polygon class="st3" points="141.7 97.4 152.4 91.1 152.4 91.1 141.7 97.4 141.7 97.4"/>
  <path class="st3" d="M153.2,92.8c.4.8.7,1.7,1,2.5-.3-.8-.6-1.7-1-2.5Z"/>
  <path class="st3" d="M154.5,96.2c.8,2.2,1.4,4.2,1.9,6.2-.5-2-1.1-4-1.9-6.2Z"/>
  <path class="st3" d="M156.8,103.8c.3,1.3.7,2.7,1,4-.3-1.3-.7-2.6-1-4Z"/>
  <path class="st3" d="M158.7,111.1c-.3-1.1-.6-2.2-.9-3.3.3,1.1.6,2.2.9,3.3Z"/>
  <path class="st3" d="M367.2,320.5l-1,1c-2.2-2-4.5-4-6.8-5.9-.9-9.9-9.8-20.6-12.2-30.3,8.8,10.3,14,23.1,20,35.1h0Z"/>
  <path class="st2" d="M370.1,325.4c-1.1-1.1-2.8-2.9-3.9-3.9l1-1c.7,1.4,2.5,3,2.9,4.9h0Z"/>
  <path class="st2" d="M125.9,358.9c0,0,0,.1,0,.2,0,0,0,.2,0,.2,0,.2,0,.3,0,.5,0,0,0,0,0,0h0c0-.4.2-.8.3-1.1,0,0-.1.1-.2.2ZM135.8,445.5h0s0,0,0,0h0s0,0,0,0ZM210,409.4s-.1,0-.2,0c0,0-.2,0-.3.1h0c-.1,0-.3.1-.4.2-.1,0-.3.2-.4.2h0c0,0-.2.1-.3.2,0,0,0,0-.1,0,0,0,0,0,0,0h0s0,0,0,0c0,0,0,0,0,0h0s0,0,0,0h0s0,0,0,0h0s0,0,0,0c0,0,0,0,0,.2,0,0,0,.2,0,.3,0,.2,0,.4,0,.6,0,.2,0,.4.1.5,0,.2.2.4.4.4h0s0,0,0,0l1.5-2.9h0ZM445.7,285.5c-.3-1-1.1-2-2.2-3.1-.4-.4-.8-.8-1.3-1.2,0,0,0,0,0,0-.3-.3-.6-.5-.9-.8h0c-.7-.6-1.4-1.1-2.1-1.6-.3-.3-.7-.5-1-.7h0c-.1,0-.3-.2-.4-.3-.3-.2-.6-.4-.8-.5-.3-.2-.5-.3-.7-.5h0c-.2-.2-.4-.3-.6-.4,0,0-.2-.1-.3-.2-.2,0-.3-.2-.4-.2-.1,0-.2-.1-.3-.2h0c-.8-.5-1.7-1.1-2.5-1.6-.8-.5-1.7-1-2.6-1.4-1.8-.9-3.5-1.8-5.4-2.6-1.1-.5-2.2-1-3.3-1.5-2.4-1.1-4.9-2.1-7.4-3.1-.4-.2-.8-.4-1.2-.5-.4-.2-.8-.4-1.2-.5-.5-.2-.9-.4-1.4-.6-.5-.2-.9-.4-1.4-.7-.5-.3-1-.5-1.6-.8-.5-.2-1-.5-1.4-.7,0,0,0,0,0,0-.6-.3-1.2-.7-1.9-1-.6-.4-1.2-.7-1.9-1.1-.4-.2-.8-.5-1.2-.8-12.4-8-21.7-20.4-33.6-28.9-1.4-1-2.9-2-4.3-2.9-1-.6-2-1.2-2.9-1.8-.5-.3-1-.6-1.5-.9-1-.6-2-1.1-3-1.7-1-.5-2-1-3-1.5-4-2-8.1-3.8-12.2-5.4-1-.4-2.1-.8-3.1-1.2-1-.4-2.1-.8-3.1-1.2-1.2-.4-2.4-.9-3.6-1.3-.8-.3-1.5-.5-2.3-.8-1.2-.4-2.3-.8-3.5-1.2-2.1-.7-4.2-1.4-6.3-2.2-1.5-.5-3.1-1.1-4.6-1.6-.6-.2-1.2-.4-1.7-.6-.6-.2-1.2-.4-1.7-.6-1.2-.4-2.3-.8-3.5-1.3-.8-.3-1.5-.6-2.3-.9-.8-.3-1.5-.6-2.3-.9-1.5-.6-3.1-1.2-4.6-1.9-.8-.3-1.5-.7-2.3-1h0s2.9-1,2.9-1l-3.2-6.1c6.1-6.3,10.2-13.3,13.1-20.6.4-1,.8-2,1.1-3,3.4-9.5,4.9-19.7,6.2-30,.1-.9.2-1.8.3-2.6.4-2.9.7-5.8,1.1-8.7.2-1.4.4-2.8.6-4.2.1-.8.2-1.5.3-2.3.2-1.3.4-2.7.7-4,0-.2,0-.5.1-.7.1-.8.3-1.7.5-2.5.6-3,1.2-6,2-9,.2-.7.4-1.3.6-2,.8-2.8,1.7-5.5,2.8-8.2,6.2-15.3,13.2-25.4,22.7-35,.4-.4.9-.9,1.3-1.3,1-1,2-2,3.1-2.9.5-.5,1-1,1.6-1.5.5-.5,1.1-1,1.6-1.5,1.1-1,2.2-2,3.4-3,1.2-1,2.3-2,3.6-3.1.9-.8,3.5-2.5,3.6-3.4h0s-3.3-3.1-3.3-3.1c-2-.1-4.5.9-7.1,2.7-.2.1-.3.2-.5.4-.2.1-.4.3-.5.4-.2.1-.4.3-.6.4-.2.2-.4.3-.6.5-.5.4-1,.8-1.4,1.2-.6.5-1.1,1-1.7,1.5h0c-.4.3-.7.7-1.1,1-.2.2-.4.3-.5.5-.2.2-.4.4-.5.5-.2.2-.4.4-.6.6-.4.4-.7.8-1.1,1.1t0,0c-2.1,2.2-4.2,4.7-6.3,7.2h0c-.9,1.1-1.8,2.2-2.7,3.4t0,0c-.6.8-1.3,1.7-1.9,2.5h0c-1.7,2.2-3.2,4.4-4.6,6.5t0,0c-.2.3-.4.5-.5.8-.3.4-.6.9-.9,1.3-.3.5-.6.9-.9,1.3-.2.3-.4.6-.5.9-.4.6-.7,1.1-1,1.6h0c-.2.3-.4.6-.6.9-.5.9-1,1.7-1.3,2.4h0s0,0,0,0c-18.4,36.1-8.7,72.4-30.8,105.4,0,0,0,0,0,0l-16-27.9c23.6-8,7.4-16.6,7-26.5-.2-6.2,9.9-16.6-2.2-26.2-.1-.1-.3-.2-.4-.3-.1,0-.3-.2-.4-.3-.1,0-.3-.2-.4-.3,0,0-.1,0-.2-.1,0,0-.1,0-.2-.1-.2-.1-.4-.2-.6-.3-.2-.1-.4-.2-.6-.3-.2,0-.4-.2-.6-.2,0,0-.1,0-.2,0-.1,0-.2,0-.3-.1,0,0-.2,0-.3,0-.3,0-.6-.1-.8-.2-.2,0-.3,0-.5,0-.2,0-.3,0-.5,0-1.2-.1-2.2-.1-3.2,0-.5,0-.9,0-1.3,0h0c-.4,0-.7,0-1,0,0,0,0,0,0,0-.1,0-.2,0-.3,0,0,0,0,0,0,0-.1,0-.3,0-.4-.1,0,0,0,0,0,0,0,0-.1,0-.2-.1s-.2,0-.2-.2c0,0-.2-.1-.2-.2-.2-.2-.3-.3-.5-.5-.2-.2-.3-.4-.4-.6,0,0,0,0,0,0,0-.1-.2-.2-.2-.4,0-.2-.2-.3-.3-.5-1-1.7-2.1-3.8-3.4-5.7h0c-.3-.4-.6-.8-.9-1.2-.1-.1-.2-.2-.3-.4s-.3-.3-.4-.4c-.1-.1-.3-.3-.5-.4-.2-.2-.5-.3-.7-.5-.3-.2-.5-.3-.8-.4-.2,0-.4-.1-.6-.2-.2,0-.5-.1-.7-.2,0,0-.1,0-.2,0-.1,0-.2,0-.3,0-3.4-.3-4.9,2.8-7.9,2.5-.2,0-.4,0-.5,0-.1,0-.2,0-.3-.1,0,0-.1,0-.2,0-.3-.1-.6-.3-.9-.5-.3-.2-.6-.4-.8-.6,0,0,0,0,0,0-.2-.2-.4-.3-.6-.5,0,0-.1,0-.2-.2-.2-.2-.5-.4-.7-.6-.1,0-.2-.2-.3-.2-.1,0-.2-.2-.3-.2-.1,0-.2-.1-.3-.2-.3-.2-.6-.3-.9-.4-.1,0-.3,0-.5-.1,0,0-.2,0-.2,0-1.6-.2-3.5.8-6.3,4.1-1.9,2.2-2.7,7-3.1,7.2-2,1.3-9.6-1-15.4,4.6-10,9.7-1.2,17.1-2.2,24-.4,3-7.3,10.2-6.5,14.8l2.3,6.5h0s9.3,5.3,9.3,5.3l-13.7,21h0c-7.7-20-26.4-34.5-35.5-53.8-6.1-12.8-6.3-24.5-11.4-37-6.4-15.9-19.5-27.7-31.2-39.6h0s-5-1-5-1h0c-2.3,1.7.1,4.6,0,5.4h0c.7.6,1.3,1.2,2,1.9,0,0,0,0,0,0,10.1,9.3,20.5,19.6,26.4,31.7,6.4,12.9,6.5,24.5,11.7,37.1,7.9,19.4,41.1,49.3,38.9,68h0c-2.1,17.1-24.7,17.1-38.1,22.5h0s0,0,0,0c-.5.2-1,.4-1.6.6-.5.2-1,.4-1.5.6-.4.2-.9.4-1.3.6-.7.3-1.4.6-2.1,1-.5.2-1,.5-1.5.7-.6.3-1.2.6-1.7.8-.6.3-1.1.6-1.7.9-.5.2-1,.5-1.5.8-.4.2-.9.5-1.3.7-.6.3-1.2.6-1.7,1-.7.4-1.3.8-2,1.1-.4.2-.8.5-1.2.7h0c-.8.5-1.5,1-2.3,1.4h0c-.8.5-1.5,1-2.2,1.5h0c-.4.2-.7.5-1.1.7-.4.2-.7.5-1.1.7-.4.2-.7.5-1.1.7h0c-.3.2-.7.5-1,.7-.7.5-1.4,1-2,1.5-.3.2-.7.5-1,.8h0c-.3.2-.7.5-1,.8-2.6,2-5.1,4.1-7.6,6.1l-.9.8c-1.2,1-2.5,2.1-3.7,3.1-.2.2-.4.3-.6.5-.4.4-.8.7-1.3,1.1-.3.2-.6.5-.9.8-.8.7-1.6,1.3-2.4,2-.2.1-.3.2-.5.4-.6.5-1.2,1-1.9,1.5-.3.3-.7.5-1,.8,0,0-.1,0-.2.1-3.2,2.6-6.6,5.2-10.3,7.8,0,0,0,0,0,0-1.4.9-2.8,1.9-4.2,2.8-.6.4-1.2.8-1.8,1.1-.4.3-.8.5-1.3.8-.3.2-.6.3-.8.5-.3.2-.6.3-.9.5-.6.3-1.2.7-1.8,1h0c-.6.3-1.2.6-1.9.9-.5.2-1,.5-1.5.7-.2,0-.3.2-.5.2-.2.1-.5.2-.7.3,0,0-.2,0-.3.1-.7.3-1.3.6-2,.9-.9.4-1.8.8-2.8,1.1-.5.2-.9.4-1.4.6-.3.1-.6.2-.9.4-.3.1-.7.3-1,.4-.7.3-1.3.5-2,.8-.7.3-1.3.5-2,.8-.3.1-.7.3-1,.4-1,.4-1.9.8-2.8,1.3-.3.1-.6.3-.9.4h0c-.3.2-.6.3-1,.5-.3.1-.5.3-.8.4-.6.3-1.2.6-1.7.9-.3.2-.5.3-.8.5-.3.2-.5.3-.8.5,0,0,0,0,0,0-.2.2-.5.3-.9.6-.1,0-.2.2-.4.2-.4.2-.8.5-1.2.8-.3.2-.6.4-.9.6-.3.2-.6.5-.9.7-1.9,1.4-3.9,3.1-5.2,4.8-.3.4-.6.8-.9,1.2h0c-.2.3-.4.6-.5.9,0,0,0,.2-.1.3,0,.2-.1.4-.2.6,0,.1,0,.3,0,.4h0c0,.2,0,.3,0,.4,0,.2,0,.4.1.6,0,0,0,0,0,.2,0,.1.1.2.2.3.2.2.3.5.6.7.1.1.2.2.4.3,0,0,0,0,0,0,.9-.6,1.8-1.2,2.8-1.8.5-.3.9-.6,1.4-.9.9-.6,1.9-1.1,2.8-1.7,1-.5,1.9-1.1,2.9-1.6.5-.3,1-.5,1.5-.8,1-.5,2-1,2.9-1.5.6-.3,1.1-.6,1.7-.9.9-.5,1.8-.9,2.8-1.4.5-.2,1-.5,1.5-.7,1-.5,2-1,3-1.5,2-1,4-1.9,6-2.9.5-.2,1-.5,1.5-.7,1-.5,2-1,3-1.5h0c1-.5,2-1,2.9-1.5.5-.3,1-.5,1.5-.8,1-.5,1.9-1.1,2.9-1.6h0c.9-.5,1.9-1.1,2.8-1.7.5-.3.9-.6,1.4-.9.2-.1.5-.3.7-.4.2-.1.5-.3.7-.4.7-.5,1.4-.9,2.1-1.4.3-.2.7-.5,1-.7.3-.2.7-.5,1-.7.7-.5,1.3-1,2-1.5,3.2-2.4,6.3-4.9,9.3-7.5,1-.9,2-1.7,3.1-2.6,1-.8,1.9-1.7,2.9-2.5,0,0,0,0,.1-.1,2.3-2,4.5-4,6.8-5.9.8-.7,1.5-1.3,2.3-2,1.6-1.3,3.1-2.6,4.7-3.9.8-.7,1.6-1.3,2.4-1.9.4-.3.8-.6,1.2-.9,0,0,.2-.2.3-.2,0,0,.2-.1.3-.2.6-.5,1.2-.9,1.8-1.4.4-.3.8-.6,1.2-.9.8-.6,1.7-1.2,2.5-1.8.8-.6,1.7-1.1,2.5-1.7.8-.6,1.7-1.1,2.6-1.6.4-.3.9-.5,1.3-.8.4-.3.9-.5,1.3-.8.4-.3.9-.5,1.3-.7.4-.2.9-.5,1.3-.7.5-.2,1-.5,1.4-.7.9-.5,1.9-.9,2.8-1.3.5-.2.9-.4,1.4-.6.4-.2.9-.3,1.3-.5,1-.4,2-.8,3.1-1.1.4-.1.8-.3,1.2-.4.1,0,.2,0,.3-.1.4-.1.8-.3,1.2-.4,0,0,.1,0,.2,0,0,0,.1,0,.2,0,0,0,0,0,0,0,.4-.1.8-.2,1.2-.3,0,0,.2,0,.3,0,0,0,0,0,.1,0,.4-.1.8-.2,1.2-.3.3,0,.6-.1.9-.2,0,0,.2,0,.2,0,.2,0,.3,0,.5,0,.2,0,.3,0,.5,0,.2,0,.4,0,.7-.1,0,0,0,0,0,0,.4,0,.8-.1,1.2-.2,0,0,0,0,.1,0,.2,0,.5,0,.7-.1.4,0,.7-.1,1.1-.2,0,0,0,0,0,0,0,0,.2,0,.2,0,.2,0,.4,0,.5,0,0,0,0,0,0,0,0,0,.1,0,.2,0h0s0,0,.1,0c.2,0,.4,0,.6,0,0,0,0,0,.1,0,.3,0,.6,0,.9,0,.3,0,.6,0,.9,0,0,0,.1,0,.2,0,.6,0,1.1,0,1.7-.1-7.8,28.7-35.5,39.2-50.6,61.2-10.4,15.3-15,27.2-21.6,39.8h0s0,0,0,0c0,0,0,.1,0,.2,0,0,0,.1,0,.2-4,7.6-8.7,15.5-15.9,24.7,0,0,0,0,0,0,0,0,0,0,0,0h0c-2.2,2.7-4.5,5.6-7.2,8.6,0,0,0,0,0,0h0c-6,6.8-7.8,3.3-7.8,13.7h0s0,0,0,0c.5-.3,1-.6,1.5-.9.2-.1.5-.3.8-.4,0,0,.1,0,.2,0,.5-.3,1-.6,1.5-.9.4-.2.8-.5,1.2-.8.1,0,.2-.1.3-.2.4-.2.7-.5,1-.7.4-.2.7-.5,1-.7.3-.2.6-.4.8-.6.1,0,.2-.1.3-.2.5-.4,1-.7,1.5-1.1.2-.2.4-.3.6-.5.3-.2.5-.4.8-.6.3-.2.6-.5.9-.7.3-.2.5-.5.8-.7,0,0,0,0,0,0,.3-.3.7-.6,1-.9.6-.5,1.2-1.1,1.8-1.7.3-.3.6-.6.9-.9,0-.1.2-.2.3-.3.2-.2.4-.4.6-.6,0,0,.1-.1.2-.2.1-.1.2-.2.3-.3,0,0,0,0,0,0,.4-.4.7-.8,1.1-1.2,0,0,0,0,0,0,0,0,0,0,0-.1.6-.7,1.2-1.4,1.8-2.1.3-.4.7-.8,1-1.2.3-.4.7-.8,1-1.3.4-.6.8-1.1,1.3-1.7.2-.3.4-.6.6-.9.2-.3.4-.6.6-.9.4-.6.8-1.2,1.2-1.8.3-.4.6-.8.8-1.3.3-.4.6-.8.8-1.3.4-.6.7-1.2,1.1-1.8.4-.6.7-1.2,1.1-1.8.6-1,1.2-2.1,1.8-3.1,2.9-5.2,5.6-10.7,8.2-16.2,1-2.2,2.1-4.4,3.1-6.6,0-.2.2-.4.3-.6.2-.5.4-.9.6-1.4.6-1.3,1.2-2.6,1.9-3.9.3-.7.6-1.3.9-2,.3-.6.6-1.2.9-1.9.3-.7.7-1.3,1-2,0,0,0,0,0,0,.6-1.2,1.3-2.5,1.9-3.7.7-1.3,1.3-2.5,2-3.8s1.4-2.5,2.1-3.7c.7-1.2,1.4-2.4,2.2-3.5.4-.6.8-1.2,1.2-1.8.4-.6.8-1.2,1.2-1.7.3-.5.7-1,1-1.5.1-.2.3-.4.4-.5.3-.5.7-.9,1-1.4.4-.6.8-1.1,1.3-1.7.9-1.1,1.8-2.2,2.7-3.2.4-.4.8-.8,1.1-1.3.1-.1.3-.3.4-.5.4-.5.9-.9,1.3-1.4s.5-.5.8-.7c.2-.2.5-.5.8-.7.5-.5,1-1,1.6-1.4,1.1-1,2.2-1.9,3.3-2.7.5-.4,1-.8,1.5-1.1,0,0,.1,0,.2-.1,0,0,.1,0,.2-.1.6-.4,1.1-.8,1.7-1.2.6-.4,1.2-.8,1.8-1.2h0s1,3,1,3c-.2.6-.4,1.2-.7,1.8-.1.3-.2.6-.3.9-.1.3-.2.6-.4.9-.2.6-.5,1.2-.7,1.8-.2.6-.5,1.2-.7,1.8h0c-.6,1.6-1.3,3.2-2,4.9,0,0,0,0,0,0-.7,1.6-1.4,3.3-2.1,4.9,0,0,0,0,0,0-.7,1.6-1.5,3.3-2.2,4.9s-1.5,3.3-2.3,4.9c-.8,1.6-1.5,3.3-2.3,4.9-.5,1-1,2-1.5,3.1-1.9,3.9-3.8,7.8-5.6,11.8-.4.8-.8,1.6-1.1,2.5-.4.8-.8,1.7-1.1,2.5h0c-.7,1.7-1.5,3.3-2.2,4.9,0,0,0,0,0,0-.4.8-.7,1.6-1.1,2.5-.7,1.6-1.4,3.3-2.1,4.9-.3.8-.7,1.6-1,2.5-.3.8-.6,1.6-1,2.4-1.2,3.2-2.4,6.5-3.4,9.7-2,6.4-5.2,15.2-1.9,21,0,0,0,0,0,0-.1,0-.2,0-.3,0-.7,0-1.2,0-1.6,0,0,0-.1,0-.2,0,0,0,0,0-.1,0,0,0,0,0-.1,0,0,0,0,0-.1,0,0,0,0,0,0,0,0,0,0,0,0,0s0,0,0,0c0,0,0,0,0,0,0,0,0,0,0,.1,0,0,0,0,0,.1-.1.5.1,1.3.2,2.2,0,.4,0,.7,0,1.1h0c0,0,.1-.1.2-.1h0c0,0,.1,0,.2-.1.4-.2.9,0,1.3.3s.5,1.2,0,1.7c-.3.4-.8.4-1.3.3,0,0-.1,0-.2-.1,0,0-.1,0-.2-.2h0c0,0-.1-.1-.2-.2,0,0,0-.1,0-.2,0,0,0,0,0-.1t0,0c-.9,3.3-1.4,6.5-1.9,10,0,.2,0,.4,0,.6,0,.2,0,.3.2.4.1.1.3.2.5.3,0,0,.1,0,.1,0,0,0,.2,0,.3,0,.1,0,.3,0,.4.1h0c0,0,.2,0,.2,0,0,0,0,0,.1,0,0,0,0,0,.1,0,0,0,0,0,0,.1,0,0,0,0,0,.1,0,0,0,0,0,0,0,0,0,0,0,0,0,0,0,.2,0,.3,0,0,0,0,0,0,0,0,0,0-.2,0,0,0,0,0-.1,0,0,0,0,0-.1,0,0,0-.1,0-.2,0,0,0,0,0,0,0s0,0,0,0,0,0,0,0,0,0,0,0c0,0,0,0,0,0,0,0-.1,0-.2,0,0,0-.1,0-.2,0,0,0,0,0-.1,0,0,0,0,0-.1,0,0,0,0,0-.1,0,0,0,0,0-.1.1,0,0,0,0-.1.1,0,0,0,0-.1.2,0,.1-.2.2-.2.4,0,0,0,.1-.1.2-.3.6-.5,1.5-.6,2.8-.3,6.6-.3,14.3,0,20.9h0c.4,10.2,3.4,10.7,1.2,17.8,0,0,0,.1,0,.1,0-.2.1-.3.2-.5,0,0,0-.2.1-.3,0-.2.2-.4.3-.6,0,0,.1-.2.2-.3.1-.2.2-.3.4-.5.4-.5,1-.6,1.5-.2-4.5,9.2,1.9,23.8,7.8,31.2l.5-3.9,2.4,3.5c.2.6.1,1,0,1.3,0,0-.2.2-.3.2-.3.1-.7.1-1.1,0-.1,0-.3,0-.4-.1h0s0,0,0,0h0c.3.4.7.7,1,1.1,14.3,14.2,31.4,4.6,44.8-6.4-3.5,1.4-5.2,1.9-5.7,1.8-.3,0-.2-.3.1-.7,0,0,0-.1.2-.2,1.6-1.6,6.9-4.8,9.4-6.3.2-.1-.5-2,.5-2,.2,0,.3,0,.4.1,0,0,.2.3.2.5,0,.1,0,.3,0,.4,0,.2,0,.5,0,.6,0,.2,0,.3-.1.4h0c.2-.2.3-.3.5-.5.3-.3.7-.7,1-1,.3-.3.6-.6,1-1,.3-.3.6-.6,1-1,.1-.2.3-.3.4-.4t0,0s0,0,0,0h0c-.6.3-1.3.8-1.9,1,0-.3,0-.6,0-.9,0-.1,0-.2,0-.4,0-.2.1-.3.2-.5.1-.2.2-.4.4-.5,0,0,.2-.2.3-.3.2-.1.3-.3.5-.4.5-.4,1.1-.7,1.6-1,.3-.2.6-.3.8-.5.2-.1.4-.3.5-.4,0,0,0,.1,0,.2,0,.1,0,.3,0,.5,0,0,0,.1,0,.2,0,.1,0,.2-.2.3,0,0,0,.1-.1.2,0,0,0,.1-.1.2-.4.6-.9,1.1-1.1,1.4h0s0,0,0,0c.3-.2,1-.5,1.7-.9.2,0,.3-.2.5-.2.2,0,.3-.2.5-.3.2,0,.3-.2.5-.3.5-.3,1-.6,1.4-1,0,0,.1-.2.2-.2.1-.1.2-.2.3-.3.2-.2.3-.5.5-.8,0-.1.1-.3.2-.4,0,0,0-.2,0-.3h0c-1.3.3-2.4.3-1.9-1.5,0-.1.1-.3.2-.4,0-.1.2-.2.3-.3.1,0,.2-.2.3-.3,0,0,.2-.2.3-.2s.2-.1.3-.2c.6-.4,1.2-.7,1.4-1h0s0,0,0,0c2.4-3.6,4.7-5.7,7.3-8.2.4-.4.7-.7,1.1-1.1s0,0,0,0c.2-.2.4-.5.7-.7.1-.1.3-.3.4-.4,0,0,.2-.2.2-.3,0,0,0,0,0,0h0s0,0,0,.2c0,0,0,.2,0,.3,0,.2,0,.4,0,.6,0,.2,0,.4.1.5,0,.2.2.4.4.4h0s0,0,0,0l1.5-2.9h0s-.1,0-.2,0c0,0-.2,0-.3.1h0c-.1,0-.3.1-.4.2-.1,0-.3.2-.4.2h0c0,0-.2.1-.3.2,0,0,0,0-.1,0,0,0-.1,0-.1,0,0,0,0,0,0,0,0,0,0,0,0,0,0,0,.2-.2.2-.3,0,0,.2-.2.2-.3,0,0,.2-.2.2-.2,0,0,.2-.2.2-.2.8-.8,1.4-1.1,1.9-1.3.2,0,.4-.1.5-.2.4-.1.7,0,1-.4.2-.2.5-.6.8-1h0c.1-.2.2-.3.4-.5.4-.5.8-1.1,1.2-1.8,0-.1.2-.3.3-.4.2-.3.4-.6.6-.9.7-1,1.4-2,2.1-3.1.1-.2.2-.3.3-.5.2-.3.5-.7.7-1,.2-.3.5-.7.7-1,.2-.3.4-.7.7-1,.5-.7.9-1.4,1.4-2.1.3-.5.7-1,1-1.5.2-.3.5-.7.7-1,.2-.3.4-.6.6-.9.4-.6.9-1.2,1.2-1.8.2-.3.4-.5.6-.8.1-.1.2-.3.3-.4.3-.4.5-.7.8-1.1h0c.2-.3.5-.6.7-.9,0,0,.1-.2.2-.3.2-.2.3-.3.4-.5h0c.1-.1.2-.3.3-.4,0,0,.1-.1.1-.2.2-.2.4-.4.5-.4h0c1.2,1.1,2.4,2.1,3.6,3,.4.3.8.6,1.2.9.4.3.8.5,1.2.8.8.5,1.6,1,2.4,1.4.8.4,1.6.8,2.4,1.1,4.8,1.9,9.6,2.3,14.4.9.8-.2,1.6-.5,2.3-.8.4-.2.8-.3,1.2-.5.8-.4,1.5-.8,2.3-1.2.8-.5,1.5-1,2.3-1.5.3-.2.6-.4.8-.6.6-.5,1.1-.9,1.7-1.4.3-.2.6-.5.8-.8h0c.4-.4.8-.7,1.1-1.1h0c.8.9,1.6,1.9,2.4,2.8h0c1.2,1.4,2.4,2.9,3.5,4.4,1.1,1.4,2.2,2.8,3.4,4.2-.2-.3-.2-.7-.1-1.1,0,0,0-.1.1-.2,0,0,0-.1.1-.2h0c0,0,.1-.1.2-.2.4-.3.9-.3,1.3,0,0,0,.1,0,.2.1h0c0,0,.1.1.2.2,0,0,0,.1.1.2.2.4,0,.9-.3,1.3s-1.2.5-1.7,0c0,0,.1.2.2.3,0,0,.1.2.2.3,0,0,0,0,0,0,.4.6.8,1.2,1.2,1.9h0c.5.9,1.1,1.8,1.6,2.7.2.3.3.6.5.9.5.9,1.1,1.8,1.7,2.8.6,1,1.3,2,2.1,3,.3.4.7.8,1,1.2.2.2.4.5.7.7l1-2.9,12.2,14.1-10.2-9.2h0s0,0,0,0l21.5,24.3-2-4.8h0c0,0,.2,0,.3.1.3.1.6.4,1.1.6.2.2.5.3.8.5.7.4,1.4.9,2.1,1.4,1.4,1,2.7,1.9,3,2.2,0,0,0,0,0,0,.6,1,.7,1.4.5,1.5-.1,0-.3,0-.5,0-.1,0-.2,0-.3,0,0,0-.1,0-.2,0-.2,0-.4,0-.5,0-.1,0,0,.3.7,1,0,0,.1.1.2.2,0,0,.1.1.2.2,0,0,.1.1.2.2.2.2.5.4.8.7,0,0,0,0,0,0,0,0-.1-.1-.2-.2-.2-.3-.2-.8,0-1.1,0,0,0-.1,0-.2,0,0,.1-.1.2-.2h0c0,0,.1-.1.2-.2.4-.3.9-.3,1.3,0,0,0,.1,0,.2.2h0c0,0,.1.1.2.2,0,0,0,.1,0,.2.2.4,0,.9-.3,1.3s-.3.2-.4.3c-.4.2-.9,0-1.2-.2,6,6,13,9.4,21.3,10.8h0c5.8.9,6.8,1.4,12.7-.5.9-.3,1.6-.6,2.2-.8.4-.2.8-.4,1.1-.5h0c.3-.2.6-.4.8-.5.6-.6.5-1,.1-1.4,0,0-.1-.1-.2-.2,0,0-.2-.2-.3-.2,0,0,0,0-.2-.1,0,0-.2-.2-.3-.2,0,0,0,0-.1-.1-.2-.2-.3-.5-.2-.7,0-.1,0-.2.1-.3.1-.3.3-.6.4-.8s.1-.2.2-.3h0c.1-.3.3-.5.4-.7h0c.1-.2.3-.4.4-.5,0,0,.1-.1.2-.2.8-.8,1.5-.6,2,0,0,0,.1.1.2.2,0,0,.1.1.2.2,0,.1.2.2.3.4.2.4.4.7.5.8,0,0,0,0,0,0,.7-.4,1.3-.9,1.9-1.4.2-.2.5-.5.7-.8.4-.4.7-.8,1-1.3.2-.3.4-.6.6-1,3.6-5.8,5.9-15.3,7.5-23.1,0-.5.2-.9.3-1.3.1-.6.3-1.3.4-1.9.1-.6.2-1.2.4-1.8.1-.6.2-1.1.3-1.7,0-.3.1-.5.2-.8,0-.4.2-.7.2-1.1,0-.2,0-.3.1-.5,0-.2,0-.3.1-.5,1-17.7,0-36.3-2.9-53.7h0s-3.9,1.9-3.9,1.9h0s2.9-5.9,2.9-5.9c-2-10.6-5.1-21.1-8.8-31.2t0,0h0c-.4-1.2-.9-2.4-1.4-3.6-.4-.9-.7-1.8-1.1-2.7-.7-1.8-1.5-3.5-2.3-5.2-.5-1-.9-2-1.4-3,0,0,0-.1,0-.2-.7-1.6-1.5-3.1-2.2-4.7,0,0,0,0,0,0,0,0,0,0,0,0-.4-.9-.8-1.7-1.3-2.6,0-.2-.2-.4-.3-.5h0c-.5-.9-.9-1.9-1.4-2.8-.3-.7-.7-1.3-1-2-.5-1.1-1-2.1-1.6-3.2-.5-1.1-1-2.1-1.6-3.2-.5-1-1-2.1-1.5-3.2-.5-1.1-1-2.1-1.5-3.2-.5-1.1-1-2.1-1.5-3.2-.2-.5-.5-1.1-.7-1.6-.7-1.6-1.4-3.2-2-4.8-.2-.5-.4-1.1-.6-1.6,0,0,0,0,0,0,.6.4,1.3.8,1.9,1.3,0,0,0,0,.1.1.3.2.7.5,1,.7.3.2.6.5,1,.8.6.5,1.2,1,1.8,1.5.3.3.6.5.9.8.3.2.6.5.9.8.3.3.6.6.9.8.3.3.6.6.9,1,0,0,0,0,.1.2.5.5.9,1,1.4,1.5.3.3.5.6.8.9.3.3.5.6.8.9.3.3.5.6.7.9.5.6,1,1.2,1.4,1.9.5.6.9,1.3,1.4,1.9.5.6.9,1.3,1.3,2,.2.3.4.7.6,1,.2.3.4.7.6,1,.2.3.4.7.6,1,.2.3.4.7.6,1,.2.3.4.7.6,1,.4.7.8,1.4,1.2,2.1.4.7.8,1.4,1.2,2.1.2.4.4.7.6,1.1.2.3.4.7.6,1.1.4.7.8,1.4,1.1,2.1.7,1.4,1.5,2.9,2.2,4.3,1.8,3.6,3.6,7.2,5.5,10.8.8,1.4,1.5,2.8,2.4,4.2.3.5.6,1.1,1,1.6.2.3.4.6.5.9,0,0,0,.1.1.2.3.5.6.9.9,1.4.4.6.7,1.2,1.1,1.7,0,0,0,0,0,0,.4.6.9,1.3,1.3,1.9.3.4.6.8.9,1.2,0,0,0,0,0,0,.3.5.7,1,1.1,1.4.4.5.7.9,1.1,1.4.8,1.1,1.9,2.3,3.2,3.7.3.4.7.8,1,1.2t0,0c.4.4.8.8,1.2,1.3.4.4.8.9,1.2,1.4.4.5.8.9,1.3,1.4.2.2.4.5.7.7.5.5.9,1,1.4,1.5.7.8,1.4,1.5,2.2,2.3.5.5,1,1,1.5,1.6.5.5,1,1.1,1.5,1.6.8.8,1.5,1.6,2.3,2.4,1,1.1,2.1,2.2,3.2,3.3.5.5,1.1,1.1,1.6,1.6,0,0,0,0,0,0,.5.5,1.1,1.1,1.6,1.6.5.5,1.1,1.1,1.6,1.6.8.8,1.6,1.6,2.3,2.4l.8.8c.3.3.6.6.9.9l.6.6c1,1,2,1.9,2.9,2.9.7.6,1.3,1.2,1.9,1.9.3.3.6.5.8.8.2.2.5.4.7.6.3.3.6.6.9.8,2,1.9,3.8,3.5,5.1,4.7,1.4,1.2,2.4,2.2,4.5,1.9,0-1.1,0-2.1-.2-3-.1-.8-.3-1.7-.6-2.5-.2-.5-.3-1.1-.5-1.6h0c-.2-.5-.4-1-.7-1.5-.1-.2-.2-.5-.4-.7-.3-.6-.6-1.1-.9-1.6-.3-.5-.7-1.1-1.1-1.6-.2-.3-.4-.5-.6-.8-.2-.2-.4-.5-.6-.8-.3-.3-.5-.6-.8-1-.2-.2-.3-.4-.5-.5-1.5-1.7-3.2-3.4-4.8-5-.5-.4-.9-.9-1.4-1.3-.3-.3-.5-.5-.8-.8-.4-.3-.7-.7-1.1-1.1-.2-.2-.4-.4-.6-.6-.4-.4-.7-.7-1.1-1.1h0s0,0,0,0c-7.4-7.4-16.4-13.1-23.4-21-15.7-17.8-20.6-40.9-36.1-58.6-5.6-6.4-15.6-12.2-20.4-18.7-7.1-9.6-12.5-27.5-18.7-38.4,0,0,0,0,0,0,13.9,4.5,27.7,7.3,40.7,14.5,17.6,9.7,30.5,27.4,47.1,37.9,14.1,8.9,31.2,14.1,45,23.8,2.2-.5,2.7-1.6,2.4-2.8ZM128,420.1c-1.6,1.9-3.3-3-1-1.5,0,0,0,0,.1.1s.1,0,.2.2.1.1.2.2c0,0,.1.1.2.2h0c0,.1.2.2.2.3.1.2.2.4,0,.5ZM141.7,448.4s0,0,0,0c-1.6,1.9-3.3-3-1-1.5,0,0,0,0,.1.1,0,0,.1,0,.2.2.1.1.2.2.3.3s.2.2.3.3c0,.1.1.3,0,.4ZM199.2,267.8h1.9l-.5,3.9-1.5-3.9ZM199.3,288.3l1.9,3.9h-1.9v-3.9ZM201.2,295.2v3.9h-2v-3.9h2ZM170,249.3l.9-3.3,4-.6c.4.4-3.8,5-4.9,3.9ZM199,266.1c0,0,0-.2,0-.2s0-.2,0-.2c0,0,0-.2,0-.2,0-.1.2-.3.3-.4.1-.1.2-.2.4-.3.1,0,.3,0,.5,0,.3,0,.6.1.9.3.2.2.3.5.3.9s-.1.6-.3.9c-.2.2-.5.3-.9.3s-.3,0-.5,0c-.1,0-.3-.2-.4-.3-.1-.1-.2-.2-.3-.4,0,0,0-.2,0-.2ZM202.3,310.2c-.4.4-1.1.6-2.1.6h0s-1-5.4-1-5.4l2.9-1.5c0,2.2,1.5,5,.2,6.2ZM208,410.4s0,0,0,0h0s0,0,0,0h0ZM210,241.7c-.7,0-1.2-.5-1.2-1.2s.5-1.2,1.2-1.2,1.2.5,1.2,1.2-.5,1.2-1.2,1.2ZM210,223.9l.5-4.9c2.1,1.5,2.1,3.9-.5,4.9ZM215.1,235.9c0,0,0,.1,0,.2-.2.4-.6.7-1.1.7s-.1,0-.2,0c0,0-.1,0-.2,0,0,0-.1,0-.2,0-.1,0-.2-.1-.3-.2-.1-.1-.2-.2-.3-.4,0,0,0-.1,0-.2,0,0,0-.2,0-.2s0-.2,0-.2c0,0,0-.2,0-.2,0-.2.2-.3.3-.4.1,0,.2-.2.3-.2,0,0,0,0,.2,0,0,0,.1,0,.2,0,0,0,.1,0,.2,0,.3,0,.6.1.9.4,0,0,0,0,0,0,0,0,.2.2.2.3,0,0,0,.1,0,.2,0,0,0,0,0,0,0,0,0,0,0,0,0,0,0,.1,0,.2s0,.1,0,.2c0,0,0,.1,0,.2ZM221.7,231.7c-2.6-2.1-3.4-2.6-5.2-2.1-.3,0-.6.2-.9.3-.2,0-.3.1-.5.2-.4.2-.8.3-1.2.5h0l2.6-3.8h0c.3-.1.9,0,1.5.2.1,0,.2,0,.4.1.2,0,.5.2.7.3.2,0,.4.2.5.3,0,0,.2,0,.3.1.4.2.7.4,1,.6,0,0,.1,0,.2.1,0,0,.2.1.2.2,0,0,0,0,0,0h0c.1.2.2.4.2.6,0,.2,0,.3,0,.5,0,.5-.1,1.1,0,1.6ZM270.5,384h0s-2.9-1.5-2.9-1.5l4.8-2.4-2,3.9ZM280.8,230.7l-3.4,1.9c-.7-.6,3.3-5.4,4.9-4.9l-1.5,2.9ZM286.2,223.9c-.3-1.8,1.1-3.2,2.9-2.9.3,1.8-1.1,3.2-2.9,2.9ZM287.1,238.5l4.9,2c-.5,3-5.5-1.3-4.9-2ZM301,267.8c0,.3-.1.6-.3.9-.2.2-.5.4-.8.4s-.3,0-.5,0c-.1,0-.3-.1-.4-.3-.1,0-.2-.2-.3-.4,0,0,0-.2,0-.2,0,0,0-.2,0-.2s0-.2,0-.2c0,0,0-.2,0-.2,0-.1.2-.3.3-.4.1-.1.2-.2.4-.3.2,0,.3,0,.5,0,.3,0,.6.1.8.3.2.2.3.5.3.9ZM300.8,265.9c-2.4.7-2-1.2-2.9-2.9,1.8-.3,3.2,1.1,2.9,2.9ZM299.8,307.8h-1.9v-2.9h1.9v2.9ZM299.8,303.9h-1v-1.9h1v1.9ZM299.8,295.4c-.2,0-.3,0-.5,0-.1,0-.3-.2-.4-.3-.1-.1-.2-.2-.3-.4,0,0,0-.2,0-.2,0,0,0-.2,0-.2s0-.2,0-.2c0,0,0-.2,0-.2,0-.1.2-.3.3-.4.1-.1.2-.2.4-.3.2,0,.3,0,.5,0,.3,0,.6.1.8.3.2.2.3.5.3.9s-.1.6-.3.9c-.2.2-.5.3-.8.3ZM301,283.4c0,0-.1,0-.2,0s-.1,0-.2,0c0,0-.2,0-.2-.1,0,0-.1-.1-.2-.2,0,0-.1-.1-.2-.2,0,0,0-.1-.1-.2,0,0,0-.2,0-.3,0-.1,0-.2,0-.4,0,0,0-.1,0-.2,0,0,0-.1,0-.2,0-.1,0-.2,0-.4,0-.2,0-.3,0-.5,0-.2,0-.4,0-.7,0-.6.2-1.3.4-1.9,0-.2,0-.3.1-.5,0-.3.1-.6.2-.9.1-.4.2-.9.2-1.2,0-.1,0-.3,0-.4,0-.1,0-.2,0-.3,0,0,0-.2,0-.3,0,0,0-.2,0-.2l.9,9.2c-.3,0-.6,0-.8,0ZM308.6,214.1c-1.8.3-3.2-1.1-2.9-2.9,1.8-.3,3.2,1.1,2.9,2.9ZM370.6,401.6c0,0,.1.1.2.2,0,0,0,0,0,0,0,0,.2.2.2.3.1.2.2.4,0,.5-1.6,1.9-3.3-3-1-1.5,0,0,0,0,.1.1s.1.1.2.2.1,0,.2.2ZM369.2,365.2c.7,0,1.2.5,1.2,1.2s-.5,1.2-1.2,1.2-1.2-.5-1.2-1.2.5-1.2,1.2-1.2ZM337.9,448.5h2.9l-2.9,1.9v-1.9ZM311.6,246.5c-.2,0-.3,0-.5,0-.1,0-.3-.2-.4-.3-.1-.1-.2-.2-.3-.4,0,0,0-.2,0-.2,0,0,0-.2,0-.2s0-.2,0-.2c0,0,0-.2,0-.2,0-.1.2-.3.3-.4.1-.1.2-.2.4-.3.1,0,.3,0,.5,0,.3,0,.6.1.8.3.2.2.4.5.4.9s-.1.6-.4.9c-.2.2-.5.3-.8.3ZM324.6,243.8l-1.2,1.6-5-3.7h0s1.2-1.6,1.2-1.6l5,3.7h0ZM318.4,252.2h0s-4.9-5.8-4.9-5.8l6.8,3.9-1.9,1.9ZM330.4,261.6c-.2,0-.3-.2-.5-.3-.2-.1-.4-.2-.5-.4-.1,0-.2-.2-.4-.3-.3-.2-.7-.5-1-.8-.3-.3-.6-.5-.9-.8-.9-.8-1.7-1.7-2.5-2.6-.3-.3-.5-.5-.8-.8-.1-.1-.2-.3-.4-.4,0,0-.1-.1-.2-.2,0,0-.1-.1-.2-.2-.3-.3-.5-.5-.8-.8.4.1.8.2,1.3.4.2,0,.4.2.7.3.7.3,1.4.7,2.1,1.2.2.1.5.3.7.5.3.2.5.4.8.6.1.1.3.2.4.3.1.1.2.2.4.3,0,0,.2.2.3.3.2.2.5.5.7.8.1.1.2.3.3.4,0,.1.2.2.2.3s.2.2.2.3c0,.1.1.2.2.3s.1.3.2.4c0,.1.1.3.2.4,0,.1,0,.3.1.4,0,.1,0,.3,0,.4-.2-.1-.5-.2-.7-.3Z"/>
  <path class="st2" d="M135.8,445.5c-.5-.2-.8-.2-1-1,.3.4.7.6,1,1Z"/>
  <path class="st2" d="M190.4,430.9c.3-.3.7-.6,1-1-.3.3-.7.8-1,1Z"/>
  <path class="st2" d="M198.3,421.1l2,1.5c0,1.1-1.7.2-2,.5.2-.3-.1-1.4,0-2Z"/>
  <path class="st2" d="M197.3,425c.1,0,.3-1.4,1-2-.3.4-.2,1.5-1,2Z"/>
  <path class="st2" d="M186.6,434.8c-.8.8-1,3.7-2.9,3.9-.4-1.8,1.3-2.6,1.9-3.9,0-.1.9.1,1,0Z"/>
  <path class="st1" d="M186.6,434.8c0,.1-.9-.1-1,0,.2-.1-.5-2,.5-2,.7-.2.7,1.6.5,2h0Z"/>
  <path class="st1" d="M191.4,429.9c-.3.3-.6.7-1,1-.6.4-1.3.9-1.9,1-.4-2.8,2.7-3.4,4.4-4.9.6.6-1,2.4-1.5,2.9h0Z"/>
  <path class="st1" d="M198.3,423.1c-.7.6-.9,1.9-1,2-1.4.3-2.4.3-1.9-1.5.4-1.1,2.5-1.9,2.9-2.5-.1.6.2,1.7,0,2h0Z"/>
  <path class="st1" d="M208,410.4s0,0,0,0h0s0,0,0,0h0ZM318.5,438.3c0,0,0-.1,0-.2,0,0,0-.1-.2-.2,0,0-.1-.1-.2-.2-.4-.3-.9-.3-1.3,0,0,0-.1.1-.2.2s-.1.1-.2.2c0,0,0,.1,0,.2-.2.4-.1.8,0,1.1,0,0,0,0,.1.1,0,0,0,0,0,0h0s0,0,0,0c.4.3.8.4,1.2.2.1,0,.3-.1.4-.3h0c.4-.4.4-.9.3-1.3ZM337.9,448.5v1.9l2.9-1.9h-2.9ZM372,407c0,.2,0,.3-.1.5,0,.3-.1.7-.2,1.1,0,.3,0,.5-.2.8-.1.5-.2,1.1-.3,1.7-.1.6-.2,1.2-.4,1.8-.1.6-.2,1.3-.4,1.9,0,.4-.2.9-.3,1.3-1.6,7.8-3.9,17.3-7.5,23.1-.2.3-.4.6-.6,1-.3.5-.6.9-1,1.3-.2.3-.5.5-.7.8-.6.6-1.2,1.1-1.9,1.4,0,0,0,0,0,0,0,0-.3-.4-.5-.8,0-.1-.2-.2-.3-.4s-.1-.1-.2-.2c0,0,0-.1-.2-.2-.5-.5-1.2-.7-2,0,0,0-.1.1-.2.2-.1.2-.3.3-.4.5h0c-.1.2-.3.5-.4.7h0c0,.1-.1.2-.2.3-.1.2-.2.5-.4.8,0,0,0,.2-.1.3-.1.3,0,.5.2.7,0,0,0,0,.1.1,0,0,.2.2.3.2,0,0,.1,0,.2.1.1,0,.2.2.3.2,0,0,.1.1.2.2.4.4.5.8-.1,1.4-.2.2-.5.3-.8.5h0c-.3.2-.7.3-1.1.5-.6.2-1.3.5-2.2.8-5.8,1.9-6.9,1.4-12.7.5h0c-8.4-1.3-15.4-4.8-21.4-10.8,0,0,0,0,0,0-.3-.3-.5-.5-.8-.7,0,0-.2-.2-.2-.2,0,0-.1-.1-.2-.2,0,0-.1-.1-.2-.2-.7-.7-.8-.9-.7-1,0,0,.2,0,.5,0,0,0,0,0,.2,0,.1,0,.2,0,.3,0,.2,0,.4,0,.5,0,.2-.2.1-.6-.5-1.5,0,0,0,0,0,0-.3-.3-1.6-1.2-3-2.2-.7-.5-1.4-1-2.1-1.4-.3-.2-.6-.4-.8-.5-.4-.3-.8-.5-1.1-.6-.1,0-.2,0-.3-.1l2,4.8-21.5-24.3,10.2,9.2h0c0,0-12.2-14.2-12.2-14.2l-1,2.9c-.2-.2-.5-.5-.7-.7-.4-.4-.7-.8-1-1.2-.7-.9-1.4-2-2.1-3-.6-.9-1.1-1.8-1.7-2.8-.2-.3-.4-.6-.5-.9-.5-.9-1.1-1.8-1.6-2.7h0c-.4-.6-.8-1.3-1.2-1.9,0,0,0,0,0,0,0,0-.1-.2-.2-.3,0,0-.2-.2-.2-.3h0c.5.5,1.2.5,1.7,0h0c.3-.4.4-.9.3-1.3,0,0,0-.1-.1-.2,0,0,0-.1-.2-.2s-.1-.1-.2-.2c-.4-.3-.9-.3-1.3,0,0,0-.1,0-.2.2s-.1.1-.1.2c0,0,0,.1-.1.2-.1.3-.1.8.1,1.1-1.1-1.4-2.2-2.8-3.4-4.2-1.2-1.5-2.3-2.9-3.5-4.4h0c-.8-1-1.6-1.9-2.4-2.8-.4.4-.8.7-1.1,1.1h0c-.3.3-.6.5-.8.8-.6.5-1.1,1-1.7,1.4-.3.2-.6.4-.8.6-.8.6-1.5,1.1-2.3,1.5-.8.5-1.5.9-2.3,1.2-.4.2-.8.4-1.2.5-.8.3-1.6.6-2.3.8-4.8,1.4-9.6,1-14.4-.9-.8-.3-1.6-.7-2.4-1.1-.8-.4-1.6-.9-2.4-1.4-.4-.2-.8-.5-1.2-.8-.4-.3-.8-.6-1.2-.9-1.2-.9-2.4-1.9-3.6-3-.1,0-.3.2-.5.4,0,0,0,.1-.1.2-.1.1-.2.2-.3.4h0c-.1.2-.2.3-.4.5,0,0-.1.2-.2.3-.2.3-.5.6-.7.9h0c-.2.4-.5.7-.8,1.1,0,.1-.2.3-.3.4-.2.3-.4.5-.6.8-.4.6-.8,1.2-1.2,1.8-.2.3-.4.6-.6.9-.2.3-.4.7-.7,1-.3.5-.7,1-1,1.5-.4.7-.9,1.4-1.4,2.1-.2.3-.5.7-.7,1-.2.3-.5.7-.7,1-.2.3-.4.7-.7,1,0,.2-.2.3-.3.5-.7,1.1-1.4,2.1-2.1,3.1-.2.3-.4.6-.6.9,0,.1-.2.3-.3.4-.5.7-.9,1.3-1.2,1.8-.1.2-.2.3-.4.5h0c-.3.4-.6.8-.8,1-.2.3-.5.3-1,.4-.1,0-.3,0-.5.2-.5.2-1.1.6-1.9,1.3,0,0-.1.2-.2.2,0,0-.2.2-.2.2,0,0-.2.2-.2.3,0,0-.1.1-.2.2h0s0,0,0,0c0,0,0,0,.1,0,0,0,0,0,.1,0,0,0,.2,0,.3-.2h0c.1,0,.3-.1.4-.2.1,0,.3-.1.4-.2h0c.1,0,.2-.1.3-.1,0,0,.2,0,.2,0h0s-1.5,2.9-1.5,2.9h0c-.2,0-.3-.2-.4-.4,0-.1,0-.3-.1-.5,0-.2,0-.4,0-.6,0-.1,0-.2,0-.3,0,0,0-.1,0-.2h0c0,.1-.2.2-.2.3-.1.1-.3.3-.4.4-.2.2-.4.5-.7.7,0,0,0,0,0,0-.4.4-.7.8-1.1,1.1-2.6,2.5-4.9,4.6-7.3,8.2l2,1.5c0,.2,0,.3-.1.4,0,0,0,0-.1,0s0,0-.1,0c-.2,0-.5,0-.8,0t0,0c-.2,0-.4,0-.5,0,0,0,0,0-.1,0,0,0,0,0,0,0,0,0,0,0,0,0,0,0,0,.1,0,.2,0,.1,0,.2-.1.4,0,.1,0,.3-.1.4,0,.1,0,.3-.2.4,0,0,0,.2-.2.2,0,0,0,0-.1.1s0,0,0,0c0,0,0,0-.2.1t0,0s0,0,0,0c0,0,0,.2,0,.3,0,.1,0,.3-.2.4-.1.3-.3.5-.5.8,0,.1-.2.2-.3.3,0,0-.1.2-.2.2-.4.4-.9.7-1.4,1-.2,0-.3.2-.5.3-.2,0-.3.2-.5.3-.2,0-.3.2-.5.2-.8.4-1.4.7-1.7.9,0,0,0,0,0,0,0,0,0,0-.1.1h0s0,0,0,0c-.2.2-.4.5-.6.6,0,0-.1.1-.2.1,0,0,0,0,0,0,0,0,0,0,0,0h0s0,0,0,0c-.1.2-.3.3-.5.5-.3.3-.6.6-1,1-.3.3-.6.6-1,1-.3.3-.6.7-1,1-.2.2-.3.3-.5.5h0s0,0,0,0c0,0,0,0-.1.1h0c0,0,0,.1-.1.2-.1.2-.3.5-.4.9,0,0,0,.2-.1.3,0,.2-.2.4-.3.6,0,.2-.2.4-.3.5,0,0,0,.1-.1.2,0,0,0,0,0,0,0,0,0,0,0,0,0,0,0,0,0,0,0,0-.1.2-.2.2,0,0,0,0,0,.1,0,0,0,0-.1.1h0c0,0-.2.2-.3.2,0,0,0,0,0,0,0,0,0,0,0,0,0,0-.1,0-.2,0-.1,0-.2,0-.3,0,0-.2,0-.4,0-.5s0-.3,0-.5c0,0,0-.2,0-.2,0,0,0-.2,0-.2,0,0,0-.1.1-.2,0,0,0-.1.1-.2h0c0-.1.2-.3.3-.4,0,0,.1-.1.2-.2,0-.1.2-.2.3-.4,0,0,.1-.1.2-.2h0c0-.1.2-.3.3-.4,0-.1.2-.3.2-.4h0s0,0,0,0c-2.5,1.5-7.8,4.7-9.4,6.3,0,0-.1.1-.2.2-.3.4-.4.6-.1.7.5.1,2.2-.4,5.7-1.8-13.4,11-30.5,20.7-44.8,6.4-.3-.3-.7-.7-1-1h0s0,0,0,0h0s0,0,0,0h0s0,0,0,0c0,0,0,0-.1,0,0,0,0,0,0,0-.2,0-.4-.1-.5-.3h0s0,0-.1-.1c0,0,0-.1,0-.2,0,0,0-.2,0-.2,0,0,0,0,0,0h0c-5.9-7.5-12.3-22.1-7.8-31.3-.5-.5-1.1-.3-1.5.2-.1.1-.3.3-.4.5,0,0-.1.2-.2.3-.1.2-.2.4-.3.6,0,0,0,.2-.1.3,0,.2-.1.4-.2.5,0,0,0,0,0,0,0,0,0,0,0,0,0,.1,0,.3-.1.4,0,0,0,0,0,.1,0,0,0,0,0,.1-.5,2.5-.4,5.5,0,8.9,0,.5.1,1,.2,1.5.4,2.5,1.1,5.2,2,7.9.4,1.3.9,2.7,1.4,4h0c.3.7.5,1.3.8,2,.3.7.6,1.3.9,2t0,0c.4.8.8,1.5,1.2,2.3t0,0c.3.5.5,1,.8,1.5.1.2.3.5.4.8.3.5.6,1,.9,1.4h0c.5.7.9,1.4,1.4,2.1.5.7,1,1.3,1.4,2,.3.4.7.8,1,1.2.3.4.7.8,1,1.1.2.2.3.4.5.5.4.4.7.7,1.1,1,.2.2.4.3.5.5.4.3.7.6,1.1.9.4.3.8.5,1.1.8.8.5,1.5.9,2.3,1.3.2.1.5.2.7.3.8.3,1.5.5,2.3.7,3.5.7,7.2.4,11-.6.8-.2,1.6-.4,2.4-.7.9-.3,1.7-.6,2.6-.9.3-.1.6-.2.9-.4.6-.2,1.2-.5,1.7-.8.3-.1.6-.3.9-.4.6-.3,1.2-.6,1.7-.9,1.2-.6,2.3-1.3,3.5-2,.6-.3,1.1-.7,1.7-1,.3-.2.6-.4.9-.5.6-.4,1.1-.7,1.7-1.1.3-.2.6-.4.9-.6.8-.6,1.7-1.2,2.5-1.8.6-.4,1.1-.8,1.7-1.2.5-.4,1.1-.8,1.6-1.2,0,0,0,0,0,0,.8-.6,1.6-1.3,2.4-1.9,1.8-1.5,3.6-3,5.3-4.6,1.9-1.7,3.8-3.5,5.5-5.1.4-.4.8-.8,1.2-1.2s.8-.8,1.2-1.2c1-1,1.9-1.9,2.7-2.8h0c5.2-5.5,10-11.6,14.5-17.9,1.1-1.6,2.2-3.1,3.3-4.7t0,0c2.2-3.2,4.3-6.4,6.4-9.6,1-1.6,2.1-3.2,3.1-4.8,0,0,0,0,0,0,13.1,11,25.6,12.2,38.5,0l28.8,39.1c.3,0,.8-.5,1.4-.7.2,0,.4-.1.6-.1s.6,0,.8.3c26,28.9,48.3,35,61.4,18.2.4-.5.7-.9,1-1.4.2-.2.3-.5.5-.8.3-.5.7-1,1-1.6.3-.5.6-1.1.9-1.7.3-.6.6-1.2.9-1.8.3-.6.6-1.2.8-1.9,3.6-8.4,5.9-19.7,6.7-33.9,0,.2,0,.3-.1.5ZM202.2,419.2c0-.2.2-.4.3-.6,0,0,0,0,.1-.1l-.5.7ZM206,416.2h0s-.2.1-.4.3c-.6.4-1.7.9-2.5,1.6,0,0,0,0,0,0-.2.1-.3.3-.4.4h0s0,0,0,0l2.9-4.1c.1,0,.2,0,.3,0,0,0,.1.1.1.2,0,0,0,.1,0,.2.1.5,0,1.2,0,1.4Z"/>
  <path class="st1" d="M134.8,444.6l.5-3.9,2.4,3.5c.6,1.7-1,1.8-1.9,1.4-.3-.3-.7-.6-1-1h0Z"/>
  <path class="st1" d="M369.1,352.8l-3.9,2,2.9-5.9c.2,1.1.7,2.2,1,3.9h0Z"/>
  <path class="st1" d="M221.5,228.9c.5.8.2,1.9.2,2.8-3.6-2.9-3.7-2.9-7.8-1l2.6-3.8c1.1-.3,4.6,1.5,4.9,2h0Z"/>
  <path class="st1" d="M301.8,283.4c-4.4.5-.4-7.4-1-9.8l1,9.8Z"/>
  <path class="st1" d="M202.2,304c-.1,2.9,2.6,6.8-1.9,6.8l-1-5.4,2.9-1.5h0Z"/>
  <path class="st1" d="M331.1,262c-3.6-1.7-5.9-5.2-8.8-7.8,3.3.8,8.1,4.2,8.8,7.8Z"/>
  <path class="st1" d="M174.8,245.4c.4.4-3.8,5-4.9,3.9l.9-3.3,4-.6Z"/>
  <path class="st1" d="M282.2,227.8l-1.5,2.9-3.4,1.9c-.7-.6,3.3-5.4,4.9-4.9h0Z"/>
  <polygon class="st1" points="272.5 380.1 270.5 384 267.6 382.6 272.5 380.1"/>
  <rect class="st1" x="320.5" y="239.7" width="2" height="6.2" transform="translate(-65.2 355.9) rotate(-53.4)"/>
  <polygon class="st1" points="320.3 250.3 318.4 252.2 313.5 246.3 320.3 250.3"/>
  <rect class="st1" x="198.3" y="296.2" width="3.9" height="2" transform="translate(-97.5 496.5) rotate(-89.8)"/>
  <polygon class="st1" points="201.2 292.2 199.2 292.2 199.2 288.3 201.2 292.2"/>
  <path class="st1" d="M289.1,220.9c.3,1.8-1.1,3.2-2.9,2.9-.3-1.8,1.1-3.2,2.9-2.9Z"/>
  <path class="st1" d="M210,223.9l.5-4.9c2.1,1.5,2.1,3.9-.5,4.9Z"/>
  <path class="st1" d="M308.6,214.1c-1.8.3-3.2-1.1-2.9-2.9,1.8-.3,3.2,1.1,2.9,2.9Z"/>
  <polygon class="st1" points="201.2 267.8 200.7 271.7 199.2 267.8 201.2 267.8"/>
  <path class="st1" d="M292,240.5c-.5,3-5.5-1.3-4.9-2l4.9,2Z"/>
  <rect class="st1" x="297.9" y="304.9" width="1.9" height="2.9"/>
  <path class="st1" d="M300.8,265.9c-2.4.7-2-1.2-2.9-2.9,1.8-.3,3.2,1.1,2.9,2.9Z"/>
  <circle class="st1" cx="299.8" cy="294.2" r="1.2"/>
  <circle class="st1" cx="213.9" cy="235.6" r="1.2"/>
  <circle class="st1" cx="210" cy="240.5" r="1.2"/>
  <circle class="st1" cx="311.6" cy="245.3" r="1.2"/>
  <circle class="st1" cx="200.2" cy="265.8" r="1.2"/>
  <circle class="st1" cx="369.2" cy="366.4" r="1.2"/>
  <circle class="st1" cx="299.8" cy="267.8" r="1.2"/>
  <path class="st1" d="M371.1,402.6c-1.6,1.9-3.3-3-1-1.5.4.4,1.3,1.1,1,1.5Z"/>
  <path class="st1" d="M128,420.1c-1.6,1.9-3.3-3-1-1.5.4.4,1.3,1.1,1,1.5Z"/>
  <path class="st1" d="M141.6,448.5c-1.6,1.9-3.3-3-1-1.5.4.4,1.3,1.1,1,1.5Z"/>
  <rect class="st1" x="298.9" y="302" width="1" height="1.9"/>
  <path class="st2" d="M206.1,416.2c-.1.2-3.6,1.8-3.9,3l3.4-4.9c.8-.2.7,1.5.5,1.9h0Z"/>
</svg>