<?xml version="1.0" encoding="UTF-8"?><svg id="Layer_1" xmlns="http://www.w3.org/2000/svg" viewBox="0 0 500 500"><defs><style>.cls-1{fill:#012f5d;}.cls-2{fill:#b00809;}.cls-3{fill:#c9c8c8;}.cls-4{fill:#fdfdfd;}</style></defs><path class="cls-1" d="M263.69.26c1.31,1.72,4.02.86,5.86.98,119.3,7.34,223.26,109.32,229.48,229.48.1,1.84-.73,4.56.98,5.86v27.34c-1.71,1.3-.88,4.02-.98,5.86-10.49,203.05-261.22,303.15-414.04,168.45C-80.76,292.13,10.95,18.27,230.49,1.24l5.86-.98h27.34ZM324.23,79.35c-.65-.32-1.3-.65-1.95-.98-55.99-27.89-105.72-13.59-159.17,6.84-.45.17-1.36-.12-1.95,0-6.4-15.92-19.46-27.71-31.19-39.6l-5-.99c-2.3,1.75.13,4.58.06,5.44-.94,12.64,7.64,12.6,14.61,21.03,5.91,7.14,8.79,11.52,12.73,19.98l-10.72,6.35,18.53,18.07c11.39,29.28,30.25,45.89,43.94,73.24-2.07,17.09-24.69,17.06-38.08,22.46-.29-.35-.7-.62-.98-.98-18.23-23.44-47.28-44.42-66.89-67.35-28.28,37.16-35.89,80.18-33.69,125.94.08,1.72-.06,3.37.98,4.88-3.17,2.02-15.07,10.01-9.76,13.67l.63,7.63c4.53-1.44,7.82-4.51,12.06-6.65.62,21.03,14.67,38.9,21.48,56.64.17.45-.12,1.36,0,1.95-6.03,6.76-7.84,3.33-7.81,13.67,0,1.75-1.01,3.38-.8,5.16l3.14,2.6c3.48-4.91,9.08-7.67,13.28-11.67l23.44,27.34c.05,3.4,1.17,10.13,1.95,13.67.44,10.48,3.6,10.63.98,18.55-2.43,12.86,8.81,41.89,23.18,44.69,18.11,3.52,42.27-18.68,53.97-31.02,20.65,6.79,44.26,8.25,65.88,6.8,8.74-.58,21.03-4.78,28.84-4.85.48,0,1.74-1.42,2.87-.52,39.07,43.52,69.93,35.4,73.29-24.87.99-17.65-.04-36.32-2.93-53.71-.28-1.7-.77-2.83-.98-3.91-2.04-10.65-5.06-21.09-8.79-31.25-.04-.65.06-1.31,0-1.95,2.32,1.85,4.66,3.86,6.84,5.86,1.12,1.03,2.82,2.77,3.91,3.91,4.59,4.81,8.08,10.51,12.67,15.16,13.41,13.59,29.77,24.5,40.04,41.02l3.75-2.19c.21-1.79-.8-3.41-.8-5.16,0-11.2-9.03-17.78-16.6-25.39.11-1.06.55-1.98.98-2.93,8.19-18.1,19.02-35.22,21.48-55.66,6.04,3.11,17.82,12.02,11.72-1.95,8.3-2.08-6.89-11.45-8.79-12.69.06-.64-.09-1.33,0-1.95,11.15-75.96-31.62-156.35-100.58-189.44,7.23-12.69,16.18-26.24,30.13-32.35l-2.78-5.73c.96-.81,3.5-2.48,3.65-3.4l-3.28-3.13c-10.81-.6-32.82,30.6-37.48,39.74Z"/><path class="cls-3" d="M269.55.26v.98c-1.84-.11-4.55.75-5.86-.98h5.86Z"/><path class="cls-3" d="M500,269.77h-.98c.1-1.84-.73-4.56.98-5.86v5.86Z"/><path class="cls-3" d="M500,236.57c-1.71-1.3-.88-4.02-.98-5.86h.98v5.86Z"/><polygon class="cls-3" points="236.35 .26 230.49 1.24 230.49 .26 236.35 .26"/><path class="cls-4" d="M434.58,273.68c-12.63-7.39-25.25-11.07-37.43-19.7-12.88-9.13-23.07-22.67-37.11-31.24-19.46-11.87-41.89-14.82-61.17-25.27,19.73-23.53,14.87-53.46,20.72-80.28,2.33-10.71,9-23.45,14.41-32.95,68.96,33.09,111.72,113.48,100.58,189.44Z"/><path class="cls-4" d="M322.28,78.38c-19.23,31.9-8.23,71.83-28.82,102.52l-10.23-18.06,7.08-4.63c4.96-10.75-1.7-17.75-2.15-24.71-.6-9.28,7.14-22.43-4.99-31.14-5.17-3.71-10.51-2.33-13.6-3.98-2.07-1.1-3.5-7.68-7.81-9.77-6.78-3.29-7.94,1.65-11.1,1.3-1.23-.14-3.66-4.01-7.91-3.68-6.64.51-8.18,9.97-10.3,11.19-3.31,1.91-8.88-.23-14.54,4.99-10.41,9.59-2.93,18.95-4.54,27.86-.5,2.77-4.89,6.54-5.37,12.12-.46,5.35,1.1,16.7,7.83,18.06l-4.35,5.87c-13.18-11.2-27.91-26.86-35.84-42.36-6.87-13.43-7.25-25.27-12.52-38.75,53.45-20.43,103.18-34.73,159.17-6.84Z"/><path class="cls-4" d="M165.06,210.2c-39.04,10.7-59.35,49.53-98.6,61.07l-1.98-2.48c-2.2-45.77,5.4-88.78,33.69-125.94,19.61,22.93,48.66,43.91,66.89,67.35Z"/><path class="cls-4" d="M431.65,290.28c-2.47,20.44-13.29,37.56-21.48,55.66-29.31-14.83-35.39-45.29-51.94-68.66-13.03-18.4-34.14-28.63-39.84-53.4,36.15,2.42,54.8,34.3,81.71,50.59,8.89,5.38,21.71,10.74,31.56,15.8Z"/><path class="cls-4" d="M68.39,288.32c11.05-5.57,23.7-10.77,33.9-17.36,24.51-15.85,42.34-44.4,75.46-48.05-8.95,21.41-30.57,29.79-43.77,48.49-15.58,22.06-20.17,54.78-44.11,73.56-6.82-17.73-20.86-35.61-21.48-56.64Z"/><path class="cls-4" d="M295.91,431.87c-7.8.07-20.09,4.27-28.84,4.85-21.62,1.44-45.23-.01-65.88-6.8,10.46-11.04,19.13-24.35,27.36-37.1,13.07,10.94,25.64,12.21,38.51,0l28.85,39.06Z"/><path class="cls-4" d="M121.12,384.02l-23.44-27.34c29.54-28.15,30.33-65.38,59.55-90.81-14.82,39.28-36.81,74.51-36.12,118.16Z"/><path class="cls-2" d="M443.36,288.32c6.1,13.98-5.68,5.06-11.72,1.95-9.85-5.07-22.66-10.42-31.56-15.8-26.91-16.29-45.57-48.17-81.71-50.59,5.7,24.77,26.81,35,39.84,53.4,16.55,23.37,22.63,53.83,51.94,68.66-.43.95-.86,1.87-.98,2.93-7.39-7.42-16.42-13.13-23.4-21.03-15.69-17.75-20.64-40.88-36.14-58.58-5.62-6.42-15.64-12.25-20.37-18.69-7.1-9.66-12.52-27.54-18.7-38.41,13.86,4.53,27.71,7.33,40.68,14.48,17.64,9.73,30.45,27.4,47.06,37.89,14.06,8.88,31.17,14.07,45.05,23.79Z"/><path class="cls-2" d="M55.7,287.35c14.58-9.83,32.02-15.73,46.6-25.18,26.8-17.38,46.09-47.96,83.27-50.01-7.85,28.69-35.54,39.15-50.6,61.19-18.77,27.47-18.68,43.95-45.09,73.56-.12-.6.17-1.5,0-1.95,23.94-18.78,28.53-51.5,44.11-73.56,13.2-18.7,34.82-27.08,43.77-48.49-33.12,3.65-50.96,32.2-75.46,48.05-10.2,6.6-22.86,11.79-33.9,17.36-4.25,2.14-7.53,5.22-12.06,6.65l-.63-7.63Z"/><path class="cls-2" d="M324.23,79.35c-18.41,36.09-8.65,72.41-30.77,105.47l-16.04-27.91c23.63-7.98,7.38-16.55,7.01-26.46-.23-6.16,9.89-16.59-2.23-26.16-5.46-4.31-10.16-1.81-12.63-2.91-2.64-1.18-4.82-9.7-9.26-11.4-4.71-1.8-6.23,2.44-9.76,2.08-4.55-.46-5.65-8.33-13.21.47-1.88,2.19-2.73,6.98-3.06,7.19-2.02,1.27-9.64-.97-15.4,4.63-10.02,9.74-1.2,17.12-2.25,24.03-.45,2.95-7.36,10.17-6.54,14.81l2.26,6.54,9.37,5.29-13.67,20.99c-7.71-20.05-26.37-34.5-35.53-53.83-6.06-12.79-6.34-24.49-11.36-36.97.6-.12,1.5.17,1.95,0,5.26,13.48,5.64,25.32,12.52,38.75,7.93,15.49,22.65,31.15,35.84,42.36l4.35-5.87c-6.73-1.35-8.3-12.71-7.83-18.06.48-5.58,4.87-9.35,5.37-12.12,1.61-8.91-5.87-18.27,4.54-27.86,5.66-5.21,11.24-3.08,14.54-4.99,2.12-1.22,3.66-10.68,10.3-11.19,4.25-.33,6.68,3.55,7.91,3.68,3.17.35,4.32-4.59,11.1-1.3,4.3,2.09,5.74,8.66,7.81,9.77,3.09,1.65,8.43.26,13.6,3.98,12.13,8.71,4.39,21.86,4.99,31.14.45,6.96,7.11,13.96,2.15,24.71l-7.08,4.63,10.23,18.06c20.59-30.7,9.59-70.62,28.82-102.52.65.32,1.3.66,1.95.98Z"/><path class="cls-2" d="M82.06,360.58c44.14-23.61,41.42-83.11,81.52-108.41l1.02,2.98c-9.28,25.75-25.68,52.77-33.76,78.54-2.01,6.42-5.16,15.16-1.93,21.02-4.6-.67-2.32,1.5-2.81,4.02.47-.47,1.23-.47,1.7,0s.47,1.23,0,1.7-1.23.47-1.7,0-.47-1.23,0-1.7c-1.04,3.72-1.63,7.24-2.18,11.16-.29,2.04,2.22.74,2.07,2.39-.02.26-2.68-.65-2.91,4.4-.31,6.64-.28,14.36,0,21-.78-3.54-1.9-10.27-1.95-13.67-.69-43.65,21.29-78.87,36.12-118.16-29.23,25.44-30.02,62.67-59.55,90.81-4.21,4.01-9.81,6.76-13.28,11.67l-3.14-2.6c-.21-1.78.8-3.41.8-5.16Z"/><path class="cls-2" d="M361.34,46.15l2.78,5.73c-13.95,6.11-22.9,19.66-30.13,32.35-5.41,9.5-12.08,22.24-14.41,32.95-5.85,26.83-.99,56.75-20.72,80.28,19.28,10.44,41.7,13.4,61.17,25.27,14.05,8.57,24.23,22.11,37.11,31.24,12.18,8.63,24.8,12.31,37.43,19.7-.09.63.06,1.32,0,1.95-10.6-6.94-23.5-9.94-34.31-16.96-12.36-8.02-21.68-20.38-33.58-28.91-22.3-15.99-47.25-19.86-71.74-30.79l2.92-.96-3.2-6.07c25.85-26.98,16.31-65.18,29.41-97.61,8.98-22.24,19.82-33.47,37.27-48.17Z"/><path class="cls-2" d="M425.79,374.26c0,1.76,1.01,3.38.8,5.16l-3.75,2.19c-10.27-16.52-26.63-27.43-40.04-41.02-4.59-4.65-8.08-10.35-12.67-15.16-.38-1.91-2.22-3.47-2.93-4.88-6.05-12.03-11.19-24.84-20.02-35.15,2.4,9.65,11.32,20.38,12.21,30.27.06.64-.04,1.31,0,1.95-6.44-17.53-16.66-33.83-23.41-51.28,22.05,14.41,26.88,42.76,42.98,62.47,7.74,9.47,33.15,35.47,42.38,43.56,1.42,1.25,2.36,2.17,4.45,1.89Z"/><path class="cls-2" d="M204.12,188.72c-13.7-27.35-32.55-43.96-43.94-73.24-3.11-7.99-3.41-14.96-7.81-24.41-3.94-8.46-6.82-12.84-12.73-19.98-6.97-8.43-15.55-8.39-14.61-21.03,10.77,9.81,21.92,20.23,28.48,33.53s6.52,24.45,11.7,37.13c7.94,19.41,41.18,49.37,38.92,68.01Z"/><path class="cls-2" d="M165.06,210.2c.28.36.69.62.98.98-33.73,13.61-43.13,31.45-70.39,48.26-9.1,5.61-21.79,8.87-30.19,14.24-1.04-1.51-.89-3.17-.98-4.88l1.98,2.48c39.26-11.54,59.56-50.37,98.6-61.07Z"/><path class="cls-4" d="M152.37,91.07c4.41,9.45,4.7,16.42,7.81,24.41l-18.53-18.07,10.72-6.35Z"/><path class="cls-4" d="M367.2,320.55l-.98.98c-2.18-2-4.52-4.01-6.84-5.86-.9-9.88-9.81-20.62-12.21-30.27,8.84,10.31,13.97,23.12,20.02,35.15Z"/><path class="cls-3" d="M370.13,325.43c-1.08-1.13-2.79-2.88-3.91-3.91l.98-.98c.71,1.41,2.55,2.98,2.93,4.88Z"/><path class="cls-3" d="M324.23,79.35c4.66-9.13,26.68-40.34,37.48-39.74l3.28,3.13c-.15.92-2.7,2.6-3.65,3.4-17.45,14.7-28.29,25.93-37.27,48.17-13.09,32.42-3.56,70.63-29.41,97.61l3.2,6.07-2.92.96c24.49,10.93,49.44,14.8,71.74,30.79,11.9,8.54,21.23,20.89,33.58,28.91,10.8,7.02,23.71,10.02,34.31,16.96,1.9,1.24,17.09,10.62,8.79,12.69-13.88-9.72-30.99-14.91-45.05-23.79-16.61-10.49-29.42-28.16-47.06-37.89-12.97-7.15-26.82-9.95-40.68-14.48,6.18,10.87,11.61,28.76,18.7,38.41,4.73,6.44,14.75,12.27,20.37,18.69,15.51,17.69,20.45,40.83,36.14,58.58,6.98,7.9,16.01,13.61,23.4,21.03s16.61,14.19,16.6,25.39c-2.09.28-3.03-.64-4.45-1.89-9.23-8.09-34.64-34.08-42.38-43.56-16.1-19.71-20.92-48.06-42.98-62.47,6.75,17.45,16.97,33.75,23.41,51.28,3.73,10.16,6.75,20.6,8.79,31.25l-2.92,5.86,3.89-1.95c2.89,17.39,3.92,36.05,2.93,53.71-2.06,8.85-5.29,32.34-13.66,37.1-.32.18-1.97-5.42-4.89,1.49-.6,1.42,5.54,2.01-2.97,4.83-5.82,1.93-6.91,1.44-12.66.52l2.93-1.94h-2.92s0,1.94,0,1.94c-8.38-1.34-15.38-4.77-21.38-10.84.47.47,1.23.47,1.7,0s.47-1.23,0-1.7-1.23-.47-1.7,0-.47,1.23,0,1.7c-5.39-5.07,1.4.12-1.09-3.78-.24-.37-6.19-4.43-7.33-4.88l1.98,4.85-21.51-24.38,10.26,9.26-12.21-14.16-.97,2.93c-3.77-3.79-6.2-9.71-9.16-13.78.47.47,1.23.47,1.7,0s.47-1.23,0-1.7-1.23-.47-1.7,0-.47,1.23,0,1.7c-3.13-3.82-6.2-7.85-9.49-11.57-12.24,12.22-25.52,11.35-37.94-.05-1.41.28-14.06,20.45-16.67,23.46-.61.7-1.35-.41-4.36,2.91.06-.09,1.87-1.07,1.94-.98l-1.46,2.92c-.8.13-.61-1.74-.48-1.95-3.54,3.91-6.64,6.06-9.76,10.74-.4.61-2.47,1.35-2.92,2.46-.44,1.72.6,1.74,1.94,1.45-.53,2.85-5.1,4.1-5.86,4.88.45-.51,2.05-2.27,1.48-2.9-1.65,1.47-4.77,2.09-4.4,4.86.68-.11,1.32-.63,1.94-.98-1.33,1.31-2.5,2.55-3.91,3.91.19-.34.26-2.13-.49-1.97-1.02-.03-.24,1.82-.49,1.97-4.37,2.54-17.38,10.68-3.93,5.36-13.73,11.28-31.37,21.13-45.87,5.38.93.39,2.45.35,1.9-1.4l-2.37-3.5-.5,3.92c-5.88-7.45-12.3-22.1-7.82-31.24-1.51-1.34-2.83,2.43-2.92,2.92,2.62-7.92-.54-8.07-.98-18.55-.28-6.64-.3-14.36,0-21,.23-5.05,2.89-4.14,2.91-4.4.15-1.65-2.35-.35-2.07-2.39.55-3.92,1.14-7.44,2.18-11.16-.47.47-.47,1.23,0,1.7s1.23.47,1.7,0,.47-1.23,0-1.7-1.23-.47-1.7,0c.49-2.52-1.8-4.7,2.81-4.02-3.23-5.86-.08-14.6,1.93-21.02,8.08-25.77,24.48-52.78,33.76-78.54l-1.02-2.98c-40.11,25.3-37.38,84.8-81.52,108.41-.03-10.35,1.78-6.91,7.81-13.67,26.41-29.61,26.31-46.08,45.09-73.56,15.06-22.04,42.75-32.5,50.6-61.19-37.18,2.05-56.47,32.63-83.27,50.01-14.57,9.45-32.02,15.35-46.6,25.18-5.3-3.66,6.6-11.65,9.76-13.67,8.4-5.37,21.1-8.63,30.19-14.24,27.25-16.81,36.66-34.65,70.39-48.26,13.39-5.4,36.01-5.37,38.08-22.46,2.26-18.63-30.98-48.6-38.92-68.01-5.18-12.67-5.32-24.2-11.7-37.13s-17.7-23.72-28.48-33.53c.06-.86-2.36-3.69-.06-5.44l5,.99c11.73,11.9,24.78,23.68,31.19,39.6,5.02,12.48,5.3,24.19,11.36,36.97,9.16,19.33,27.82,33.79,35.53,53.83l13.67-20.99-9.37-5.29-2.26-6.54c-.81-4.64,6.09-11.86,6.54-14.81,1.06-6.92-7.76-14.29,2.25-24.03,5.76-5.6,13.38-3.36,15.4-4.63.33-.21,1.18-5,3.06-7.19,7.56-8.81,8.66-.94,13.21-.47,3.54.36,5.05-3.88,9.76-2.08,4.44,1.7,6.62,10.22,9.26,11.4,2.47,1.1,7.17-1.4,12.63,2.91,12.12,9.57,2,20,2.23,26.16.37,9.91,16.61,18.48-7.01,26.46l16.04,27.91c22.12-33.06,12.36-69.38,30.77-105.47ZM308.6,214.1c.31-1.84-1.14-3.24-2.92-2.92-.31,1.84,1.14,3.24,2.92,2.92ZM209.99,223.87c2.61-.93,2.62-3.36.47-4.87l-.47,4.87ZM289.07,220.95c-1.84-.31-3.24,1.14-2.92,2.92,1.84.31,3.24-1.14,2.92-2.92ZM221.47,228.94c-.35-.54-3.83-2.33-4.92-2.02l-2.65,3.78c4.06-1.89,4.15-1.87,7.79.98-.06-.89.31-1.93-.22-2.75ZM282.24,227.79c-1.59-.56-5.56,4.22-4.87,4.87l3.42-1.94,1.45-2.93ZM215.11,235.57c0-.67-.54-1.21-1.21-1.21s-1.21.54-1.21,1.21.54,1.21,1.21,1.21,1.21-.54,1.21-1.21ZM292,240.49l-4.87-1.96c-.64.62,4.39,4.99,4.87,1.96ZM211.21,240.46c0-.67-.54-1.21-1.21-1.21s-1.21.54-1.21,1.21.54,1.21,1.21,1.21,1.21-.54,1.21-1.21ZM319.62,240.12l-1.19,1.6,5,3.72,1.19-1.6-5-3.72ZM312.76,245.34c0-.67-.54-1.21-1.21-1.21s-1.21.54-1.21,1.21.54,1.21,1.21,1.21,1.21-.54,1.21-1.21ZM174.83,245.37l-3.99.61-.89,3.28c1.05,1.08,5.26-3.53,4.88-3.89ZM320.32,250.26l-6.82-3.92,4.9,5.83,1.92-1.91ZM331.06,261.96c-.64-3.63-5.48-6.96-8.78-7.8,2.91,2.56,5.15,6.12,8.78,7.8ZM300.79,265.86c.31-1.84-1.14-3.25-2.92-2.91.93,1.68.52,3.57,2.92,2.91ZM201.44,265.84c0-.67-.54-1.21-1.21-1.21s-1.21.54-1.21,1.21.54,1.21,1.21,1.21,1.21-.54,1.21-1.21ZM301.04,267.8c0-.67-.54-1.21-1.21-1.21s-1.21.54-1.21,1.21.54,1.21,1.21,1.21,1.21-.54,1.21-1.21ZM201.19,267.82h-1.94s1.46,3.89,1.46,3.89l.48-3.89ZM301.77,283.44l-.96-9.75c.53,2.37-3.46,10.23.96,9.75ZM201.19,292.22l-1.93-3.9v3.9s1.93,0,1.93,0ZM301.04,294.16c0-.67-.54-1.21-1.21-1.21s-1.21.54-1.21,1.21.54,1.21,1.21,1.21,1.21-.54,1.21-1.21ZM199.24,295.15v3.92s1.95,0,1.95,0v-3.92s-1.95,0-1.95,0ZM299.81,303.94v-1.94h-.95v1.94h.95ZM202.16,303.95l-2.9,1.46.96,5.37c4.52-.03,1.82-3.95,1.94-6.82ZM299.81,304.93h-1.94v2.92h1.94v-2.92ZM370.38,366.42c0-.67-.54-1.21-1.21-1.21s-1.21.54-1.21,1.21.54,1.21,1.21,1.21,1.21-.54,1.21-1.21ZM272.48,380.13l-4.86,2.43,2.88,1.46,1.97-3.89ZM371.1,402.56c.32-.38-.57-1.05-.98-1.46-2.3-1.52-.6,3.34.98,1.46ZM127.96,420.14c.32-.38-.57-1.05-.98-1.46-2.3-1.52-.6,3.34.98,1.46ZM141.63,448.46c.32-.38-.57-1.05-.98-1.46-2.3-1.52-.6,3.34.98,1.46Z"/><path class="cls-3" d="M135.77,445.54c-.51-.22-.84-.16-.98-.98.28.35.67.64.98.98Z"/><path class="cls-3" d="M190.45,430.89c.32-.32.67-.65.98-.98-.27.31-.67.8-.98.98Z"/><path class="cls-3" d="M198.26,421.13l1.96,1.45c.08,1.06-1.67.24-1.96.5.19-.28-.12-1.38,0-1.95Z"/><path class="cls-3" d="M197.29,425.03c.11-.02.31-1.37.98-1.95-.28.4-.19,1.54-.98,1.95Z"/><path class="cls-3" d="M186.55,434.8c-.81.78-1.02,3.66-2.92,3.91-.4-1.82,1.33-2.56,1.94-3.91.06-.13.9.13.98,0Z"/><path class="cls-2" d="M186.55,434.8c-.07.13-.92-.13-.98,0,.25-.15-.53-1.99.49-1.97.74-.16.68,1.63.49,1.97Z"/><path class="cls-2" d="M191.43,429.92c-.31.32-.65.66-.98.98-.62.35-1.26.86-1.94.98-.38-2.77,2.74-3.39,4.4-4.86.57.64-1.03,2.39-1.48,2.9Z"/><path class="cls-2" d="M198.26,423.08c-.66.58-.87,1.93-.98,1.95-1.35.29-2.38.27-1.94-1.45.45-1.11,2.51-1.85,2.92-2.46-.12.57.19,1.67,0,1.95Z"/><path class="cls-2" d="M276.49,395.64c-.47-.47-.47-1.23,0-1.7s1.23-.47,1.7,0,.47,1.23,0,1.7-1.23.47-1.7,0c2.96,4.07,5.4,9.99,9.16,13.78l.97-2.93,12.21,14.16-10.26-9.26,21.51,24.38-1.98-4.85c1.14.45,7.09,4.51,7.33,4.88,2.49,3.9-4.3-1.29,1.09,3.78-.47-.47-.47-1.23,0-1.7s1.23-.47,1.7,0,.47,1.23,0,1.7-1.23.47-1.7,0c6,6.07,13,9.51,21.38,10.84v-1.95s2.93,0,2.93,0l-2.93,1.94c5.75.92,6.84,1.4,12.66-.52,8.52-2.82,2.38-3.41,2.97-4.83,2.91-6.91,4.57-1.31,4.89-1.49,8.36-4.76,11.59-28.25,13.66-37.1-3.37,60.27-34.22,68.4-73.29,24.87-1.13-.9-2.39.51-2.87.52l-28.85-39.06c-12.87,12.21-25.44,10.95-38.51,0-8.23,12.75-16.9,26.06-27.36,37.1-11.69,12.34-35.85,34.54-53.97,31.02-14.36-2.79-25.6-31.83-23.18-44.69.09-.49,1.42-4.26,2.92-2.92-4.48,9.15,1.94,23.79,7.82,31.24.14.81.47.76.98.98,14.5,15.75,32.14,5.9,45.87-5.38-13.45,5.32-.44-2.82,3.93-5.36-.61,1.34-2.34,2.08-1.94,3.91,1.9-.24,2.11-3.12,2.92-3.91,1.4-1.36,2.58-2.6,3.91-3.91.31-.17.71-.67.98-.98.75-.79,5.33-2.03,5.86-4.88.78-.42.7-1.55.98-1.95.29-.26,2.04.56,1.96-.5l-1.96-1.45c3.12-4.68,6.22-6.83,9.76-10.74-.13.21-.32,2.07.48,1.95l1.46-2.92c-.07-.1-1.88.88-1.94.98,3-3.31,3.75-2.21,4.36-2.91,2.61-3.01,15.26-23.18,16.67-23.46,12.41,11.4,25.69,12.26,37.94.05,3.3,3.72,6.36,7.75,9.49,11.57ZM206.05,416.22c.22-.44.29-2.09-.46-1.92l-3.41,4.88c.28-1.13,3.76-2.73,3.87-2.95Z"/><path class="cls-2" d="M134.79,444.56l.5-3.92,2.37,3.5c.55,1.74-.97,1.79-1.9,1.4-.31-.33-.7-.62-.98-.98Z"/><path class="cls-2" d="M369.15,352.77l-3.89,1.95,2.92-5.86c.21,1.08.69,2.21.98,3.91Z"/><path class="cls-2" d="M221.47,228.94c.53.82.16,1.86.22,2.75-3.65-2.85-3.74-2.87-7.79-.98l2.65-3.78c1.1-.31,4.57,1.48,4.92,2.02Z"/><path class="cls-2" d="M301.77,283.44c-4.42.48-.42-7.39-.96-9.75l.96,9.75Z"/><path class="cls-2" d="M202.16,303.95c-.13,2.87,2.58,6.8-1.94,6.82l-.96-5.37,2.9-1.46Z"/><path class="cls-2" d="M331.06,261.96c-3.62-1.68-5.86-5.24-8.78-7.8,3.3.84,8.13,4.17,8.78,7.8Z"/><path class="cls-2" d="M174.83,245.37c.38.36-3.83,4.97-4.88,3.89l.89-3.28,3.99-.61Z"/><path class="cls-2" d="M282.24,227.79l-1.45,2.93-3.42,1.94c-.69-.65,3.28-5.43,4.87-4.87Z"/><polygon class="cls-2" points="272.48 380.13 270.5 384.01 267.62 382.56 272.48 380.13"/><rect class="cls-2" x="320.53" y="239.67" width="1.99" height="6.23" transform="translate(-65.16 355.9) rotate(-53.36)"/><polygon class="cls-2" points="320.32 250.26 318.39 252.17 313.5 246.34 320.32 250.26"/><rect class="cls-2" x="198.26" y="296.13" width="3.92" height="1.96" transform="translate(-97.44 496.52) rotate(-89.84)"/><polygon class="cls-2" points="201.19 292.22 199.25 292.22 199.25 288.32 201.19 292.22"/><path class="cls-2" d="M289.07,220.95c.32,1.78-1.08,3.23-2.92,2.92-.32-1.78,1.08-3.23,2.92-2.92Z"/><path class="cls-2" d="M209.99,223.87l.47-4.87c2.15,1.51,2.14,3.94-.47,4.87Z"/><path class="cls-2" d="M308.6,214.1c-1.78.32-3.23-1.08-2.92-2.92,1.78-.32,3.23,1.08,2.92,2.92Z"/><polygon class="cls-2" points="201.19 267.82 200.71 271.72 199.25 267.82 201.19 267.82"/><path class="cls-2" d="M292,240.49c-.49,3.03-5.51-1.33-4.87-1.96l4.87,1.96Z"/><rect class="cls-2" x="297.87" y="304.93" width="1.94" height="2.92"/><path class="cls-2" d="M300.79,265.86c-2.4.66-1.99-1.23-2.92-2.91,1.78-.34,3.24,1.07,2.92,2.91Z"/><circle class="cls-2" cx="299.84" cy="294.16" r="1.21"/><circle class="cls-2" cx="213.91" cy="235.57" r="1.21"/><circle class="cls-2" cx="210" cy="240.46" r="1.21"/><circle class="cls-2" cx="311.56" cy="245.34" r="1.21"/><circle class="cls-2" cx="200.24" cy="265.84" r="1.21"/><circle class="cls-2" cx="369.17" cy="366.42" r="1.21"/><circle class="cls-2" cx="299.84" cy="267.8" r="1.21"/><path class="cls-2" d="M371.1,402.56c-1.58,1.88-3.28-2.98-.98-1.46.4.41,1.29,1.08.98,1.46Z"/><path class="cls-2" d="M127.96,420.14c-1.58,1.88-3.28-2.98-.98-1.46.4.41,1.29,1.08.98,1.46Z"/><path class="cls-2" d="M141.63,448.46c-1.58,1.88-3.28-2.98-.98-1.46.4.41,1.29,1.08.98,1.46Z"/><rect class="cls-2" x="298.85" y="302" width=".95" height="1.94"/><path class="cls-3" d="M206.05,416.22c-.11.22-3.59,1.82-3.87,2.95l3.41-4.88c.75-.16.68,1.49.46,1.92Z"/></svg>